<svg width="28" height="28" viewBox="0 0 28 28" fill="none" xmlns="http://www.w3.org/2000/svg">
<rect width="28" height="28" rx="2" fill="#4B2942"/>
<path fill-rule="evenodd" clip-rule="evenodd" d="M16.3431 9H4V18H21.4648C21.7992 18 22.1114 17.8329 22.2969 17.5547L23.0905 16.3642C23.6193 15.571 23.5147 14.5148 22.8406 13.8406L19.1716 10.1716C18.4214 9.42143 17.404 9 16.3431 9ZM17.7071 11C17.2617 11 17.0386 11.5386 17.3536 11.8536L17.8536 12.3536C17.9473 12.4473 18.0745 12.5 18.2071 12.5H18.7929C19.2383 12.5 19.4614 11.9614 19.1464 11.6464L18.6464 11.1464C18.5527 11.0527 18.4255 11 18.2929 11H17.7071Z" fill="white"/>
<path d="M4 19H22V20H4V19Z" fill="white"/>
<path fill-rule="evenodd" clip-rule="evenodd" d="M12.5 7.5C12.5 7.22386 12.7239 7 13 7H16C16.2022 7 16.3845 7.12182 16.4619 7.30866C16.5393 7.4955 16.4966 7.71055 16.3536 7.85355L14.3536 9.85355C14.1583 10.0488 13.8417 10.0488 13.6464 9.85355C13.4512 9.65829 13.4512 9.34171 13.6464 9.14645L14.7929 8H13C12.7239 8 12.5 7.77614 12.5 7.5Z" fill="white"/>
</svg>
