<svg width="28" height="28" viewBox="0 0 28 28" fill="none" xmlns="http://www.w3.org/2000/svg">
<rect width="28" height="28" rx="2" fill="#A2AD00"/>
<rect width="20" height="20" transform="translate(4 4)" fill="#A2AD00"/>
<path fill-rule="evenodd" clip-rule="evenodd" d="M4.83578 9.84334C4.91637 9.35984 5.3347 9.00546 5.82487 9.00546H22.1751C22.6653 9.00546 23.0836 9.35984 23.1642 9.84334L23.9864 14.7762C24.0132 14.9375 24.0003 15.103 23.9485 15.2581L23.2531 17.3444C23.1166 17.7538 22.7335 18.03 22.3018 18.03H5.69816C5.26655 18.03 4.88337 17.7538 4.74688 17.3444L4.05146 15.2581C3.99974 15.103 3.98676 14.9375 4.01364 14.7762L4.83578 9.84334ZM19.515 11.5123C19.515 11.2354 19.7395 11.0109 20.0164 11.0109H21.8478C22.0929 11.0109 22.3021 11.1881 22.3423 11.4299L22.6766 13.4353C22.7275 13.7409 22.4919 14.0191 22.182 14.0191H20.0164C19.7395 14.0191 19.515 13.7946 19.515 13.5177V11.5123ZM6.1522 11.0109C5.90711 11.0109 5.69795 11.1881 5.65765 11.4299L5.32341 13.4353C5.27248 13.7409 5.50814 14.0191 5.81795 14.0191H7.98362C8.26052 14.0191 8.48498 13.7946 8.48498 13.5177V11.5123C8.48498 11.2354 8.26052 11.0109 7.98362 11.0109H6.1522ZM14.5014 11.5123C14.5014 11.2354 14.7258 11.0109 15.0027 11.0109H18.0109C18.2878 11.0109 18.5123 11.2354 18.5123 11.5123V13.5177C18.5123 13.7946 18.2878 14.0191 18.0109 14.0191H15.0027C14.7258 14.0191 14.5014 13.7946 14.5014 13.5177V11.5123ZM9.98908 11.0109C9.71218 11.0109 9.48771 11.2354 9.48771 11.5123V13.5177C9.48771 13.7946 9.71218 14.0191 9.98908 14.0191H12.9973C13.2742 14.0191 13.4986 13.7946 13.4986 13.5177V11.5123C13.4986 11.2354 13.2742 11.0109 12.9973 11.0109H9.98908Z" fill="black"/>
<path d="M4.97543 19.0328H23.0246V20.0355H4.97543V19.0328Z" fill="black"/>
<path fill-rule="evenodd" clip-rule="evenodd" d="M12.4959 7.50137C12.4959 7.22447 12.7204 7 12.9973 7H16.0055C16.2082 7 16.3911 7.12215 16.4687 7.3095C16.5463 7.49685 16.5034 7.71249 16.36 7.85588L14.3545 9.86134C14.1587 10.0571 13.8413 10.0571 13.6455 9.86134C13.4497 9.66555 13.4497 9.3481 13.6455 9.15231L14.7951 8.00273H12.9973C12.7204 8.00273 12.4959 7.77826 12.4959 7.50137Z" fill="black"/>
</svg>
