<svg width="40" height="40" viewBox="0 0 40 40" fill="none" xmlns="http://www.w3.org/2000/svg">
    <path fill-rule="evenodd" clip-rule="evenodd"
        d="M2 8C2 6.89543 2.89543 6 4 6H36C37.1046 6 38 6.89543 38 8V16C38 17.0976 37.1159 17.9887 36.0209 17.9999C36.0145 18.0001 35.9972 18.0008 35.9706 18.0027C35.9144 18.0067 35.8211 18.0157 35.7038 18.0353C35.4598 18.076 35.165 18.1536 34.8944 18.2889C34.6317 18.4202 34.4298 18.5859 34.2891 18.7969C34.1568 18.9954 34 19.35 34 20C34 20.65 34.1568 21.0046 34.2891 21.2031C34.4298 21.4141 34.6317 21.5798 34.8944 21.7111C35.165 21.8464 35.4598 21.924 35.7038 21.9647C35.8211 21.9843 35.9144 21.9933 35.9706 21.9973C35.9972 21.9992 36.0145 21.9999 36.0209 22.0001C37.1159 22.0113 38 22.9024 38 24V32C38 33.1046 37.1046 34 36 34H4C2.89543 34 2 33.1046 2 32V24C2 22.9024 2.88414 22.0113 3.97906 22.0001C3.98548 21.9999 4.00277 21.9992 4.02938 21.9973C4.08559 21.9933 4.17893 21.9843 4.2962 21.9647C4.54022 21.924 4.835 21.8464 5.10557 21.7111C5.36831 21.5798 5.57021 21.4141 5.7109 21.2031C5.84324 21.0046 6 20.65 6 20C6 19.35 5.84324 18.9954 5.7109 18.7969C5.57021 18.5859 5.36831 18.4202 5.10557 18.2889C4.835 18.1536 4.54022 18.076 4.2962 18.0353C4.17893 18.0157 4.08559 18.0067 4.02938 18.0027C4.00277 18.0008 3.98548 18.0001 3.97906 17.9999C2.88414 17.9887 2 17.0976 2 16V8ZM6 14.3453C6.28518 14.4384 6.58766 14.5578 6.89443 14.7111C7.63169 15.0798 8.42979 15.6641 9.0391 16.5781C9.65676 17.5046 10 18.65 10 20C10 21.35 9.65676 22.4954 9.0391 23.4219C8.42979 24.3359 7.63169 24.9202 6.89443 25.2889C6.58766 25.4422 6.28518 25.5616 6 25.6547V30H34V25.6547C33.7148 25.5616 33.4123 25.4422 33.1056 25.2889C32.3683 24.9202 31.5702 24.3359 30.9609 23.4219C30.3432 22.4954 30 21.35 30 20C30 18.65 30.3432 17.5046 30.9609 16.5781C31.5702 15.6641 32.3683 15.0798 33.1056 14.7111C33.4123 14.5578 33.7148 14.4384 34 14.3453V10H6V14.3453Z"
        fill="black" />
</svg>