<svg width="40" height="40" viewBox="0 0 40 40" fill="none" xmlns="http://www.w3.org/2000/svg">
<path d="M24.8676 11.3793H15.1331V28.8724H24.8676V11.3793Z" fill="#FF5F00"/>
<path d="M15.751 20.1251C15.7495 18.4404 16.1312 16.7774 16.8674 15.2621C17.6036 13.7467 18.6749 12.4187 20.0002 11.3786C18.359 10.0885 16.388 9.28631 14.3124 9.06354C12.2368 8.84077 10.1404 9.20644 8.26288 10.1188C6.38532 11.0311 4.80231 12.4533 3.69481 14.2228C2.58731 15.9923 2 18.0377 2 20.1251C2 22.2126 2.58731 24.258 3.69481 26.0275C4.80231 27.797 6.38532 29.2192 8.26288 30.1315C10.1404 31.0439 12.2368 31.4095 14.3124 31.1868C16.388 30.964 18.359 30.1617 20.0002 28.8717C18.6749 27.8316 17.6036 26.5036 16.8674 24.9882C16.1313 23.4728 15.7495 21.8099 15.751 20.1251Z" fill="#EB001B"/>
<path d="M38 20.1252C38.0001 22.2127 37.4128 24.258 36.3054 26.0275C35.1979 27.797 33.615 29.2192 31.7375 30.1315C29.8599 31.0439 27.7636 31.4096 25.688 31.1868C23.6125 30.964 21.6415 30.1618 20.0004 28.8718C21.3245 27.8306 22.3949 26.5024 23.131 24.9873C23.867 23.4721 24.2495 21.8097 24.2495 20.1252C24.2495 18.4408 23.867 16.7783 23.131 15.2632C22.3949 13.748 21.3245 12.4198 20.0004 11.3786C21.6415 10.0886 23.6125 9.28637 25.688 9.0636C27.7636 8.84083 29.8599 9.20652 31.7375 10.1189C33.615 11.0312 35.1979 12.4534 36.3054 14.2229C37.4128 15.9924 38.0001 18.0377 38 20.1252Z" fill="#F79E1B"/>
</svg>
