<svg width="40" height="40" viewBox="0 0 40 40" fill="none" xmlns="http://www.w3.org/2000/svg">
    <path fill-rule="evenodd" clip-rule="evenodd"
        d="M29.1329 17.625C29.0943 17.5671 29 17.4 29 17C29 16.6 29.0943 16.4329 29.1329 16.375C29.1798 16.3046 29.2567 16.2327 29.3944 16.1639C29.54 16.0911 29.7098 16.0447 29.86 16.0197C29.9304 16.0079 29.9847 16.0028 30.0136 16.0008L30.0294 15.9998C31.1204 15.9841 32 15.0947 32 14V8C32 6.89543 31.1046 6 30 6H6C4.89543 6 4 6.89543 4 8V14C4 15.0947 4.87957 15.9841 5.97058 15.9998L5.98641 16.0008C6.01527 16.0028 6.06956 16.0079 6.13995 16.0197C6.29022 16.0447 6.46 16.0911 6.60557 16.1639C6.74331 16.2327 6.82021 16.3046 6.86715 16.375C6.90574 16.4329 7 16.6 7 17C7 17.4 6.90574 17.5671 6.86715 17.625C6.82021 17.6954 6.74331 17.7673 6.60557 17.8361C6.46 17.9089 6.29022 17.9553 6.13995 17.9803C6.06956 17.9921 6.01527 17.9972 5.98641 17.9992L5.97058 18.0002C4.87957 18.0159 4 18.9053 4 20V26C4 27.1046 4.89543 28 6 28H30C31.1046 28 32 27.1046 32 26V20C32 18.9053 31.1204 18.0159 30.0294 18.0002L30.0136 17.9992C29.9847 17.9972 29.9304 17.9921 29.86 17.9803C29.7098 17.9553 29.54 17.9089 29.3944 17.8361C29.2567 17.7673 29.1798 17.6954 29.1329 17.625ZM8 12.4089V10H28V12.4089C27.8707 12.4608 27.7387 12.5196 27.6056 12.5861C26.9933 12.8923 26.3202 13.3829 25.8046 14.1562C25.2807 14.9421 25 15.9 25 17C25 18.1 25.2807 19.0579 25.8046 19.8438C26.3202 20.6171 26.9933 21.1077 27.6056 21.4139C27.7387 21.4804 27.8707 21.5392 28 21.5911V24H8V21.5911C8.12928 21.5392 8.26126 21.4804 8.39443 21.4139C9.00669 21.1077 9.67979 20.6171 10.1954 19.8438C10.7193 19.0579 11 18.1 11 17C11 15.9 10.7193 14.9421 10.1954 14.1562C9.67979 13.3829 9.00669 12.8923 8.39443 12.5861C8.26126 12.5196 8.12928 12.4608 8 12.4089Z"
        fill="black" />
    <path d="M34 12V30H8V34H36C37.1046 34 38 33.1046 38 32V12H34Z" fill="black" />
</svg>