<svg width="40" height="40" viewBox="0 0 40 40" fill="none" xmlns="http://www.w3.org/2000/svg">
    <path
        d="M25.5858 13.5858L18 21.1716L14.4142 17.5858L11.5858 20.4142L16.5858 25.4142C17.3668 26.1953 18.6332 26.1953 19.4142 25.4142L28.4142 16.4142L25.5858 13.5858Z"
        fill="black" />
    <path fill-rule="evenodd" clip-rule="evenodd"
        d="M4 6C2.89543 6 2 6.89543 2 8V16C2 17.0976 2.88414 17.9887 3.97906 17.9999C3.98548 18.0001 4.00277 18.0008 4.02938 18.0027C4.08559 18.0067 4.17893 18.0157 4.2962 18.0353C4.54022 18.076 4.835 18.1536 5.10557 18.2889C5.36831 18.4202 5.57021 18.5859 5.7109 18.7969C5.84324 18.9954 6 19.35 6 20C6 20.65 5.84324 21.0046 5.7109 21.2031C5.57021 21.4141 5.36831 21.5798 5.10557 21.7111C4.835 21.8464 4.54022 21.924 4.2962 21.9647C4.17893 21.9843 4.08559 21.9933 4.02938 21.9973C4.00277 21.9992 3.98548 21.9999 3.97906 22.0001C2.88414 22.0113 2 22.9024 2 24V32C2 33.1046 2.89543 34 4 34H36C37.1046 34 38 33.1046 38 32V24C38 22.9024 37.1159 22.0113 36.0209 22.0001C36.0145 21.9999 35.9972 21.9992 35.9706 21.9973C35.9144 21.9933 35.8211 21.9843 35.7038 21.9647C35.4598 21.924 35.165 21.8464 34.8944 21.7111C34.6317 21.5798 34.4298 21.4141 34.2891 21.2031C34.1568 21.0046 34 20.65 34 20C34 19.35 34.1568 18.9954 34.2891 18.7969C34.4298 18.5859 34.6317 18.4202 34.8944 18.2889C35.165 18.1536 35.4598 18.076 35.7038 18.0353C35.8211 18.0157 35.9144 18.0067 35.9706 18.0027C35.9972 18.0008 36.0145 18.0001 36.0209 17.9999C37.1159 17.9887 38 17.0976 38 16V8C38 6.89543 37.1046 6 36 6H4ZM6.89443 14.7111C6.58766 14.5578 6.28518 14.4384 6 14.3453V10H34V14.3453C33.7148 14.4384 33.4123 14.5578 33.1056 14.7111C32.3683 15.0798 31.5702 15.6641 30.9609 16.5781C30.3432 17.5046 30 18.65 30 20C30 21.35 30.3432 22.4954 30.9609 23.4219C31.5702 24.3359 32.3683 24.9202 33.1056 25.2889C33.4123 25.4422 33.7148 25.5616 34 25.6547V30H6V25.6547C6.28518 25.5616 6.58766 25.4422 6.89443 25.2889C7.63169 24.9202 8.42979 24.3359 9.0391 23.4219C9.65676 22.4954 10 21.35 10 20C10 18.65 9.65676 17.5046 9.0391 16.5781C8.42979 15.6641 7.63169 15.0798 6.89443 14.7111Z"
        fill="black" />
</svg>