<svg width="40" height="40" viewBox="0 0 40 40" fill="none" xmlns="http://www.w3.org/2000/svg">
    <path d="M35.375 8H4.625C3.17525 8 2 9.17525 2 10.625V29.375C2 30.8247 3.17525 32 4.625 32H35.375C36.8247 32 38 30.8247 38 29.375V10.625C38 9.17525 36.8247 8 35.375 8Z" fill="#FF5B24"/>
    <path fill-rule="evenodd" clip-rule="evenodd" d="M22.898 17.1969C23.9308 17.1969 24.8158 16.4128 24.8158 15.2859H24.816C24.816 14.1587 23.9308 13.3749 22.898 13.3749C21.8655 13.3749 20.9806 14.1587 20.9806 15.2859C20.9806 16.4128 21.8655 17.1969 22.898 17.1969ZM25.4058 20.2846C24.127 21.9503 22.7748 23.102 20.3898 23.102H20.3902C17.9569 23.102 16.0633 21.6319 14.5883 19.4758C13.998 18.5936 13.0884 18.3977 12.4245 18.8632C11.8099 19.3044 11.6628 20.2354 12.2279 21.0442C14.2683 24.1559 17.0956 25.9687 20.3898 25.9687C23.4142 25.9687 25.7746 24.4989 27.6182 22.0486C28.3064 21.1421 28.2819 20.2111 27.6182 19.6964C27.0034 19.2059 26.0938 19.3782 25.4058 20.2846Z" fill="white"/>
</svg>
