<svg width="40" height="40" viewBox="0 0 40 40" fill="none" xmlns="http://www.w3.org/2000/svg">
    <path
        d="M20.2748 25.3C23.9748 25.3 26.0748 23.5 28.0748 20.9C29.1748 19.5 30.5748 19.2 31.5748 20C32.5748 20.8 32.6748 22.3 31.5748 23.7C28.6748 27.5 24.9748 29.8 20.2748 29.8C15.1748 29.8 10.6748 27 7.57475 22.1C6.67475 20.8 6.87475 19.4 7.87475 18.7C8.87475 18 10.3748 18.3 11.2748 19.7C13.4748 23 16.4748 25.3 20.2748 25.3ZM27.1747 13C27.1747 14.8 25.7748 16 24.1748 16C22.5748 16 21.1748 14.8 21.1748 13C21.1748 11.2 22.5748 10 24.1748 10C25.7748 10 27.1747 11.3 27.1747 13Z"
        fill="black" />
</svg>