<svg width="40" height="40" viewBox="0 0 40 40" fill="none" xmlns="http://www.w3.org/2000/svg">
    <path d="M38 30.3719C38 31.1157 37.405 31.7107 36.6612 31.7107H3.33884C2.59504 31.7107 2 31.1157 2 30.3719V10.3388C2 9.59504 2.59504 9 3.33884 9H36.6612C37.405 9 38 9.59504 38 10.3388V30.3719Z" fill="#1A1F71"/>
    <path d="M15.6861 15.5951L11.6696 25.1654H9.04147L7.058 17.529C6.95882 17.0827 6.81006 16.8844 6.46296 16.686C5.86791 16.3885 4.87618 16.0414 4.0332 15.8926L4.08279 15.5951H8.29767C8.84312 15.5951 9.33899 15.9422 9.43816 16.5868L10.4795 22.1406L13.058 15.6447H15.6861V15.5951ZM25.9506 22.0414C25.9506 19.5125 22.4795 19.3637 22.4795 18.2728C22.4795 17.9257 22.8266 17.5786 23.5208 17.4794C23.8679 17.4298 24.8597 17.3802 25.9506 17.9257L26.3968 15.8926C25.8018 15.6943 25.058 15.4464 24.0663 15.4464C21.6365 15.4464 19.901 16.7356 19.901 18.6199C19.901 20.0083 21.1406 20.7521 22.0828 21.1984C23.0249 21.6447 23.3721 21.9422 23.3721 22.3885C23.3721 23.0331 22.6282 23.3307 21.8844 23.3307C20.6448 23.3307 19.901 22.9835 19.3555 22.7356L18.9092 24.8183C19.5043 25.0662 20.5456 25.3141 21.6365 25.3141C24.215 25.3141 25.901 24.0249 25.9506 22.0414ZM32.3968 25.1654H34.6778L32.6944 15.5951H30.5621C30.0663 15.5951 29.6696 15.8926 29.5208 16.2893L25.8018 25.1654H28.3803L28.8762 23.7273H32.0497L32.3968 25.1654ZM29.62 21.7935L30.9092 18.2232L31.653 21.7935H29.62ZM19.2068 15.5951L17.1737 25.1654H14.6944L16.7274 15.5951H19.2068Z" fill="white"/>
</svg>
