<svg width="40" height="40" viewBox="0 0 40 40" fill="none" xmlns="http://www.w3.org/2000/svg">
    <path
        d="M25.5858 13.5858L18 21.1716L14.4142 17.5858L11.5858 20.4142L16.5858 25.4142C17.3668 26.1953 18.6332 26.1953 19.4142 25.4142L28.4142 16.4142L25.5858 13.5858Z"
        fill="black" />
    <path fill-rule="evenodd" clip-rule="evenodd"
        d="M20 2C10.0589 2 2 10.0589 2 20C2 29.9411 10.0589 38 20 38C29.9411 38 38 29.9411 38 20C38 10.0589 29.9411 2 20 2ZM6 20C6 12.268 12.268 6 20 6C27.732 6 34 12.268 34 20C34 27.732 27.732 34 20 34C12.268 34 6 27.732 6 20Z"
        fill="black" />
</svg>