<svg width="40" height="40" viewBox="0 0 40 40" fill="none" xmlns="http://www.w3.org/2000/svg">
<path fill-rule="evenodd" clip-rule="evenodd" d="M34 20C34 27.732 27.732 34 20 34C12.268 34 6 27.732 6 20C6 12.268 12.268 6 20 6C27.732 6 34 12.268 34 20ZM18 19C18 18.4477 18.4477 18 19 18H21C21.5523 18 22 18.4477 22 19V27C22 27.5523 21.5523 28 21 28H19C18.4477 28 18 27.5523 18 27V19ZM19 12C18.4477 12 18 12.4477 18 13V15C18 15.5523 18.4477 16 19 16H21C21.5523 16 22 15.5523 22 15V13C22 12.4477 21.5523 12 21 12H19Z" fill="black"/>
</svg>
