<svg width="40" height="40" viewBox="0 0 40 40" fill="none" xmlns="http://www.w3.org/2000/svg">
    <path d="M22 12V16H18V12H22Z" fill="black" />
    <path d="M18 18V28H22V18H18Z" fill="black" />
    <path fill-rule="evenodd" clip-rule="evenodd"
        d="M2 20C2 10.0589 10.0589 2 20 2C29.9411 2 38 10.0589 38 20C38 29.9411 29.9411 38 20 38C10.0589 38 2 29.9411 2 20ZM20 6C12.268 6 6 12.268 6 20C6 27.732 12.268 34 20 34C27.732 34 34 27.732 34 20C34 12.268 27.732 6 20 6Z"
        fill="black" />
</svg>