<svg width="40" height="40" viewBox="0 0 40 40" fill="none" xmlns="http://www.w3.org/2000/svg">
    <path d="M22 26V30H18V26H22Z" fill="black" />
    <path fill-rule="evenodd" clip-rule="evenodd"
        d="M18 16C18 14.8954 18.8954 14 20 14C21.1046 14 22 14.8954 22 16C22 16.7544 21.5831 17.4143 20.9576 17.7567C20.3371 18.0964 19.6407 18.5815 19.0775 19.2382C18.5055 19.9051 18 20.8393 18 22V24H22V22.0123C22.0077 21.9906 22.0341 21.9351 22.1138 21.8422C22.2673 21.6632 22.5299 21.4561 22.8783 21.2654C24.7342 20.2494 26 18.274 26 16C26 12.6863 23.3137 10 20 10C16.6863 10 14 12.6863 14 16H18ZM21.9978 22.0194C21.9972 22.0218 21.9973 22.0229 21.9973 22.0229C21.9973 22.0229 21.9985 22.0201 21.9992 22.0147L21.9978 22.0194Z"
        fill="black" />
    <path fill-rule="evenodd" clip-rule="evenodd"
        d="M2 20C2 10.0589 10.0589 2 20 2C29.9411 2 38 10.0589 38 20C38 29.9411 29.9411 38 20 38C10.0589 38 2 29.9411 2 20ZM20 6C12.268 6 6 12.268 6 20C6 27.732 12.268 34 20 34C27.732 34 34 27.732 34 20C34 12.268 27.732 6 20 6Z"
        fill="black" />
</svg>