<svg width="40" height="40" viewBox="0 0 40 40" fill="none" xmlns="http://www.w3.org/2000/svg">
  <path d="M18 12V22H22V12H18Z" fill="black" />
  <path d="M22 24H18V28H22V24Z" fill="black" />
  <path fill-rule="evenodd" clip-rule="evenodd"
    d="M14 2C13.4696 2 12.9609 2.21071 12.5858 2.58579L2.58579 12.5858C2.21071 12.9609 2 13.4696 2 14V26C2 26.5304 2.21071 27.0391 2.58579 27.4142L12.5858 37.4142C12.9609 37.7893 13.4696 38 14 38H26C26.5304 38 27.0391 37.7893 27.4142 37.4142L37.4142 27.4142C37.7893 27.0391 38 26.5304 38 26V14C38 13.4696 37.7893 12.9609 37.4142 12.5858L27.4142 2.58579C27.0391 2.21071 26.5304 2 26 2H14ZM6 14.8284L14.8284 6H25.1716L34 14.8284V25.1716L25.1716 34H14.8284L6 25.1716V14.8284Z"
    fill="black" />
</svg>