<svg width="20" height="20" viewBox="0 0 20 20" fill="none"
  xmlns="http://www.w3.org/2000/svg">
  <path d="M9 6V11H11V6H9Z" fill="black"/>
  <path d="M11 12H9V14H11V12Z" fill="black"/>
  <path fill-rule="evenodd" clip-rule="evenodd" d="M7 1C6.73478 1 6.48043 1.10536 6.29289 1.29289L1.29289 6.29289C1.10536 6.48043 1 6.73478 1 7V13C1 13.2652 1.10536 13.5196 1.29289 13.7071L6.29289 18.7071C6.48043 18.8946 6.73478 19 7 19H13C13.2652 19 13.5196 18.8946 13.7071 18.7071L18.7071 13.7071C18.8946 13.5196 19 13.2652 19 13V7C19 6.73478 18.8946 6.48043 18.7071 6.29289L13.7071 1.29289C13.5196 1.10536 13.2652 1 13 1H7ZM3 7.41421L7.41421 3H12.5858L17 7.41421V12.5858L12.5858 17H7.41421L3 12.5858V7.41421Z" fill="black"/>
</svg>
