<svg width="40" height="40" viewBox="0 0 40 40" fill="none" xmlns="http://www.w3.org/2000/svg">
<g clip-path="url(#clip0)">
<path d="M0 0H39.9999V39.9999H0V0Z" fill="#71D6E0"/>
<path d="M40.0002 6.74407C38.391 7.96177 36.9037 8.78997 35.1565 9.496C29.9858 11.585 23.9192 12.6052 19.74 13.0933C18.8413 13.1984 17.9636 13.2918 17.1141 13.3821L17.0797 13.3857C13.235 13.7947 9.60402 14.1811 6.74181 15.338C5.87618 15.6876 5.11466 16.0902 4.41355 16.5686L4.38761 16.5862L4.23902 16.6837C2.60185 17.7232 0.992297 19.2373 0.000244141 20.2645V14.7868C0.723337 14.2031 1.4369 13.6997 2.07314 13.295L2.16591 13.2337C3.10362 12.5952 4.10897 12.0629 5.23895 11.6064C8.62148 10.2395 12.5237 9.82411 16.6546 9.38473L16.6674 9.38337L16.6675 9.38336C17.5142 9.29332 18.3887 9.20031 19.2743 9.09674C23.209 8.63716 28.897 7.68616 33.6537 5.76461L33.8684 5.65312C37.2113 4.12033 39.0483 1.99148 39.616 0L40.0002 8.51735e-06V6.74407Z" fill="white"/>
<path fill-rule="evenodd" clip-rule="evenodd" d="M30.5008 32.916C30.9002 32.916 31.2535 32.751 31.5611 32.4204C31.8685 32.09 32.0223 31.5788 32.0223 30.8871C32.0223 30.2416 31.8685 29.7498 31.5611 29.4117C31.2535 29.0739 30.9002 28.9046 30.5008 28.9046H29.3019V32.916H30.5008ZM30.3394 25.9995C30.785 25.9995 31.1231 25.8346 31.3536 25.504C31.5845 25.1736 31.6996 24.7858 31.6996 24.3399C31.6996 23.8787 31.5845 23.4793 31.3536 23.1411C31.1231 22.8032 30.785 22.6339 30.3394 22.6339H29.3019V25.9995H30.3394ZM10.1676 22.9106L8.99177 29.8958H11.3893L10.2136 22.9106H10.1676ZM20.6542 36.0067C19.6613 36.0067 19.1313 35.8056 18.8473 35.5902C18.5628 35.3753 18.3554 35.0564 18.2245 34.6334C18.0941 34.2107 18.0289 33.6538 18.0289 32.9621V26.3226H14.5344L16.899 36.0052H12.3345L11.8965 33.1232H8.48439L8.04627 36.0052H3.55132L7.49323 19.5447H12.8878L13.8649 23.5329H18.0289V19.8674H22.1787V23.5329H23.8154V26.3226H22.1787V32.2704C22.1787 32.6243 22.2592 32.8738 22.4207 33.0198C22.5819 33.1659 22.8317 33.2386 23.1699 33.2386H25.0376L25.0311 19.5447H31.4921C33.0286 19.5447 34.1624 19.9174 34.8925 20.6627C35.6226 21.4083 35.9878 22.4033 35.9878 23.648C35.9878 24.0787 35.9374 24.4975 35.838 24.9046C35.7375 25.3121 35.5844 25.681 35.3764 26.0112C35.1693 26.342 34.9041 26.6222 34.5814 26.8527C34.2587 27.0832 33.8664 27.2447 33.4056 27.3368V27.3828C33.9433 27.429 34.4044 27.5713 34.7888 27.8092C35.1726 28.048 35.488 28.3438 35.734 28.6969C35.9798 29.0508 36.1605 29.4387 36.2757 29.8611C36.391 30.2842 36.4486 30.7107 36.4486 31.1407C36.4486 31.8479 36.3563 32.5009 36.1719 33.1005C35.9878 33.6999 35.6993 34.2149 35.3075 34.645C34.9156 35.0753 34.4044 35.4098 33.7744 35.648C33.144 35.8861 32.3832 36.0052 31.4921 36.0052H24.9326L20.6542 36.0067Z" fill="white"/>
</g>
<defs>
<clipPath id="clip0">
<rect width="40" height="40" fill="white"/>
</clipPath>
</defs>
</svg>
