<svg width="28" height="28" viewBox="0 0 28 28" fill="none" xmlns="http://www.w3.org/2000/svg">
<rect width="28" height="28" rx="2" fill="#71D6E0"/>
<g clip-path="url(#clip0_4_155)">
<path fill-rule="evenodd" clip-rule="evenodd" d="M3.88194 20L2.77637 19.4472L3.22358 18.5528L4.32915 19.1056C4.75145 19.3167 5.2485 19.3167 5.67079 19.1056L5.88194 19C6.58576 18.6481 7.41419 18.6481 8.11801 19L8.32915 19.1056C8.75144 19.3167 9.2485 19.3167 9.67079 19.1056L9.88194 19C10.5858 18.6481 11.4142 18.6481 12.118 19L12.3292 19.1056C12.7514 19.3167 13.2485 19.3167 13.6708 19.1056L13.8819 19C14.5858 18.6481 15.4142 18.6481 16.118 19L16.3292 19.1056C16.7514 19.3167 17.2485 19.3167 17.6708 19.1056L17.8819 19C18.5858 18.6481 19.4142 18.6481 20.118 19L20.3292 19.1056C20.7514 19.3167 21.2485 19.3167 21.6708 19.1056L21.8819 19C22.5858 18.6481 23.4142 18.6481 24.118 19L25.2236 19.5528L24.7764 20.4472L23.6708 19.8944C23.2485 19.6833 22.7514 19.6833 22.3292 19.8944L22.118 20C21.4142 20.3519 20.5858 20.3519 19.8819 20L19.6708 19.8944C19.2485 19.6833 18.7514 19.6833 18.3292 19.8944L18.118 20C17.4142 20.3519 16.5858 20.3519 15.8819 20L15.6708 19.8944C15.2485 19.6833 14.7514 19.6833 14.3292 19.8944L14.118 20C13.4142 20.3519 12.5858 20.3519 11.8819 20L11.6708 19.8944C11.2485 19.6833 10.7514 19.6833 10.3292 19.8944L10.118 20C9.41419 20.3519 8.58576 20.3519 7.88194 20L7.67079 19.8944C7.2485 19.6833 6.75145 19.6833 6.32915 19.8944L6.11801 20C5.41419 20.3519 4.58576 20.3519 3.88194 20Z" fill="black"/>
<path d="M9.99997 9.5C9.99997 8.67157 10.6715 8 11.5 8H17.6937L16.7486 10.8353C16.6699 11.0714 16.7768 11.3294 16.9993 11.4407L22.9826 14.4323C23.8984 14.8902 24.0964 16.1107 23.3725 16.8346L21.9717 17.9573C21.9416 17.9709 21.9117 17.9851 21.8819 18L21.6708 18.1056C21.2485 18.3167 20.7514 18.3167 20.3292 18.1056L20.118 18C19.4142 17.6481 18.5858 17.6481 17.8819 18L17.6708 18.1056C17.2485 18.3167 16.7514 18.3167 16.3292 18.1056L16.118 18C15.4142 17.6481 14.5858 17.6481 13.8819 18L13.6708 18.1056C13.2485 18.3167 12.7514 18.3167 12.3292 18.1056L12.118 18C11.4142 17.6481 10.5858 17.6481 9.88194 18L9.67079 18.1056C9.2485 18.3167 8.75144 18.3167 8.32915 18.1056L8.11801 18C7.41419 17.6481 6.58576 17.6481 5.88194 18L5.67079 18.1056C5.2485 18.3167 4.75145 18.3167 4.32915 18.1056L3.99997 17.941V15H21.8819L16.5521 12.3351C16.0342 12.0761 15.7252 11.5524 15.7227 11H14.5C14.2238 11 14 10.7761 14 10.5C14 10.2239 14.2238 10 14.5 10H15.9729L16.3063 9H11.5C11.2238 9 11 9.22386 11 9.5V10H12.5C12.7761 10 13 10.2239 13 10.5C13 10.7761 12.7761 11 12.5 11H3.99997V10H9.99997V9.5Z" fill="black"/>
<path d="M7.49997 12.5H3.99997V13.5H7.49997C7.77612 13.5 7.99997 13.2761 7.99997 13C7.99997 12.7239 7.77612 12.5 7.49997 12.5Z" fill="black"/>
<path d="M8.99997 13C8.99997 12.7239 9.22383 12.5 9.49997 12.5H13.5C13.7761 12.5 14 12.7239 14 13C14 13.2761 13.7761 13.5 13.5 13.5H9.49997C9.22383 13.5 8.99997 13.2761 8.99997 13Z" fill="black"/>
</g>
<defs>
<clipPath id="clip0_4_155">
<rect width="20" height="20" fill="white" transform="translate(4 4)"/>
</clipPath>
</defs>
</svg>
