<svg width="40" height="40" viewBox="0 0 40 40" fill="none" xmlns="http://www.w3.org/2000/svg">
<path fill-rule="evenodd" clip-rule="evenodd" d="M14 14C16.2091 14 18 12.2091 18 10C18 7.79086 16.2091 6 14 6C12.5194 6 11.2267 6.8044 10.5351 8H6C4.89543 8 4 8.89543 4 10C4 11.1046 4.89543 12 6 12H10.5351C11.2267 13.1956 12.5194 14 14 14ZM26 24C28.2091 24 30 22.2091 30 20C30 17.7909 28.2091 16 26 16C24.5194 16 23.2267 16.8044 22.5351 18H6C4.89543 18 4 18.8954 4 20C4 21.1046 4.89543 22 6 22H22.5351C23.2267 23.1956 24.5194 24 26 24ZM18 30C18 32.2091 16.2091 34 14 34C12.5194 34 11.2267 33.1956 10.5351 32H6C4.89543 32 4 31.1046 4 30C4 28.8954 4.89543 28 6 28H10.5351C11.2267 26.8044 12.5194 26 14 26C16.2091 26 18 27.7909 18 30ZM34 32H19.6586C19.8797 31.3744 20 30.7013 20 30C20 29.2987 19.8797 28.6256 19.6586 28H34C35.1046 28 36 28.8954 36 30C36 31.1046 35.1046 32 34 32ZM31.6586 22H34C35.1046 22 36 21.1046 36 20C36 18.8954 35.1046 18 34 18H31.6586C31.8797 18.6256 32 19.2987 32 20C32 20.7013 31.8797 21.3744 31.6586 22ZM34 12H19.6586C19.8797 11.3744 20 10.7013 20 10C20 9.29873 19.8797 8.62556 19.6586 8H34C35.1046 8 36 8.89543 36 10C36 11.1046 35.1046 12 34 12Z" fill="black"/>
</svg>
