<svg width="40" height="40" viewBox="0 0 40 40" fill="none" xmlns="http://www.w3.org/2000/svg">
    <path
        d="M4 12H10.5351C11.2267 13.1956 12.5194 14 14 14C16.2091 14 18 12.2091 18 10C18 7.79086 16.2091 6 14 6C12.5194 6 11.2267 6.8044 10.5351 8H4V12Z"
        fill="black" />
    <path
        d="M4 22H22.5351C23.2267 23.1956 24.5194 24 26 24C28.2091 24 30 22.2091 30 20C30 17.7909 28.2091 16 26 16C24.5194 16 23.2267 16.8044 22.5351 18H4V22Z"
        fill="black" />
    <path
        d="M10.5351 32H4V28H10.5351C11.2267 26.8044 12.5194 26 14 26C16.2091 26 18 27.7909 18 30C18 32.2091 16.2091 34 14 34C12.5194 34 11.2267 33.1956 10.5351 32Z"
        fill="black" />
    <path d="M20 12H36V8H20V12Z" fill="black" />
    <path d="M36 22H32V18H36V22Z" fill="black" />
    <path d="M20 32H36V28H20V32Z" fill="black" />
</svg>