<svg width="40" height="40" viewBox="0 0 40 40" fill="none" xmlns="http://www.w3.org/2000/svg">
<path fill-rule="evenodd" clip-rule="evenodd" d="M8.58579 11.4142C7.80474 10.6332 7.80474 9.36683 8.58579 8.58579C9.36684 7.80474 10.6332 7.80474 11.4142 8.58579L20 17.1716L28.5858 8.58579C29.3668 7.80474 30.6332 7.80474 31.4142 8.58579C32.1953 9.36683 32.1953 10.6332 31.4142 11.4142L22.8284 20L31.4142 28.5858C32.1953 29.3668 32.1953 30.6332 31.4142 31.4142C30.6332 32.1953 29.3668 32.1953 28.5858 31.4142L20 22.8284L11.4142 31.4142C10.6332 32.1953 9.36684 32.1953 8.58579 31.4142C7.80474 30.6332 7.80474 29.3668 8.58579 28.5858L17.1716 20L8.58579 11.4142Z" fill="black"/>
</svg>
