<svg width="40" height="40" viewBox="0 0 40 40" fill="none" xmlns="http://www.w3.org/2000/svg">
    <path
        d="M24 20C24 22.2091 22.2091 24 20 24C17.7909 24 16 22.2091 16 20C16 17.7909 17.7909 16 20 16C22.2091 16 24 17.7909 24 20Z"
        fill="black" />
    <path
        d="M36 20C36 22.2091 34.2091 24 32 24C29.7909 24 28 22.2091 28 20C28 17.7909 29.7909 16 32 16C34.2091 16 36 17.7909 36 20Z"
        fill="black" />
    <path
        d="M12 20C12 22.2091 10.2091 24 8 24C5.79086 24 4 22.2091 4 20C4 17.7909 5.79086 16 8 16C10.2091 16 12 17.7909 12 20Z"
        fill="black" />
</svg>