<svg width="40" height="40" viewBox="0 0 40 40" fill="none" xmlns="http://www.w3.org/2000/svg">
    <path fill-rule="evenodd" clip-rule="evenodd"
        d="M26.5858 4.58579C27.3668 3.80474 28.6332 3.80474 29.4142 4.58579L35.4142 10.5858C36.1953 11.3668 36.1953 12.6332 35.4142 13.4142L13.4142 35.4142C13.0391 35.7893 12.5304 36 12 36H6C4.89543 36 4 35.1046 4 34V28C4 27.4696 4.21071 26.9609 4.58579 26.5858L26.5858 4.58579ZM24.8284 12L28 15.1716L31.1716 12L28 8.82843L24.8284 12ZM25.1716 18L22 14.8284L10.8454 25.9831C12.1805 26.7163 13.2837 27.8195 14.0169 29.1546L25.1716 18ZM10.874 32C10.5122 30.5944 9.40561 29.4878 8 29.126V32H10.874Z"
        fill="black" />
</svg>