<svg width="20" height="20" viewBox="0 0 20 20" fill="none"
  xmlns="http://www.w3.org/2000/svg">
  <path d="M14.7071 4.29289C14.3166 3.90237 13.6834 3.90237 13.2929 4.29289L10.2929 7.29289L11.7071 8.70711L13 7.41421V12.5858L11.7071 11.2929L10.2929 12.7071L13.2929 15.7071C13.6834 16.0976 14.3166 16.0976 14.7071 15.7071L17.7071 12.7071L16.2929 11.2929L15 12.5858V7.41421L16.2929 8.70711L17.7071 7.29289L14.7071 4.29289Z" fill="black"/>
  <path d="M2 7H9V5H2V7Z" fill="black"/>
  <path d="M2 11H9V9H2V11Z" fill="black"/>
  <path d="M9 15H2V13H9V15Z" fill="black"/>
</svg>
