<svg width="40" height="40" viewBox="0 0 40 40" fill="none" xmlns="http://www.w3.org/2000/svg">
    <path fill-rule="evenodd" clip-rule="evenodd"
        d="M16 2C8.26801 2 2 8.26801 2 16C2 23.732 8.26801 30 16 30C19.1447 30 22.0472 28.9632 24.3844 27.2128L34.5858 37.4142L37.4142 34.5858L27.2128 24.3843C28.9632 22.0472 30 19.1447 30 16C30 8.26801 23.732 2 16 2ZM6 16C6 10.4772 10.4772 6 16 6C21.5228 6 26 10.4772 26 16C26 21.5228 21.5228 26 16 26C10.4772 26 6 21.5228 6 16Z"
        fill="black" />
</svg>