<svg width="40" height="40" viewBox="0 0 40 40" fill="none" xmlns="http://www.w3.org/2000/svg">
<path fill-rule="evenodd" clip-rule="evenodd" d="M26 28C26 29.1046 26.8954 30 28 30C29.1046 30 30 29.1046 30 28L30 12.8284L32.5858 15.4142C33.3669 16.1953 34.6332 16.1953 35.4142 15.4142C36.1953 14.6332 36.1953 13.3668 35.4142 12.5858L29.4192 6.59073C29.4036 6.57512 29.3879 6.55976 29.3719 6.54467C29.1924 6.37524 28.9891 6.24535 28.7733 6.15497C28.5354 6.05515 28.2742 6 28 6C27.731 6 27.4744 6.05312 27.2401 6.14944C27.0021 6.24706 26.7791 6.39251 26.5858 6.58579L20.5858 12.5858C19.8047 13.3668 19.8047 14.6332 20.5858 15.4142C21.3668 16.1953 22.6332 16.1953 23.4142 15.4142L26 12.8284L26 28ZM11.2344 33.8482C11.4702 33.946 11.7288 34 12 34C12.5118 34 13.0237 33.8047 13.4142 33.4142L19.4142 27.4142C20.1953 26.6332 20.1953 25.3668 19.4142 24.5858C18.6332 23.8047 17.3669 23.8047 16.5858 24.5858L14 27.1716L14 12C14 10.8954 13.1046 10 12 10C10.8954 10 10 10.8954 10 12L10 27.1716L7.41421 24.5858C6.63317 23.8047 5.36684 23.8047 4.58579 24.5858C3.80474 25.3668 3.80474 26.6332 4.58579 27.4142L10.5841 33.4126L10.5994 33.4277C10.788 33.6128 11.0041 33.753 11.2344 33.8482Z" fill="black"/>
</svg>
