<svg width="20" height="11" viewBox="0 0 20 11" fill="none" xmlns="http://www.w3.org/2000/svg">
<path fill-rule="evenodd" clip-rule="evenodd" d="M0 1C0 0.447715 0.447715 0 1 0H18.1529C18.6417 0 19.0589 0.353413 19.1393 0.835601L19.9864 5.91836C19.9954 5.97269 20 6.02768 20 6.08276V8C20 8.55229 19.5523 9 19 9H17.95C17.7184 7.85888 16.7095 7 15.5 7C14.2905 7 13.2816 7.85888 13.05 9H6.94999C6.71836 7.85888 5.70948 7 4.5 7C3.29052 7 2.28164 7.85888 2.05001 9H1C0.447716 9 0 8.55229 0 8V1ZM1 2.5C1 2.22386 1.22386 2 1.5 2H2.5C2.77614 2 3 2.22386 3 2.5V4.5C3 4.77614 2.77614 5 2.5 5H1.5C1.22386 5 1 4.77614 1 4.5V2.5ZM16.5 2C16.2239 2 16 2.22386 16 2.5V4.5C16 4.77614 16.2239 5 16.5 5H18.1598C18.4687 5 18.7038 4.72257 18.653 4.4178L18.3196 2.4178C18.2795 2.17671 18.0709 2 17.8264 2H16.5ZM4 2.5C4 2.22386 4.22386 2 4.5 2H8.5C8.77614 2 9 2.22386 9 2.5V4.5C9 4.77614 8.77614 5 8.5 5H4.5C4.22386 5 4 4.77614 4 4.5V2.5ZM10.5 2C10.2239 2 10 2.22386 10 2.5V4.5C10 4.77614 10.2239 5 10.5 5H14.5C14.7761 5 15 4.77614 15 4.5V2.5C15 2.22386 14.7761 2 14.5 2H10.5Z" fill="black"/>
<path d="M17 9.5C17 10.3284 16.3284 11 15.5 11C14.6716 11 14 10.3284 14 9.5C14 8.67157 14.6716 8 15.5 8C16.3284 8 17 8.67157 17 9.5Z" fill="black"/>
<path d="M4.5 11C5.32843 11 6 10.3284 6 9.5C6 8.67157 5.32843 8 4.5 8C3.67157 8 3 8.67157 3 9.5C3 10.3284 3.67157 11 4.5 11Z" fill="black"/>
</svg>
