<svg width="20" height="20" viewBox="0 0 20 20" fill="#878E92"
  xmlns="http://www.w3.org/2000/svg">
  <path fill-rule="evenodd" clip-rule="evenodd" d="M2.5 4C2.22386 4 2 4.22386 2 4.5V8.07567C2 8.32442 2.25125 8.5 2.5 8.5C3.32843 8.5 4 9.17157 4 10C4 10.8284 3.32843 11.5 2.5 11.5C2.25125 11.5 2 11.6756 2 11.9243V15.5C2 15.7761 2.22386 16 2.5 16H17.5C17.7761 16 18 15.7761 18 15.5V11.9243C18 11.6756 17.7488 11.5 17.5 11.5C16.6716 11.5 16 10.8284 16 10C16 9.17157 16.6716 8.5 17.5 8.5C17.7488 8.5 18 8.32442 18 8.07567V4.5C18 4.22386 17.7761 4 17.5 4H2.5ZM9.5 8C9.5 7.72386 9.72386 7.5 10 7.5C10.2761 7.5 10.5 7.72386 10.5 8V9.5H12C12.2761 9.5 12.5 9.72386 12.5 10C12.5 10.2761 12.2761 10.5 12 10.5H10.5V12C10.5 12.2761 10.2761 12.5 10 12.5C9.72386 12.5 9.5 12.2761 9.5 12V10.5H8C7.72386 10.5 7.5 10.2761 7.5 10C7.5 9.72386 7.72386 9.5 8 9.5H9.5V8Z" />
</svg>
