<svg width="40" height="40" viewBox="0 0 40 40" fill="none" xmlns="http://www.w3.org/2000/svg">
<path d="M35.9999 5.93522C35.9999 4.86579 35.1329 4 34.0646 4L12.6641 4.00927C7.87904 4.00961 4 7.88872 4 12.674L4.00891 34.0659C4.00916 35.1366 4.87762 36 5.94401 36H34.0646C35.1307 36 35.9999 35.1368 35.9999 34.0655V5.93522Z" fill="white"/>
<path fill-rule="evenodd" clip-rule="evenodd" d="M30.1701 9.47895C32.2589 8.49594 33.7184 7.25043 34.352 5.45454L12.6647 5.45888C8.68271 5.45888 5.45456 8.68702 5.45456 12.669L5.45601 16.0811C5.92054 15.7131 6.38688 15.3798 6.85347 15.083L6.9215 15.0381C7.60915 14.5698 8.34641 14.1795 9.17506 13.8447C11.6556 12.8423 14.5172 12.5377 17.5466 12.2155L17.5559 12.2145C18.1768 12.1484 18.8182 12.0802 19.4677 12.0043C22.3531 11.6673 26.5243 10.9698 30.0126 9.56071L30.1701 9.47895ZM17.8836 15.1469C18.5066 15.0806 19.1502 15.0122 19.8092 14.9351C22.8739 14.5771 27.3228 13.829 31.1147 12.2971C32.3959 11.7793 33.3795 11.2247 34.5455 10.3778V34.0637C34.5455 34.3292 34.3302 34.5453 34.0647 34.5453H5.94415C5.67865 34.5453 5.46348 34.3292 5.46348 34.0637L5.4577 20.0646C6.1852 19.3114 7.24119 18.3304 8.44178 17.5681L8.55075 17.4966L8.56977 17.4837C9.08392 17.1328 9.64237 16.8376 10.2772 16.5812C12.3761 15.7328 15.0388 15.4495 17.8583 15.1496L17.8836 15.1469Z" fill="#A2AD00"/>
<path fill-rule="evenodd" clip-rule="evenodd" d="M27.6131 29.3641C27.9027 29.3641 28.1588 29.2445 28.3818 29.0048C28.6047 28.7653 28.7162 28.3947 28.7162 27.8932C28.7162 27.4251 28.6047 27.0686 28.3818 26.8235C28.1588 26.5786 27.9027 26.4559 27.6131 26.4559H26.7439V29.3641H27.6131ZM27.4961 24.3497C27.8191 24.3497 28.0643 24.2301 28.2314 23.9904C28.3988 23.7509 28.4822 23.4697 28.4822 23.1464C28.4822 22.8121 28.3988 22.5225 28.2314 22.2773C28.0643 22.0323 27.8191 21.9096 27.4961 21.9096H26.7439V24.3497H27.4961ZM12.8715 22.1102L12.019 27.1745H13.7572L12.9049 22.1102H12.8715ZM20.4743 31.6049C19.7544 31.6049 19.3702 31.4591 19.1643 31.3029C18.958 31.1471 18.8076 30.9159 18.7128 30.6092C18.6182 30.3028 18.5709 29.8991 18.5709 29.3976V24.5839H16.0374L17.7518 31.6038H14.4425L14.125 29.5143H11.6512L11.3335 31.6038H8.07467L10.9326 19.6699H14.8437L15.552 22.5614H18.5709V19.9038H21.5796V22.5614H22.7662V24.5839H21.5796V28.8961C21.5796 29.1526 21.638 29.3335 21.755 29.4393C21.8719 29.5453 22.053 29.598 22.2982 29.598H23.6523L23.6476 19.6699H28.3318C29.4457 19.6699 30.2677 19.9401 30.7971 20.4805C31.3264 21.021 31.5911 21.7423 31.5911 22.6448C31.5911 22.957 31.5547 23.2607 31.4825 23.5558C31.4097 23.8513 31.2987 24.1187 31.1479 24.3581C30.9978 24.598 30.8055 24.8011 30.5715 24.9682C30.3376 25.1353 30.0532 25.2524 29.719 25.3192V25.3526C30.1089 25.386 30.4432 25.4892 30.7219 25.6616C31.0002 25.8348 31.2288 26.0492 31.4072 26.3052C31.5854 26.5618 31.7164 26.8431 31.7999 27.1493C31.8835 27.4561 31.9253 27.7653 31.9253 28.077C31.9253 28.5897 31.8583 29.0632 31.7247 29.4979C31.5911 29.9324 31.382 30.3058 31.098 30.6177C30.8138 30.9296 30.4432 31.1721 29.9865 31.3448C29.5294 31.5175 28.9778 31.6038 28.3318 31.6038H23.5762L20.4743 31.6049Z" fill="white"/>
</svg>
