<svg width="800" height="800" viewBox="0 0 800 800" fill="none" xmlns="http://www.w3.org/2000/svg">
<g clip-path="url(#clip0)">
<rect x="688.138" y="420.87" width="7.0643" height="24.0178" transform="rotate(41.1181 688.138 420.87)" fill="#007C92"/>
<rect x="773.907" y="401.033" width="7.0643" height="87.5943" rx="3.53215" transform="rotate(41.1181 773.907 401.033)" fill="#37424A"/>
<rect width="3.53214" height="16.9538" rx="1.76607" transform="matrix(0.907802 0.419399 -0.419382 0.90781 702.38 353.774)" fill="#37424A"/>
<rect x="740.772" y="421.805" width="22.6058" height="12.7153" rx="6.35765" transform="rotate(41.1181 740.772 421.805)" fill="#37424A"/>
<rect width="7.06413" height="72.7618" transform="matrix(0.946193 -0.323604 0.323633 0.946183 640.931 379.343)" fill="#007C92"/>
<ellipse cx="668.966" cy="448.205" rx="16.9543" ry="16.9537" transform="rotate(41.1181 668.966 448.205)" fill="#2C353B"/>
<path fill-rule="evenodd" clip-rule="evenodd" d="M669.507 330.53L654.322 317.274L590.995 265.746L603.88 226.138C605.863 220.042 604.016 213.351 599.187 209.135L597.999 208.098C587.181 198.655 570.757 199.77 561.314 210.587L558.797 213.471C544.202 230.191 542.667 254.633 555.056 273.047L606.206 349.071C612.089 357.815 619.088 365.752 627.027 372.682L705.42 441.112C714.157 448.739 727.423 447.839 735.05 439.102L746.684 425.774C754.311 417.037 753.411 403.771 744.674 396.144L705.128 361.624C699.276 367.473 687.137 365.61 677.562 357.252C667.987 348.894 664.502 337.119 669.507 330.53Z" fill="#71D6E0"/>
<path d="M641.356 355.768C642.574 356.138 643.7 356.762 644.659 357.599L704.407 409.753C707.052 412.062 707.324 416.078 705.015 418.724C702.706 421.369 698.69 421.641 696.045 419.332L624.085 356.518C621.65 354.392 623.836 350.448 626.929 351.387L641.356 355.768Z" fill="#007C92"/>
<path d="M555.999 247.66C557.32 248.017 558.542 248.67 559.572 249.569L589.146 275.384C590.616 276.667 590.767 278.898 589.484 280.368C588.201 281.838 585.97 281.989 584.501 280.706L552.24 252.546C549.844 250.454 551.923 246.561 554.995 247.389L555.999 247.66Z" fill="#007C92"/>
<ellipse cx="593.294" cy="377.024" rx="13.593" ry="13.593" fill="#C4C4C4"/>
<circle cx="563.681" cy="371.198" r="23.3022" fill="#C4C4C4"/>
<circle cx="539.893" cy="349.838" r="28.6423" fill="#C4C4C4"/>
<circle cx="506.882" cy="339.158" r="29.1278" fill="#C4C4C4"/>
<circle cx="495.716" cy="308.573" r="29.1278" fill="#C4C4C4"/>
<circle cx="452.025" cy="274.106" r="43.6916" fill="#C4C4C4"/>
<circle cx="433.82" cy="217.064" r="49.7599" fill="#C4C4C4"/>
<path d="M32.5006 272.5C32.7703 162.549 121.986 73.5 232 73.5C342.014 73.5 431.23 162.549 431.499 272.5H32.5006Z" fill="white" stroke="#C3C6C9"/>
<path d="M232 73C121.543 73 32 162.543 32 273H432C432 162.543 342.457 73 232 73Z" fill="white" stroke="#C3C6C9" stroke-width="2"/>
<path d="M232 73C149.157 73 82 162.543 82 273H382C382 162.543 314.843 73 232 73Z" fill="white" stroke="#C3C6C9" stroke-width="2"/>
<path d="M232 73C204.386 73 182 162.543 182 273H282C282 162.543 259.614 73 232 73Z" fill="white" stroke="#C3C6C9" stroke-width="2"/>
<path d="M32 273L232 573L432 273" stroke="#37424A" stroke-width="2" stroke-linecap="round" stroke-linejoin="round"/>
<path d="M82 273L232 573L382 273" stroke="#37424A" stroke-width="2" stroke-linecap="round" stroke-linejoin="round"/>
<path d="M182 273L232 573L282 273" stroke="#37424A" stroke-width="2" stroke-linecap="round" stroke-linejoin="round"/>
<path d="M211.703 713.675L210.728 718.385L216.47 730.037L214.884 732.269L196.698 715.777L205.71 708.151L211.703 713.675Z" fill="#323E48"/>
<path d="M233.442 538.86L225.448 538.397L227.339 525.946L235.565 526.708L233.442 538.86Z" fill="#323E48"/>
<path d="M224.984 538.496C224.984 538.496 219.112 539.125 218.316 549.159C218.15 551.146 219.311 568.894 219.311 568.894L216.823 597.041L236.494 597.836L243.758 570.12L245.516 568.464C247.871 566.245 248.402 562.735 246.876 559.888L235.432 538.86L224.984 538.496Z" fill="#323E48"/>
<path d="M244.39 521.833C245.106 514.112 240.526 507.376 234.16 506.788C227.794 506.199 222.052 511.981 221.336 519.702C220.62 527.423 225.2 534.159 231.566 534.748C237.932 535.336 243.674 529.554 244.39 521.833Z" fill="#323E48"/>
<path d="M220.432 511.444C222.553 508.002 222.008 503.82 219.215 502.105C216.422 500.39 212.438 501.791 210.317 505.234C208.196 508.676 208.74 512.858 211.534 514.573C214.327 516.288 218.311 514.887 220.432 511.444Z" fill="#323E48"/>
<path d="M211.417 715.654L199.741 715.754C199.741 715.754 213.606 666.779 216.791 661.182C219.743 656.017 222.96 651.877 222.96 651.877L215.397 615.32L240.474 645.983L211.417 715.654Z" fill="#323E48"/>
<path d="M219.875 593.134L218.084 594.756C213.573 600.849 212.345 608.763 214.866 615.916L240.839 654.924C240.839 654.924 238.417 659.924 237.754 667.176C237.124 674.031 239.579 717.939 239.579 717.939L247.407 718.006L255.069 655.619L236.56 591.544L219.875 593.134Z" fill="#323E48"/>
<path d="M247.467 715.743L246.761 720.5L256.083 734.302L255.066 736.08L233.782 718.66L242.824 711.947L247.467 715.743Z" fill="#323E48"/>
<path d="M227.505 533.297C227.505 533.297 210.322 534.39 215.198 509.356C215.198 509.356 227.472 498.329 241.038 508.462C241.038 508.462 233.708 516.674 230.689 519.191C230.689 519.191 223.69 519.025 228.268 525.052L227.505 533.297Z" fill="#323E48"/>
<path d="M239.645 537.271L238.086 544.357C238.086 544.357 245.317 553.563 248.634 561.842C251.951 570.12 260.308 666.609 260.308 666.609C256.758 666.609 200.808 654.869 200.808 654.869C201.106 649.174 212.146 609.856 212.146 609.856L214.336 573.563L215.464 553.563C216.16 552.636 219.046 543.595 219.046 543.595L222.33 534.82C229.827 541.112 239.645 537.271 239.645 537.271Z" fill="#D7282F"/>
<path d="M214.283 515.989C220.136 526.247 221.477 533.463 221.333 536.139L223.039 534.217C223.072 534.595 226.038 535.917 229.577 536.967C233.5 538.131 239.248 536.515 240.039 536.826C239.828 538.747 241.439 543.348 237.423 543.348C234.154 543.348 220.994 544.675 219.769 542.044C218.066 538.313 214.822 524.654 211.178 519.687C203.63 509.396 196.665 511.882 182.357 499.174C175.998 493.526 165.499 464.748 161.812 453.279L171.897 456.042L181.38 452.011C181.448 460.526 183.155 480.295 189.435 491.245C197.285 504.934 206.968 503.167 214.283 515.989Z" fill="#A2AD00"/>
<path d="M273.763 524.319C273.763 524.319 278.165 512.139 272.585 508.946L267.997 514.915L266.184 528.072L270.149 531.88L273.763 524.319Z" fill="#323E48"/>
<path d="M261.525 560.659C258.102 562.418 244.234 566.058 244.234 566.058L237.81 551.692C239.808 551.264 255.157 549.671 255.157 549.671C255.95 548.09 265.868 523.059 265.868 523.059C266.613 523.55 274.172 525.884 274.172 525.884C273.141 529.445 261.525 560.659 261.525 560.659Z" fill="#D7282F"/>
<path d="M187.296 519.46C187.296 519.46 182.314 507.507 187.734 504.046L192.603 509.786L195.046 522.84L191.27 526.837L187.296 519.46Z" fill="#323E48"/>
<path d="M201.266 555.164C204.77 556.755 218.795 559.716 218.795 559.716L224.521 545.054C222.505 544.723 207.098 543.879 207.098 543.879C206.23 542.338 195.121 517.817 195.121 517.817C194.4 518.344 186.963 521.043 186.963 521.043C188.164 524.55 201.266 555.164 201.266 555.164Z" fill="#D7282F"/>
<path d="M235.067 526.94L239.844 525.649C239.844 525.649 240.474 526.476 239.778 527.238C239.114 528 235.067 526.94 235.067 526.94Z" fill="white"/>
<path d="M235.101 526.94C235.101 526.94 238.385 528.463 239.313 528.628C239.313 528.628 240.541 528.231 239.778 527.238L235.101 526.94Z" fill="white"/>
</g>
<defs>
<clipPath id="clip0">
<rect width="800" height="800" fill="white"/>
</clipPath>
</defs>
</svg>
