<svg width="48" height="48" viewBox="0 0 48 48" fill="none" xmlns="http://www.w3.org/2000/svg">
<path d="M25.4083 34.8598H22.0975L19.2409 41.6255L22.0975 47.9772H25.4083L28.9442 40.5588L25.4083 34.8598Z" fill="#224043"/>
<path d="M37.1992 48L37.9236 47.478L38.6479 48H42.8356C42.8356 46.0935 42.627 44.4604 42.2793 43.0628C40.5196 35.9932 35.1893 34.9357 35.1893 34.9357H25.3741V48H37.1992Z" fill="#448086"/>
<path d="M12.2634 34.9357C12.2634 34.9357 6.93313 35.9932 5.17344 43.0628C4.82581 44.4604 4.61713 46.0935 4.61713 48H8.80484L9.52916 47.5232L10.2535 48H22.0786V34.9357H12.2634Z" fill="#448086"/>
<path d="M14.2098 34.8598H12.2132C12.2132 34.8598 6.9661 35.9216 5.23385 43.02C4.89165 44.4232 4.68622 46.0629 4.68622 47.9772H6.68277C6.68277 46.0629 6.88812 44.4232 7.23041 43.02C8.96265 35.9217 14.2098 34.8598 14.2098 34.8598Z" fill="#224043"/>
<path d="M2.52118 26.1069V35.5244C2.52118 36.325 3.17012 36.9739 3.97065 36.9739C4.77118 36.9739 5.42012 36.325 5.42012 35.5244V26.1069H2.52118Z" fill="#448086"/>
<path d="M44.9317 26.1068V35.5244C44.9317 36.3249 44.2828 36.9739 43.4822 36.9739C42.6817 36.9739 42.0328 36.3249 42.0328 35.5244V26.1068H44.9317Z" fill="#448086"/>
<path d="M5.68781 29.6981C8.8291 29.6981 11.3756 26.6903 11.3756 22.9801C11.3756 19.2698 8.8291 16.262 5.68781 16.262C2.54652 16.262 0 19.2698 0 22.9801C0 26.6903 2.54652 29.6981 5.68781 29.6981Z" fill="#224043"/>
<path d="M41.7645 29.6981C44.9058 29.6981 47.4523 26.6903 47.4523 22.9801C47.4523 19.2698 44.9058 16.262 41.7645 16.262C38.6232 16.262 36.0767 19.2698 36.0767 22.9801C36.0767 26.6903 38.6232 29.6981 41.7645 29.6981Z" fill="#224043"/>
<path d="M5.04553 14.307C5.04553 14.307 5.28849 0 23.7333 0C42.1781 0 42.421 14.307 42.421 14.307L23.7816 16.3518L5.04553 14.307Z" fill="#448086"/>
<path d="M8.90573 14.307C8.90573 14.307 9.13214 1.01659 25.6667 0.0554094C25.0463 0.0193136 24.4037 0 23.7366 0C5.28853 0 5.04553 14.307 5.04553 14.307L23.7848 16.3518L25.7099 16.1406L8.90573 14.307Z" fill="#224043"/>
<path d="M18.8917 7.54697C18.3363 7.54697 17.8066 7.23688 17.5678 6.7159C17.2451 6.01165 17.5759 5.18878 18.3066 4.87787C19.7081 4.28149 21.6097 3.95318 23.6613 3.95318C25.6891 3.95318 27.575 4.275 28.972 4.85929C29.7047 5.16587 30.0409 5.98666 29.7227 6.69281C29.4045 7.39896 28.5529 7.72304 27.8199 7.41628C26.7936 6.98694 25.2778 6.74071 23.6612 6.74071C22.0273 6.74071 20.5014 6.99118 19.4751 7.42791C19.2852 7.50864 19.0869 7.54697 18.8917 7.54697Z" fill="#313D40"/>
<path d="M14.2097 11.8595C17.9808 11.8595 21.0379 9.24493 21.0379 6.01963C21.0379 2.79433 17.9808 0.17971 14.2097 0.17971C10.4386 0.17971 7.38147 2.79433 7.38147 6.01963C7.38147 9.24493 10.4386 11.8595 14.2097 11.8595Z" fill="#3A484A"/>
<path d="M14.2994 8.9845C12.2053 8.9845 10.4361 7.62673 10.4361 6.01961C10.4361 4.4125 12.2053 3.05473 14.2994 3.05473C16.3935 3.05473 18.1628 4.4125 18.1628 6.01961C18.1628 7.62673 16.3936 8.9845 14.2994 8.9845Z" fill="#5AABB3"/>
<path d="M12.3049 6.01961C12.3049 4.66726 13.5168 3.49176 15.108 3.15294C14.8082 3.08908 14.4949 3.05473 14.1736 3.05473C12.1477 3.05473 10.4361 4.4125 10.4361 6.01961C10.4361 7.62673 12.1477 8.9845 14.1736 8.9845C14.4949 8.9845 14.8082 8.95005 15.108 8.88629C13.5168 8.54747 12.3049 7.37197 12.3049 6.01961Z" fill="#00788F"/>
<path d="M33.1671 11.8595C36.8886 11.8595 39.9055 9.24493 39.9055 6.01963C39.9055 2.79433 36.8886 0.17971 33.1671 0.17971C29.4456 0.17971 26.4288 2.79433 26.4288 6.01963C26.4288 9.24493 29.4456 11.8595 33.1671 11.8595Z" fill="#3A484A"/>
<path d="M33.1669 8.9845C35.261 8.9845 37.0302 7.62673 37.0302 6.01961C37.0302 4.4125 35.261 3.05473 33.1669 3.05473C31.0728 3.05473 29.3035 4.4125 29.3035 6.01961C29.3035 7.62673 31.0726 8.9845 33.1669 8.9845Z" fill="#5AABB3"/>
<path d="M31.2442 6.01961C31.2442 4.66726 32.5027 3.49176 34.1552 3.15294C33.8438 3.08908 33.5184 3.05473 33.1848 3.05473C31.081 3.05473 29.3035 4.4125 29.3035 6.01961C29.3035 7.62673 31.081 8.9845 33.1848 8.9845C33.5184 8.9845 33.8438 8.95005 34.1552 8.88629C32.5028 8.54747 31.2442 7.37197 31.2442 6.01961Z" fill="#00788F"/>
<path d="M36.0767 35.2224L25.3738 39.6443C25.3738 39.6443 27.1057 41.3892 28.1058 43.3479C28.7196 44.5501 30.1606 45.071 31.4047 44.5475C34.3938 43.2894 38.5613 40.502 36.0767 35.2224Z" fill="#EFEDEE"/>
<path d="M11.3756 35.2224L22.0785 39.6443C22.0785 39.6443 20.3467 41.3892 19.3466 43.3479C18.7328 44.5501 17.2917 45.0709 16.0477 44.5474C13.0586 43.2894 8.89109 40.5019 11.3756 35.2224Z" fill="#EFEDEE"/>
<path d="M13.4161 36.3678L21.9074 39.8776C22.0383 39.7367 22.1161 39.6583 22.1161 39.6583L11.3764 35.2192C9.51641 39.1733 11.3718 41.7347 13.6796 43.3052C12.4675 41.592 12.0257 39.3233 13.4161 36.3678Z" fill="#D4D2D3"/>
<path d="M37.1993 48V43.7505C37.1993 43.3505 37.5235 43.0262 37.9236 43.0262C38.3237 43.0262 38.6479 43.3505 38.6479 43.7505V48H37.1993Z" fill="#224043"/>
<path d="M8.80481 48V43.7505C8.80481 43.3505 9.129 43.0262 9.52912 43.0262C9.92925 43.0262 10.2534 43.3505 10.2534 43.7505V48H8.80481Z" fill="#224043"/>
<path d="M41.5675 18.3962L23.7815 16.3518L5.89879 18.3962C5.57637 19.6818 5.40479 21.0225 5.40479 22.4011C5.40479 31.9614 13.6106 39.7114 23.7332 39.7114C33.8557 39.7114 42.0615 31.9613 42.0615 22.401C42.0615 21.0223 41.8899 19.6816 41.5675 18.3962Z" fill="#FBC4AC"/>
<path d="M8.59208 22.4009C8.59208 21.0223 8.76347 19.6816 9.08553 18.396L25.3503 16.5346L23.7609 16.3518L5.89823 18.3962C5.57617 19.6818 5.40479 21.0224 5.40479 22.4011C5.40479 31.9614 13.6015 39.7114 23.7127 39.7114C24.2498 39.7114 24.7811 39.6883 25.3064 39.6453C15.9416 38.8816 8.59208 31.4534 8.59208 22.4009Z" fill="#E3B098"/>
<path d="M14.569 25.1566C14.172 25.1566 13.8503 24.8149 13.8503 24.3933V22.5057C13.8503 22.0842 14.172 21.7425 14.569 21.7425C14.9661 21.7425 15.2878 22.0842 15.2878 22.5057V24.3933C15.2878 24.8149 14.9661 25.1566 14.569 25.1566Z" fill="#3A484A"/>
<path d="M15.8094 27.6722H13.329C12.9222 27.6722 12.5926 27.3504 12.5926 26.9535C12.5926 26.5565 12.9222 26.2347 13.329 26.2347H15.8094C16.2162 26.2347 16.5458 26.5565 16.5458 26.9535C16.5458 27.3504 16.2161 27.6722 15.8094 27.6722Z" fill="#C75B12"/>
<path d="M32.8974 25.1566C32.5004 25.1566 32.1786 24.8149 32.1786 24.3933V22.5057C32.1786 22.0842 32.5004 21.7425 32.8974 21.7425C33.2945 21.7425 33.6162 22.0842 33.6162 22.5057V24.3933C33.6162 24.8149 33.2945 25.1566 32.8974 25.1566Z" fill="#3A484A"/>
<path d="M34.1376 27.6722H31.6571C31.2504 27.6722 30.9208 27.3504 30.9208 26.9535C30.9208 26.5565 31.2504 26.2347 31.6571 26.2347H34.1376C34.5444 26.2347 34.874 26.5565 34.874 26.9535C34.874 27.3504 34.5444 27.6722 34.1376 27.6722Z" fill="#C75B12"/>
<path d="M23.7331 27.6722C22.8949 27.6722 22.1076 27.2904 21.5735 26.6246C21.3141 26.3015 21.3444 25.8106 21.641 25.5282C21.9377 25.2459 22.3883 25.2788 22.6474 25.6019C22.9109 25.9301 23.3065 26.1182 23.7331 26.1182C24.1597 26.1182 24.5553 25.93 24.8188 25.6019C25.078 25.2789 25.5285 25.2459 25.8253 25.5283C26.1218 25.8107 26.1522 26.3016 25.8927 26.6247C25.3583 27.2903 24.5712 27.6722 23.7331 27.6722Z" fill="#3A484A"/>
<path d="M42.3527 14.3752H4.93433C3.80491 14.3752 2.88928 15.2601 2.88928 16.3518C2.88928 17.4434 3.80491 18.3283 4.93433 18.3283H42.3526C43.482 18.3283 44.3976 17.4434 44.3976 16.3518C44.3977 15.2601 43.4821 14.3752 42.3527 14.3752Z" fill="#EFEDEE"/>
<path d="M6.7668 16.3518C6.7668 15.2601 7.68565 14.3752 8.81904 14.3752H4.94152C3.80804 14.3752 2.88928 15.2601 2.88928 16.3518C2.88928 17.4434 3.80813 18.3283 4.94152 18.3283H8.81895C7.68565 18.3284 6.7668 17.4435 6.7668 16.3518Z" fill="#D4D2D3"/>
</svg>
