<svg width="320" height="160" viewBox="0 0 320 160" fill="none"
  xmlns="http://www.w3.org/2000/svg">
  <path d="M32.844 133.256C19.6367 141.642 8.00302 151.713 0 160V116.898C5.11018 112.85 10.2402 109.184 15.3729 105.919L16.1213 105.425C23.6859 100.274 31.7961 95.9791 40.9118 92.2968C68.1991 81.2699 99.6787 77.9187 133.003 74.3743L133.107 74.3633C139.937 73.6369 146.992 72.8864 154.137 72.0509C185.879 68.3435 231.764 60.6717 270.137 45.1702L271.869 44.271C294.848 33.4572 313.03 19.7559 320 0L320 54.1584C307.174 63.4756 296.354 69.5764 282.259 75.272C240.546 92.1244 191.606 100.354 157.892 104.292C150.721 105.131 143.715 105.876 136.931 106.598L136.779 106.614L136.707 106.622L136.431 106.651C105.415 109.951 76.1241 113.067 53.0342 122.4C46.0512 125.22 39.9079 128.468 34.2519 132.328L34.0427 132.469L32.844 133.256Z" fill="#AAE6EC"/>
</svg>
