<svg version="1.1" id="Layer_1" xmlns="http://www.w3.org/2000/svg" x="0px" y="0px" width="13px" height="13px" viewBox="0 0 13 13" enable-background="new 0 0 13 13" xml:space="preserve"><g><path fill="#FFF" d="M1.5,0.5h10c0.5527,0,1,0.4478,1,1v10c0,0.5527-0.4473,1-1,1h-10c-0.5522,0-1-0.4473-1-1v-10 C0.5,0.9478,0.9478,0.5,1.5,0.5z"/><path fill="none" stroke="#00367F" d="M1.5,0.5h10c0.5527,0,1,0.4478,1,1v10c0,0.5527-0.4473,1-1,1h-10c-0.5522,0-1-0.4473-1-1v-10 C0.5,0.9478,0.9478,0.5,1.5,0.5z"/><polygon fill="#00367F" points="9.5176,5.188 8.6514,5.1875 8.6504,7.8486 4.877,4.0747 4.2578,4.6934 8.0322,8.4668 5.3716,8.4668 5.3726,9.333 9.5176,9.333"/></g></svg>