<svg version="1.1" id="Layer_1" xmlns="http://www.w3.org/2000/svg" x="0px" y="0px" width="13px" height="13px" viewBox="0 0 13 13" enable-background="new 0 0 13 13" xml:space="preserve"><path fill="#FFF" d="M1.5,0.4999933h10c0.5527,0,1,0.4478,1,1v10c0,0.5527-0.4473,1-1,1h-10c-0.5522,0-1-0.4473-1-1v-10	C0.5,0.9477932,0.9478,0.4999933,1.5,0.4999933z"/><path fill="#DD5415" d="M11.5,13.0001154h-10c-0.8271484,0-1.5-0.6728516-1.5-1.5v-10c0-0.8271485,0.6728516-1.5,1.5-1.5h10	c0.8271484,0,1.5,0.6728516,1.5,1.5v10C13,12.3272638,12.3271484,13.0001154,11.5,13.0001154z M1.5,1.0001154	c-0.2758789,0-0.5,0.2241211-0.5,0.5v10c0,0.2753906,0.2241211,0.5,0.5,0.5h10c0.2753906,0,0.5-0.2246094,0.5-0.5v-10	c0-0.2758789-0.2246094-0.5-0.5-0.5H1.5z"/><polygon fill="#DD5415" points="7.0693002,3.4379933 6.4561,4.0497932 8.3368998,5.9320931 3,5.9320931 3,6.8070931 8.3368998,6.8070931 6.4561,8.6884937 7.0693002,9.2997932 10,6.3690934"/></svg>