<svg version="1.1" id="Layer_1" xmlns="http://www.w3.org/2000/svg" x="0px" y="0px" width="13px" height="13px" viewBox="0 0 13 13" enable-background="new 0 0 13 13" xml:space="preserve"><g><path fill="#FFF" d="M1.5,0.5h10c0.5527,0,1,0.4478,1,1v10c0,0.5527-0.4473,1-1,1h-10c-0.5522,0-1-0.4473-1-1v-10 C0.5,0.9478,0.9478,0.5,1.5,0.5z"/><path fill="none" stroke="#800664" d="M1.5,0.5h10c0.5527,0,1,0.4478,1,1v10c0,0.5527-0.4473,1-1,1h-10c-0.5522,0-1-0.4473-1-1v-10 C0.5,0.9478,0.9478,0.5,1.5,0.5z"/><polygon fill="#800664" points="7.0693,3.438 6.4561,4.0498 8.3369,5.9321 3,5.9321 3,6.8071 8.3369,6.8071 6.4561,8.6885 7.0693,9.2998 10,6.3691"/></g></svg>