<svg width="20" height="14" viewBox="0 0 20 14" fill="none" xmlns="http://www.w3.org/2000/svg"><path d="M15.9371 5.64296C15.5984 5.64296 15.271 5.68932 14.9558 5.76803L12.8564 1.25431H15.6247C15.9698 1.25431 16.2497 1.5355 16.2497 1.88118C16.2497 2.22688 15.9696 2.50805 15.6247 2.50805C15.2795 2.50805 14.9998 2.78903 14.9998 3.13493C14.9998 3.48106 15.2795 3.7618 15.6247 3.7618C16.6588 3.7618 17.4998 2.91825 17.4998 1.8809C17.4998 0.843557 16.6589 0 15.6247 0L11.8748 0.000437311C11.661 0.000437311 11.4624 0.109764 11.3473 0.290812C11.2327 0.471424 11.2178 0.698607 11.3083 0.892776L12.3515 3.13511H7.88602L7.26109 1.88137L8.12475 1.88115C8.47003 1.88115 8.74969 1.60018 8.74969 1.25427C8.74969 0.908142 8.47002 0.6274 8.12475 0.6274H4.99978C4.6545 0.6274 4.37484 0.908371 4.37484 1.25427C4.37484 1.60041 4.65451 1.88115 4.99978 1.88115H5.86344L6.78726 3.73468L5.48789 5.90704C5.04365 5.73912 4.56452 5.6429 4.06251 5.6429C1.82253 5.6429 0 7.47108 0 9.718C0 11.9649 1.82253 13.7931 4.06251 13.7931C5.97946 13.7931 7.58658 12.4528 8.01147 10.6585L9.37496 10.6582C9.58923 10.6582 9.78803 10.5483 9.90269 10.3668L13.2498 5.06546L13.8039 6.25668C12.6486 6.97609 11.875 8.25653 11.875 9.71778C11.875 11.9647 13.6975 13.7929 15.9375 13.7929C18.1775 13.7929 20 11.9647 20 9.71778C19.9998 7.47086 18.1772 5.64291 15.9373 5.64291L15.9371 5.64296ZM4.06225 12.5392C2.51132 12.5392 1.24989 11.2739 1.24989 9.71812C1.24989 8.16238 2.51132 6.89704 4.06225 6.89704C4.32819 6.89704 4.58061 6.94624 4.82475 7.01577L3.21388 9.70894C3.09792 9.90267 3.09486 10.1441 3.20603 10.3406C3.3172 10.537 3.52428 10.6583 3.74968 10.6583H6.70177C6.31376 11.7505 5.2827 12.5392 4.06223 12.5392L4.06225 12.5392ZM6.84303 9.40454H4.85376L5.92211 7.61812C6.42761 8.06921 6.76351 8.69544 6.84308 9.40454H6.84303ZM9.03023 9.40454H8.10858C8.01943 8.23845 7.44068 7.20967 6.57662 6.52374L7.85356 4.38899H12.1966L9.03023 9.40454ZM15.937 12.5392C14.386 12.5392 13.1246 11.2739 13.1246 9.71812C13.1246 8.75931 13.6061 7.91312 14.337 7.40323L15.6833 10.2969C15.7892 10.5245 16.0146 10.6583 16.2502 10.6583C16.3387 10.6583 16.4283 10.6395 16.514 10.5993C16.827 10.453 16.9622 10.08 16.8161 9.76599L15.5017 6.94072C15.6447 6.91842 15.7881 6.89677 15.937 6.89677C17.4879 6.89677 18.7493 8.16211 18.7493 9.71784C18.7496 11.2736 17.4879 12.5392 15.937 12.5392Z" fill="#fff"/></svg>