<svg width="48" height="29" viewBox="0 0 48 29" fill="none" xmlns="http://www.w3.org/2000/svg"><path d="M0 4.20001C0 1.99087 1.79086 0.200012 4 0.200012H44C46.2091 0.200012 48 1.99087 48 4.20001V24.2C48 26.4092 46.2091 28.2 44 28.2H4C1.79086 28.2 0 26.4092 0 24.2V4.20001Z" fill="#7D0D31"/><path fill-rule="evenodd" clip-rule="evenodd" d="M44 1.20001H4C2.34315 1.20001 1 2.54316 1 4.20001V24.2C1 25.8569 2.34315 27.2 4 27.2H44C45.6569 27.2 47 25.8569 47 24.2V4.20001C47 2.54316 45.6569 1.20001 44 1.20001ZM4 0.200012C1.79086 0.200012 0 1.99087 0 4.20001V24.2C0 26.4092 1.79086 28.2 4 28.2H44C46.2091 28.2 48 26.4092 48 24.2V4.20001C48 1.99087 46.2091 0.200012 44 0.200012H4Z" fill="#5C0A24"/><path d="M20.1603 13.1094C19.8593 13.1094 19.5684 13.1497 19.2884 13.2182L17.4231 9.29126H19.8828C20.1893 9.29126 20.438 9.53589 20.438 9.83664C20.438 10.1374 20.1891 10.382 19.8828 10.382C19.576 10.382 19.3275 10.6265 19.3275 10.9274C19.3275 11.2285 19.576 11.4728 19.8828 11.4728C20.8015 11.4728 21.5488 10.7389 21.5488 9.8364C21.5488 8.93391 20.8016 8.20001 19.8828 8.20001L16.5509 8.20039C16.3609 8.20039 16.1845 8.29551 16.0822 8.45302C15.9803 8.61015 15.9672 8.8078 16.0476 8.97673L16.9745 10.9276H13.0068L12.4516 9.8368L13.2189 9.83661C13.5257 9.83661 13.7742 9.59217 13.7742 9.29123C13.7742 8.9901 13.5257 8.74585 13.2189 8.74585H10.4424C10.1356 8.74585 9.88709 8.9903 9.88709 9.29123C9.88709 9.59237 10.1356 9.83661 10.4424 9.83661H11.2097L12.0306 11.4492L10.876 13.3391C10.4813 13.193 10.0556 13.1093 9.60959 13.1093C7.61933 13.1093 6 14.6998 6 16.6547C6 18.6095 7.61933 20.2 9.60959 20.2C11.3128 20.2 12.7408 19.0339 13.1183 17.4729L14.3298 17.4727C14.5201 17.4727 14.6968 17.377 14.7986 17.2191L17.7725 12.607L18.2649 13.6433C17.2384 14.2692 16.551 15.3832 16.551 16.6545C16.551 18.6093 18.1704 20.1998 20.1606 20.1998C22.1509 20.1998 23.7702 18.6093 23.7702 16.6545C23.77 14.6997 22.1506 13.1094 20.1603 13.1094ZM9.60935 19.1091C8.23133 19.1091 7.11054 18.0083 7.11054 16.6548C7.11054 15.3013 8.23133 14.2004 9.60935 14.2004C9.84564 14.2004 10.0699 14.2432 10.2868 14.3037L8.85557 16.6468C8.75253 16.8153 8.74982 17.0253 8.84859 17.1964C8.94737 17.3672 9.13136 17.4728 9.33163 17.4728H11.9546C11.6098 18.423 10.6938 19.1091 9.60935 19.1091ZM12.0801 16.382H10.3126L11.2619 14.8278C11.711 15.2202 12.0094 15.765 12.0801 16.382ZM14.0235 16.382H13.2046C13.1253 15.3675 12.6111 14.4724 11.8434 13.8757L12.978 12.0184H16.8368L14.0235 16.382ZM20.1602 19.1091C18.7821 19.1091 17.6613 18.0083 17.6613 16.6548C17.6613 15.8206 18.0892 15.0844 18.7386 14.6408L19.9348 17.1583C20.0289 17.3563 20.2292 17.4728 20.4385 17.4728C20.5171 17.4728 20.5967 17.4564 20.6729 17.4214C20.951 17.2941 21.0711 16.9696 20.9413 16.6964L19.7734 14.2384C19.9005 14.219 20.0279 14.2002 20.1602 14.2002C21.5382 14.2002 22.659 15.301 22.659 16.6545C22.6592 18.008 21.5382 19.1091 20.1602 19.1091Z" fill="#fff"/></svg>