<svg width="61" height="60" viewBox="0 0 61 60" fill="none" xmlns="http://www.w3.org/2000/svg"><circle cx="30.0081" cy="30" r="30" fill="#7D0D31" fill-opacity="0.15"/><path d="M50.0081 30C50.0081 41.0457 41.0538 50 30.0081 50C18.9624 50 10.0081 41.0457 10.0081 30C10.0081 18.9543 18.9624 10 30.0081 10C41.0538 10 50.0081 18.9543 50.0081 30Z" fill="#fff"/><path d="M36.5308 29.0779C36.1582 29.0779 35.798 29.1279 35.4514 29.2127L33.1421 24.351H36.1872C36.5668 24.351 36.8747 24.6539 36.8747 25.0262C36.8747 25.3985 36.5665 25.7014 36.1872 25.7014C35.8074 25.7014 35.4998 26.004 35.4998 26.3766C35.4998 26.7494 35.8074 27.0518 36.1872 27.0518C37.3247 27.0518 38.2498 26.1432 38.2498 25.0259C38.2498 23.9086 37.3248 23 36.1872 23L32.0623 23.0005C31.8271 23.0005 31.6087 23.1182 31.4821 23.3132C31.3559 23.5078 31.3396 23.7525 31.4391 23.9616L32.5867 26.3768H27.6746L26.9872 25.0264L27.9372 25.0262C28.317 25.0262 28.6247 24.7235 28.6247 24.351C28.6247 23.9781 28.317 23.6758 27.9372 23.6758H24.4998C24.1199 23.6758 23.8123 23.9784 23.8123 24.351C23.8123 24.7238 24.12 25.0262 24.4998 25.0262H25.4498L26.466 27.0226L25.0367 29.3624C24.548 29.1815 24.021 29.0779 23.4688 29.0779C21.0048 29.0779 19 31.047 19 33.4671C19 35.8872 21.0048 37.8563 23.4688 37.8563C25.5774 37.8563 27.3452 36.4127 27.8126 34.48L29.3125 34.4798C29.5482 34.4798 29.7668 34.3614 29.893 34.1659L33.5747 28.4559L34.1842 29.739C32.9134 30.5138 32.0625 31.893 32.0625 33.4669C32.0625 35.887 34.0672 37.8561 36.5312 37.8561C38.9952 37.8561 41 35.887 41 33.4669C40.9998 31.0467 38.9948 29.0779 36.5308 29.0779ZM23.4685 36.5057C21.7625 36.5057 20.3749 35.1429 20.3749 33.4672C20.3749 31.7916 21.7625 30.4287 23.4685 30.4287C23.761 30.4287 24.0387 30.4817 24.3072 30.5566L22.5353 33.4573C22.4077 33.666 22.4043 33.926 22.5266 34.1377C22.6489 34.3492 22.8767 34.4799 23.1246 34.4799H26.3719C25.9451 35.6563 24.811 36.5057 23.4685 36.5057ZM26.5273 33.1295H24.3391L25.5143 31.2054C26.0704 31.6912 26.4398 32.3657 26.5273 33.1295ZM28.9332 33.1295H27.9194C27.8214 31.8735 27.1847 30.7654 26.2343 30.0266L27.6389 27.7273H32.4163L28.9332 33.1295ZM36.5307 36.5057C34.8246 36.5057 33.4371 35.1429 33.4371 33.4672C33.4371 32.4345 33.9667 31.5231 34.7707 30.9739L36.2516 34.0906C36.3681 34.3358 36.6161 34.4799 36.8753 34.4799C36.9726 34.4799 37.0712 34.4597 37.1654 34.4163C37.5097 34.2588 37.6584 33.857 37.4977 33.5188L36.0518 30.4757C36.2091 30.4517 36.3669 30.4284 36.5307 30.4284C38.2367 30.4284 39.6243 31.7913 39.6243 33.4669C39.6245 35.1426 38.2367 36.5057 36.5307 36.5057Z" fill="#7D0D31"/><path fill-rule="evenodd" clip-rule="evenodd" d="M51.0081 30C51.0081 41.598 41.606 51 30.0081 51C18.4101 51 9.00806 41.598 9.00806 30C9.00806 18.402 18.4101 9 30.0081 9C41.606 9 51.0081 18.402 51.0081 30ZM30.0081 50C41.0537 50 50.0081 41.0457 50.0081 30C50.0081 18.9543 41.0537 10 30.0081 10C18.9624 10 10.0081 18.9543 10.0081 30C10.0081 41.0457 18.9624 50 30.0081 50Z" fill="#7D0D31"/><path d="M58 13.5C58 19.8513 52.8513 25 46.5 25C40.1487 25 35 19.8513 35 13.5C35 7.14873 40.1487 2 46.5 2C52.8513 2 58 7.14873 58 13.5Z" fill="#fff"/><path fill-rule="evenodd" clip-rule="evenodd" d="M46.5 24C52.299 24 57 19.299 57 13.5C57 7.70101 52.299 3 46.5 3C40.701 3 36 7.70101 36 13.5C36 19.299 40.701 24 46.5 24ZM46.5 25C52.8513 25 58 19.8513 58 13.5C58 7.14873 52.8513 2 46.5 2C40.1487 2 35 7.14873 35 13.5C35 19.8513 40.1487 25 46.5 25Z" fill="#E6E2E5"/></svg>