<svg width="48" height="28" viewBox="0 0 48 28" fill="none" xmlns="http://www.w3.org/2000/svg"><path d="M0 4C0 1.79086 1.79086 0 4 0H44C46.2091 0 48 1.79086 48 4V24C48 26.2091 46.2091 28 44 28H4C1.79086 28 0 26.2091 0 24V4Z" fill="#fff"/><path fill-rule="evenodd" clip-rule="evenodd" d="M44 1H4C2.34315 1 1 2.34315 1 4V24C1 25.6569 2.34315 27 4 27H44C45.6569 27 47 25.6569 47 24V4C47 2.34315 45.6569 1 44 1ZM4 0C1.79086 0 0 1.79086 0 4V24C0 26.2091 1.79086 28 4 28H44C46.2091 28 48 26.2091 48 24V4C48 1.79086 46.2091 0 44 0H4Z" fill="#7D0D31"/><path d="M20.1603 12.9094C19.8593 12.9094 19.5684 12.9497 19.2884 13.0182L17.4231 9.09125H19.8828C20.1893 9.09125 20.438 9.33588 20.438 9.63663C20.438 9.93738 20.1891 10.182 19.8828 10.182C19.576 10.182 19.3275 10.4265 19.3275 10.7274C19.3275 11.0285 19.576 11.2728 19.8828 11.2728C20.8015 11.2728 21.5488 10.5389 21.5488 9.63638C21.5488 8.73389 20.8016 8 19.8828 8L16.5509 8.00038C16.3609 8.00038 16.1845 8.09549 16.0822 8.25301C15.9803 8.41014 15.9672 8.60779 16.0476 8.77672L16.9745 10.7275H13.0068L12.4516 9.63679L13.2189 9.6366C13.5257 9.6366 13.7742 9.39215 13.7742 9.09122C13.7742 8.79008 13.5257 8.54584 13.2189 8.54584H10.4424C10.1356 8.54584 9.88709 8.79028 9.88709 9.09122C9.88709 9.39235 10.1356 9.6366 10.4424 9.6366H11.2097L12.0306 11.2492L10.876 13.1391C10.4813 12.993 10.0556 12.9093 9.60959 12.9093C7.61933 12.9093 6 14.4998 6 16.4547C6 18.4095 7.61933 20 9.60959 20C11.3128 20 12.7408 18.8339 13.1183 17.2729L14.3298 17.2727C14.5201 17.2727 14.6968 17.177 14.7986 17.0191L17.7725 12.407L18.2649 13.4433C17.2384 14.0692 16.551 15.1832 16.551 16.4545C16.551 18.4093 18.1704 19.9998 20.1606 19.9998C22.1509 19.9998 23.7702 18.4093 23.7702 16.4545C23.77 14.4996 22.1506 12.9094 20.1603 12.9094ZM9.60935 18.9091C8.23133 18.9091 7.11054 17.8083 7.11054 16.4548C7.11054 15.1013 8.23133 14.0004 9.60935 14.0004C9.84564 14.0004 10.0699 14.0432 10.2868 14.1037L8.85557 16.4468C8.75253 16.6153 8.74982 16.8253 8.84859 16.9963C8.94737 17.1672 9.13136 17.2728 9.33163 17.2728H11.9546C11.6098 18.223 10.6938 18.9091 9.60935 18.9091ZM12.0801 16.1819H10.3126L11.2619 14.6278C11.711 15.0202 12.0094 15.565 12.0801 16.1819ZM14.0235 16.1819H13.2046C13.1253 15.1675 12.6111 14.2724 11.8434 13.6757L12.978 11.8184H16.8368L14.0235 16.1819ZM20.1602 18.9091C18.7821 18.9091 17.6613 17.8083 17.6613 16.4548C17.6613 15.6206 18.0892 14.8844 18.7386 14.4408L19.9348 16.9583C20.0289 17.1563 20.2292 17.2728 20.4385 17.2728C20.5171 17.2728 20.5967 17.2564 20.6729 17.2214C20.951 17.0941 21.0711 16.7696 20.9413 16.4964L19.7734 14.0384C19.9005 14.019 20.0279 14.0002 20.1602 14.0002C21.5382 14.0002 22.659 15.101 22.659 16.4545C22.6592 17.808 21.5382 18.9091 20.1602 18.9091Z" fill="#7D0D31"/></svg>