<svg width="31" height="38" viewBox="0 0 31 38" fill="none" xmlns="http://www.w3.org/2000/svg"><path d="M30.0081 15.0985C30.0081 6.81242 23.2928 0.097168 15.0094 0.097168C6.72604 0.097168 0.00808716 6.81242 0.00808716 15.0985C0.00808716 20.3374 3.00809 24.5972 6.76922 27.6302H6.76652C6.76652 27.6302 13.8003 32.3428 13.8003 36.691C13.8003 37.3603 14.3428 37.9028 15.0121 37.9028C15.6815 37.9028 16.224 37.3603 16.224 36.691C16.224 32.3455 23.2577 27.6302 23.2577 27.6302H23.255C27.0081 24.5972 30.0162 20.3374 30.0162 15.0985H30.0081Z" fill="#fff"/><path fill-rule="evenodd" clip-rule="evenodd" d="M29.0081 15.5498V15.0985C29.0081 7.36458 22.7404 1.09717 15.0094 1.09717C7.2782 1.09717 1.00809 7.36482 1.00809 15.0985C1.00809 19.9186 3.76236 23.9153 7.38005 26.8382C7.39005 26.845 7.4013 26.8528 7.41377 26.8614C7.46936 26.8998 7.54923 26.9555 7.64992 27.0274C7.8512 27.1712 8.13621 27.3798 8.47714 27.6433C9.15735 28.1692 10.0682 28.9198 10.983 29.8155C11.8942 30.7076 12.8326 31.7662 13.5488 32.9102C14.2595 34.0453 14.8003 35.3422 14.8003 36.691C14.8003 36.808 14.8951 36.9028 15.0121 36.9028C15.1292 36.9028 15.224 36.808 15.224 36.691C15.224 35.3428 15.7649 34.0461 16.4755 32.9113C17.1917 31.7674 18.13 30.7089 19.0412 29.8166C19.956 28.9208 20.8668 28.1699 21.547 27.6438C21.8879 27.3802 22.1729 27.1715 22.3742 27.0277C22.4748 26.9557 22.5547 26.8999 22.6103 26.8615C22.6227 26.853 22.6339 26.8453 22.6438 26.8385C26.1415 24.0063 28.842 20.1675 29.0081 15.5498ZM29.9794 16.0985C29.6655 20.3421 27.379 23.8998 24.4147 26.6302C24.039 26.9762 23.6525 27.3089 23.2577 27.628C23.2574 27.6283 23.2571 27.6286 23.2568 27.6288C23.2562 27.6293 23.2556 27.6298 23.255 27.6302H23.2577C23.2577 27.6302 23.2572 27.6306 23.256 27.6314C23.2557 27.6316 23.2554 27.6318 23.255 27.632C23.2126 27.6607 22.6726 28.0264 21.9089 28.6302C19.8664 30.2453 16.224 33.5639 16.224 36.691C16.224 37.3603 15.6815 37.9028 15.0121 37.9028C14.3428 37.9028 13.8003 37.3603 13.8003 36.691C13.8003 33.5622 10.1586 30.2449 8.11592 28.6302C7.35198 28.0264 6.81171 27.6607 6.76922 27.632C6.76887 27.6318 6.76855 27.6316 6.76827 27.6314C6.76711 27.6306 6.76652 27.6302 6.76652 27.6302H6.76922C6.76864 27.6298 6.76805 27.6293 6.76747 27.6288C6.76715 27.6286 6.76684 27.6283 6.76652 27.6281C6.3709 27.3089 5.98371 26.9762 5.60756 26.6302C2.40882 23.688 0.00808716 19.785 0.00808716 15.0985C0.00808716 6.81242 6.72604 0.097168 15.0094 0.097168C23.2928 0.097168 30.0081 6.81242 30.0081 15.0985H30.0162C30.0162 15.2561 30.0135 15.4127 30.0081 15.5685C30.0019 15.7463 29.9923 15.923 29.9794 16.0985Z" fill="#7D0D31"/><path d="M20.1603 13.9094C19.8593 13.9094 19.5684 13.9497 19.2884 14.0182L17.4231 10.0912H19.8828C20.1893 10.0912 20.438 10.3359 20.438 10.6366C20.438 10.9374 20.1891 11.182 19.8828 11.182C19.576 11.182 19.3275 11.4265 19.3275 11.7274C19.3275 12.0285 19.576 12.2728 19.8828 12.2728C20.8015 12.2728 21.5488 11.5389 21.5488 10.6364C21.5488 9.73389 20.8016 9 19.8828 9L16.5509 9.00038C16.3609 9.00038 16.1845 9.09549 16.0822 9.25301C15.9803 9.41014 15.9672 9.60779 16.0476 9.77672L16.9745 11.7275H13.0068L12.4516 10.6368L13.2189 10.6366C13.5257 10.6366 13.7742 10.3922 13.7742 10.0912C13.7742 9.79008 13.5257 9.54584 13.2189 9.54584H10.4424C10.1356 9.54584 9.88709 9.79028 9.88709 10.0912C9.88709 10.3924 10.1356 10.6366 10.4424 10.6366H11.2097L12.0306 12.2492L10.876 14.1391C10.4813 13.993 10.0556 13.9093 9.60959 13.9093C7.61933 13.9093 6 15.4998 6 17.4547C6 19.4095 7.61933 21 9.60959 21C11.3128 21 12.7408 19.8339 13.1183 18.2729L14.3298 18.2727C14.5201 18.2727 14.6968 18.177 14.7986 18.0191L17.7725 13.407L18.2649 14.4433C17.2384 15.0692 16.551 16.1832 16.551 17.4545C16.551 19.4093 18.1704 20.9998 20.1606 20.9998C22.1509 20.9998 23.7702 19.4093 23.7702 17.4545C23.77 15.4996 22.1506 13.9094 20.1603 13.9094ZM9.60935 19.9091C8.23133 19.9091 7.11054 18.8083 7.11054 17.4548C7.11054 16.1013 8.23133 15.0004 9.60935 15.0004C9.84564 15.0004 10.0699 15.0432 10.2868 15.1037L8.85557 17.4468C8.75253 17.6153 8.74982 17.8253 8.84859 17.9963C8.94737 18.1672 9.13136 18.2728 9.33163 18.2728H11.9546C11.6098 19.223 10.6938 19.9091 9.60935 19.9091ZM12.0801 17.1819H10.3126L11.2619 15.6278C11.711 16.0202 12.0094 16.565 12.0801 17.1819ZM14.0235 17.1819H13.2046C13.1253 16.1674 12.6111 15.2724 11.8434 14.6757L12.978 12.8184H16.8368L14.0235 17.1819ZM20.1602 19.9091C18.7821 19.9091 17.6613 18.8083 17.6613 17.4548C17.6613 16.6206 18.0892 15.8844 18.7386 15.4408L19.9348 17.9583C20.0289 18.1563 20.2292 18.2728 20.4385 18.2728C20.5171 18.2728 20.5967 18.2564 20.6729 18.2214C20.951 18.0941 21.0711 17.7696 20.9413 17.4964L19.7734 15.0384C19.9005 15.019 20.0279 15.0002 20.1602 15.0002C21.5382 15.0002 22.659 16.101 22.659 17.4545C22.6592 18.808 21.5382 19.9091 20.1602 19.9091Z" fill="#7D0D31"/></svg>