<svg width="48" height="28" viewBox="0 0 48 28" fill="none" xmlns="http://www.w3.org/2000/svg"><path d="M0 4C0 1.79086 1.79086 0 4 0H44C46.2091 0 48 1.79086 48 4V24C48 26.2091 46.2091 28 44 28H4C1.79086 28 0 26.2091 0 24V4Z" fill="#fff"/><path fill-rule="evenodd" clip-rule="evenodd" d="M44 1H4C2.34315 1 1 2.34315 1 4V24C1 25.6569 2.34315 27 4 27H44C45.6569 27 47 25.6569 47 24V4C47 2.34315 45.6569 1 44 1ZM4 0C1.79086 0 0 1.79086 0 4V24C0 26.2091 1.79086 28 4 28H44C46.2091 28 48 26.2091 48 24V4C48 1.79086 46.2091 0 44 0H4Z" fill="#5B3C53"/><path d="M23.4838 13.9403C23.4763 13.7757 23.3542 13.5932 23.2358 13.4644C23.1332 13.3527 22.9694 13.2754 22.8187 13.2343C21.9474 12.9983 21.0706 12.7849 20.2005 12.5459C20.0168 12.4955 19.8229 12.4045 19.6851 12.2769C18.7117 11.3755 17.7504 10.461 16.7881 9.54778C16.3992 9.1783 15.9615 8.9769 15.4054 9.00211C14.7338 9.0325 14.0591 9.0093 13.3857 9.0093V9.03168C12.5414 9.03168 11.6965 9.0089 10.8546 9.04701C10.6341 9.05718 10.3574 9.20312 10.2182 9.3766C9.58546 10.169 8.99695 10.9968 8.37997 11.8023C8.29154 11.9172 8.14546 12.0094 8.00698 12.0593C7.51788 12.2366 7.01142 12.3675 6.52992 12.5614C6.16329 12.7085 5.99471 13.0189 6.00013 13.4279C6.01003 14.2117 5.99958 14.9956 6.0042 15.7799C6.00718 16.3289 6.73649 17.0646 7.28216 17.0565C7.49836 17.0534 7.61324 17.1098 7.71983 17.3156C8.11859 18.0814 8.76151 18.5094 9.63283 18.5133C10.5166 18.5174 11.167 18.0879 11.5747 17.3127C11.6731 17.1247 11.7721 17.0561 11.9831 17.057C14.0635 17.065 16.1439 17.0652 18.2241 17.0566C18.4451 17.0558 18.5536 17.122 18.659 17.3221C19.0667 18.0988 19.7224 18.522 20.6049 18.5131C21.4788 18.5045 22.0943 18.0533 22.5162 17.3014C22.6395 17.0812 22.8067 16.8827 22.9698 16.6875C23.1921 16.4216 23.4954 16.2081 23.4949 15.8095C23.495 15.1861 23.5119 14.5621 23.4838 13.9403ZM9.63757 17.4237C9.04065 17.418 8.55044 16.9179 8.55641 16.3204C8.56224 15.7181 9.05475 15.2306 9.65343 15.2343C10.2533 15.2383 10.7351 15.7307 10.7316 16.3366C10.7288 16.9383 10.2349 17.4288 9.63757 17.4237ZM12.5503 12.6354C12.5068 12.6463 12.4612 12.6681 12.4154 12.6685C11.5415 12.6704 10.6685 12.6749 9.79518 12.6681C9.42747 12.6651 9.31205 12.47 9.52351 12.1624C9.93354 11.5679 10.3689 10.9905 10.8092 10.4183C10.8876 10.3168 11.0383 10.2187 11.1609 10.2124C11.6174 10.1882 12.076 10.2026 12.5502 10.2026C12.5503 11.0201 12.5503 11.8192 12.5503 12.6354ZM18.0358 12.6658C16.7802 12.6742 15.5241 12.6711 14.2681 12.6703C14.1998 12.6703 14.1313 12.6615 14.0399 12.6554V10.2153C14.6557 10.2153 15.2553 10.1942 15.8516 10.2279C16.0331 10.2382 16.2333 10.3691 16.3766 10.4984C17.003 11.0643 17.6139 11.6468 18.222 12.2317C18.309 12.3156 18.3515 12.4457 18.4147 12.5549C18.2884 12.5933 18.1623 12.6649 18.0358 12.6658ZM20.5968 17.4235C19.9964 17.4315 19.5032 16.9477 19.4968 16.3445C19.4902 15.7354 19.961 15.2463 20.565 15.235C21.1595 15.2238 21.6609 15.7122 21.6719 16.3127C21.6826 16.907 21.1907 17.4155 20.5968 17.4235Z" fill="#5B3C53"/></svg>