<svg width="49" height="29" viewBox="0 0 49 29" fill="none" xmlns="http://www.w3.org/2000/svg"><path d="M0.0161743 4.20001C0.0161743 1.99087 1.80704 0.200012 4.01617 0.200012H44.0162C46.2253 0.200012 48.0162 1.99087 48.0162 4.20001V24.2C48.0162 26.4092 46.2253 28.2 44.0162 28.2H4.01617C1.80703 28.2 0.0161743 26.4092 0.0161743 24.2V4.20001Z" fill="#5B3C53"/><path fill-rule="evenodd" clip-rule="evenodd" d="M44.0162 1.20001H4.01617C2.35932 1.20001 1.01617 2.54316 1.01617 4.20001V24.2C1.01617 25.8569 2.35932 27.2 4.01617 27.2H44.0162C45.673 27.2 47.0162 25.8569 47.0162 24.2V4.20001C47.0162 2.54316 45.673 1.20001 44.0162 1.20001ZM4.01617 0.200012C1.80704 0.200012 0.0161743 1.99087 0.0161743 4.20001V24.2C0.0161743 26.4092 1.80703 28.2 4.01617 28.2H44.0162C46.2253 28.2 48.0162 26.4092 48.0162 24.2V4.20001C48.0162 1.99087 46.2253 0.200012 44.0162 0.200012H4.01617Z" fill="#4B2942"/><path d="M23.5 14.1403C23.4924 13.9757 23.3704 13.7932 23.2519 13.6644C23.1494 13.5528 22.9856 13.4754 22.8349 13.4343C21.9635 13.1983 21.0868 12.9849 20.2167 12.7459C20.0329 12.6956 19.8391 12.6045 19.7013 12.4769C18.7279 11.5755 17.7666 10.661 16.8043 9.74779C16.4154 9.37831 15.9777 9.17692 15.4216 9.20213C14.7499 9.23251 14.0753 9.20931 13.4019 9.20931V9.23169C12.5576 9.23169 11.7127 9.20891 10.8708 9.24702C10.6502 9.25719 10.3736 9.40314 10.2344 9.57661C9.60164 10.369 9.01313 11.1968 8.39614 12.0023C8.30771 12.1172 8.16163 12.2094 8.02316 12.2593C7.53405 12.4366 7.02759 12.5675 6.5461 12.7614C6.17946 12.9085 6.01088 13.2189 6.0163 13.6279C6.0262 14.4117 6.01576 15.1957 6.02037 15.9799C6.02335 16.5289 6.75267 17.2646 7.29833 17.2565C7.51453 17.2534 7.62942 17.3098 7.73601 17.5156C8.13476 18.2814 8.77768 18.7094 9.64901 18.7134C10.5328 18.7174 11.1832 18.2879 11.5909 17.5127C11.6892 17.3247 11.7882 17.2561 11.9993 17.257C14.0797 17.265 16.1601 17.2652 18.2403 17.2566C18.4613 17.2558 18.5698 17.322 18.6751 17.5221C19.0829 18.2989 19.7385 18.7221 20.6211 18.7131C21.495 18.7045 22.1105 18.2533 22.5323 17.5015C22.6556 17.2812 22.8229 17.0827 22.986 16.8876C23.2083 16.6216 23.5116 16.4081 23.5111 16.0095C23.5112 15.3861 23.5281 14.7621 23.5 14.1403ZM9.65374 17.6237C9.05683 17.618 8.56661 17.1179 8.57259 16.5204C8.57842 15.9181 9.07092 15.4306 9.66961 15.4343C10.2695 15.4384 10.7513 15.9307 10.7478 16.5366C10.7449 17.1383 10.2511 17.6288 9.65374 17.6237ZM12.5665 12.8355C12.523 12.8463 12.4774 12.8681 12.4316 12.8685C11.5577 12.8704 10.6847 12.8749 9.81136 12.8681C9.44365 12.8652 9.32823 12.67 9.53968 12.3624C9.94972 11.7679 10.3851 11.1905 10.8254 10.6183C10.9037 10.5168 11.0544 10.4187 11.1771 10.4124C11.6336 10.3882 12.0922 10.4026 12.5664 10.4026C12.5665 11.2201 12.5665 12.0192 12.5665 12.8355ZM18.052 12.8658C16.7964 12.8742 15.5403 12.8711 14.2842 12.8703C14.216 12.8703 14.1475 12.8615 14.0561 12.8554V10.4153C14.6719 10.4153 15.2715 10.3942 15.8678 10.428C16.0492 10.4383 16.2494 10.5691 16.3928 10.6984C17.0192 11.2643 17.6301 11.8468 18.2381 12.4317C18.3252 12.5156 18.3677 12.6457 18.4309 12.7549C18.3046 12.7933 18.1785 12.8649 18.052 12.8658ZM20.613 17.6235C20.0126 17.6315 19.5194 17.1477 19.513 16.5445C19.5064 15.9354 19.9771 15.4463 20.5811 15.4351C21.1756 15.4238 21.6771 15.9122 21.6881 16.5127C21.6988 17.107 21.2068 17.6155 20.613 17.6235Z" fill="#fff"/></svg>