<svg width="23" height="23" viewBox="0 0 23 23" fill="none" xmlns="http://www.w3.org/2000/svg"><path d="M23 11.5C23 17.8513 17.8513 23 11.5 23C5.14873 23 0 17.8513 0 11.5C0 5.14873 5.14873 0 11.5 0C17.8513 0 23 5.14873 23 11.5Z" fill="#fff"/><path fill-rule="evenodd" clip-rule="evenodd" d="M11.5 22C17.299 22 22 17.299 22 11.5C22 5.70101 17.299 1 11.5 1C5.70101 1 1 5.70101 1 11.5C1 17.299 5.70101 22 11.5 22ZM11.5 23C17.8513 23 23 17.8513 23 11.5C23 5.14873 17.8513 0 11.5 0C5.14873 0 0 5.14873 0 11.5C0 17.8513 5.14873 23 11.5 23Z" fill="#E3E4D9"/></svg>