<svg width="28" height="28" viewBox="0 0 28 28" fill="none" xmlns="http://www.w3.org/2000/svg"><rect width="28" height="28" rx="4" fill="#37424A"/><path fill-rule="evenodd" clip-rule="evenodd" d="M22.75 9V9.8375H16.3V11.2475H17.25C19.5925 11.2475 21.5 13.1537 21.5 15.4975V16.9375C21.5 17.153 21.4144 17.3597 21.262 17.512C21.1097 17.6644 20.903 17.75 20.6875 17.75H14.8125C14.3638 17.75 14 17.3862 14 16.9375V15.8438L5.48125 14.405C5.42029 14.3945 5.36493 14.363 5.32475 14.316C5.28457 14.269 5.2621 14.2093 5.26125 14.1475L5.25 11.7637C5.25 11.6938 5.27779 11.6267 5.32725 11.5773C5.37671 11.5278 5.4438 11.5 5.51375 11.5H6.55375C6.60831 11.4994 6.66171 11.5158 6.70651 11.5469C6.75132 11.5781 6.78531 11.6224 6.80375 11.6737L7.1975 12.7525H14V12.06C14 11.8445 14.0856 11.6378 14.238 11.4855C14.3903 11.3331 14.597 11.2475 14.8125 11.2475H15.4625V9.83875H9V9H22.75ZM16.9525 12.52V14.2212C16.9525 14.2575 16.9597 14.2933 16.9736 14.3268C16.9874 14.3602 17.0078 14.3906 17.0335 14.4161C17.0592 14.4417 17.0896 14.4619 17.1231 14.4757C17.1566 14.4894 17.1925 14.4964 17.2288 14.4962C18.3817 14.4943 19.1632 14.4954 19.5643 14.496C19.6746 14.4961 19.7562 14.4962 19.8088 14.4962C19.9663 14.4962 20.0338 14.4537 20.0713 14.39C20.0988 14.3375 20.1038 14.2813 20.0863 14.1775C19.925 13.1075 19 12.2825 17.8863 12.2825H17.2288C17.1623 12.2839 17.0984 12.3083 17.048 12.3516C16.9976 12.395 16.9638 12.4545 16.9525 12.52Z" fill="#fff"/><path d="M20.25 18.9988H15.25V20.2488H20.25V18.9988Z" fill="#fff"/></svg>