<svg width="28" height="28" viewBox="0 0 28 28" fill="none" xmlns="http://www.w3.org/2000/svg"><rect width="28" height="28" rx="4" fill="#37424A"/><path fill-rule="evenodd" clip-rule="evenodd" d="M22.4864 11.0653C22.5062 11.0755 22.5247 11.0881 22.5414 11.1028C22.6407 11.1791 22.7123 11.2857 22.7451 11.4066C22.7864 11.5578 22.5589 12.3803 22.3951 12.8803C22.3811 12.9236 22.3565 12.9628 22.3236 12.9942C22.2906 13.0257 22.2503 13.0484 22.2064 13.0603L9.53388 16.4741C9.48973 16.4859 9.44332 16.4867 9.39882 16.4762C9.35431 16.4657 9.3131 16.4444 9.27888 16.4141C9.07888 16.2353 5.48763 12.7291 5.48763 12.7291C5.43266 12.671 5.38935 12.6285 5.35563 12.5954C5.27893 12.5201 5.25187 12.4935 5.25013 12.4441C5.24763 12.3891 5.28138 12.3391 5.36013 12.3191L5.46013 12.2916C5.57513 12.2603 5.64388 12.2591 5.86388 12.3453L8.52638 13.3753L11.5126 12.5728L8.73888 9.85405C8.56013 9.68405 8.59388 9.50905 8.80763 9.48655L9.80013 9.39155C10.1088 9.37318 10.169 9.39922 10.4924 9.53906C10.499 9.54193 10.5058 9.54484 10.5126 9.5478L15.2964 11.5553L20.0676 10.2703C20.2332 10.2359 20.4049 10.2463 20.5651 10.3003C21.1526 10.4953 22.2301 10.9153 22.4126 11.0203L22.4664 11.0516L22.4864 11.0653ZM20.6376 11.4516L20.9764 11.3603C21.0489 11.3428 21.1089 11.3053 21.1139 11.2303C21.1189 11.1553 21.0814 11.1153 21.0114 11.0866L20.3789 10.8316C20.3438 10.8179 20.3053 10.8157 20.2689 10.8253L19.9301 10.9166C19.8948 10.9264 19.8635 10.9469 19.8404 10.9754C19.8173 11.0038 19.8037 11.0387 19.8014 11.0753C19.799 11.1118 19.8083 11.1482 19.8278 11.1792C19.8473 11.2102 19.8761 11.2342 19.9101 11.2478L20.4851 11.4591C20.5373 11.4808 20.5856 11.4666 20.622 11.456C20.6275 11.4544 20.6327 11.4529 20.6376 11.4516Z" fill="#fff"/><path d="M21.5 18.9988H6.5V20.2488H21.5V18.9988Z" fill="#fff"/></svg>