<svg width="56" height="28" viewBox="0 0 56 28" fill="none" xmlns="http://www.w3.org/2000/svg"><path d="M0 4C0 1.79086 1.79086 0 4 0H28V28H4C1.79086 28 0 26.2091 0 24V4Z" fill="#A2AD00"/><path fill-rule="evenodd" clip-rule="evenodd" d="M4.86073 9.8356C4.94109 9.35341 5.35828 9 5.84712 9H22.1529C22.6417 9 23.0589 9.35341 23.1393 9.8356L23.9592 14.755C23.986 14.9159 23.973 15.0809 23.9215 15.2356L23.2279 17.3162C23.0918 17.7246 22.7097 18 22.2792 18H5.72075C5.29032 18 4.90819 17.7246 4.77207 17.3162L4.07854 15.2356C4.02696 15.0809 4.01401 14.9159 4.04083 14.755L4.86073 9.8356ZM19.5 11.5C19.5 11.2239 19.7239 11 20 11H21.8264C22.0709 11 22.2794 11.1767 22.3196 11.4178L22.653 13.4178C22.7038 13.7226 22.4687 14 22.1598 14H20C19.7239 14 19.5 13.7761 19.5 13.5V11.5ZM6.17356 11C5.92914 11 5.72054 11.1767 5.68036 11.4178L5.34703 13.4178C5.29623 13.7226 5.53126 14 5.84023 14H7.99999C8.27614 14 8.5 13.7761 8.5 13.5V11.5C8.5 11.2239 8.27614 11 7.99999 11H6.17356ZM14.5 11.5C14.5 11.2239 14.7239 11 15 11H18C18.2761 11 18.5 11.2239 18.5 11.5V13.5C18.5 13.7761 18.2761 14 18 14H15C14.7239 14 14.5 13.7761 14.5 13.5V11.5ZM10 11C9.72385 11 9.5 11.2239 9.5 11.5V13.5C9.5 13.7761 9.72385 14 10 14H13C13.2761 14 13.5 13.7761 13.5 13.5V11.5C13.5 11.2239 13.2761 11 13 11H10Z" fill="#000"/><path d="M5 19H23V20H5V19Z" fill="#000"/><path fill-rule="evenodd" clip-rule="evenodd" d="M12.5 7.5C12.5 7.22386 12.7239 7 13 7H16C16.2022 7 16.3845 7.12182 16.4619 7.30866C16.5393 7.4955 16.4965 7.71055 16.3535 7.85355L14.3535 9.85355C14.1583 10.0488 13.8417 10.0488 13.6464 9.85355C13.4512 9.65829 13.4512 9.34171 13.6464 9.14645L14.7929 8H13C12.7239 8 12.5 7.77614 12.5 7.5Z" fill="#000"/><path d="M28 0H52C54.2091 0 56 1.79086 56 4V24C56 26.2091 54.2091 28 52 28H28V0Z" fill="#37424A"/><path d="M38.2549 11.7075V10.25H45.7486V11.7075H42.7299V19H41.2699V11.7075H38.2549Z" fill="#fff"/><path fill-rule="evenodd" clip-rule="evenodd" d="M33.25 14C33.25 9.175 37.175 5.25 42 5.25C46.825 5.25 50.75 9.175 50.75 14C50.75 18.825 46.825 22.75 42 22.75C37.175 22.75 33.25 18.825 33.25 14ZM49.5 14C49.5 9.865 46.135 6.5 42 6.5C37.8637 6.5 34.5 9.865 34.5 14C34.5 18.135 37.8637 21.5 42 21.5C46.135 21.5 49.5 18.135 49.5 14Z" fill="#fff"/></svg>