<svg width="28" height="28" viewBox="0 0 28 28" fill="none" xmlns="http://www.w3.org/2000/svg"><rect width="28" height="28" rx="4" fill="#71D6E0"/><g clip-path="url(#clip0_4642_396)"><path fill-rule="evenodd" clip-rule="evenodd" d="M3.88197 20L2.7764 19.4472L3.22361 18.5528L4.32918 19.1056C4.75148 19.3167 5.24853 19.3167 5.67082 19.1056L5.88197 19C6.58579 18.6481 7.41422 18.6481 8.11804 19L8.32918 19.1056C8.75148 19.3167 9.24853 19.3167 9.67082 19.1056L9.88197 19C10.5858 18.6481 11.4142 18.6481 12.118 19L12.3292 19.1056C12.7515 19.3167 13.2485 19.3167 13.6708 19.1056L13.882 19C14.5858 18.6481 15.4142 18.6481 16.118 19L16.3292 19.1056C16.7515 19.3167 17.2485 19.3167 17.6708 19.1056L17.882 19C18.5858 18.6481 19.4142 18.6481 20.118 19L20.3292 19.1056C20.7515 19.3167 21.2485 19.3167 21.6708 19.1056L21.882 19C22.5858 18.6481 23.4142 18.6481 24.118 19L25.2236 19.5528L24.7764 20.4472L23.6708 19.8944C23.2485 19.6833 22.7515 19.6833 22.3292 19.8944L22.118 20C21.4142 20.3519 20.5858 20.3519 19.882 20L19.6708 19.8944C19.2485 19.6833 18.7515 19.6833 18.3292 19.8944L18.118 20C17.4142 20.3519 16.5858 20.3519 15.882 20L15.6708 19.8944C15.2485 19.6833 14.7515 19.6833 14.3292 19.8944L14.118 20C13.4142 20.3519 12.5858 20.3519 11.882 20L11.6708 19.8944C11.2485 19.6833 10.7515 19.6833 10.3292 19.8944L10.118 20C9.41422 20.3519 8.58579 20.3519 7.88197 20L7.67082 19.8944C7.24853 19.6833 6.75148 19.6833 6.32918 19.8944L6.11804 20C5.41422 20.3519 4.58579 20.3519 3.88197 20Z" fill="#000"/><path fill-rule="evenodd" clip-rule="evenodd" d="M23.3063 15.5H4.69372C4.35244 15.5 4.11145 15.8343 4.21938 16.1581L4.88604 18.1581C4.89842 18.1953 4.91487 18.2302 4.9348 18.2625C5.1862 18.2734 5.43971 18.2211 5.67082 18.1056L5.88197 18C6.58579 17.6481 7.41422 17.6481 8.11804 18L8.32918 18.1056C8.75147 18.3167 9.24853 18.3167 9.67082 18.1056L9.88197 18C10.5858 17.6481 11.4142 17.6481 12.118 18L12.3292 18.1056C12.7515 18.3167 13.2485 18.3167 13.6708 18.1056L13.882 18C14.5858 17.6481 15.4142 17.6481 16.118 18L16.3292 18.1056C16.7515 18.3167 17.2485 18.3167 17.6708 18.1056L17.882 18C18.5858 17.6481 19.4142 17.6481 20.118 18L20.3292 18.1056C20.7515 18.3167 21.2485 18.3167 21.6708 18.1056L21.882 18C22.3107 17.7856 22.7856 17.7019 23.2505 17.7486L23.7806 16.1581C23.8886 15.8343 23.6476 15.5 23.3063 15.5Z" fill="#000"/><path fill-rule="evenodd" clip-rule="evenodd" d="M12.2236 11.5528C12.4706 11.6763 12.5707 11.9766 12.4472 12.2236L11.5854 13.9472C11.416 14.286 11.0698 14.5 10.691 14.5H6.80902L5.94722 16.2236C5.82372 16.4706 5.52339 16.5707 5.2764 16.4472C5.02941 16.3237 4.9293 16.0234 5.05279 15.7764L5.91459 14.0528C6.08399 13.714 6.43025 13.5 6.80902 13.5H10.691L11.5528 11.7764C11.6763 11.5294 11.9766 11.4293 12.2236 11.5528ZM15.7764 11.5528C16.0234 11.4293 16.3237 11.5294 16.4472 11.7764L17.309 13.5H21.191C21.5698 13.5 21.916 13.714 22.0854 14.0528L22.9472 15.7764C23.0707 16.0234 22.9706 16.3237 22.7236 16.4472C22.4766 16.5707 22.1763 16.4706 22.0528 16.2236L21.191 14.5H17.309C16.9303 14.5 16.584 14.286 16.4146 13.9472L15.5528 12.2236C15.4293 11.9766 15.5294 11.6763 15.7764 11.5528Z" fill="#000"/><path fill-rule="evenodd" clip-rule="evenodd" d="M11.1293 10.1961C11.0056 9.57732 11.4789 9 12.1099 9H15.8901C16.5211 9 16.9944 9.57733 16.8707 10.1961L16.4903 12.0981C16.4361 12.3688 16.1727 12.5444 15.9019 12.4903C15.6312 12.4361 15.4556 12.1727 15.5097 11.9019L15.8901 10H12.1099L12.4903 11.9019C12.5445 12.1727 12.3688 12.4361 12.0981 12.4903C11.8273 12.5444 11.5639 12.3688 11.5097 12.0981L11.1293 10.1961Z" fill="#000"/><path d="M14.5 11.5C14.5 11.2239 14.7239 11 15 11H16V12H15C14.7239 12 14.5 11.7761 14.5 11.5Z" fill="#000"/><path d="M13.5 11.5C13.5 11.2239 13.2761 11 13 11H12V12H13C13.2761 12 13.5 11.7761 13.5 11.5Z" fill="#000"/></g><defs><clipPath id="clip0_4642_396"><rect width="20" height="20" fill="#fff" transform="translate(4 4)"/></clipPath></defs></svg>