<svg width="52" height="28" viewBox="0 0 52 28" fill="none" xmlns="http://www.w3.org/2000/svg"><rect width="52" height="28" rx="4" fill="#A2AD00"/><path fill-rule="evenodd" clip-rule="evenodd" d="M4 10C4 9.44772 4.44772 9 5 9H22.1529C22.6417 9 23.0589 9.35341 23.1393 9.8356L23.9864 14.9184C23.9954 14.9727 24 15.0277 24 15.0828V17C24 17.5523 23.5523 18 23 18H21.95C21.7184 16.8589 20.7095 16 19.5 16C18.2905 16 17.2816 16.8589 17.05 18H10.95C10.7184 16.8589 9.70948 16 8.5 16C7.29052 16 6.28164 16.8589 6.05001 18H5C4.44772 18 4 17.5523 4 17V10ZM5 11.5C5 11.2239 5.22386 11 5.5 11H6.5C6.77614 11 7 11.2239 7 11.5V13.5C7 13.7761 6.77614 14 6.5 14H5.5C5.22386 14 5 13.7761 5 13.5V11.5ZM20.5 11C20.2239 11 20 11.2239 20 11.5V13.5C20 13.7761 20.2239 14 20.5 14H22.1598C22.4687 14 22.7038 13.7226 22.653 13.4178L22.3196 11.4178C22.2795 11.1767 22.0709 11 21.8264 11H20.5ZM8 11.5C8 11.2239 8.22386 11 8.5 11H12.5C12.7761 11 13 11.2239 13 11.5V13.5C13 13.7761 12.7761 14 12.5 14H8.5C8.22386 14 8 13.7761 8 13.5V11.5ZM14.5 11C14.2239 11 14 11.2239 14 11.5V13.5C14 13.7761 14.2239 14 14.5 14H18.5C18.7761 14 19 13.7761 19 13.5V11.5C19 11.2239 18.7761 11 18.5 11H14.5Z" fill="#000"/><path d="M21 18.5C21 19.3284 20.3284 20 19.5 20C18.6716 20 18 19.3284 18 18.5C18 17.6716 18.6716 17 19.5 17C20.3284 17 21 17.6716 21 18.5Z" fill="#000"/><path d="M8.5 20C9.32843 20 10 19.3284 10 18.5C10 17.6716 9.32843 17 8.5 17C7.67157 17 7 17.6716 7 18.5C7 19.3284 7.67157 20 8.5 20Z" fill="#000"/><path fill-rule="evenodd" clip-rule="evenodd" d="M28.8607 9.8356C28.9411 9.35341 29.3583 9 29.8471 9H46.1529C46.6417 9 47.0589 9.35341 47.1393 9.8356L47.9592 14.755C47.986 14.9159 47.973 15.0809 47.9215 15.2356L47.2279 17.3162C47.0918 17.7246 46.7097 18 46.2792 18H29.7208C29.2903 18 28.9082 17.7246 28.7721 17.3162L28.0785 15.2356C28.027 15.0809 28.014 14.9159 28.0408 14.755L28.8607 9.8356ZM43.5 11.5C43.5 11.2239 43.7239 11 44 11H45.8264C46.0709 11 46.2794 11.1767 46.3196 11.4178L46.653 13.4178C46.7038 13.7226 46.4687 14 46.1598 14H44C43.7239 14 43.5 13.7761 43.5 13.5V11.5ZM30.1736 11C29.9291 11 29.7205 11.1767 29.6804 11.4178L29.347 13.4178C29.2962 13.7226 29.5313 14 29.8402 14H32C32.2761 14 32.5 13.7761 32.5 13.5V11.5C32.5 11.2239 32.2761 11 32 11H30.1736ZM38.5 11.5C38.5 11.2239 38.7239 11 39 11H42C42.2761 11 42.5 11.2239 42.5 11.5V13.5C42.5 13.7761 42.2761 14 42 14H39C38.7239 14 38.5 13.7761 38.5 13.5V11.5ZM34 11C33.7239 11 33.5 11.2239 33.5 11.5V13.5C33.5 13.7761 33.7239 14 34 14H37C37.2761 14 37.5 13.7761 37.5 13.5V11.5C37.5 11.2239 37.2761 11 37 11H34Z" fill="#000"/><path d="M29 19H47V20H29V19Z" fill="#000"/><path fill-rule="evenodd" clip-rule="evenodd" d="M36.5 7.5C36.5 7.22386 36.7239 7 37 7H40C40.2022 7 40.3845 7.12182 40.4619 7.30866C40.5393 7.4955 40.4965 7.71055 40.3535 7.85355L38.3535 9.85355C38.1583 10.0488 37.8417 10.0488 37.6464 9.85355C37.4512 9.65829 37.4512 9.34171 37.6464 9.14645L38.7929 8H37C36.7239 8 36.5 7.77614 36.5 7.5Z" fill="#000"/></svg>