<svg width="52" height="28" viewBox="0 0 52 28" fill="none" xmlns="http://www.w3.org/2000/svg"><rect width="52" height="28" rx="4" fill="#37424A"/><path d="M4.72728 19.675V8.16666H9.38069C11.7478 8.16666 13.3474 9.70589 13.3474 12.0107V12.0267C13.3474 14.3236 11.7478 15.8708 9.38069 15.8708H6.81162V19.675H4.72728ZM8.87172 9.84944H6.81162V14.2119H8.87172C10.3663 14.2119 11.2388 13.4144 11.2388 12.0347V12.0187C11.2388 10.639 10.3663 9.84944 8.87172 9.84944Z" fill="#fff"/><path d="M15.711 14.822V13.0196H19.2496V9.56632H21.0754V13.0196H24.6139V14.822H21.0754V18.2753H19.2496V14.822H15.711Z" fill="#fff"/><path fill-rule="evenodd" clip-rule="evenodd" d="M47.8577 16.0344L46.8236 9.76937C46.8047 9.64864 46.7429 9.53848 46.6493 9.4586C46.5556 9.37872 46.4363 9.33432 46.3125 9.33333H28.2159C27.6989 9.33333 27.1818 9.85541 27.1818 10.379V17.5612C27.1818 17.8208 27.3709 18.0833 27.625 18.0833H29.9103C30.259 17.0348 31.2488 16.3333 32.4261 16.3333C33.6035 16.3333 34.5948 17.0348 34.9419 18.0833H40.1774C40.526 17.0348 41.5158 16.3333 42.6932 16.3333C43.8706 16.3333 44.8604 17.0348 45.209 18.0833H47.3466C47.6317 18.0833 47.8636 17.8485 47.8636 17.5612V16.1204C47.8636 16.0912 47.8607 16.0621 47.8577 16.0329V16.0344ZM43.6623 11.9437C43.6623 11.655 43.8957 11.4217 44.1793 11.4217H45.7851C45.9121 11.422 46.0345 11.4683 46.129 11.552C46.2235 11.6356 46.2836 11.7507 46.2977 11.8752L46.571 13.9635C46.5807 14.037 46.5744 14.1115 46.5528 14.1824C46.5312 14.2533 46.4946 14.3189 46.4455 14.3748C46.3979 14.4305 46.3387 14.4752 46.2719 14.506C46.205 14.5367 46.1322 14.5526 46.0584 14.5527H44.1793C44.1106 14.5519 44.0428 14.5378 43.9796 14.5112C43.9165 14.4845 43.8593 14.4459 43.8113 14.3974C43.7632 14.3489 43.7254 14.2916 43.6998 14.2286C43.6743 14.1657 43.6615 14.0984 43.6623 14.0306V11.9437ZM37.4577 11.9437C37.4577 11.655 37.6897 11.4217 37.9748 11.4217H42.1111C42.3963 11.4217 42.6282 11.655 42.6282 11.9437V14.0292C42.629 14.097 42.6162 14.1642 42.5907 14.2272C42.5651 14.2901 42.5272 14.3474 42.4792 14.3959C42.4312 14.4444 42.374 14.4831 42.3108 14.5097C42.2477 14.5364 42.1798 14.5505 42.1111 14.5512H37.9748C37.9061 14.5505 37.8383 14.5364 37.7751 14.5097C37.7119 14.4831 37.6547 14.4444 37.6067 14.3959C37.5587 14.3474 37.5208 14.2901 37.4953 14.2272C37.4697 14.1642 37.457 14.097 37.4577 14.0292V11.9437ZM31.2532 11.9437C31.2532 11.655 31.4851 11.4217 31.7702 11.4217H35.9066C36.1932 11.4217 36.4251 11.655 36.4251 11.9437V14.0292C36.4263 14.166 36.3726 14.2977 36.2757 14.3955C36.1788 14.4933 36.0467 14.5493 35.9081 14.5512H31.7717C31.703 14.5505 31.6352 14.5364 31.572 14.5097C31.5089 14.4831 31.4517 14.4444 31.4036 14.3959C31.3556 14.3474 31.3178 14.2901 31.2922 14.2272C31.2666 14.1642 31.2539 14.097 31.2547 14.0292V11.9437H31.2532ZM28.1509 11.9437C28.1509 11.655 28.3843 11.4217 28.668 11.4217H29.7035C29.9886 11.4217 30.2191 11.655 30.2191 11.9437V14.0292C30.2201 14.0969 30.2075 14.1641 30.1821 14.2271C30.1567 14.29 30.119 14.3473 30.0711 14.3958C30.0232 14.4443 29.9661 14.483 29.903 14.5097C29.8399 14.5364 29.7721 14.5505 29.7035 14.5512H28.6694C28.6008 14.5505 28.5329 14.5364 28.4698 14.5097C28.4066 14.4831 28.3494 14.4444 28.3014 14.3959C28.2534 14.3474 28.2155 14.2901 28.1899 14.2272C28.1644 14.1642 28.1516 14.097 28.1524 14.0292V11.9437H28.1509Z" fill="#fff"/><path d="M41.2159 19.25C41.2072 19.0532 41.2391 18.8567 41.3095 18.6724C41.38 18.4881 41.4875 18.3197 41.6256 18.1776C41.7637 18.0354 41.9296 17.9223 42.1132 17.8452C42.2969 17.768 42.4944 17.7284 42.694 17.7287C42.8935 17.729 43.091 17.7692 43.2743 17.8469C43.4577 17.9246 43.6233 18.0382 43.761 18.1807C43.8987 18.3233 44.0057 18.492 44.0755 18.6765C44.1454 18.861 44.1767 19.0576 44.1674 19.2544C44.1499 19.6295 43.9864 19.9834 43.7111 20.2425C43.4358 20.5017 43.0699 20.6459 42.6895 20.6454C42.3092 20.6448 41.9437 20.4994 41.6692 20.2395C41.3947 19.9796 41.2323 19.6252 41.2159 19.25Z" fill="#fff"/><path d="M32.4262 17.7914C31.6122 17.7914 30.9489 18.4462 30.9489 19.2497C30.9489 19.6365 31.1046 20.0074 31.3816 20.2809C31.6587 20.5544 32.0344 20.708 32.4262 20.708C32.818 20.708 33.1938 20.5544 33.4708 20.2809C33.7479 20.0074 33.9035 19.6365 33.9035 19.2497C33.9035 18.4462 33.2402 17.7914 32.4262 17.7914Z" fill="#fff"/></svg>