<svg width="28" height="28" viewBox="0 0 28 28" fill="none" xmlns="http://www.w3.org/2000/svg"><rect width="28" height="28" rx="4" fill="#37424A"/><path d="M10.2549 11.7075V10.25H17.7486V11.7075H14.7299V19H13.2699V11.7075H10.2549Z" fill="#fff"/><path fill-rule="evenodd" clip-rule="evenodd" d="M5.25 14C5.25 9.175 9.175 5.25 14 5.25C18.825 5.25 22.75 9.175 22.75 14C22.75 18.825 18.825 22.75 14 22.75C9.175 22.75 5.25 18.825 5.25 14ZM21.5 14C21.5 9.865 18.135 6.5 14 6.5C9.86375 6.5 6.5 9.865 6.5 14C6.5 18.135 9.86375 21.5 14 21.5C18.135 21.5 21.5 18.135 21.5 14Z" fill="#fff"/></svg>