<svg width="58" height="34" viewBox="0 0 58 34" fill="none" xmlns="http://www.w3.org/2000/svg"><path fill-rule="evenodd" clip-rule="evenodd" d="M14 0.399994C6.26801 0.399994 0 6.66801 0 14.4C0 22.132 6.26801 28.4 14 28.4H26L28.3739 33.1478C28.6319 33.6637 29.3681 33.6637 29.6261 33.1478L32 28.4H44C51.732 28.4 58 22.132 58 14.4C58 6.66801 51.732 0.399994 44 0.399994H14Z" fill="#fff"/><path fill-rule="evenodd" clip-rule="evenodd" d="M26.618 27.4L29 32.1639L31.382 27.4H44C51.1797 27.4 57 21.5797 57 14.4C57 7.22029 51.1797 1.39999 44 1.39999H14C6.8203 1.39999 1 7.22029 1 14.4C1 21.5797 6.8203 27.4 14 27.4H26.618ZM0 14.4C0 6.66801 6.26801 0.399994 14 0.399994H44C51.732 0.399994 58 6.66801 58 14.4C58 22.132 51.732 28.4 44 28.4H32L29.6261 33.1478C29.3681 33.6637 28.6319 33.6637 28.3739 33.1478L26 28.4H14C6.26801 28.4 0 22.132 0 14.4Z" fill="#464A00"/><path fill-rule="evenodd" clip-rule="evenodd" d="M17.357 16.1636L17.357 16.1637C17.363 16.1636 17.3687 16.1627 17.3744 16.1619C17.3804 16.161 17.3864 16.1601 17.3926 16.1601C17.3926 16.1601 17.3926 16.1601 17.3926 16.1601C17.3926 16.1601 17.3925 16.1601 17.3925 16.1601C17.3863 16.1601 17.3803 16.161 17.3743 16.1619C17.3686 16.1627 17.3629 16.1636 17.357 16.1636ZM17.2673 20.3963C16.1621 20.331 15.2828 19.4068 15.2828 18.28C15.2828 17.4194 15.7981 16.6802 16.5329 16.3483L16.2157 14.9143L16.2157 14.9145L16.5328 16.3483C15.798 16.6802 15.2827 17.4194 15.2827 18.28C15.2827 19.4068 16.162 20.331 17.2673 20.3963ZM7.98448 20.3963C6.87923 20.331 6 19.4068 6 18.28C6 17.1111 6.94641 16.1601 8.10975 16.1601C8.12962 16.1601 8.14942 16.1603 8.16915 16.1609C8.14939 16.1603 8.12955 16.1601 8.10965 16.1601C6.94631 16.1601 5.9999 17.1111 5.9999 18.28C5.9999 19.4068 6.87918 20.331 7.98448 20.3963ZM10.1768 17.8561L13.1306 17.8561C13.2758 17.8561 13.409 17.7823 13.4869 17.6591L15.9565 13.7413L15.1325 9.24793L15.1326 9.24794L15.9566 13.7413L13.487 17.6591C13.4091 17.7823 13.2759 17.8561 13.1307 17.8561H10.1768ZM13.7589 9.24724C13.5372 9.23456 13.3614 9.04985 13.3614 8.82398C13.3614 8.59004 13.5502 8.40002 13.7833 8.40002H15.1326C15.1506 8.40002 15.1684 8.40057 15.186 8.40166C15.1684 8.40057 15.1506 8.40002 15.1327 8.40002H13.7834C13.5503 8.40002 13.3615 8.59005 13.3615 8.82398C13.3615 9.04983 13.5372 9.23451 13.7589 9.24724ZM13.7833 9.34793H15.0492L15.8511 13.721L13.4024 17.6057C13.3427 17.7001 13.2413 17.7561 13.1306 17.7561H10.2569C10.022 16.7843 9.14888 16.0601 8.10965 16.0601C6.89063 16.0601 5.8999 17.0563 5.8999 18.28C5.8999 19.5038 6.89063 20.5 8.10965 20.5C9.14901 20.5 10.0221 19.7758 10.2569 18.804H13.1306C13.6014 18.804 14.033 18.5652 14.2844 18.1661L16.1705 15.1735L16.4179 16.2921C15.6883 16.6546 15.1827 17.4075 15.1827 18.28C15.1827 19.5038 16.1735 20.5 17.3925 20.5C18.6115 20.5 19.6022 19.5038 19.6022 18.28C19.6022 17.0719 18.6363 16.0853 17.4385 16.0606L16.0546 9.04463L16.0541 9.04238C15.9575 8.60591 15.5784 8.30002 15.1326 8.30002H13.7833C13.4945 8.30002 13.2614 8.53531 13.2614 8.82398C13.2614 9.11282 13.4945 9.34793 13.7833 9.34793ZM16.7223 17.2053L16.9803 18.3719C17.0214 18.5574 17.1775 18.6871 17.3561 18.7026C17.1775 18.6871 17.0215 18.5574 16.9804 18.3719L16.7224 17.2053C16.7223 17.2053 16.7223 17.2053 16.7223 17.2053ZM17.5472 17.0238C17.5831 17.0283 17.6186 17.0343 17.6535 17.0417C18.226 17.1629 18.6584 17.6691 18.6584 18.2801C18.6584 18.9816 18.0907 19.5521 17.3925 19.5521C17.3666 19.5521 17.3409 19.5514 17.3154 19.5498C17.3409 19.5514 17.3667 19.5522 17.3926 19.5522C18.0908 19.5522 18.6585 18.9816 18.6585 18.2801C18.6585 17.6318 18.1717 17.1015 17.5472 17.0238ZM17.9023 18.1665L17.6774 17.1499C18.1826 17.2778 18.5584 17.7336 18.5584 18.2801C18.5584 18.9268 18.035 19.4521 17.3925 19.4521C16.75 19.4521 16.2266 18.9269 16.2266 18.2801C16.2266 17.9151 16.395 17.5901 16.6574 17.3752L16.8826 18.3935C16.9368 18.6379 17.1526 18.8042 17.392 18.8042C17.4302 18.8042 17.4681 18.7998 17.5058 18.7916C17.7874 18.7287 17.9642 18.4484 17.9023 18.1665ZM8.10959 19.4521C7.46713 19.4521 6.94366 18.9269 6.94366 18.2801C6.94366 17.6333 7.4671 17.108 8.10959 17.108C8.56338 17.108 8.95503 17.3721 9.14668 17.756L8.10958 17.7561C7.82075 17.7561 7.58768 17.9914 7.58768 18.28C7.58768 18.5689 7.82078 18.804 8.10959 18.804H9.14666C8.95493 19.1881 8.56337 19.4521 8.10959 19.4521ZM8.18368 17.0102C8.66301 17.0383 9.06813 17.3375 9.25738 17.7559C9.27213 17.7886 9.28558 17.8219 9.29764 17.8559L8.10959 17.8561C7.87648 17.8561 7.68768 18.0461 7.68768 18.28C7.68768 18.5059 7.86347 18.6906 8.08523 18.7033C7.86352 18.6906 7.68778 18.5059 7.68778 18.28C7.68778 18.0461 7.87658 17.8561 8.10969 17.8561L9.29774 17.8559C9.13095 17.3858 8.70043 17.0405 8.18368 17.0102ZM9.29764 18.704C9.28557 18.738 9.27212 18.7714 9.25736 18.804C9.05835 19.244 8.62102 19.5521 8.10959 19.5521C8.0837 19.5521 8.05799 19.5514 8.03248 19.5498C8.05802 19.5514 8.08376 19.5522 8.10969 19.5522C8.65905 19.5522 9.12291 19.1966 9.29774 18.704L9.29764 18.704Z" fill="#464A00"/></svg>