<svg width="60" height="60" viewBox="0 0 60 60" fill="none" xmlns="http://www.w3.org/2000/svg"><circle cx="30" cy="30" r="30" fill="#464A00" fill-opacity="0.15"/><circle cx="30" cy="30" r="20.5" fill="#fff" stroke="#464A00"/><path fill-rule="evenodd" clip-rule="evenodd" d="M35.4578 31.1996L35.4578 31.1997C35.4649 31.1997 35.4717 31.1987 35.4785 31.1976C35.4855 31.1966 35.4926 31.1955 35.5 31.1955C36.1852 31.1955 36.8069 31.474 37.2589 31.9241C36.8068 31.4739 36.1851 31.1953 35.4998 31.1953C35.4924 31.1953 35.4853 31.1964 35.4783 31.1975C35.4715 31.1985 35.4648 31.1995 35.4578 31.1996ZM33.7462 35.4963C33.2858 35.0404 33 34.4069 33 33.7076C33 32.6878 33.6105 31.8118 34.4812 31.4186L34.1054 29.7193L34.1053 29.7195L34.481 31.4184C33.6103 31.8116 32.9998 32.6876 32.9998 33.7074C32.9998 34.4069 33.2857 35.0404 33.7462 35.4963ZM22.7409 35.491C22.2836 35.0355 22 34.4042 22 33.7076C22 32.3224 23.1215 31.1955 24.5 31.1955C25.1849 31.1955 25.8063 31.4737 26.2582 31.9237C25.8063 31.4736 25.1848 31.1953 24.4998 31.1953C23.1213 31.1953 21.9998 32.3222 21.9998 33.7074C21.9998 34.4041 22.2835 35.0355 22.7409 35.491ZM26.9494 33.205H30.4495C30.6217 33.205 30.7795 33.1176 30.8717 32.9716L33.7981 28.3291L32.8218 23.0048H32.8219L33.7983 28.3293L30.8719 32.9718C30.7797 33.1178 30.6219 33.2052 30.4497 33.2052H26.9494C26.9494 33.2052 26.9494 33.2051 26.9494 33.205ZM30.8716 22.8596C30.78 22.7685 30.7232 22.6421 30.7232 22.5024C30.7232 22.2252 30.9469 22 31.2232 22H32.8221C33.0864 22 33.3285 22.1013 33.5084 22.2717C33.3285 22.1012 33.0863 21.9998 32.8219 21.9998H31.223C30.9468 21.9998 30.723 22.225 30.723 22.5022C30.723 22.642 30.7799 22.7685 30.8716 22.8596ZM31.223 23.2046H32.6551L33.5873 28.2885L30.7027 32.8648C30.6468 32.9532 30.5525 33.005 30.4495 33.005H27.1076C26.7989 31.8496 25.7477 30.9953 24.4998 30.9953C23.0099 30.9953 21.7998 32.2127 21.7998 33.7074C21.7998 35.2022 23.0099 36.4196 24.4998 36.4196C25.7479 36.4196 26.7991 35.5653 27.1077 34.4098H30.4495C31.0355 34.4098 31.5729 34.1123 31.8857 33.6158L34.015 30.2374L34.2518 31.3079C33.3914 31.7609 32.7998 32.664 32.7998 33.7074C32.7998 35.2022 34.0099 36.4196 35.4998 36.4196C36.9897 36.4196 38.1998 35.2022 38.1998 33.7074C38.1998 32.2538 37.0552 31.0623 35.6217 30.9981L33.9944 22.7479L33.9934 22.7434C33.8707 22.1891 33.3886 21.7998 32.8219 21.7998H31.223C30.8353 21.7998 30.523 22.1155 30.523 22.5022C30.523 22.8891 30.8354 23.2046 31.223 23.2046ZM34.7057 32.4342L35.0113 33.8163C35.033 33.9143 35.0819 33.9992 35.1481 34.0648C35.082 33.9992 35.0332 33.9144 35.0115 33.8165L34.7058 32.4341C34.7058 32.4341 34.7057 32.4341 34.7057 32.4342ZM36.5874 32.6754C36.8428 32.9438 36.9999 33.3066 36.9999 33.7075C36.9999 34.5388 36.3271 35.2149 35.4998 35.2149C35.0911 35.2149 34.72 35.0498 34.4492 34.7826C34.72 35.0499 35.0912 35.215 35.5 35.215C36.3273 35.215 37 34.539 37 33.7077C37 33.3067 36.8429 32.9438 36.5874 32.6754ZM36.1835 33.5553L35.9473 32.4874C36.4442 32.6703 36.7999 33.1462 36.7999 33.7075C36.7999 34.4292 36.2157 35.0149 35.4998 35.0149C34.7839 35.0149 34.1997 34.4293 34.1997 33.7075C34.1997 33.3497 34.3449 33.026 34.5795 32.7899L34.816 33.8595C34.8886 34.187 35.1779 34.41 35.4993 34.41C35.5507 34.41 35.6017 34.4041 35.6518 34.3931C36.0298 34.3088 36.2664 33.9328 36.1835 33.5553ZM24.4997 35.0149C23.7838 35.0149 23.1996 34.4293 23.1996 33.7075C23.1996 32.9857 23.7838 32.4001 24.4997 32.4001C24.957 32.4001 25.3585 32.641 25.5892 33.0049L24.4997 33.0051C24.112 33.0051 23.7998 33.3208 23.7998 33.7074C23.7998 34.0943 24.1121 34.4098 24.4997 34.4098H25.5892C25.3584 34.7739 24.957 35.0149 24.4997 35.0149ZM25.5759 32.6644C25.672 32.7655 25.7544 32.8801 25.82 33.0049C25.8537 33.069 25.8831 33.1358 25.9076 33.2049L24.4997 33.2051C24.2235 33.2051 23.9998 33.4302 23.9998 33.7074C23.9998 33.8473 24.0566 33.9738 24.1484 34.0649C24.0568 33.9738 24 33.8474 24 33.7076C24 33.4304 24.2237 33.2052 24.4999 33.2052L25.9078 33.2051C25.8355 33.0014 25.7215 32.8175 25.5759 32.6644ZM23.4427 34.7762C23.7141 35.0473 24.0879 35.215 24.4999 35.215C25.1509 35.215 25.7006 34.7937 25.9078 34.21H25.9075C25.883 34.279 25.8537 34.3458 25.82 34.4098C25.5689 34.8874 25.0737 35.2149 24.4997 35.2149C24.0878 35.2149 23.7141 35.0472 23.4427 34.7762Z" fill="#464A00"/></svg>