<svg width="58" height="34" viewBox="0 0 58 34" fill="none" xmlns="http://www.w3.org/2000/svg"><path fill-rule="evenodd" clip-rule="evenodd" d="M14.0081 0.199982C6.2761 0.199982 0.00808716 6.468 0.00808716 14.2C0.00808716 21.932 6.2761 28.2 14.0081 28.2H26.0081L28.382 32.9478C28.64 33.4637 29.3762 33.4637 29.6342 32.9478L32.0081 28.2H44.0081C51.7401 28.2 58.0081 21.932 58.0081 14.2C58.0081 6.468 51.7401 0.199982 44.0081 0.199982H14.0081Z" fill="#464A00"/><path fill-rule="evenodd" clip-rule="evenodd" d="M26.6261 27.2L29.0081 31.9639L31.3901 27.2H44.0081C51.1878 27.2 57.0081 21.3797 57.0081 14.2C57.0081 7.02028 51.1878 1.19998 44.0081 1.19998H14.0081C6.82839 1.19998 1.00809 7.02028 1.00809 14.2C1.00809 21.3797 6.82839 27.2 14.0081 27.2H26.6261ZM0.00808716 14.2C0.00808716 6.468 6.2761 0.199982 14.0081 0.199982H44.0081C51.7401 0.199982 58.0081 6.468 58.0081 14.2C58.0081 21.932 51.7401 28.2 44.0081 28.2H32.0081L29.6342 32.9478C29.3762 33.4637 28.64 33.4637 28.382 32.9478L26.0081 28.2H14.0081C6.2761 28.2 0.00808716 21.932 0.00808716 14.2Z" fill="#323600"/><path fill-rule="evenodd" clip-rule="evenodd" d="M17.3651 15.9636L17.3651 15.9636C17.371 15.9636 17.3768 15.9627 17.3825 15.9619C17.3885 15.961 17.3944 15.9601 17.4007 15.9601C17.4007 15.9601 17.4007 15.9601 17.4007 15.9601C17.4007 15.9601 17.4006 15.9601 17.4006 15.9601C17.3944 15.9601 17.3884 15.961 17.3824 15.9619C17.3767 15.9627 17.371 15.9636 17.3651 15.9636ZM17.2754 20.1963C16.1701 20.131 15.2909 19.2068 15.2909 18.08C15.2909 17.2194 15.8062 16.4802 16.541 16.1483L16.2238 14.7143L16.2237 14.7144L16.5409 16.1483C15.8061 16.4801 15.2908 17.2194 15.2908 18.08C15.2908 19.2068 16.1701 20.131 17.2754 20.1963ZM7.99257 20.1963C6.88732 20.131 6.00809 19.2068 6.00809 18.08C6.00809 16.9111 6.9545 15.9601 8.11784 15.9601C8.1377 15.9601 8.15751 15.9603 8.17724 15.9609C8.15747 15.9603 8.13764 15.96 8.11774 15.96C6.9544 15.96 6.00799 16.911 6.00799 18.08C6.00799 19.2068 6.88727 20.131 7.99257 20.1963ZM10.1849 17.6561L13.1387 17.6561C13.2839 17.6561 13.4171 17.5823 13.495 17.4591L15.9646 13.5413L15.1406 9.04792L15.1407 9.04793L15.9646 13.5413L13.4951 17.4591C13.4172 17.5823 13.284 17.6561 13.1388 17.6561H10.1849ZM13.767 9.04723C13.5453 9.03454 13.3695 8.84984 13.3695 8.62396C13.3695 8.39003 13.5583 8.20001 13.7914 8.20001H15.1407C15.1587 8.20001 15.1764 8.20056 15.1941 8.20165C15.1765 8.20056 15.1587 8.20001 15.1408 8.20001H13.7915C13.5584 8.20001 13.3696 8.39003 13.3696 8.62397C13.3696 8.84981 13.5453 9.0345 13.767 9.04723ZM13.7914 9.14792H15.0573L15.8592 13.521L13.4104 17.4057C13.3508 17.5001 13.2494 17.5561 13.1387 17.5561H10.265C10.0301 16.5843 9.15697 15.86 8.11774 15.86C6.89872 15.86 5.90799 16.8563 5.90799 18.08C5.90799 19.3038 6.89872 20.3 8.11774 20.3C9.1571 20.3 10.0302 19.5758 10.265 18.604H13.1387C13.6095 18.604 14.0411 18.3652 14.2925 17.9661L16.1786 14.9735L16.426 16.0921C15.6964 16.4545 15.1908 17.2075 15.1908 18.08C15.1908 19.3038 16.1816 20.3 17.4006 20.3C18.6196 20.3 19.6103 19.3038 19.6103 18.08C19.6103 16.8719 18.6444 15.8852 17.4466 15.8606L16.0627 8.84462L16.0622 8.84237C15.9656 8.4059 15.5865 8.10001 15.1407 8.10001H13.7914C13.5026 8.10001 13.2695 8.3353 13.2695 8.62396C13.2695 8.91281 13.5026 9.14792 13.7914 9.14792ZM16.7304 17.0053L16.9883 18.1719C17.0295 18.3574 17.1856 18.4871 17.3641 18.5026C17.1856 18.4871 17.0296 18.3573 16.9884 18.1719L16.7305 17.0053C16.7304 17.0053 16.7304 17.0053 16.7304 17.0053ZM17.5553 16.8238C17.5912 16.8283 17.6267 16.8343 17.6616 16.8417C18.2341 16.9629 18.6665 17.4691 18.6665 18.0801C18.6665 18.7816 18.0988 19.3521 17.4006 19.3521C17.3747 19.3521 17.349 19.3513 17.3235 19.3498C17.349 19.3514 17.3748 19.3521 17.4007 19.3521C18.0989 19.3521 18.6666 18.7816 18.6666 18.0801C18.6666 17.4318 18.1797 16.9015 17.5553 16.8238ZM17.9104 17.9665L17.6855 16.9499C18.1907 17.0778 18.5665 17.5336 18.5665 18.0801C18.5665 18.7268 18.0431 19.2521 17.4006 19.2521C16.7581 19.2521 16.2347 18.7269 16.2347 18.0801C16.2347 17.7151 16.403 17.3901 16.6655 17.1752L16.8907 18.1935C16.9449 18.4378 17.1607 18.6042 17.4001 18.6042C17.4383 18.6042 17.4762 18.5998 17.5139 18.5916C17.7955 18.5287 17.9723 18.2484 17.9104 17.9665ZM8.11768 19.2521C7.47522 19.2521 6.95175 18.7269 6.95175 18.0801C6.95175 17.4333 7.47518 16.908 8.11768 16.908C8.57147 16.908 8.96312 17.1721 9.15477 17.5559L8.11767 17.5561C7.82884 17.5561 7.59576 17.7914 7.59576 18.08C7.59576 18.3689 7.82887 18.604 8.11768 18.604H9.15475C8.96302 18.9881 8.57146 19.2521 8.11768 19.2521ZM8.19177 16.8102C8.6711 16.8383 9.07622 17.1375 9.26546 17.5559C9.28022 17.5886 9.29367 17.6219 9.30573 17.6559L8.11768 17.6561C7.88457 17.6561 7.69577 17.8461 7.69577 18.08C7.69577 18.3059 7.87156 18.4906 8.09331 18.5033C7.87161 18.4906 7.69586 18.3059 7.69586 18.08C7.69586 17.8461 7.88467 17.6561 8.11778 17.6561L9.30583 17.6559C9.13904 17.1858 8.70852 16.8404 8.19177 16.8102ZM9.30573 18.504C9.29366 18.538 9.28021 18.5714 9.26545 18.604C9.06644 19.044 8.62911 19.3521 8.11768 19.3521C8.09179 19.3521 8.06608 19.3513 8.04057 19.3498C8.06611 19.3514 8.09185 19.3521 8.11778 19.3521C8.66714 19.3521 9.131 18.9966 9.30583 18.504L9.30573 18.504Z" fill="#fff"/></svg>