<svg width="48" height="48" viewBox="0 0 48 48" fill="none" xmlns="http://www.w3.org/2000/svg"><path d="M42 1H6C3.23858 1 1 3.23857 1 6V42C1 44.7614 3.23857 47 6 47H42C44.7614 47 47 44.7614 47 42V6C47 3.23858 44.7614 1 42 1Z" fill="#909A00"/><path d="M42 1H6C3.23858 1 1 3.23857 1 6V42C1 44.7614 3.23857 47 6 47H42C44.7614 47 47 44.7614 47 42V6C47 3.23858 44.7614 1 42 1Z" stroke="#fff" stroke-width="2"/><path d="M29.8311 33.0406C31.4411 33.0406 32.75 31.7316 32.75 30.1216C32.75 28.5116 31.4411 27.2026 29.8311 27.2026C28.2211 27.2026 26.9189 28.5116 26.9189 30.1216C26.9189 31.7316 28.2211 33.0406 29.8311 33.0406Z" fill="#fff"/><path d="M18.1689 33.0406C19.7789 33.0406 21.0811 31.7316 21.0811 30.1216C21.0811 28.5116 19.7789 27.2026 18.1689 27.2026C16.5589 27.2026 15.25 28.5116 15.25 30.1216C15.25 31.7316 16.5589 33.0406 18.1689 33.0406Z" fill="#fff"/><path fill-rule="evenodd" clip-rule="evenodd" d="M11.1689 17.2904C11.1689 16.0024 12.212 14.9594 13.5 14.9594H28.6689C33.1769 14.9594 36.8311 18.6134 36.8311 23.1284V28.9594C36.8311 30.2474 35.788 31.2904 34.5 31.2904H33.989C34.087 30.9194 34.1432 30.5274 34.1432 30.1214C34.1432 27.7344 32.2111 25.8024 29.8311 25.8024C27.4511 25.8024 25.5121 27.7344 25.5121 30.1214C25.5121 30.5274 25.5681 30.9194 25.6731 31.2904H22.3201C22.4251 30.9194 22.4811 30.5274 22.4811 30.1214C22.4811 27.7344 20.5491 25.8024 18.1621 25.8024C15.7751 25.8024 13.8432 27.7344 13.8432 30.1214C13.8432 30.5274 13.8992 30.9194 14.0042 31.2904H13.5C12.212 31.2904 11.1689 30.2474 11.1689 28.9594V17.2904ZM21.6621 17.2904H18.1621V20.7904H21.6621V17.2904ZM24 20.7904V17.2904H27.5V20.7904H24ZM29.8311 21.4764L31.483 23.1284H34.5C34.5 20.3074 32.4981 17.9554 29.8311 17.4094V21.4764ZM13.5 20.7904H15.8311V17.2904H13.5V20.7904Z" fill="#fff"/></svg>