<svg width="32" height="32" viewBox="0 0 32 32" fill="none" xmlns="http://www.w3.org/2000/svg"><path d="M26 1H6C3.23858 1 1 3.23858 1 6V26C1 28.7614 3.23858 31 6 31H26C28.7614 31 31 28.7614 31 26V6C31 3.23858 28.7614 1 26 1Z" fill="#909A00"/><path d="M26 1H6C3.23858 1 1 3.23858 1 6V26C1 28.7614 3.23858 31 6 31H26C28.7614 31 31 28.7614 31 26V6C31 3.23858 28.7614 1 26 1Z" stroke="#fff" stroke-width="2"/><path d="M20.165 22.4576C21.315 22.4576 22.25 21.5226 22.25 20.3726C22.25 19.2226 21.315 18.2876 20.165 18.2876C19.015 18.2876 18.085 19.2226 18.085 20.3726C18.085 21.5226 19.015 22.4576 20.165 22.4576Z" fill="#fff"/><path d="M11.835 22.4576C12.985 22.4576 13.915 21.5226 13.915 20.3726C13.915 19.2226 12.985 18.2876 11.835 18.2876C10.685 18.2876 9.75 19.2226 9.75 20.3726C9.75 21.5226 10.685 22.4576 11.835 22.4576Z" fill="#fff"/><path fill-rule="evenodd" clip-rule="evenodd" d="M6.83496 11.2075C6.83496 10.2875 7.58 9.54245 8.5 9.54245H19.335C22.555 9.54245 25.165 12.1525 25.165 15.3775V19.5424C25.165 20.4624 24.42 21.2075 23.5 21.2075H23.135C23.205 20.9425 23.2451 20.6625 23.2451 20.3725C23.2451 18.6675 21.865 17.2875 20.165 17.2875C18.465 17.2875 17.0801 18.6675 17.0801 20.3725C17.0801 20.6625 17.1201 20.9425 17.1951 21.2075H14.8C14.875 20.9425 14.915 20.6625 14.915 20.3725C14.915 18.6675 13.5351 17.2875 11.8301 17.2875C10.1251 17.2875 8.74512 18.6675 8.74512 20.3725C8.74512 20.6625 8.78511 20.9425 8.86011 21.2075H8.5C7.58 21.2075 6.83496 20.4624 6.83496 19.5424V11.2075ZM14.3301 11.2075H11.8301V13.7075H14.3301V11.2075ZM16 13.7075V11.2075H18.5V13.7075H16ZM20.165 14.1975L21.345 15.3775H23.5C23.5 13.3625 22.07 11.6824 20.165 11.2924V14.1975ZM8.5 13.7075H10.165V11.2075H8.5V13.7075Z" fill="#fff"/></svg>