<svg width="40" height="40" viewBox="0 0 40 40" fill="none" xmlns="http://www.w3.org/2000/svg">
<path fill-rule="evenodd" clip-rule="evenodd" d="M40 2.41902C40 1.08224 38.9163 0 37.581 0L10.8302 0.0115896C4.84883 0.0120153 0 4.8609 0 10.8425L0.0111378 37.5824C0.0114447 38.9207 1.09703 40 2.43002 40H37.581C38.9135 40 40 38.921 40 37.5818V2.41902ZM32.7127 6.84869C35.3238 5.61992 37.1481 4.06304 37.9401 1.81818L10.831 1.8236C5.85341 1.8236 1.81821 5.85878 1.81821 10.8363L1.82001 15.1013C2.40068 14.6414 2.98361 14.2248 3.56684 13.8537L3.65188 13.7976C4.51145 13.2123 5.43303 12.7243 6.46885 12.3059C9.56953 11.0529 13.1466 10.6721 16.9333 10.2693L16.9447 10.2681C17.721 10.1856 18.5228 10.1003 19.3347 10.0053C22.9415 9.58406 28.1555 8.71231 32.5158 6.95088L32.7127 6.84869ZM17.3548 13.9336L17.3549 13.9336C18.1335 13.8508 18.938 13.7653 19.7616 13.6689C23.5926 13.2214 29.1537 12.2863 33.8936 10.3714C35.4952 9.72416 36.7247 9.03091 38.1821 7.97222V37.5796C38.1821 37.9115 37.913 38.1817 37.5811 38.1817H2.43029C2.09841 38.1817 1.82945 37.9115 1.82945 37.5796L1.82222 20.0808C2.73161 19.1392 4.05159 17.913 5.55234 16.9601L5.68855 16.8707L5.71233 16.8546C6.35501 16.416 7.05308 16.047 7.84658 15.7265C10.4703 14.666 13.7987 14.3119 17.3231 13.937L17.3548 13.9336ZM30.4774 31.256C30.1986 31.5556 29.8785 31.7051 29.5165 31.7051H28.43V28.0698H29.5165C29.8785 28.0698 30.1986 28.2232 30.4774 28.5293C30.756 28.8358 30.8953 29.2814 30.8953 29.8665C30.8953 30.4933 30.756 30.9566 30.4774 31.256ZM30.2894 24.988C30.0805 25.2876 29.774 25.4371 29.3702 25.4371H28.43V22.387H29.3702C29.774 22.387 30.0805 22.5404 30.2894 22.8467C30.4986 23.1531 30.6029 23.5151 30.6029 23.933C30.6029 24.3372 30.4986 24.6886 30.2894 24.988ZM10.0238 28.9681L11.0894 22.6377H11.1311L12.1966 28.9681H10.0238ZM18.9554 34.1286C19.2128 34.3238 19.6931 34.5061 20.593 34.5061L24.4703 34.5047H30.4149C31.2224 34.5047 31.9119 34.3968 32.4832 34.181C33.0541 33.9652 33.5174 33.662 33.8726 33.2721C34.2276 32.8822 34.4891 32.4155 34.656 31.8723C34.8231 31.329 34.9067 30.7372 34.9067 30.0963C34.9067 29.7066 34.8545 29.3201 34.7501 28.9366C34.6456 28.5539 34.4819 28.2023 34.2591 27.8815C34.0362 27.5615 33.7504 27.2935 33.4025 27.0771C33.0541 26.8615 32.6363 26.7325 32.1489 26.6907V26.649C32.5666 26.5655 32.9221 26.4192 33.2146 26.2103C33.507 26.0014 33.7474 25.7474 33.9351 25.4476C34.1235 25.1484 34.2623 24.8141 34.3533 24.4448C34.4435 24.0759 34.4891 23.6963 34.4891 23.306C34.4891 22.1779 34.1581 21.2762 33.4965 20.6006C32.8348 19.9251 31.8073 19.5873 30.4149 19.5873H24.5596L24.5654 31.9975H22.8728C22.5663 31.9975 22.34 31.9316 22.1938 31.7992C22.0475 31.6669 21.9745 31.4408 21.9745 31.1201V25.7298H23.4578V23.2017H21.9745V19.8798H18.2137V23.2017H14.4401L13.5546 19.5873H8.66575L5.09337 34.5047H9.16695L9.564 31.8929H12.6562L13.0531 34.5047H17.1898L15.0468 25.7298H18.2137V31.7469C18.2137 32.3738 18.2729 32.8785 18.391 33.2615C18.5096 33.6449 18.6976 33.9339 18.9554 34.1286Z" fill="black"/>
</svg>
