<svg width="40" height="40" viewBox="0 0 40 40" fill="none" xmlns="http://www.w3.org/2000/svg">
    <path fill-rule="evenodd" clip-rule="evenodd"
        d="M35.4142 4.58578C35.9925 5.16406 36.1605 6.03615 35.8383 6.78784L23.8383 34.7878C23.5112 35.5511 22.7465 36.0328 21.9169 35.9983C21.0872 35.9638 20.3652 35.4202 20.1026 34.6325L16.4189 23.5811L5.36756 19.8974C4.57981 19.6348 4.03625 18.9128 4.00174 18.0831C3.96723 17.2535 4.44895 16.4888 5.21217 16.1617L33.2122 4.16171C33.9639 3.83956 34.8359 4.00751 35.4142 4.58578ZM11.6229 17.7661L18.6325 20.1026C19.2297 20.3017 19.6983 20.7703 19.8974 21.3675L22.2339 28.3771L30.1921 9.80788L11.6229 17.7661Z"
        fill="black" />
</svg>