<svg width="20" height="20" viewBox="0 0 20 20" fill="none"
  xmlns="http://www.w3.org/2000/svg">
  <path fill-rule="evenodd" clip-rule="evenodd" d="M10 1.5C10.4332 1.5 10.8172 1.77896 10.9511 2.19098L12.5227 7.02786H17.6085C18.0417 7.02786 18.4256 7.30682 18.5595 7.71885C18.6934 8.13087 18.5467 8.58224 18.1962 8.83688L14.0817 11.8262L15.6533 16.6631C15.7872 17.0751 15.6406 17.5265 15.2901 17.7812C14.9396 18.0358 14.465 18.0358 14.1145 17.7812L10 14.7918L5.8855 17.7812C5.53502 18.0358 5.06042 18.0358 4.70993 17.7812C4.35945 17.5265 4.21279 17.0751 4.34666 16.6631L5.91826 11.8262L1.80376 8.83688C1.45328 8.58224 1.30662 8.13087 1.44049 7.71885C1.57437 7.30682 1.95832 7.02786 2.39155 7.02786H7.47735L9.04894 2.19098C9.18282 1.77896 9.56677 1.5 10 1.5Z" fill="black"/>
</svg>
