<svg width="40" height="40" viewBox="0 0 40 40" fill="none" xmlns="http://www.w3.org/2000/svg">
  <path fill-rule="evenodd" clip-rule="evenodd" d="M21.9021 4.38197C21.6343 3.55792 20.8664 3 20 3C19.1335 3 18.3656 3.55792 18.0979 4.38197L14.9547 14.0557H4.78308C3.91663 14.0557 3.14872 14.6136 2.88097 15.4377C2.61322 16.2617 2.90653 17.1645 3.60751 17.6738L11.8365 23.6525L8.69331 33.3262C8.42556 34.1503 8.71888 35.053 9.41985 35.5623C10.1208 36.0716 11.07 36.0716 11.771 35.5623L20 29.5836L28.229 35.5623C28.93 36.0716 29.8791 36.0716 30.5801 35.5623C31.2811 35.053 31.5744 34.1503 31.3067 33.3262L28.1635 23.6525L36.3925 17.6738C37.0934 17.1645 37.3867 16.2617 37.119 15.4377C36.8513 14.6136 36.0833 14.0557 35.2169 14.0557H25.0453L21.9021 4.38197ZM20 25.1115C20.4125 25.1115 20.8251 25.2388 21.1756 25.4934L25.6003 28.7082L23.9102 23.5066C23.6425 22.6825 23.9358 21.7798 24.6368 21.2705L29.0615 18.0557H23.5922C22.7258 18.0557 21.9578 17.4978 21.6901 16.6738L20 11.4722V25.1115Z" fill="black"/>
</svg>
