<svg width="20" height="20" viewBox="0 0 20 20" fill="none"
  xmlns="http://www.w3.org/2000/svg">
  <path d="M10 6C8.89543 6 8 6.89543 8 8C8 9.10457 8.89543 10 10 10C11.1046 10 12 9.10457 12 8C12 6.89543 11.1046 6 10 6Z" fill="black"/>
  <path fill-rule="evenodd" clip-rule="evenodd" d="M9.09707 18.5523C8.92236 18.4048 8.67607 18.1906 8.38202 17.9175C7.79519 17.3725 7.0116 16.5873 6.22563 15.6254C4.68183 13.736 3 11.0091 3 8C3 4.13401 6.13401 1 10 1C13.866 1 17 4.13401 17 8C17 11.0091 15.3182 13.736 13.7744 15.6254C12.9884 16.5873 12.2048 17.3725 11.618 17.9175C11.3239 18.1906 11.0776 18.4048 10.9029 18.5523C10.8317 18.6125 10.8309 18.6158 10.8305 18.6178C10.8298 18.6207 10.8298 18.6208 10.6155 18.7881C10.2538 19.0706 9.74619 19.0706 9.38445 18.7881C9.17025 18.6208 9.17022 18.6207 9.16955 18.6178C9.16909 18.6158 9.16832 18.6125 9.09707 18.5523ZM10 3C7.23858 3 5 5.23858 5 8C5 10.3046 6.31817 12.5777 7.77437 14.3599C8.4884 15.2338 9.20481 15.9522 9.74298 16.452C9.83428 16.5368 9.92025 16.6151 10 16.6866C10.0797 16.6151 10.1657 16.5368 10.257 16.452C10.7952 15.9522 11.5116 15.2338 12.2256 14.3599C13.6818 12.5777 15 10.3046 15 8C15 5.23858 12.7614 3 10 3Z" fill="black"/>
</svg>
