<svg width="40" height="40" viewBox="0 0 40 40" fill="none" xmlns="http://www.w3.org/2000/svg">
<g clip-path="url(#clip0)">
<path d="M0 0H39.9999V39.9999H0V0Z" fill="#71D6E0"/>
<path fill-rule="evenodd" clip-rule="evenodd" d="M35.1565 9.496C36.9037 8.78997 38.391 7.96177 40.0002 6.74407V8.51735e-06L39.616 0C39.0483 1.99148 37.2113 4.12033 33.8684 5.65312L33.6537 5.76461C28.897 7.68616 23.209 8.63716 19.2743 9.09674C18.3887 9.20031 17.5142 9.29332 16.6675 9.38336L16.6674 9.38337L16.6546 9.38473C12.5237 9.82411 8.62148 10.2395 5.23895 11.6064C4.10897 12.0629 3.10362 12.5952 2.16591 13.2337L2.07314 13.295C1.4369 13.6997 0.723337 14.2031 0.000244141 14.7868V20.2645C0.992297 19.2373 2.60185 17.7232 4.23902 16.6837L4.38761 16.5862L4.41355 16.5686C5.11466 16.0902 5.87618 15.6876 6.74181 15.338C9.60402 14.1811 13.235 13.7947 17.0797 13.3857L17.1141 13.3821C17.9636 13.2918 18.8413 13.1984 19.74 13.0933C23.9192 12.6052 29.9858 11.585 35.1565 9.496ZM31.5611 32.4204C31.2535 32.751 30.9002 32.916 30.5008 32.916H29.3019V28.9046H30.5008C30.9002 28.9046 31.2535 29.0739 31.5611 29.4117C31.8685 29.7498 32.0223 30.2416 32.0223 30.8871C32.0223 31.5788 31.8685 32.09 31.5611 32.4204ZM31.3536 25.504C31.1231 25.8346 30.785 25.9995 30.3394 25.9995H29.3019V22.6339H30.3394C30.785 22.6339 31.1231 22.8032 31.3536 23.1411C31.5845 23.4793 31.6996 23.8787 31.6996 24.3399C31.6996 24.7858 31.5845 25.1736 31.3536 25.504ZM8.99177 29.8958L10.1676 22.9106H10.2136L11.3893 29.8958H8.99177ZM18.8473 35.5902C19.1313 35.8056 19.6613 36.0067 20.6542 36.0067L24.9326 36.0052H31.4921C32.3832 36.0052 33.144 35.8861 33.7744 35.648C34.4044 35.4098 34.9156 35.0753 35.3075 34.645C35.6993 34.2149 35.9878 33.6999 36.1719 33.1005C36.3563 32.5009 36.4486 31.8479 36.4486 31.1407C36.4486 30.7107 36.391 30.2842 36.2757 29.8611C36.1605 29.4387 35.9798 29.0508 35.734 28.6969C35.488 28.3438 35.1726 28.048 34.7888 27.8092C34.4044 27.5713 33.9433 27.429 33.4056 27.3828V27.3368C33.8664 27.2447 34.2587 27.0832 34.5814 26.8527C34.9041 26.6222 35.1693 26.342 35.3764 26.0112C35.5844 25.681 35.7375 25.3121 35.838 24.9046C35.9374 24.4975 35.9878 24.0787 35.9878 23.648C35.9878 22.4032 35.6226 21.4083 34.8925 20.6627C34.1624 19.9174 33.0285 19.5447 31.4921 19.5447H25.0311L25.0376 33.2386H23.1699C22.8317 33.2386 22.5819 33.1659 22.4207 33.0198C22.2592 32.8738 22.1787 32.6243 22.1787 32.2704V26.3226H23.8154V23.5329H22.1787V19.8674H18.0289V23.5329H13.8649L12.8878 19.5447H7.49323L3.55132 36.0052H8.04628L8.48439 33.1232H11.8965L12.3345 36.0052H16.899L14.5344 26.3226H18.0289V32.9621C18.0289 33.6538 18.0941 34.2107 18.2245 34.6334C18.3554 35.0564 18.5628 35.3753 18.8473 35.5902Z" fill="white"/>
</g>
<defs>
<clipPath id="clip0">
<rect width="40" height="40" fill="white"/>
</clipPath>
</defs>
</svg>
