<svg width="40" height="40" viewBox="0 0 40 40" fill="none" xmlns="http://www.w3.org/2000/svg">
<path fill-rule="evenodd" clip-rule="evenodd" d="M20.0395 39.9999C31.0538 39.9786 39.9786 31.0538 39.9999 20.0395V19.9605C39.9786 8.93296 31.0325 0 20 0C8.9543 0 0 8.9543 0 20C0 31.0325 8.93296 39.9786 19.9605 39.9999H20.0395Z" fill="#71D6E0"/>
<path fill-rule="evenodd" clip-rule="evenodd" d="M33.9132 5.63254C34.9188 6.60659 35.8225 7.68529 36.6067 8.85108C36.1387 9.08035 35.6584 9.29322 35.1565 9.496C29.9858 11.585 23.9192 12.6052 19.74 13.0933C18.8413 13.1984 17.9636 13.2918 17.1141 13.3821L17.0797 13.3857C13.235 13.7947 9.60402 14.1811 6.74181 15.338C5.87618 15.6876 5.11466 16.0902 4.41355 16.5686L4.38761 16.5862L4.23902 16.6837C2.60265 17.7227 0.993865 19.2358 0.0016939 20.263C0.000993795 20.2087 0.000510267 20.1543 0.000244141 20.0999V19.9001C0.0100942 17.8856 0.317774 15.9415 0.881508 14.1097C1.29632 13.8063 1.69816 13.5335 2.07314 13.295L2.16591 13.2337C3.10362 12.5952 4.10897 12.0629 5.23895 11.6064C8.62148 10.2395 12.5237 9.82411 16.6546 9.38473L16.6674 9.38337L16.6675 9.38336C17.5142 9.29332 18.3887 9.20031 19.2743 9.09674C23.209 8.63716 28.897 7.68616 33.6537 5.76461L33.8684 5.65312C33.8834 5.64627 33.8983 5.63941 33.9132 5.63254ZM27.3941 29.1053C27.6797 29.1053 27.9323 28.9873 28.1522 28.7509C28.372 28.5147 28.482 28.1492 28.482 27.6546C28.482 27.193 28.372 26.8414 28.1522 26.5997C27.9323 26.3581 27.6797 26.2371 27.3941 26.2371H26.5369V29.1053H27.3941ZM27.2787 24.16C27.5973 24.16 27.8391 24.042 28.0039 23.8056C28.1689 23.5694 28.2512 23.2922 28.2512 22.9733C28.2512 22.6435 28.1689 22.358 28.0039 22.1162C27.8391 21.8745 27.5973 21.7535 27.2787 21.7535H26.5369V24.16H27.2787ZM12.8557 21.9514L12.015 26.9458H13.7292L12.8886 21.9514H12.8557ZM20.3537 31.3152C19.6437 31.3152 19.2648 31.1714 19.0618 31.0174C18.8583 30.8637 18.71 30.6357 18.6164 30.3332C18.5232 30.031 18.4766 29.6329 18.4766 29.1383V24.3909H15.978L17.6687 31.3141H14.405L14.0919 29.2535H11.6522L11.3389 31.3141H8.125L10.9435 19.5447H14.8007L15.4993 22.3963H18.4766V19.7754H21.4437V22.3963H22.614V24.3909H21.4437V28.6437C21.4437 28.8967 21.5013 29.0751 21.6167 29.1795C21.7321 29.284 21.9107 29.336 22.1524 29.336H23.4879L23.4832 19.5447H28.1029C29.2015 19.5447 30.0122 19.8111 30.5342 20.3441C31.0562 20.8772 31.3173 21.5886 31.3173 22.4786C31.3173 22.7865 31.2813 23.086 31.2102 23.3771C31.1384 23.6685 31.0289 23.9322 30.8802 24.1683C30.7321 24.4048 30.5425 24.6052 30.3118 24.77C30.081 24.9348 29.8005 25.0502 29.471 25.1161V25.149C29.8555 25.182 30.1852 25.2838 30.4601 25.4539C30.7345 25.6246 30.96 25.8361 31.1359 26.0886C31.3116 26.3416 31.4408 26.619 31.5232 26.921C31.6056 27.2236 31.6469 27.5285 31.6469 27.836C31.6469 28.3416 31.5808 28.8085 31.449 29.2372C31.3173 29.6658 31.1111 30.034 30.8309 30.3416C30.5507 30.6492 30.1852 30.8884 29.7348 31.0587C29.284 31.229 28.74 31.3141 28.1029 31.3141H23.4128L20.3537 31.3152Z" fill="white"/>
</svg>
