<svg width="40" height="40" viewBox="0 0 40 40" fill="none" xmlns="http://www.w3.org/2000/svg">
  <path fill-rule="evenodd" clip-rule="evenodd"
    d="M20 2C15.5817 2 12 5.58172 12 10C12 14.4183 15.5817 18 20 18C24.4183 18 28 14.4183 28 10C28 5.58172 24.4183 2 20 2ZM16 10C16 7.79086 17.7909 6 20 6C22.2091 6 24 7.79086 24 10C24 12.2091 22.2091 14 20 14C17.7909 14 16 12.2091 16 10Z"
    fill="black" />
  <path
    d="M8 36C8 29.3726 13.3726 24 20 24C26.6274 24 32 29.3726 32 36V38H36V36C36 27.1634 28.8366 20 20 20C11.1634 20 4 27.1634 4 36V38H8V36Z"
    fill="black" />
</svg>