<svg width="20" height="20" viewBox="0 0 20 20" fill="none"
  xmlns="http://www.w3.org/2000/svg">
  <path fill-rule="evenodd" clip-rule="evenodd" d="M10 1C7.79086 1 6 2.79086 6 5C6 7.20914 7.79086 9 10 9C12.2091 9 14 7.20914 14 5C14 2.79086 12.2091 1 10 1ZM8 5C8 3.89543 8.89543 3 10 3C11.1046 3 12 3.89543 12 5C12 6.10457 11.1046 7 10 7C8.89543 7 8 6.10457 8 5Z"/>
  <path d="M4 18C4 14.6863 6.68629 12 10 12C13.3137 12 16 14.6863 16 18V19H18V18C18 13.5817 14.4183 10 10 10C5.58172 10 2 13.5817 2 18V19H4V18Z" />
</svg>
