<svg width="16" height="12" viewBox="0 0 16 12" fill="black"
  xmlns="http://www.w3.org/2000/svg">
  <path fill-rule="evenodd" clip-rule="evenodd" d="M0.5 0C0.223858 0 0 0.223858 0 0.5V4.07567C0 4.32442 0.251246 4.5 0.5 4.5C1.32843 4.5 2 5.17157 2 6C2 6.82843 1.32843 7.5 0.5 7.5C0.251246 7.5 0 7.67558 0 7.92433V11.5C0 11.7761 0.223858 12 0.5 12H15.5C15.7761 12 16 11.7761 16 11.5V7.92433C16 7.67558 15.7488 7.5 15.5 7.5C14.6716 7.5 14 6.82843 14 6C14 5.17157 14.6716 4.5 15.5 4.5C15.7488 4.5 16 4.32442 16 4.07567V0.5C16 0.223857 15.7761 0 15.5 0H0.5ZM7.5 4C7.5 3.72386 7.72386 3.5 8 3.5C8.27614 3.5 8.5 3.72386 8.5 4V5.5H10C10.2761 5.5 10.5 5.72386 10.5 6C10.5 6.27614 10.2761 6.5 10 6.5H8.5V8C8.5 8.27614 8.27614 8.5 8 8.5C7.72386 8.5 7.5 8.27614 7.5 8V6.5H6C5.72386 6.5 5.5 6.27614 5.5 6C5.5 5.72386 5.72386 5.5 6 5.5H7.5V4Z" />
</svg>
