<svg width="20" height="20" viewBox="0 0 20 20" fill="none"
  xmlns="http://www.w3.org/2000/svg">
  <path fill-rule="evenodd" clip-rule="evenodd" d="M1 4C1 3.44772 1.44772 3 2 3H18C18.5523 3 19 3.44772 19 4V8C19 8.54879 18.5579 8.99433 18.0105 8.99995C18.0073 9.00006 17.9986 9.00041 17.9853 9.00137C17.9572 9.00337 17.9105 9.00787 17.8519 9.01764C17.7299 9.03798 17.5825 9.07678 17.4472 9.14443C17.3158 9.21011 17.2149 9.29294 17.1446 9.39845C17.0784 9.4977 17 9.67498 17 10C17 10.325 17.0784 10.5023 17.1446 10.6015C17.2149 10.7071 17.3158 10.7899 17.4472 10.8556C17.5825 10.9232 17.7299 10.962 17.8519 10.9824C17.9105 10.9921 17.9572 10.9966 17.9853 10.9986C17.9986 10.9996 18.0073 10.9999 18.0105 11.0001C18.5579 11.0057 19 11.4512 19 12V16C19 16.5523 18.5523 17 18 17H2C1.44772 17 1 16.5523 1 16V12C1 11.4512 1.44207 11.0057 1.98953 11.0001C1.99274 10.9999 2.00138 10.9996 2.01469 10.9986C2.04279 10.9966 2.08947 10.9921 2.1481 10.9824C2.27011 10.962 2.4175 10.9232 2.55279 10.8556C2.68416 10.7899 2.78511 10.7071 2.85545 10.6015C2.92162 10.5023 3 10.325 3 10C3 9.67498 2.92162 9.4977 2.85545 9.39845C2.78511 9.29294 2.68416 9.21011 2.55279 9.14443C2.4175 9.07678 2.27011 9.03798 2.1481 9.01764C2.08947 9.00787 2.04279 9.00337 2.01469 9.00137C2.00138 9.00041 1.99274 9.00006 1.98953 8.99995C1.44207 8.99433 1 8.54879 1 8V4ZM3 7.17265C3.14259 7.2192 3.29383 7.27888 3.44721 7.35557C3.81584 7.53989 4.21489 7.83206 4.51955 8.28905C4.82838 8.7523 5 9.32502 5 10C5 10.675 4.82838 11.2477 4.51955 11.711C4.21489 12.1679 3.81584 12.4601 3.44721 12.6444C3.29383 12.7211 3.14259 12.7808 3 12.8274V15H17V12.8274C16.8574 12.7808 16.7062 12.7211 16.5528 12.6444C16.1842 12.4601 15.7851 12.1679 15.4804 11.711C15.1716 11.2477 15 10.675 15 10C15 9.32502 15.1716 8.7523 15.4804 8.28905C15.7851 7.83206 16.1842 7.53989 16.5528 7.35557C16.7062 7.27888 16.8574 7.2192 17 7.17265V5H3V7.17265Z" />
</svg>
