<svg width="480" height="700" viewBox="0 0 96 140" fill="none" xmlns="http://www.w3.org/2000/svg">
<path fill-rule="evenodd" clip-rule="evenodd" d="M90.1939 0C93.3986 0 95.9996 2.59737 95.9996 5.80565V90.1964C95.9996 93.4104 93.3921 96 90.1939 96H5.83202C2.63286 96 0.0274672 93.4097 0.0267306 90.1977L0 26.022C0 11.6661 11.6371 0.0288367 25.9923 0.027815L90.1939 0ZM78.5098 16.437C84.7763 13.488 89.1547 9.75144 91.0555 4.36377L25.9938 4.37677C14.0477 4.37677 4.36328 14.0612 4.36328 26.0073L4.36762 36.2433C5.76122 35.1394 7.16025 34.1395 8.55999 33.2491L8.76409 33.1144C10.827 31.7096 13.0388 30.5385 15.5248 29.5343C22.9664 26.5271 31.5512 25.6132 40.6393 24.6466L40.6675 24.6436L40.6676 24.6435C42.5303 24.4454 44.4543 24.2408 46.4026 24.013C55.059 23.0019 67.5726 20.9097 78.0373 16.6823L78.5098 16.437ZM41.6499 33.4408C43.5188 33.2421 45.4497 33.0368 47.4267 32.8055C56.621 31.7316 69.9675 29.4873 81.3432 24.8914C85.187 23.3381 88.1379 21.6743 91.6356 19.1335V90.1912C91.6356 90.9877 90.9898 91.6361 90.1933 91.6361H5.83168C5.03517 91.6361 4.38966 90.9877 4.38966 90.1912L4.37233 48.194C6.55485 45.9342 9.72279 42.9913 13.3246 40.7044L13.6515 40.4898L13.7085 40.4512C15.251 39.3986 16.9263 38.5128 18.8307 37.7438C25.1276 35.1986 33.1157 34.3486 41.5742 33.4488L41.6499 33.4408ZM70.8388 76.0924C71.7076 76.0924 72.4759 75.7337 73.1449 75.0145C73.8135 74.296 74.148 73.1842 74.148 71.6796C74.148 70.2756 73.8135 69.206 73.1449 68.4705C72.4759 67.7358 71.7076 67.3677 70.8388 67.3677H68.2312V76.0924H70.8388ZM70.4877 61.0491C71.4569 61.0491 72.1924 60.6904 72.6937 59.9712C73.1958 59.2528 73.4462 58.4093 73.4462 57.4394C73.4462 56.4363 73.1958 55.5676 72.6937 54.8321C72.1924 54.097 71.4569 53.7289 70.4877 53.7289H68.2312V61.0491H70.4877ZM26.6141 54.3307L24.0566 69.5235H29.2712L26.7141 54.3307H26.6141ZM49.4225 82.8148C47.2628 82.8148 46.1101 82.3773 45.4924 81.9088C44.8736 81.4414 44.4225 80.7478 44.1378 79.8278C43.8542 78.9085 43.7123 77.6973 43.7123 76.1928V61.7517H36.1117L41.2549 82.8115H31.327L30.3744 76.5432H22.953L22.0001 82.8115H12.2236L20.7972 47.0098H32.5306L34.6556 55.6842H43.7123V47.7116H52.7382V55.6842H56.2981V61.7517H52.7382V74.6883C52.7382 75.4581 52.9134 76.0006 53.2645 76.3181C53.6153 76.636 54.1586 76.7942 54.894 76.7942H58.9563L58.9423 47.0098H72.995C76.3367 47.0098 78.8028 47.8204 80.3907 49.4415C81.9787 51.0631 82.773 53.2272 82.773 55.9346C82.773 56.8712 82.6635 57.7822 82.4472 58.6676C82.2286 59.554 81.8956 60.3563 81.4433 61.0744C80.9929 61.794 80.416 62.4034 79.7141 62.9048C79.0123 63.4061 78.1591 63.7573 77.1567 63.9577V64.0578C78.3263 64.1582 79.3291 64.4678 80.1653 64.9851C81.0001 65.5045 81.6861 66.1478 82.221 66.9158C82.7557 67.6856 83.1487 68.5294 83.3994 69.448C83.65 70.3684 83.7754 71.296 83.7754 72.2312C83.7754 73.7693 83.5746 75.1897 83.1736 76.4937C82.773 77.7974 82.1455 78.9175 81.2934 79.8531C80.4409 80.789 79.3291 81.5165 77.9589 82.0345C76.5877 82.5525 74.933 82.8115 72.995 82.8115H58.728L49.4225 82.8148Z" fill="white"/>
<rect x="3" y="108" width="90" height="32" rx="16" fill="white"/>
<path d="M25.5698 133C29.1909 133 31.5347 131.043 31.5347 128.078C31.5347 125.957 29.7417 124.188 27.562 124.129V123.895C29.4019 123.66 30.773 122.137 30.773 120.309C30.773 117.672 28.7573 116.09 25.3003 116.09H16.98V133H25.5698ZM21.9487 119.488H23.9409C25.2066 119.488 25.9448 120.133 25.9448 121.176C25.9448 122.195 25.148 122.863 23.8823 122.863H21.9487V119.488ZM21.9487 129.602V125.723H24.105C25.5933 125.723 26.4839 126.414 26.4839 127.621C26.4839 128.898 25.6167 129.602 24.0698 129.602H21.9487ZM46.0975 129.062H39.1366V126.332H45.6639V122.77H39.1366V120.027H46.0975V116.09H34.1678V133H46.0975V129.062ZM58.1877 133V120.027H62.8869V116.09H48.5197V120.027H53.2189V133H58.1877ZM74.6606 133H80.0981L74.5903 116.09H68.3559L62.8481 133H67.7466L68.6489 129.637H73.7934L74.6606 133ZM71.145 120.238H71.3794L72.9263 126.133H69.5395L71.145 120.238Z" fill="black"/>
</svg>
