<svg width="320" height="360" viewBox="0 0 320 360" fill="none" xmlns="http://www.w3.org/2000/svg">
<path d="M32.844 333.256C19.6367 341.642 8.00302 351.713 0 360V316.898C5.11018 312.85 10.2402 309.184 15.3729 305.919L16.1213 305.425C23.6859 300.274 31.7961 295.979 40.9118 292.297C68.1991 281.27 99.6787 277.919 133.003 274.374L133.107 274.363C139.937 273.637 146.992 272.886 154.137 272.051C185.879 268.343 231.764 260.672 270.137 245.17L271.869 244.271C294.848 233.457 313.03 219.756 320 200L320 254.158C307.174 263.476 296.354 269.576 282.259 275.272C240.546 292.124 191.606 300.354 157.892 304.292C150.721 305.131 143.715 305.876 136.931 306.598L136.779 306.614L136.707 306.622L136.431 306.651C105.415 309.951 76.1241 313.067 53.0342 322.4C46.0512 325.22 39.9079 328.468 34.2519 332.328L34.0427 332.469L32.844 333.256Z" fill="white"/>
<path fill-rule="evenodd" clip-rule="evenodd" d="M202.194 0C205.399 0 208 2.59737 208 5.80565V90.1964C208 93.4104 205.392 96 202.194 96H117.832C114.633 96 112.027 93.4097 112.027 90.1977L112 26.022C112 11.6661 123.637 0.0288367 137.992 0.027815L202.194 0ZM190.51 16.437C196.776 13.488 201.155 9.75144 203.055 4.36377L137.994 4.37677C126.048 4.37677 116.363 14.0612 116.363 26.0073L116.368 36.2433C117.761 35.1394 119.16 34.1395 120.56 33.2491L120.764 33.1144C122.827 31.7096 125.039 30.5385 127.525 29.5343C134.966 26.5271 143.551 25.6132 152.639 24.6466L152.668 24.6436L152.668 24.6435C154.53 24.4454 156.454 24.2408 158.403 24.013C167.059 23.0019 179.573 20.9097 190.037 16.6823L190.51 16.437ZM153.65 33.4408C155.519 33.2421 157.45 33.0368 159.427 32.8055C168.621 31.7316 181.968 29.4873 193.343 24.8914C197.187 23.3381 200.138 21.6743 203.636 19.1335V90.1912C203.636 90.9877 202.99 91.6361 202.193 91.6361H117.832C117.035 91.6361 116.39 90.9877 116.39 90.1912L116.372 48.194C118.555 45.9342 121.723 42.9913 125.325 40.7044L125.651 40.4898L125.709 40.4512C127.251 39.3986 128.926 38.5128 130.831 37.7438C137.128 35.1986 145.116 34.3486 153.574 33.4488L153.65 33.4408ZM182.839 76.0924C183.708 76.0924 184.476 75.7337 185.145 75.0145C185.814 74.296 186.148 73.1842 186.148 71.6796C186.148 70.2756 185.814 69.206 185.145 68.4705C184.476 67.7358 183.708 67.3677 182.839 67.3677H180.231V76.0924H182.839ZM182.488 61.0491C183.457 61.0491 184.192 60.6904 184.694 59.9712C185.196 59.2528 185.446 58.4093 185.446 57.4394C185.446 56.4363 185.196 55.5676 184.694 54.8321C184.192 54.097 183.457 53.7289 182.488 53.7289H180.231V61.0491H182.488ZM138.614 54.3307L136.057 69.5235H141.271L138.714 54.3307H138.614ZM161.423 82.8148C159.263 82.8148 158.11 82.3773 157.492 81.9088C156.874 81.4414 156.422 80.7478 156.138 79.8278C155.854 78.9085 155.712 77.6973 155.712 76.1928V61.7517H148.112L153.255 82.8115H143.327L142.374 76.5432H134.953L134 82.8115H124.224L132.797 47.0098H144.531L146.656 55.6842H155.712V47.7116H164.738V55.6842H168.298V61.7517H164.738V74.6883C164.738 75.4581 164.913 76.0006 165.265 76.3181C165.615 76.636 166.159 76.7942 166.894 76.7942H170.956L170.942 47.0098H184.995C188.337 47.0098 190.803 47.8204 192.391 49.4415C193.979 51.0631 194.773 53.2272 194.773 55.9346C194.773 56.8712 194.664 57.7822 194.447 58.6676C194.229 59.554 193.896 60.3563 193.443 61.0744C192.993 61.794 192.416 62.4034 191.714 62.9048C191.012 63.4061 190.159 63.7573 189.157 63.9577V64.0578C190.326 64.1582 191.329 64.4678 192.165 64.9851C193 65.5045 193.686 66.1478 194.221 66.9158C194.756 67.6856 195.149 68.5294 195.399 69.448C195.65 70.3684 195.775 71.296 195.775 72.2312C195.775 73.7693 195.575 75.1897 195.174 76.4937C194.773 77.7974 194.146 78.9175 193.293 79.8531C192.441 80.789 191.329 81.5165 189.959 82.0345C188.588 82.5525 186.933 82.8115 184.995 82.8115H170.728L161.423 82.8148Z" fill="black"/>
<rect x="101" y="108" width="119" height="32" rx="16" fill="white"/>
<path d="M125.851 133H131.288L125.78 116.09H119.546L114.038 133H118.937L119.839 129.637H124.984L125.851 133ZM122.335 120.238H122.57L124.116 126.133H120.73L122.335 120.238ZM133.746 116.934V120.062H131.765V123.566H133.746V129.332C133.746 131.934 135.199 133 138.878 133C139.792 133 140.66 132.918 141.117 132.824V129.484C140.835 129.52 140.554 129.543 140.039 129.543C139.031 129.543 138.55 129.109 138.55 128.277V123.566H141.117V120.062H138.55V116.934H133.746ZM152.433 133C156.055 133 158.398 131.043 158.398 128.078C158.398 125.957 156.605 124.188 154.426 124.129V123.895C156.265 123.66 157.637 122.137 157.637 120.309C157.637 117.672 155.621 116.09 152.164 116.09H143.844V133H152.433ZM148.812 119.488H150.805C152.07 119.488 152.808 120.133 152.808 121.176C152.808 122.195 152.012 122.863 150.746 122.863H148.812V119.488ZM148.812 129.602V125.723H150.969C152.457 125.723 153.347 126.414 153.347 127.621C153.347 128.898 152.48 129.602 150.933 129.602H148.812ZM172.961 129.062H166V126.332H172.528V122.77H166V120.027H172.961V116.09H161.031V133H172.961V129.062ZM185.051 133V120.027H189.75V116.09H175.383V120.027H180.083V133H185.051ZM201.524 133H206.962L201.454 116.09H195.22L189.712 133H194.61L195.512 129.637H200.657L201.524 133ZM198.009 120.238H198.243L199.79 126.133H196.403L198.009 120.238Z" fill="black"/>
</svg>
