<svg width="28" height="28" viewBox="0 0 28 28" fill="none" xmlns="http://www.w3.org/2000/svg">
<rect width="28" height="28" rx="2" fill="#007C92"/>
<path fill-rule="evenodd" clip-rule="evenodd" d="M4 10C4 9.44772 4.44772 9 5 9H22.1529C22.6417 9 23.0589 9.35341 23.1393 9.8356L23.9864 14.9184C23.9954 14.9727 24 15.0277 24 15.0828V17C24 17.5523 23.5523 18 23 18H21.95C21.7184 16.8589 20.7095 16 19.5 16C18.2905 16 17.2816 16.8589 17.05 18H10.95C10.7184 16.8589 9.70948 16 8.5 16C7.29052 16 6.28164 16.8589 6.05001 18H5C4.44772 18 4 17.5523 4 17V10ZM5 11.5C5 11.2239 5.22386 11 5.5 11H6.5C6.77614 11 7 11.2239 7 11.5V13.5C7 13.7761 6.77614 14 6.5 14H5.5C5.22386 14 5 13.7761 5 13.5V11.5ZM20.5 11C20.2239 11 20 11.2239 20 11.5V13.5C20 13.7761 20.2239 14 20.5 14H22.1598C22.4687 14 22.7038 13.7226 22.653 13.4178L22.3196 11.4178C22.2795 11.1767 22.0709 11 21.8264 11H20.5ZM8 11.5C8 11.2239 8.22386 11 8.5 11H12.5C12.7761 11 13 11.2239 13 11.5V13.5C13 13.7761 12.7761 14 12.5 14H8.5C8.22386 14 8 13.7761 8 13.5V11.5ZM14.5 11C14.2239 11 14 11.2239 14 11.5V13.5C14 13.7761 14.2239 14 14.5 14H18.5C18.7761 14 19 13.7761 19 13.5V11.5C19 11.2239 18.7761 11 18.5 11H14.5Z" fill="white"/>
<path d="M21 18.5C21 19.3284 20.3284 20 19.5 20C18.6716 20 18 19.3284 18 18.5C18 17.6716 18.6716 17 19.5 17C20.3284 17 21 17.6716 21 18.5Z" fill="white"/>
<path d="M8.5 20C9.32843 20 10 19.3284 10 18.5C10 17.6716 9.32843 17 8.5 17C7.67157 17 7 17.6716 7 18.5C7 19.3284 7.67157 20 8.5 20Z" fill="white"/>
</svg>
