<svg width="120" height="42" viewBox="0 0 120 42" fill="none" xmlns="http://www.w3.org/2000/svg">
<path d="M108.882 41.6051H44.8198L44.8276 41.5919C39.5143 41.3215 35.2899 36.9438 35.2899 31.5831C35.2899 26.0481 39.7935 21.5611 45.3492 21.5611C47.6715 21.5611 49.8096 22.345 51.5122 23.6616C51.2902 22.645 51.1731 21.5892 51.1731 20.5062C51.1731 12.3493 57.8102 5.73691 65.9973 5.73691C71.2793 5.73691 75.916 8.48915 78.5417 12.6327C81.2492 9.08346 85.5317 6.79186 90.3515 6.79186C98.0462 6.79186 104.371 12.6325 105.105 20.1068C106.284 19.6825 107.556 19.4512 108.882 19.4512C115.022 19.4512 120 24.4106 120 30.5282C120 36.6458 115.022 41.6051 108.882 41.6051Z" fill="#D4E9EC"/>
<path d="M20.5527 10.3158H2.6615L2.66367 10.3122C1.17978 10.2374 0 9.02654 0 7.54379C0 6.01284 1.25776 4.77175 2.80936 4.77175C3.45791 4.77175 4.05506 4.98856 4.53056 5.35274C4.46854 5.07153 4.43583 4.77951 4.43583 4.47996C4.43583 2.2238 6.28944 0.394836 8.57594 0.394836C10.0511 0.394836 11.346 1.15609 12.0793 2.30218C12.8355 1.32048 14.0315 0.686631 15.3776 0.686631C17.5265 0.686631 19.2931 2.30214 19.4978 4.36948C19.8271 4.25213 20.1824 4.18816 20.5527 4.18816C22.2676 4.18816 23.6578 5.55989 23.6578 7.252C23.6578 8.94411 22.2676 10.3158 20.5527 10.3158Z" fill="#D4E9EC"/>
</svg>
