<svg width="63" height="97" viewBox="0 0 63 97" fill="none" xmlns="http://www.w3.org/2000/svg">
<path d="M63 26.0234C63.0024 23.8561 62.4754 21.7177 61.4604 19.776C60.4454 17.8342 58.97 16.1419 57.1499 14.8318C58.1304 13.3435 58.6539 11.6254 58.6616 9.87044C58.6635 7.98421 58.0765 6.13968 56.9746 4.56951C55.8727 2.99934 54.3054 1.77385 52.4702 1.04761C50.635 0.321373 48.6142 0.126919 46.6626 0.488774C44.711 0.850629 42.9161 1.75259 41.5043 3.08088C40.4139 1.95619 39.0546 1.09651 37.5408 0.574269C36.027 0.0520234 34.4031 -0.117502 32.8058 0.0799736C31.2085 0.277449 29.6846 0.836142 28.3625 1.70899C27.0403 2.58185 25.9587 3.7433 25.2087 5.09552C23.5892 4.54304 21.8808 4.26164 20.1598 4.26386C17.3914 4.26369 14.6768 4.98901 12.3155 6.35977C9.95417 7.73053 8.038 9.69343 6.77841 12.0319C5.51881 14.3703 4.96476 16.9934 5.1774 19.6117C5.39004 22.2299 6.3611 24.7416 7.98342 26.8694C5.99513 28.2552 4.61255 30.2853 4.09816 32.5743C3.58378 34.8633 3.97343 37.2517 5.19313 39.2862C6.41283 41.3206 8.37766 42.8593 10.7145 43.6102C13.0514 44.3611 15.5976 44.2718 17.8696 43.3594C18.5548 45.3271 19.7661 47.0927 21.3852 48.484C23.0043 49.8752 24.976 50.8445 27.1079 51.2974C29.2397 51.7502 31.4589 51.6711 33.5489 51.0677C35.6389 50.4643 37.5283 49.3573 39.0328 47.8547C40.6047 49.5186 42.7423 50.6066 45.073 50.929C47.4038 51.2515 49.7799 50.7879 51.7874 49.6191C53.7948 48.4503 55.3062 46.6504 56.0583 44.5331C56.8103 42.4157 56.7553 40.1152 55.9028 38.0324C58.0715 36.7754 59.8632 35.0107 61.106 32.9078C62.3489 30.8049 63.001 28.4342 63 26.0234Z" fill="#D4F3F6"/>
<path d="M31.5577 91.0798L31.4745 53.8771L27.7785 48.3422L28.8065 47.5248L31.7315 51.1885L31.8146 44.3487L16.358 26.9913L17.6429 26.0162L25.632 34.082L20.9307 18.9255L22.7296 18.6818L24.9895 25.9517L27.1134 17.0901L27.8844 17.3984L26.214 27.7226L27.6954 34.082L31.2402 38.4195L43.409 12.5733H44.1195L40.4462 22.7111L43.6735 21.3703L44.059 21.9798L40.0607 25.034L35.6845 39.3372L47.1503 35.5445L45.9864 30.9058L46.7649 30.6621L48.5637 35.3008L53.4615 33.5944L53.59 34.8132L36.1984 44.5925L35.9415 91.0798H31.5577Z" fill="#5AABB3"/>
<g clip-path="url(#clip0_1_140)">
<path d="M8.48441 93.9684L9.28713 93.7063C8.90509 93.0055 8.6842 92.2381 8.6386 91.4532L6.37103 91.6815L6.55698 93.795L8.48441 93.9684Z" fill="#64747F"/>
<path d="M10.9878 93.0556L11.3779 91.9481L13.4187 91.8466L13.3189 92.5525L14.1579 93.4614L12.303 94.6872L10.9878 93.0556Z" fill="#64747F"/>
<path d="M8.82002 92.5354C8.93434 92.6697 9.02609 92.8193 9.09213 92.9793C9.21641 93.2597 9.30175 93.5537 9.3461 93.8543C9.36568 94.116 9.36568 94.3787 9.3461 94.6405L9.40053 94.9026C9.40053 94.9026 8.7656 94.9618 7.63635 95.9129C7.32796 96.1707 6.4935 96.9738 5.91754 96.995C5.34157 97.0161 3.72253 96.8597 3.56834 96.7075C3.41414 96.5554 3.59555 96.065 3.59555 96.065L5.43681 95.0252L6.14429 93.8543C6.14429 93.8543 5.98103 92.8736 6.82457 92.8186C7.6681 92.7637 8.18511 93.9684 8.18511 93.9684L9.01051 93.2371L8.82002 92.5354Z" fill="#455560"/>
<path d="M11.1826 92.5187C10.8374 92.7703 10.5737 93.1061 10.4208 93.4889C10.2679 93.8717 10.2317 94.2865 10.3164 94.6872L10.2483 95.0888C10.9682 95.3543 11.7449 95.4586 12.5159 95.3931C14.3935 95.6634 16.3062 95.6405 18.1758 95.3255C18.1758 95.3255 18.2801 94.9028 18.1758 94.7295C18.1758 94.7295 15.4547 94.0743 15.1826 94.0278L14.2211 93.3303L12.6066 93.846L11.0556 92.9245L11.1826 92.5187Z" fill="#455560"/>
<path d="M13.9674 92.7342C13.523 92.8342 13.1257 93.0666 12.836 93.3962C12.5462 93.7258 12.3798 94.1345 12.3619 94.5603L14.2123 93.3302L13.9674 92.7342Z" fill="#455560"/>
<path d="M14.1987 67.5323L3.88577 67.6168C3.88577 67.6168 3.78146 78.7002 3.77239 79.1863C3.76332 79.6724 5.97647 92.341 5.97647 92.341C5.97647 92.341 8.57964 92.21 9.04222 91.2166L7.71796 79.3808L7.95832 79.0595L7.61366 78.7848L9.24177 69.929L11.4458 80.315L10.7112 80.7377L10.9787 81.228L10.7656 81.7817L10.3121 91.9859L13.4368 91.8337L14.5932 81.3506L14.8109 80.7926L14.1987 67.5323Z" fill="#B6CDD3"/>
<path d="M5.9446 52.4711L7.06025 68.9567L12.6067 69.0412C12.6067 69.0412 13.5364 61.8552 13.1645 60.8449C12.7927 59.8347 12.126 52.7501 12.126 52.7501C12.126 52.7501 8.82895 55.2863 5.9446 52.4753" fill="white"/>
<path d="M8.33016 46.4309C8.33016 46.4309 8.22585 44.9683 8.24399 44.7697C8.26213 44.571 7.91746 42.8294 7.91746 42.8294C7.91746 42.8294 11.6272 43.2225 11.9673 43.2902C12.1445 43.6837 12.2783 44.093 12.3664 44.5118L12.2394 45.1332C12.6203 45.4627 12.9652 45.8266 13.2689 46.2195C13.2961 46.3633 12.3982 46.6423 12.3982 46.6423C12.3982 46.6423 11.21 48.0668 9.51383 47.885C8.99229 47.8301 8.33016 46.4394 8.33016 46.4394" fill="#64747F"/>
<path d="M6.64791 52.8939C7.01614 51.8584 7.29369 50.7967 7.47784 49.7194C7.52773 49.2967 7.21933 46.4772 7.21933 46.4772C7.45093 46.4746 7.68058 46.4375 7.8996 46.3673C7.8996 46.3673 8.57081 47.7495 9.11956 48.0962C9.7086 48.2602 10.3189 48.3484 10.9336 48.3583L11.0515 50.0237C11.3665 51.2026 11.6133 52.3963 11.7908 53.5998C11.7908 53.5998 8.63884 53.9591 6.64338 52.8939" fill="#64747F"/>
<path d="M6.19415 46.6167C5.76615 45.9199 5.56154 45.1233 5.60459 44.3214C5.63351 43.9326 5.76818 43.5571 5.99589 43.2302C6.22361 42.9033 6.53688 42.6359 6.90617 42.4531C7.40958 42.2375 10.4799 41.3751 12.0037 43.2985C12.0037 43.2985 9.36421 42.9688 9.11025 43.252C8.5751 43.8353 9.15106 44.0974 9.08304 44.8498C9.03923 45.4436 8.85492 46.0211 8.54335 46.5406L7.34608 47.2212L7.42771 48.2146C6.97947 47.7106 6.56738 47.1797 6.19415 46.6252" fill="#64747F"/>
<path d="M12.3299 46.5534C12.0747 46.7741 11.7759 46.9464 11.4501 47.0606C10.9966 47.2043 10.4297 47.6566 9.92173 47.5848C9.60139 47.5461 9.29976 47.4223 9.05288 47.2282C8.80599 47.034 8.62427 46.7778 8.52944 46.49L7.81289 46.5661C7.90361 47.1152 8.06659 47.6519 8.29815 48.1639C8.42805 48.4294 8.6236 48.6624 8.86875 48.8439C9.11391 49.0254 9.40171 49.1501 9.70857 49.208C10.5087 49.3398 11.3263 49.3512 12.1303 49.2418C12.5068 49.1699 12.8741 48.9839 12.8922 48.5993C12.9104 48.2146 12.6473 48.1766 12.6473 48.1766C12.6473 48.1766 13.0238 47.8299 12.5702 47.6355C12.5702 47.6355 12.8333 47.3607 12.7743 47.1578L12.3299 46.5534Z" fill="#64747F"/>
<path d="M6.64763 42.7489C6.60179 42.5744 6.49751 42.4181 6.34992 42.3025C6.20232 42.187 6.01908 42.1183 5.82677 42.1064C5.67805 42.0716 5.52279 42.069 5.37281 42.0987C5.22283 42.1283 5.0821 42.1896 4.96136 42.2776C4.84062 42.3657 4.74306 42.4783 4.67611 42.6069C4.60916 42.7354 4.5746 42.8765 4.57506 43.0195C4.53425 43.476 5.13742 43.9705 5.93561 43.8987C6.07831 43.4709 6.32155 43.0781 6.64763 42.7489" fill="#64747F"/>
<path d="M6.96486 50.4929C6.96486 50.4929 2.67462 51.6215 2.05784 52.3528C2.05784 52.3528 3.55897 55.223 3.81747 56.9222C4.07597 58.6215 3.36396 63.8927 3.19163 65.7991C3.09752 66.7972 3.0869 67.8007 3.15988 68.8003C3.15988 68.8003 6.89684 68.9398 8.0533 68.2762C8.0533 68.2762 7.00114 57.3407 6.71543 55.3075C6.71543 55.3075 6.86962 51.0297 6.96486 50.4929" fill="#8FB4BE"/>
<path d="M7.79052 68.3693L8.0082 69.3795C8.0082 69.3795 3.89483 70.0178 3.7361 70.0136C3.60589 69.6174 3.52225 69.2092 3.48667 68.7962C4.92498 68.741 6.35801 68.5998 7.77691 68.3735" fill="#5698A6"/>
<path d="M7.50021 49.7404C7.50021 49.7404 5.06484 49.8081 4.39817 50.6873C5.37207 52.3516 6.15057 54.109 6.72017 55.9289C6.72017 55.9289 6.81541 55.0835 6.91971 53.8153C7.01949 52.6444 7.46393 50.5732 7.473 50.3618L7.50021 49.7404Z" fill="#5698A6"/>
<path d="M7.79937 45.9151C7.79937 45.9151 7.79937 45.4924 7.42749 45.3952C7.34643 45.3819 7.26335 45.3837 7.18306 45.4006C7.10277 45.4174 7.02687 45.449 6.95978 45.4935C6.89269 45.5379 6.83575 45.5943 6.79225 45.6594C6.74876 45.7246 6.71957 45.7971 6.7064 45.8728C6.65373 46.0868 6.65499 46.3092 6.71007 46.5226C6.76515 46.7361 6.87256 46.9347 7.02386 47.1029C7.3133 47.2941 7.65396 47.4068 8.00799 47.4284L7.79937 45.9151Z" fill="#64747F"/>
<path d="M18.9695 69.76C18.9695 69.76 18.4298 69.3373 18.3572 69.1005C18.3572 69.1005 18.5477 67.8324 18.5477 67.676C18.3017 67.2051 18.0167 66.7529 17.6951 66.3234L18.9695 65.4145L19.8765 66.8898C19.8765 66.8898 21.3913 68.0142 21.5591 68.0818C21.5591 68.0818 21.3187 69.9375 21.296 70.17C21.2733 70.4025 19.8765 72.0722 19.804 72.106C19.7314 72.1398 19.3776 72.1863 19.4729 71.7213C19.5681 71.2564 19.9264 68.9441 19.9264 68.9441C19.9264 68.9441 19.0194 69.3161 18.9786 69.76" fill="#64747F"/>
<path d="M19.9627 70.1066C19.9627 70.1066 19.7496 70.6181 19.609 70.6646C19.4684 70.7111 19.0648 70.2672 18.9695 69.76C18.9695 69.76 19.0874 69.0837 19.4638 68.9146C19.5825 68.8536 19.7131 68.8154 19.8478 68.8023C19.9826 68.7892 20.1188 68.8015 20.2484 68.8385C20.3663 68.8977 20.1713 69.6839 19.9627 70.0855" fill="#64747F"/>
<path d="M15.1462 52.353L16.5702 59.6574H16.9875L16.8015 59.8898L19.7992 65.626L19.6042 66.0487L19.7992 66.4714L18.4387 67.5197L18.0623 67.097H17.3684L15.2777 64.5608L15.1598 60.0801C15.1598 60.0801 13.6949 55.0076 15.1598 52.3699" fill="#5698A6"/>
<path d="M15.1738 60.473L15.0196 55.8232C15.0196 55.8232 14.9516 55.0032 14.8428 54.0563L15.1421 52.3655L14.2668 51.3045C14.2668 51.3045 12.2759 50.6197 11.2283 50.2012C11.2283 50.2012 12.0854 60.0165 11.9856 61.4664C11.8859 62.9163 11.7317 68.6144 11.455 69.2062C12.8595 69.591 14.3355 69.6947 15.7861 69.5105L15.8405 68.9145L16.1625 68.775L15.1738 60.473Z" fill="#8FB4BE"/>
<path d="M15.8404 68.9908C15.8404 68.9908 12.7519 69.3797 11.6363 68.5343L11.4367 69.2783C12.8482 69.6262 14.3163 69.7294 15.7678 69.5826L15.8404 68.9908Z" fill="#5698A6"/>
<path d="M11.0556 49.8718C11.0556 49.8718 11.5681 52.9406 11.754 53.934C11.754 53.934 11.3776 51.1695 13.0828 52.9702C13.0828 52.9702 13.2869 50.0366 11.0556 49.8718" fill="#5698A6"/>
<path d="M2.0583 52.353L0.348548 58.9853L0.0628319 59.1247L0.375758 59.2389C0.375758 59.2389 3.77711 59.577 4.02655 59.4333C4.02655 59.4333 4.05829 57.0662 3.65466 55.8276C3.21926 54.6328 2.68556 53.4712 2.0583 52.353" fill="#5698A6"/>
<path d="M7.86761 56.8802C7.86761 56.8802 8.69301 55.6628 8.87442 55.481C9.05582 55.2992 10.0626 54.6356 10.0626 54.6356C10.0626 54.6356 10.2984 55.016 10.0626 55.2358C9.82679 55.4556 9.40049 55.7896 9.40049 55.7896L8.49347 57.3029L7.86761 56.8802Z" fill="#64747F"/>
<path d="M10.4572 54.3354C10.5161 54.4833 10.3438 54.6862 10.0626 54.7834C9.78144 54.8807 9.51387 54.8342 9.45492 54.682C9.39596 54.5298 9.56829 54.3311 9.84494 54.2339C10.1216 54.1367 10.3982 54.1832 10.4572 54.3354Z" fill="white"/>
<path d="M12.0217 53.5898L10.6614 53.1067C10.4273 53.0235 10.1653 53.133 10.0761 53.3511L9.01834 55.9384C8.92915 56.1566 9.04658 56.4008 9.28064 56.4839L10.641 56.9671C10.875 57.0502 11.1371 56.9408 11.2263 56.7226L12.284 54.1354C12.3732 53.9172 12.2558 53.673 12.0217 53.5898Z" fill="black"/>
<path d="M9.20564 56.0051L11.0197 55.4641C11.4577 55.4892 11.8898 55.5717 12.3031 55.7092C12.6478 55.8868 12.2532 57.4001 11.9811 57.6157C11.709 57.8312 9.40972 58.1229 9.40972 58.1229L7.19657 59.0148L7.14669 57.3705L9.20564 56.0051Z" fill="#64747F"/>
<path d="M7.4551 57.1211L7.10589 57.3409L6.3712 57.0788L3.92676 57.6749L0.79752 58.8415L0.489127 59.1205L0.348538 59.2516C0.348538 59.2516 -0.676403 61.0777 1.70908 61.9019L7.77256 59.7292L7.94036 59.1205L8.4619 58.8119L7.4551 57.1211Z" fill="#5698A6"/>
</g>
<defs>
<clipPath id="clip0_1_140">
<rect width="21.8077" height="55.5587" fill="white" transform="translate(0 41.4413)"/>
</clipPath>
</defs>
</svg>
