<svg width="40" height="40" viewBox="0 0 40 40" fill="none" xmlns="http://www.w3.org/2000/svg">
<path fill-rule="evenodd" clip-rule="evenodd" d="M25.126 25H14.874C14.4299 23.2748 12.8638 22 11 22C9.13616 22 7.57006 23.2748 7.12602 25H6C4.89543 25 4 24.1046 4 23V15C4 13.8954 4.89543 13 6 13H32.5585C33.4193 13 34.1836 13.5509 34.4558 14.3675L35.8974 18.6921C35.9653 18.896 36 19.1096 36 19.3246V23C36 24.1046 35.1046 25 34 25H32.874C32.4299 23.2748 30.8638 22 29 22C27.1362 22 25.5701 23.2748 25.126 25ZM7 15C6.44772 15 6 15.4477 6 16V18C6 18.5523 6.44772 19 7 19H10C10.5523 19 11 18.5523 11 18V16C11 15.4477 10.5523 15 10 15H7ZM13 16C13 15.4477 13.4477 15 14 15H18C18.5523 15 19 15.4477 19 16V18C19 18.5523 18.5523 19 18 19H14C13.4477 19 13 18.5523 13 18V16ZM22 15C21.4477 15 21 15.4477 21 16V18C21 18.5523 21.4477 19 22 19H26C26.5523 19 27 18.5523 27 18V16C27 15.4477 26.5523 15 26 15H22ZM29 16C29 15.4477 29.4477 15 30 15H31.7192C32.1781 15 32.5781 15.3123 32.6894 15.7575L33.5257 19.1026C33.7235 19.8941 32.9415 20.5766 32.1841 20.2737L29.6286 19.2514C29.249 19.0996 29 18.7319 29 18.323V16ZM13 26C13 27.1046 12.1046 28 11 28C9.89543 28 9 27.1046 9 26C9 24.8954 9.89543 24 11 24C12.1046 24 13 24.8954 13 26ZM31 26C31 27.1046 30.1046 28 29 28C27.8954 28 27 27.1046 27 26C27 24.8954 27.8954 24 29 24C30.1046 24 31 24.8954 31 26Z" fill="black"/>
</svg>
