<svg width="40" height="40" viewBox="0 0 40 40" fill="none" xmlns="http://www.w3.org/2000/svg">
<path fill-rule="evenodd" clip-rule="evenodd" d="M9.23607 18L10.2361 16H11.382C12.5183 16 13.5571 15.358 14.0652 14.3416L14.2361 14H15.6182H19.0002H21.382C22.5183 14 23.5571 13.358 24.0652 12.3416L24.2361 12H27V13C27 14.6569 28.3431 16 30 16H32.7639L31.7639 18H9.23607ZM35.2764 15.4472L33.2855 19.4291L33.2766 19.4472L31.4147 23.1709C30.4683 23.5933 29.3792 23.5715 28.4474 23.1056C26.9069 22.3353 25.0936 22.3353 23.553 23.1056C22.5755 23.5943 21.4249 23.5943 20.4474 23.1056C18.9069 22.3353 17.0936 22.3353 15.553 23.1056C14.5755 23.5943 13.4249 23.5943 12.4474 23.1056C10.9069 22.3353 9.09356 22.3353 7.55301 23.1056L6.7549 23.5046C6.74397 23.4859 6.7336 23.4668 6.72382 23.4472L4.72382 19.4472C4.39137 18.7823 4.87487 18 5.61825 18H7.02826C7.04595 17.9272 7.07183 17.8563 7.10557 17.7889L8.72361 14.5528C8.893 14.214 9.23926 14 9.61803 14H11.382C11.7607 14 12.107 13.786 12.2764 13.4472L12.7236 12.5528C12.893 12.214 13.2393 12 13.618 12H15.0002L15.7238 10.5528C15.8932 10.214 16.2395 10 16.6182 10H19.0002C19.5525 10 20.0002 10.4477 20.0002 11V12H21.382C21.7607 12 22.107 11.786 22.2764 11.4472L22.7236 10.5528C22.893 10.214 23.2393 10 23.618 10H28C28.5523 10 29 10.4477 29 11V13C29 13.5523 29.4477 14 30 14H34.382C35.1253 14 35.6088 14.7823 35.2764 15.4472ZM32.4474 26.8944L34.4474 25.8944L33.553 24.1056L31.553 25.1056C30.5755 25.5943 29.4249 25.5943 28.4474 25.1056C26.9069 24.3353 25.0936 24.3353 23.553 25.1056C22.5755 25.5943 21.4249 25.5943 20.4474 25.1056C18.9069 24.3353 17.0936 24.3353 15.553 25.1056C14.5755 25.5943 13.4249 25.5943 12.4474 25.1056C10.9069 24.3353 9.09355 24.3353 7.55299 25.1056L5.55299 26.1056L6.44742 27.8944L8.44742 26.8944C9.42492 26.4057 10.5755 26.4057 11.553 26.8944C13.0936 27.6647 14.9069 27.6647 16.4474 26.8944C17.4249 26.4057 18.5755 26.4057 19.553 26.8944C21.0935 27.6647 22.9069 27.6647 24.4474 26.8944C25.4249 26.4057 26.5755 26.4057 27.553 26.8944C29.0936 27.6647 30.9069 27.6647 32.4474 26.8944Z" fill="black"/>
</svg>
