<svg width="40" height="40" viewBox="0 0 40 40" fill="none" xmlns="http://www.w3.org/2000/svg">
<path fill-rule="evenodd" clip-rule="evenodd" d="M33.4142 6.58579C33.9731 7.14467 34.1504 7.98026 33.8667 8.71796L23.8667 34.718C23.5637 35.5059 22.7985 36.0187 21.9546 35.9995C21.1106 35.9803 20.3696 35.4333 20.1026 34.6325L16.4189 23.5811L5.36755 19.8974C4.5667 19.6304 4.01969 18.8894 4.00052 18.0454C3.98135 17.2015 4.49414 16.4363 5.28205 16.1333L31.282 6.13331C32.0197 5.84958 32.8553 6.0269 33.4142 6.58579ZM11.9211 17.8655L18.6325 20.1026C19.2297 20.3017 19.6983 20.7703 19.8974 21.3675L22.1345 28.0789L28.5179 11.4821L11.9211 17.8655Z" fill="black"/>
</svg>
