<svg width="320" height="272" viewBox="0 0 320 272" fill="none" xmlns="http://www.w3.org/2000/svg">
<g clip-path="url(#clip0)">
<path d="M124.433 105.227C124.436 101.99 123.697 98.7963 122.273 95.8964C120.85 92.9965 118.781 90.469 116.228 88.5124C117.603 86.2898 118.337 83.7238 118.348 81.1028C118.351 78.2858 117.527 75.531 115.982 73.186C114.437 70.841 112.238 69.0108 109.665 67.9262C107.091 66.8415 104.257 66.5511 101.52 67.0916C98.7825 67.632 96.2652 68.979 94.2851 70.9628C92.7559 69.2831 90.8494 67.9992 88.7263 67.2192C86.6032 66.4393 84.3257 66.1861 82.0855 66.481C79.8453 66.776 77.7081 67.6103 75.8538 68.9139C73.9996 70.2175 72.4826 71.9521 71.4307 73.9716C69.1594 73.1465 66.7634 72.7262 64.3497 72.7295C60.4671 72.7293 56.6598 73.8125 53.3481 75.8597C50.0364 77.9069 47.349 80.8384 45.5825 84.3309C43.8159 87.8233 43.0389 91.7408 43.3371 95.6511C43.6353 99.5613 44.9972 103.312 47.2725 106.49C44.4839 108.56 42.5449 111.592 41.8235 115.01C41.1021 118.429 41.6485 121.996 43.3591 125.034C45.0698 128.073 47.8254 130.371 51.1028 131.492C54.3803 132.614 57.9512 132.48 61.1378 131.118C62.0988 134.056 63.7975 136.693 66.0683 138.771C68.3391 140.849 71.1044 142.296 74.0943 142.973C77.0842 143.649 80.1966 143.531 83.1278 142.63C86.0589 141.729 88.7088 140.075 90.8188 137.831C93.0234 140.316 96.0213 141.941 99.2902 142.423C102.559 142.904 105.892 142.212 108.707 140.466C111.522 138.721 113.642 136.033 114.697 132.87C115.752 129.708 115.674 126.272 114.479 123.162C117.52 121.285 120.033 118.649 121.776 115.508C123.519 112.368 124.434 108.827 124.433 105.227Z" fill="#D4F3F6"/>
<path d="M80.3349 202.387L80.2183 146.825L75.0347 138.559L76.4764 137.339L80.5787 142.81L80.6953 132.595L59.0176 106.672L60.8196 105.216L72.0242 117.262L65.4308 94.6263L67.9537 94.2623L71.1232 105.12L74.1019 91.8852L75.1831 92.3456L72.8404 107.764L74.9181 117.262L79.8897 123.74L96.9562 85.1395H97.9527L92.8009 100.28L97.3273 98.2776L97.8679 99.1877L92.2603 103.749L86.1227 125.111L102.203 119.446L100.571 112.519L101.663 112.155L104.186 119.082L111.055 116.534L111.235 118.354L86.8435 132.959L86.4831 202.387H80.3349Z" fill="#5AABB3"/>
<path d="M47.6715 204.526L48.7757 204.139C48.2502 203.104 47.9463 201.972 47.8836 200.813L44.7642 201.15L45.02 204.27L47.6715 204.526Z" fill="#64747F"/>
<path d="M51.1157 203.178L51.6523 201.544L54.4597 201.394L54.3225 202.436L55.4767 203.777L52.925 205.587L51.1157 203.178Z" fill="#64747F"/>
<path d="M48.1332 202.411C48.2905 202.609 48.4167 202.83 48.5076 203.066C48.6785 203.48 48.7959 203.914 48.8569 204.357C48.8839 204.743 48.8839 205.131 48.8569 205.518L48.9318 205.904C48.9318 205.904 48.0584 205.992 46.5049 207.395C46.0807 207.776 44.9327 208.961 44.1404 208.993C43.3481 209.024 41.1208 208.793 40.9087 208.568C40.6966 208.344 40.9461 207.62 40.9461 207.62L43.4791 206.085L44.4523 204.357C44.4523 204.357 44.2277 202.91 45.3882 202.829C46.5486 202.748 47.2598 204.526 47.2598 204.526L48.3953 203.446L48.1332 202.411Z" fill="#455560"/>
<path d="M51.3833 202.386C50.9084 202.757 50.5457 203.253 50.3354 203.818C50.125 204.383 50.0753 204.995 50.1917 205.587L50.0981 206.179C51.0884 206.571 52.1569 206.725 53.2176 206.628C55.8005 207.027 58.4317 206.994 61.0036 206.529C61.0036 206.529 61.1471 205.905 61.0036 205.649C61.0036 205.649 57.2603 204.682 56.886 204.613L55.5633 203.584L53.3423 204.345L51.2087 202.985L51.3833 202.386Z" fill="#455560"/>
<path d="M55.2144 202.704C54.6031 202.852 54.0566 203.195 53.658 203.681C53.2594 204.167 53.0304 204.771 53.0059 205.399L55.5513 203.584L55.2144 202.704Z" fill="#455560"/>
<path d="M55.5325 165.508L41.3455 165.633C41.3455 165.633 41.202 181.991 41.1895 182.708C41.177 183.426 44.2216 202.124 44.2216 202.124C44.2216 202.124 47.8026 201.93 48.439 200.464L46.6173 182.995L46.9479 182.521L46.4738 182.116L48.7135 169.045L51.7456 184.374L50.7349 184.998L51.103 185.722L50.8097 186.539L50.1859 201.6L54.4844 201.375L56.0753 185.903L56.3748 185.079L55.5325 165.508Z" fill="#B6CDD3"/>
<path d="M44.1777 143.279L45.7125 167.61L53.3426 167.735C53.3426 167.735 54.6215 157.129 54.1099 155.638C53.5983 154.147 52.6812 143.691 52.6812 143.691C52.6812 143.691 48.1456 147.434 44.1777 143.285" fill="white"/>
<path d="M47.4593 134.364C47.4593 134.364 47.3158 132.206 47.3408 131.912C47.3658 131.619 46.8916 129.049 46.8916 129.049C46.8916 129.049 51.9949 129.629 52.4629 129.729C52.7066 130.31 52.8906 130.914 53.0119 131.532L52.8372 132.449C53.3612 132.935 53.8356 133.472 54.2534 134.052C54.2908 134.264 53.0555 134.676 53.0555 134.676C53.0555 134.676 51.421 136.779 49.0877 136.51C48.3702 136.429 47.4593 134.377 47.4593 134.377" fill="#64747F"/>
<path d="M45.1454 143.903C45.652 142.375 46.0338 140.808 46.2871 139.218C46.3557 138.594 45.9315 134.433 45.9315 134.433C46.2501 134.429 46.566 134.374 46.8673 134.27C46.8673 134.27 47.7907 136.31 48.5455 136.822C49.3559 137.064 50.1955 137.194 51.0411 137.209L51.2033 139.667C51.6366 141.407 51.976 143.169 52.2202 144.945C52.2202 144.945 47.8842 145.475 45.1392 143.903" fill="#64747F"/>
<path d="M44.5209 134.638C43.9321 133.61 43.6507 132.434 43.7099 131.251C43.7497 130.677 43.9349 130.123 44.2482 129.64C44.5615 129.158 44.9924 128.763 45.5004 128.493C46.1929 128.175 50.4166 126.902 52.5129 129.741C52.5129 129.741 48.8819 129.254 48.5325 129.672C47.7963 130.533 48.5886 130.92 48.4951 132.031C48.4348 132.907 48.1813 133.759 47.7526 134.526L46.1056 135.531L46.2179 136.997C45.6013 136.253 45.0344 135.469 44.5209 134.651" fill="#64747F"/>
<path d="M52.9619 134.545C52.6109 134.871 52.1998 135.125 51.7516 135.294C51.1277 135.506 50.3478 136.173 49.6491 136.067C49.2084 136.01 48.7935 135.827 48.4538 135.541C48.1142 135.254 47.8642 134.876 47.7338 134.451L46.748 134.564C46.8728 135.374 47.0971 136.166 47.4156 136.922C47.5943 137.314 47.8633 137.658 48.2006 137.926C48.5378 138.193 48.9337 138.378 49.3559 138.463C50.4566 138.657 51.5813 138.674 52.6874 138.513C53.2052 138.407 53.7106 138.132 53.7355 137.565C53.7605 136.997 53.3986 136.941 53.3986 136.941C53.3986 136.941 53.9164 136.429 53.2926 136.142C53.2926 136.142 53.6544 135.737 53.5733 135.437L52.9619 134.545Z" fill="#64747F"/>
<path d="M45.1448 128.93C45.0818 128.672 44.9383 128.442 44.7353 128.271C44.5323 128.101 44.2802 127.999 44.0156 127.982C43.811 127.93 43.5975 127.926 43.3911 127.97C43.1848 128.014 42.9912 128.104 42.8251 128.234C42.659 128.364 42.5248 128.531 42.4327 128.72C42.3406 128.91 42.2931 129.118 42.2937 129.329C42.2376 130.003 43.0673 130.733 44.1653 130.627C44.3617 129.995 44.6963 129.416 45.1448 128.93Z" fill="#64747F"/>
<path d="M45.5814 140.359C45.5814 140.359 39.6795 142.025 38.8311 143.104C38.8311 143.104 40.8961 147.341 41.2517 149.849C41.6073 152.357 40.6278 160.136 40.3908 162.95C40.2613 164.423 40.2467 165.904 40.3471 167.38C40.3471 167.38 45.4879 167.586 47.0788 166.606C47.0788 166.606 45.6314 150.466 45.2383 147.465C45.2383 147.465 45.4504 141.152 45.5814 140.359Z" fill="#8FB4BE"/>
<path d="M46.717 166.743L47.0165 168.234C47.0165 168.234 41.3579 169.177 41.1395 169.17C40.9604 168.586 40.8453 167.983 40.7964 167.374C42.775 167.292 44.7464 167.084 46.6983 166.75" fill="#5698A6"/>
<path d="M46.3176 139.249C46.3176 139.249 42.9674 139.349 42.0503 140.646C43.3901 143.103 44.461 145.696 45.2446 148.382C45.2446 148.382 45.3756 147.135 45.5191 145.263C45.6563 143.535 46.2677 140.478 46.2802 140.166L46.3176 139.249Z" fill="#5698A6"/>
<path d="M46.7295 133.603C46.7295 133.603 46.7295 132.979 46.2179 132.836C46.1064 132.816 45.9921 132.819 45.8817 132.844C45.7712 132.868 45.6668 132.915 45.5745 132.981C45.4822 133.046 45.4039 133.129 45.344 133.226C45.2842 133.322 45.2441 133.429 45.2259 133.541C45.1535 133.856 45.1552 134.185 45.231 134.5C45.3068 134.815 45.4545 135.108 45.6627 135.356C46.0608 135.638 46.5295 135.805 47.0165 135.836L46.7295 133.603Z" fill="#64747F"/>
<path d="M62.0954 168.796C62.0954 168.796 61.353 168.172 61.2532 167.823C61.2532 167.823 61.5152 165.951 61.5152 165.72C61.1768 165.025 60.7846 164.358 60.3423 163.724L62.0954 162.382L63.3432 164.56C63.3432 164.56 65.4269 166.219 65.6578 166.319C65.6578 166.319 65.3271 169.058 65.2959 169.401C65.2647 169.744 63.3432 172.209 63.2433 172.259C63.1435 172.308 62.6569 172.377 62.7879 171.691C62.9189 171.005 63.4118 167.592 63.4118 167.592C63.4118 167.592 62.164 168.141 62.1079 168.796" fill="#64747F"/>
<path d="M63.462 169.308C63.462 169.308 63.1688 170.062 62.9754 170.131C62.782 170.2 62.2267 169.545 62.0957 168.796C62.0957 168.796 62.2579 167.798 62.7757 167.548C62.9389 167.458 63.1186 167.402 63.304 167.383C63.4894 167.363 63.6768 167.381 63.8551 167.436C64.0173 167.523 63.749 168.684 63.462 169.276" fill="#64747F"/>
<path d="M56.8359 143.105L58.7949 153.885H59.3688L59.113 154.228L63.2369 162.695L62.9686 163.318L63.2369 163.942L61.3653 165.49L60.8474 164.866H59.8929L57.0168 161.122L56.8546 154.509C56.8546 154.509 54.8395 147.023 56.8546 143.13" fill="#5698A6"/>
<path d="M56.8741 155.089L56.6619 148.227C56.6619 148.227 56.5684 147.016 56.4186 145.619L56.8304 143.123L55.6263 141.557C55.6263 141.557 52.8875 140.547 51.4463 139.929C51.4463 139.929 52.6254 154.415 52.4882 156.555C52.3509 158.695 52.1388 167.105 51.7582 167.979C53.6904 168.547 55.7208 168.7 57.7163 168.428L57.7912 167.548L58.2341 167.342L56.8741 155.089Z" fill="#8FB4BE"/>
<path d="M57.7908 167.661C57.7908 167.661 53.5422 168.235 52.0074 166.987L51.7329 168.085C53.6746 168.599 55.6942 168.751 57.691 168.534L57.7908 167.661Z" fill="#5698A6"/>
<path d="M51.209 139.443C51.209 139.443 51.914 143.972 52.1698 145.438C52.1698 145.438 51.6519 141.358 53.9977 144.016C53.9977 144.016 54.2785 139.686 51.209 139.443Z" fill="#5698A6"/>
<path d="M38.8315 143.105L36.4795 152.893L36.0864 153.099L36.5169 153.268C36.5169 153.268 41.196 153.767 41.5392 153.555C41.5392 153.555 41.5828 150.061 41.0276 148.233C40.4286 146.47 39.6944 144.755 38.8315 143.105Z" fill="#5698A6"/>
<path d="M46.8232 149.786C46.8232 149.786 47.9587 147.99 48.2083 147.721C48.4578 147.453 49.8428 146.474 49.8428 146.474C49.8428 146.474 50.1672 147.035 49.8428 147.36C49.5184 147.684 48.932 148.177 48.932 148.177L47.6842 150.41L46.8232 149.786Z" fill="#64747F"/>
<path d="M50.3854 146.031C50.4665 146.249 50.2294 146.548 49.8426 146.692C49.4558 146.835 49.0877 146.767 49.0066 146.542C48.9255 146.318 49.1626 146.024 49.5431 145.881C49.9237 145.737 50.3043 145.806 50.3854 146.031Z" fill="white"/>
<path d="M52.5379 144.93L50.6665 144.217C50.3445 144.094 49.984 144.256 49.8613 144.578L48.4062 148.396C48.2835 148.718 48.4451 149.079 48.7671 149.202L50.6385 149.915C50.9604 150.037 51.3209 149.876 51.4436 149.554L52.8987 145.735C53.0214 145.413 52.8599 145.053 52.5379 144.93Z" fill="black"/>
<path d="M48.664 148.495L51.1595 147.696C51.7621 147.734 52.3565 147.855 52.9251 148.058C53.3992 148.32 52.8564 150.554 52.4821 150.872C52.1078 151.19 48.9447 151.621 48.9447 151.621L45.9002 152.937L45.8315 150.51L48.664 148.495Z" fill="#64747F"/>
<path d="M46.2556 150.142L45.7752 150.466L44.7645 150.08L41.4018 150.959L37.097 152.681L36.6728 153.093L36.4794 153.286C36.4794 153.286 35.0694 155.982 38.351 157.198L46.6923 153.991L46.9232 153.093L47.6406 152.638L46.2556 150.142Z" fill="#5698A6"/>
<g clip-path="url(#clip1)">
<path fill-rule="evenodd" clip-rule="evenodd" d="M271.044 112.746H271.363C271.715 112.746 272 113.031 272 113.383V143.959C272 144.31 271.715 144.596 271.363 144.596H271.044V112.746Z" fill="#2C353B"/>
<path fill-rule="evenodd" clip-rule="evenodd" d="M136 131.855C136 131.504 136.285 131.218 136.637 131.218H136.956V151.284H136.637C136.285 151.284 136 150.999 136 150.647V131.855Z" fill="#2C353B"/>
<path fill-rule="evenodd" clip-rule="evenodd" d="M136 106.693C136 106.341 136.285 106.056 136.637 106.056H136.956V126.122H136.637C136.285 126.122 136 125.837 136 125.485V106.693Z" fill="#2C353B"/>
<path fill-rule="evenodd" clip-rule="evenodd" d="M136 87.2647C136 86.9129 136.285 86.6277 136.637 86.6277H136.956V97.1382H136.637C136.285 97.1382 136 96.853 136 96.5012V87.2647Z" fill="#2C353B"/>
<path fill-rule="evenodd" clip-rule="evenodd" d="M136.956 71.0656C136.956 59.9837 145.939 51.0001 157.021 51.0001H250.979C262.061 51.0001 271.045 59.9837 271.045 71.0656V304.209C271.045 315.29 262.061 324.274 250.979 324.274H157.021C145.939 324.274 136.956 315.29 136.956 304.209V71.0656Z" fill="#37424A"/>
<path fill-rule="evenodd" clip-rule="evenodd" d="M138.548 71.0655C138.548 60.8631 146.819 52.5925 157.021 52.5925H250.979C261.181 52.5925 269.452 60.8631 269.452 71.0655V304.208C269.452 314.411 261.181 322.681 250.979 322.681H157.021C146.819 322.681 138.548 314.411 138.548 304.208V71.0655Z" fill="#101416"/>
<path fill-rule="evenodd" clip-rule="evenodd" d="M177.087 68.8359H229.002C233.224 68.8359 236.647 65.4135 236.647 60.7937C236.69 59.9772 237.343 59.324 238.157 59.2829L250.661 59.2808C257.345 59.2808 262.764 64.6996 262.764 71.3839V305.801C262.764 312.485 257.345 317.904 250.661 317.904H155.429C148.744 317.904 143.326 312.485 143.326 305.801V71.3839C143.326 64.6996 148.744 59.2808 155.429 59.2808H167.93C168.746 59.324 169.4 59.9772 169.441 60.7917C169.443 65.4135 172.865 68.8359 177.087 68.8359Z" fill="#F5F5F6"/>
<circle cx="241.62" cy="87.4315" r="15.1659" fill="#B5BD33"/>
<circle cx="241.62" cy="87.4311" r="13.2702" fill="#B5BD33"/>
<circle cx="241.62" cy="87.4311" r="8.53082" fill="#E3E6B3"/>
<path d="M237.665 85.3341C237.665 84.4898 238.35 83.8053 239.194 83.8053H244.29C245.134 83.8053 245.819 84.4898 245.819 85.3341V88.3917C245.819 89.236 245.134 89.9205 244.29 89.9205H243.482L241.742 91.6604V89.9205H239.194C238.35 89.9205 237.665 89.236 237.665 88.3917V85.3341Z" fill="black"/>
</g>
<path d="M32.844 245.25C19.6367 253.635 8.02029 263.714 0.0172738 272L0 228.892C5.11018 224.844 10.2402 221.178 15.3729 217.914L16.1213 217.419C23.6859 212.269 31.7961 207.974 40.9118 204.292C68.1991 193.266 99.6787 189.915 133.003 186.371L133.107 186.36C139.937 185.633 146.992 184.883 154.137 184.047C185.879 180.34 231.764 172.669 270.137 157.168L271.869 156.269C294.848 145.456 313.03 131.755 320 112L320 166.156C307.174 175.472 296.354 181.573 282.259 187.268C240.546 204.12 191.606 212.349 157.892 216.287C150.721 217.126 143.715 217.871 136.931 218.593L136.779 218.609L136.707 218.616L136.431 218.646C105.415 221.945 76.1241 225.062 53.0342 234.394C46.0512 237.214 39.9079 240.461 34.2519 244.321L34.0427 244.463L32.844 245.25Z" fill="#AAE6EC"/>
</g>
<defs>
<clipPath id="clip0">
<rect width="320" height="272" fill="white"/>
</clipPath>
<clipPath id="clip1">
<rect width="136" height="136.932" fill="white" transform="translate(136 51)"/>
</clipPath>
</defs>
</svg>
