<svg width="320" height="272" viewBox="0 0 320 272" fill="none" xmlns="http://www.w3.org/2000/svg">
<path d="M32.844 133.25C19.6367 141.635 8.02029 151.714 0.0172738 160L0 116.892C5.11018 112.844 10.2402 109.178 15.3729 105.914L16.1213 105.419C23.6859 100.269 31.7961 95.9744 40.9118 92.2922C68.1991 81.2659 99.6787 77.9148 133.003 74.3706L133.107 74.3596C139.937 73.6333 146.992 72.8828 154.137 72.0474C185.879 68.3401 231.764 60.6687 270.137 45.168L271.869 44.2688C294.848 33.4556 313.03 19.7549 320 0L320 54.1558C307.174 63.4724 296.354 69.573 282.259 75.2683C240.546 92.1199 191.606 100.349 157.892 104.287C150.721 105.126 143.715 105.871 136.931 106.593L136.779 106.609L136.707 106.616L136.431 106.646C105.415 109.945 76.1241 113.062 53.0342 122.394C46.0512 125.214 39.9079 128.461 34.2519 132.321L34.0427 132.463L32.844 133.25Z" fill="#AAE6EC"/>
<path d="M267.5 108H207L207.007 107.987C201.99 107.731 198 103.581 198 98.5C198 93.2533 202.253 89 207.5 89C209.693 89 211.712 89.743 213.32 90.9911C213.111 90.0274 213 89.0266 213 88C213 80.268 219.268 74 227 74C231.988 74 236.367 76.6089 238.847 80.5366C241.404 77.1722 245.448 75 250 75C257.267 75 263.24 80.5365 263.933 87.6214C265.046 87.2192 266.248 87 267.5 87C273.299 87 278 91.701 278 97.5C278 103.299 273.299 108 267.5 108Z" fill="#D4F3F6"/>
<path d="M102.5 141H42L42.0073 140.987C36.9895 140.731 33 136.581 33 131.5C33 126.253 37.2532 122 42.5 122C44.6931 122 46.7124 122.743 48.3203 123.991C48.1106 123.027 48 122.027 48 121C48 113.268 54.2681 107 62 107C66.9883 107 71.3672 109.609 73.8469 113.537C76.4038 110.172 80.4482 108 85 108C92.2668 108 98.2405 113.536 98.9329 120.621C100.046 120.219 101.248 120 102.5 120C108.299 120 113 124.701 113 130.5C113 136.299 108.299 141 102.5 141Z" fill="#D4F3F6"/>
<path fill-rule="evenodd" clip-rule="evenodd" d="M156 149C178.091 149 196 131.091 196 109C196 86.9086 178.091 69 156 69C142.443 69 130.461 75.7444 123.227 86.0609C122.49 86.0205 121.747 86 121 86C98.9086 86 81 103.909 81 126C81 148.091 98.9086 166 121 166C134.557 166 146.539 159.256 153.773 148.939C154.51 148.98 155.253 149 156 149Z" fill="#B3D8DE"/>
<path d="M125.783 142.071C123.994 138.08 123 133.656 123 129C123 111.327 137.327 97 155 97C170.43 97 183.309 107.92 186.33 122.454C192.03 117.205 199.641 114 208 114C225.673 114 240 128.327 240 146C240 161.982 228.284 175.227 212.972 177.616C212.991 178.075 213 178.536 213 179C213 197.778 197.778 213 179 213C168.103 213 158.404 207.874 152.181 199.901C146.018 206.136 137.46 210 128 210C109.222 210 94 194.778 94 176C94 157.967 108.038 143.213 125.783 142.071Z" fill="#99CBD3"/>
<path fill-rule="evenodd" clip-rule="evenodd" d="M150.5 176.5L101 101.5L102 100L150.5 165V176.5ZM150.271 211.262L110.5 170L111.5 168L150.346 200.533L151 107L157 104V147.442L181.5 122L183.5 124L157 157.125V184.817L210 143L211.5 129.5H213.5L214.5 139L221.5 134L224 137L216.5 143L232.5 140L233.5 143L207.5 151L157 194.702V250H150L150.271 211.262Z" fill="#007C92"/>
<path d="M178.751 152.939L177.755 152.719C177.427 152.646 177.084 152.727 176.824 152.939L169.11 159.228C168.828 159.458 168.678 159.814 168.71 160.178L168.789 161.062L153.94 173.167C153.846 173.244 153.832 173.383 153.91 173.478L159.367 180.172C159.637 180.503 160.124 180.554 160.454 180.285L162.148 178.904C161.98 178.794 161.825 178.656 161.691 178.491C160.995 177.638 161.119 176.386 161.967 175.694C162.815 175.003 164.067 175.134 164.763 175.987C164.897 176.151 165 176.331 165.074 176.518L181.861 162.833C181.692 162.723 181.537 162.585 181.403 162.42C180.707 161.567 180.831 160.315 181.68 159.623C182.528 158.932 183.779 159.063 184.475 159.916C184.609 160.08 184.713 160.26 184.787 160.447L186.566 158.996C186.896 158.727 186.944 158.24 186.674 157.909L181.217 151.215C181.139 151.12 181 151.105 180.906 151.182L178.751 152.939Z" fill="#A2AD00"/>
<path d="M156.664 171.803C156.57 171.88 156.556 172.019 156.633 172.114L159.152 175.204C159.229 175.299 159.368 175.313 159.463 175.236L164.327 171.271C164.421 171.194 164.435 171.055 164.358 170.96L161.839 167.87C161.761 167.776 161.622 167.761 161.528 167.838L156.664 171.803Z" fill="#EAF7F8"/>
<path d="M162.351 167.453C162.273 167.358 162.287 167.219 162.382 167.142L167.246 163.177C167.34 163.1 167.479 163.114 167.556 163.209L170.075 166.299C170.152 166.393 170.138 166.532 170.044 166.609L165.18 170.575C165.086 170.652 164.947 170.637 164.87 170.542L162.351 167.453Z" fill="#EAF7F8"/>
<path d="M168.099 162.481C168.005 162.558 167.991 162.697 168.068 162.792L170.587 165.881C170.664 165.976 170.803 165.99 170.898 165.914L175.762 161.948C175.856 161.871 175.87 161.732 175.792 161.637L173.274 158.548C173.196 158.453 173.057 158.438 172.963 158.515L168.099 162.481Z" fill="#EAF7F8"/>
<path d="M173.786 158.13C173.708 158.036 173.722 157.896 173.816 157.82L178.68 153.854C178.775 153.777 178.914 153.792 178.991 153.886L181.51 156.976C181.587 157.071 181.573 157.21 181.479 157.287L176.615 161.252C176.521 161.329 176.382 161.315 176.304 161.22L173.786 158.13Z" fill="#EAF7F8"/>
<path d="M179.759 153.26C179.682 153.166 179.696 153.026 179.79 152.95L181.497 151.558L185.345 156.278L183.638 157.67C183.544 157.746 183.405 157.732 183.327 157.637L179.759 153.26Z" fill="#EAF7F8"/>
<ellipse cx="163.226" cy="177.239" rx="1.65152" ry="1.66086" transform="rotate(-39.1897 163.226 177.239)" fill="#37424A"/>
<ellipse cx="182.939" cy="161.168" rx="1.65152" ry="1.66086" transform="rotate(-39.1897 182.939 161.168)" fill="#37424A"/>
<path d="M166 112C164.895 112 164 112.895 164 114V126C164 127.105 164.895 128 166 128L166 139H168V128C169.105 128 170 127.105 170 126V114C170 112.895 169.105 112 168 112H166Z" fill="#37424A"/>
<circle cx="167" cy="125" r="2" fill="#878E92"/>
<circle cx="167" cy="120" r="2" fill="#AFB3B7"/>
<circle cx="167" cy="115" r="2" fill="#C3C6C9"/>
<path fill-rule="evenodd" clip-rule="evenodd" d="M191 122C189.167 123.833 187.5 129 188.5 133C189.474 136.896 195.307 140.061 197.5 140.5C197.971 140.594 198.478 140.671 199 140.709C199.8 142.477 202 144.306 203 145L204 143.5C202.845 143.114 200.982 142.007 200.768 140.671C202.467 140.447 204.097 139.608 205 137.5C206.5 134 204 132 203 131.5C202 131 198.5 130.5 197 134C195.73 136.964 197.167 138.833 197.5 139C196 138.667 192.5 136 191 133.5C190.16 132.101 189 129.5 193 122H191ZM199.5 139C199 138.5 198.1 137.1 198.5 135.5C199 133.5 200 133 201 133C203.179 133 204.5 135 203 137C201.642 138.81 200 139 199.5 139Z" fill="#A51140"/>
<path fill-rule="evenodd" clip-rule="evenodd" d="M193.227 151.005C192.263 151.264 191.416 151.768 190.837 152.426C190.265 153.078 189.884 153.982 190.14 154.939C190.396 155.895 191.179 156.488 192 156.766C192.83 157.046 193.816 157.059 194.78 156.801C195.744 156.543 196.592 156.038 197.17 155.38C197.453 155.058 197.69 154.674 197.825 154.252L208.417 151.378C209.091 151.195 209.705 150.839 210.198 150.346L210.898 149.646L197.633 152.299C197.272 151.67 196.651 151.259 196.007 151.041C195.178 150.76 194.192 150.747 193.227 151.005ZM192.072 154.421C192.042 154.311 192.051 154.075 192.34 153.746C192.623 153.424 193.109 153.108 193.745 152.937C194.381 152.767 194.96 152.798 195.366 152.935C195.781 153.076 195.906 153.276 195.936 153.386C195.965 153.496 195.956 153.731 195.668 154.06C195.384 154.382 194.899 154.699 194.262 154.869C193.626 155.04 193.048 155.009 192.641 154.871C192.227 154.731 192.101 154.531 192.072 154.421Z" fill="black"/>
<path d="M202.495 145.782C202.724 144.94 203.168 144.173 203.785 143.556L204.297 143.044L202.753 150.765L201.051 151.106L202.495 145.782Z" fill="black"/>
<path fill-rule="evenodd" clip-rule="evenodd" d="M201.644 156.31C202.273 156.671 202.684 157.291 202.902 157.936C203.182 158.765 203.196 159.751 202.937 160.715C202.679 161.68 202.174 162.527 201.517 163.105C200.865 163.678 199.961 164.059 199.004 163.803C198.047 163.546 197.455 162.764 197.177 161.942C196.896 161.113 196.883 160.127 197.142 159.163C197.4 158.198 197.905 157.351 198.562 156.773C198.885 156.489 199.269 156.253 199.691 156.117L200.234 154.116L202.188 153.586L201.644 156.31ZM199.522 161.871C199.632 161.9 199.868 161.892 200.196 161.603C200.519 161.32 200.835 160.834 201.005 160.198C201.176 159.562 201.145 158.983 201.007 158.576C200.867 158.162 200.667 158.037 200.557 158.007C200.447 157.978 200.211 157.986 199.883 158.275C199.56 158.558 199.244 159.044 199.074 159.68C198.903 160.316 198.934 160.895 199.072 161.302C199.212 161.716 199.412 161.841 199.522 161.871Z" fill="black"/>
<path d="M210.5 154.5C208.5 152.9 209 150.167 209.5 149C206 154 210.409 157.902 214 158.5C217 159 218 158 223 158.5C223.995 158.6 227.5 160.5 227.5 163.5C227.5 165.9 229.167 167.167 230 167.5L230.5 165C228.596 165 229 160.5 227 158.5C224.736 156.236 222 156 219 156.5C216 157 213 156.5 210.5 154.5Z" fill="#A51140"/>
<ellipse cx="106.885" cy="102.071" rx="2.08528" ry="2.1579" transform="rotate(53.5068 106.885 102.071)" fill="#37424A"/>
<ellipse cx="138.658" cy="145.022" rx="2.08527" ry="2.1579" transform="rotate(53.5068 138.658 145.022)" fill="#37424A"/>
<path d="M103.791 94.6105C107.914 91.5603 113.729 92.4301 116.779 96.5532L146.787 137.117C149.837 141.24 148.968 147.055 144.844 150.106C143.814 150.868 142.36 150.651 141.597 149.62L103.305 97.8576C102.542 96.8268 102.76 95.3731 103.791 94.6105Z" fill="#37424A"/>
<path d="M148.655 142.457L150.002 144.278C150.184 144.523 150.134 144.871 149.895 145.071L149.874 145.043C149.827 144.979 149.735 144.967 149.669 145.016L148.413 145.945C148.346 145.994 148.331 146.086 148.378 146.149L148.464 146.265C148.511 146.329 148.603 146.341 148.669 146.292L149.925 145.363C149.981 145.321 150.001 145.25 149.977 145.19C150.285 144.941 150.351 144.5 150.121 144.189L148.774 142.368L148.655 142.457Z" fill="#37424A"/>
<path d="M143.534 150.606C142.831 150.642 142.134 150.346 141.695 149.752L103.207 97.7255C102.498 96.7677 102.727 95.3968 103.719 94.6636L104.078 94.3981C104.402 94.158 104.737 93.9425 105.08 93.7512L145.041 147.769C144.887 148.462 144.391 149.862 143.534 150.606Z" fill="#A2AD00"/>
<rect x="113.174" y="97.0603" width="4.17055" height="3.42287" transform="rotate(53.5068 113.174 97.0603)" fill="#EAF7F8"/>
<rect x="124.977" y="113.015" width="4.17056" height="3.42287" transform="rotate(53.5068 124.977 113.015)" fill="#EAF7F8"/>
<rect x="136.78" y="128.97" width="4.17055" height="3.42287" transform="rotate(53.5068 136.78 128.97)" fill="#EAF7F8"/>
<rect x="116.168" y="101.107" width="4.17055" height="3.42287" transform="rotate(53.5068 116.168 101.107)" fill="#EAF7F8"/>
<rect x="127.971" y="117.062" width="4.17056" height="3.42287" transform="rotate(53.5068 127.971 117.062)" fill="#EAF7F8"/>
<rect x="139.774" y="133.016" width="4.17055" height="3.42287" transform="rotate(53.5068 139.774 133.016)" fill="#EAF7F8"/>
<rect x="119.161" y="105.153" width="4.17055" height="3.42287" transform="rotate(53.5068 119.161 105.153)" fill="#EAF7F8"/>
<rect x="130.964" y="121.108" width="4.17055" height="3.42287" transform="rotate(53.5068 130.964 121.108)" fill="#EAF7F8"/>
<rect x="142.767" y="137.063" width="4.17054" height="3.42287" transform="rotate(53.5068 142.767 137.063)" fill="#EAF7F8"/>
<path d="M145.6 141.228C145.689 141.163 145.814 141.181 145.879 141.27L147.116 142.942C147.591 143.584 147.638 144.447 147.236 145.137L146.177 146.958C146.104 147.082 145.928 147.092 145.843 146.976L143.128 143.306C143.062 143.217 143.081 143.092 143.17 143.026L145.6 141.228Z" fill="#EAF7F8"/>
<rect x="136.53" y="123.252" width="3.88293" height="11.608" transform="rotate(53.5068 136.53 123.252)" fill="#AFB3B7"/>
<rect x="124.727" y="107.297" width="3.88293" height="11.608" transform="rotate(53.5068 124.727 107.297)" fill="#AFB3B7"/>
<ellipse cx="145.362" cy="148.515" rx="0.179764" ry="0.186027" transform="rotate(53.5068 145.362 148.515)" fill="#E4D700"/>
</svg>
<svg width="320" height="272" viewBox="0 0 320 272" fill="none" xmlns="http://www.w3.org/2000/svg">
<path d="M32.844 133.25C19.6367 141.635 8.02029 151.714 0.0172738 160L0 116.892C5.11018 112.844 10.2402 109.178 15.3729 105.914L16.1213 105.419C23.6859 100.269 31.7961 95.9744 40.9118 92.2922C68.1991 81.2659 99.6787 77.9148 133.003 74.3706L133.107 74.3596C139.937 73.6333 146.992 72.8828 154.137 72.0474C185.879 68.3401 231.764 60.6687 270.137 45.168L271.869 44.2688C294.848 33.4556 313.03 19.7549 320 0L320 54.1558C307.174 63.4724 296.354 69.573 282.259 75.2683C240.546 92.1199 191.606 100.349 157.892 104.287C150.721 105.126 143.715 105.871 136.931 106.593L136.779 106.609L136.707 106.616L136.431 106.646C105.415 109.945 76.1241 113.062 53.0342 122.394C46.0512 125.214 39.9079 128.461 34.2519 132.321L34.0427 132.463L32.844 133.25Z" fill="#AAE6EC"/>
<path d="M267.5 108H207L207.007 107.987C201.99 107.731 198 103.581 198 98.5C198 93.2533 202.253 89 207.5 89C209.693 89 211.712 89.743 213.32 90.9911C213.111 90.0274 213 89.0266 213 88C213 80.268 219.268 74 227 74C231.988 74 236.367 76.6089 238.847 80.5366C241.404 77.1722 245.448 75 250 75C257.267 75 263.24 80.5365 263.933 87.6214C265.046 87.2192 266.248 87 267.5 87C273.299 87 278 91.701 278 97.5C278 103.299 273.299 108 267.5 108Z" fill="#D4F3F6"/>
<path d="M102.5 141H42L42.0073 140.987C36.9895 140.731 33 136.581 33 131.5C33 126.253 37.2532 122 42.5 122C44.6931 122 46.7124 122.743 48.3203 123.991C48.1106 123.027 48 122.027 48 121C48 113.268 54.2681 107 62 107C66.9883 107 71.3672 109.609 73.8469 113.537C76.4038 110.172 80.4482 108 85 108C92.2668 108 98.2405 113.536 98.9329 120.621C100.046 120.219 101.248 120 102.5 120C108.299 120 113 124.701 113 130.5C113 136.299 108.299 141 102.5 141Z" fill="#D4F3F6"/>
<path fill-rule="evenodd" clip-rule="evenodd" d="M156 149C178.091 149 196 131.091 196 109C196 86.9086 178.091 69 156 69C142.443 69 130.461 75.7444 123.227 86.0609C122.49 86.0205 121.747 86 121 86C98.9086 86 81 103.909 81 126C81 148.091 98.9086 166 121 166C134.557 166 146.539 159.256 153.773 148.939C154.51 148.98 155.253 149 156 149Z" fill="#B3D8DE"/>
<path d="M125.783 142.071C123.994 138.08 123 133.656 123 129C123 111.327 137.327 97 155 97C170.43 97 183.309 107.92 186.33 122.454C192.03 117.205 199.641 114 208 114C225.673 114 240 128.327 240 146C240 161.982 228.284 175.227 212.972 177.616C212.991 178.075 213 178.536 213 179C213 197.778 197.778 213 179 213C168.103 213 158.404 207.874 152.181 199.901C146.018 206.136 137.46 210 128 210C109.222 210 94 194.778 94 176C94 157.967 108.038 143.213 125.783 142.071Z" fill="#99CBD3"/>
<path fill-rule="evenodd" clip-rule="evenodd" d="M150.5 176.5L101 101.5L102 100L150.5 165V176.5ZM150.271 211.262L110.5 170L111.5 168L150.346 200.533L151 107L157 104V147.442L181.5 122L183.5 124L157 157.125V184.817L210 143L211.5 129.5H213.5L214.5 139L221.5 134L224 137L216.5 143L232.5 140L233.5 143L207.5 151L157 194.702V250H150L150.271 211.262Z" fill="#007C92"/>
<path d="M178.751 152.939L177.755 152.719C177.427 152.646 177.084 152.727 176.824 152.939L169.11 159.228C168.828 159.458 168.678 159.814 168.71 160.178L168.789 161.062L153.94 173.167C153.846 173.244 153.832 173.383 153.91 173.478L159.367 180.172C159.637 180.503 160.124 180.554 160.454 180.285L162.148 178.904C161.98 178.794 161.825 178.656 161.691 178.491C160.995 177.638 161.119 176.386 161.967 175.694C162.815 175.003 164.067 175.134 164.763 175.987C164.897 176.151 165 176.331 165.074 176.518L181.861 162.833C181.692 162.723 181.537 162.585 181.403 162.42C180.707 161.567 180.831 160.315 181.68 159.623C182.528 158.932 183.779 159.063 184.475 159.916C184.609 160.08 184.713 160.26 184.787 160.447L186.566 158.996C186.896 158.727 186.944 158.24 186.674 157.909L181.217 151.215C181.139 151.12 181 151.105 180.906 151.182L178.751 152.939Z" fill="#A2AD00"/>
<path d="M156.664 171.803C156.57 171.88 156.556 172.019 156.633 172.114L159.152 175.204C159.229 175.299 159.368 175.313 159.463 175.236L164.327 171.271C164.421 171.194 164.435 171.055 164.358 170.96L161.839 167.87C161.761 167.776 161.622 167.761 161.528 167.838L156.664 171.803Z" fill="#EAF7F8"/>
<path d="M162.351 167.453C162.273 167.358 162.287 167.219 162.382 167.142L167.246 163.177C167.34 163.1 167.479 163.114 167.556 163.209L170.075 166.299C170.152 166.393 170.138 166.532 170.044 166.609L165.18 170.575C165.086 170.652 164.947 170.637 164.87 170.542L162.351 167.453Z" fill="#EAF7F8"/>
<path d="M168.099 162.481C168.005 162.558 167.991 162.697 168.068 162.792L170.587 165.881C170.664 165.976 170.803 165.99 170.898 165.914L175.762 161.948C175.856 161.871 175.87 161.732 175.792 161.637L173.274 158.548C173.196 158.453 173.057 158.438 172.963 158.515L168.099 162.481Z" fill="#EAF7F8"/>
<path d="M173.786 158.13C173.708 158.036 173.722 157.896 173.816 157.82L178.68 153.854C178.775 153.777 178.914 153.792 178.991 153.886L181.51 156.976C181.587 157.071 181.573 157.21 181.479 157.287L176.615 161.252C176.521 161.329 176.382 161.315 176.304 161.22L173.786 158.13Z" fill="#EAF7F8"/>
<path d="M179.759 153.26C179.682 153.166 179.696 153.026 179.79 152.95L181.497 151.558L185.345 156.278L183.638 157.67C183.544 157.746 183.405 157.732 183.327 157.637L179.759 153.26Z" fill="#EAF7F8"/>
<ellipse cx="163.226" cy="177.239" rx="1.65152" ry="1.66086" transform="rotate(-39.1897 163.226 177.239)" fill="#37424A"/>
<ellipse cx="182.939" cy="161.168" rx="1.65152" ry="1.66086" transform="rotate(-39.1897 182.939 161.168)" fill="#37424A"/>
<path d="M166 112C164.895 112 164 112.895 164 114V126C164 127.105 164.895 128 166 128L166 139H168V128C169.105 128 170 127.105 170 126V114C170 112.895 169.105 112 168 112H166Z" fill="#37424A"/>
<circle cx="167" cy="125" r="2" fill="#878E92"/>
<circle cx="167" cy="120" r="2" fill="#AFB3B7"/>
<circle cx="167" cy="115" r="2" fill="#C3C6C9"/>
<path fill-rule="evenodd" clip-rule="evenodd" d="M191 122C189.167 123.833 187.5 129 188.5 133C189.474 136.896 195.307 140.061 197.5 140.5C197.971 140.594 198.478 140.671 199 140.709C199.8 142.477 202 144.306 203 145L204 143.5C202.845 143.114 200.982 142.007 200.768 140.671C202.467 140.447 204.097 139.608 205 137.5C206.5 134 204 132 203 131.5C202 131 198.5 130.5 197 134C195.73 136.964 197.167 138.833 197.5 139C196 138.667 192.5 136 191 133.5C190.16 132.101 189 129.5 193 122H191ZM199.5 139C199 138.5 198.1 137.1 198.5 135.5C199 133.5 200 133 201 133C203.179 133 204.5 135 203 137C201.642 138.81 200 139 199.5 139Z" fill="#A51140"/>
<path fill-rule="evenodd" clip-rule="evenodd" d="M193.227 151.005C192.263 151.264 191.416 151.768 190.837 152.426C190.265 153.078 189.884 153.982 190.14 154.939C190.396 155.895 191.179 156.488 192 156.766C192.83 157.046 193.816 157.059 194.78 156.801C195.744 156.543 196.592 156.038 197.17 155.38C197.453 155.058 197.69 154.674 197.825 154.252L208.417 151.378C209.091 151.195 209.705 150.839 210.198 150.346L210.898 149.646L197.633 152.299C197.272 151.67 196.651 151.259 196.007 151.041C195.178 150.76 194.192 150.747 193.227 151.005ZM192.072 154.421C192.042 154.311 192.051 154.075 192.34 153.746C192.623 153.424 193.109 153.108 193.745 152.937C194.381 152.767 194.96 152.798 195.366 152.935C195.781 153.076 195.906 153.276 195.936 153.386C195.965 153.496 195.956 153.731 195.668 154.06C195.384 154.382 194.899 154.699 194.262 154.869C193.626 155.04 193.048 155.009 192.641 154.871C192.227 154.731 192.101 154.531 192.072 154.421Z" fill="black"/>
<path d="M202.495 145.782C202.724 144.94 203.168 144.173 203.785 143.556L204.297 143.044L202.753 150.765L201.051 151.106L202.495 145.782Z" fill="black"/>
<path fill-rule="evenodd" clip-rule="evenodd" d="M201.644 156.31C202.273 156.671 202.684 157.291 202.902 157.936C203.182 158.765 203.196 159.751 202.937 160.715C202.679 161.68 202.174 162.527 201.517 163.105C200.865 163.678 199.961 164.059 199.004 163.803C198.047 163.546 197.455 162.764 197.177 161.942C196.896 161.113 196.883 160.127 197.142 159.163C197.4 158.198 197.905 157.351 198.562 156.773C198.885 156.489 199.269 156.253 199.691 156.117L200.234 154.116L202.188 153.586L201.644 156.31ZM199.522 161.871C199.632 161.9 199.868 161.892 200.196 161.603C200.519 161.32 200.835 160.834 201.005 160.198C201.176 159.562 201.145 158.983 201.007 158.576C200.867 158.162 200.667 158.037 200.557 158.007C200.447 157.978 200.211 157.986 199.883 158.275C199.56 158.558 199.244 159.044 199.074 159.68C198.903 160.316 198.934 160.895 199.072 161.302C199.212 161.716 199.412 161.841 199.522 161.871Z" fill="black"/>
<path d="M210.5 154.5C208.5 152.9 209 150.167 209.5 149C206 154 210.409 157.902 214 158.5C217 159 218 158 223 158.5C223.995 158.6 227.5 160.5 227.5 163.5C227.5 165.9 229.167 167.167 230 167.5L230.5 165C228.596 165 229 160.5 227 158.5C224.736 156.236 222 156 219 156.5C216 157 213 156.5 210.5 154.5Z" fill="#A51140"/>
<ellipse cx="106.885" cy="102.071" rx="2.08528" ry="2.1579" transform="rotate(53.5068 106.885 102.071)" fill="#37424A"/>
<ellipse cx="138.658" cy="145.022" rx="2.08527" ry="2.1579" transform="rotate(53.5068 138.658 145.022)" fill="#37424A"/>
<path d="M103.791 94.6105C107.914 91.5603 113.729 92.4301 116.779 96.5532L146.787 137.117C149.837 141.24 148.968 147.055 144.844 150.106C143.814 150.868 142.36 150.651 141.597 149.62L103.305 97.8576C102.542 96.8268 102.76 95.3731 103.791 94.6105Z" fill="#37424A"/>
<path d="M148.655 142.457L150.002 144.278C150.184 144.523 150.134 144.871 149.895 145.071L149.874 145.043C149.827 144.979 149.735 144.967 149.669 145.016L148.413 145.945C148.346 145.994 148.331 146.086 148.378 146.149L148.464 146.265C148.511 146.329 148.603 146.341 148.669 146.292L149.925 145.363C149.981 145.321 150.001 145.25 149.977 145.19C150.285 144.941 150.351 144.5 150.121 144.189L148.774 142.368L148.655 142.457Z" fill="#37424A"/>
<path d="M143.534 150.606C142.831 150.642 142.134 150.346 141.695 149.752L103.207 97.7255C102.498 96.7677 102.727 95.3968 103.719 94.6636L104.078 94.3981C104.402 94.158 104.737 93.9425 105.08 93.7512L145.041 147.769C144.887 148.462 144.391 149.862 143.534 150.606Z" fill="#A2AD00"/>
<rect x="113.174" y="97.0603" width="4.17055" height="3.42287" transform="rotate(53.5068 113.174 97.0603)" fill="#EAF7F8"/>
<rect x="124.977" y="113.015" width="4.17056" height="3.42287" transform="rotate(53.5068 124.977 113.015)" fill="#EAF7F8"/>
<rect x="136.78" y="128.97" width="4.17055" height="3.42287" transform="rotate(53.5068 136.78 128.97)" fill="#EAF7F8"/>
<rect x="116.168" y="101.107" width="4.17055" height="3.42287" transform="rotate(53.5068 116.168 101.107)" fill="#EAF7F8"/>
<rect x="127.971" y="117.062" width="4.17056" height="3.42287" transform="rotate(53.5068 127.971 117.062)" fill="#EAF7F8"/>
<rect x="139.774" y="133.016" width="4.17055" height="3.42287" transform="rotate(53.5068 139.774 133.016)" fill="#EAF7F8"/>
<rect x="119.161" y="105.153" width="4.17055" height="3.42287" transform="rotate(53.5068 119.161 105.153)" fill="#EAF7F8"/>
<rect x="130.964" y="121.108" width="4.17055" height="3.42287" transform="rotate(53.5068 130.964 121.108)" fill="#EAF7F8"/>
<rect x="142.767" y="137.063" width="4.17054" height="3.42287" transform="rotate(53.5068 142.767 137.063)" fill="#EAF7F8"/>
<path d="M145.6 141.228C145.689 141.163 145.814 141.181 145.879 141.27L147.116 142.942C147.591 143.584 147.638 144.447 147.236 145.137L146.177 146.958C146.104 147.082 145.928 147.092 145.843 146.976L143.128 143.306C143.062 143.217 143.081 143.092 143.17 143.026L145.6 141.228Z" fill="#EAF7F8"/>
<rect x="136.53" y="123.252" width="3.88293" height="11.608" transform="rotate(53.5068 136.53 123.252)" fill="#AFB3B7"/>
<rect x="124.727" y="107.297" width="3.88293" height="11.608" transform="rotate(53.5068 124.727 107.297)" fill="#AFB3B7"/>
<ellipse cx="145.362" cy="148.515" rx="0.179764" ry="0.186027" transform="rotate(53.5068 145.362 148.515)" fill="#E4D700"/>
</svg>
