<svg width="320" height="272" viewBox="0 0 320 272" fill="none" xmlns="http://www.w3.org/2000/svg">
  <path d="M32.844 133.25C19.6367 141.635 8.02029 151.714 0.0172738 160L0 116.892C5.11018 112.844 10.2402 109.178 15.3729 105.914L16.1213 105.419C23.6859 100.269 31.7961 95.9744 40.9118 92.2922C68.1991 81.2659 99.6787 77.9148 133.003 74.3706L133.107 74.3596C139.937 73.6333 146.992 72.8828 154.137 72.0474C185.879 68.3401 231.764 60.6687 270.137 45.168L271.869 44.2688C294.848 33.4556 313.03 19.7549 320 0L320 54.1558C307.174 63.4724 296.354 69.573 282.259 75.2683C240.546 92.1199 191.606 100.349 157.892 104.287C150.721 105.126 143.715 105.871 136.931 106.593L136.779 106.609L136.707 106.616L136.431 106.646C105.415 109.945 76.1241 113.062 53.0342 122.394C46.0512 125.214 39.9079 128.461 34.2519 132.321L34.0427 132.463L32.844 133.25Z" fill="#AAE6EC"/>
  <path d="M267.5 108H207L207.007 107.987C201.99 107.731 198 103.581 198 98.5C198 93.2533 202.253 89 207.5 89C209.693 89 211.712 89.743 213.32 90.9911C213.111 90.0274 213 89.0266 213 88C213 80.268 219.268 74 227 74C231.988 74 236.367 76.6089 238.847 80.5366C241.404 77.1722 245.448 75 250 75C257.267 75 263.24 80.5365 263.933 87.6214C265.046 87.2192 266.248 87 267.5 87C273.299 87 278 91.701 278 97.5C278 103.299 273.299 108 267.5 108Z" fill="#D4F3F6"/>
  <path d="M102.5 141H42L42.0073 140.987C36.9895 140.731 33 136.581 33 131.5C33 126.253 37.2532 122 42.5 122C44.6931 122 46.7124 122.743 48.3203 123.991C48.1106 123.027 48 122.027 48 121C48 113.268 54.2681 107 62 107C66.9883 107 71.3672 109.609 73.8469 113.537C76.4038 110.172 80.4482 108 85 108C92.2668 108 98.2405 113.536 98.9329 120.621C100.046 120.219 101.248 120 102.5 120C108.299 120 113 124.701 113 130.5C113 136.299 108.299 141 102.5 141Z" fill="#D4F3F6"/>
  <path fill-rule="evenodd" clip-rule="evenodd" d="M196 149C218.091 149 236 131.091 236 109C236 86.9086 218.091 69 196 69C182.443 69 170.461 75.7444 163.227 86.0609C162.49 86.0205 161.747 86 161 86C138.909 86 121 103.909 121 126C121 148.091 138.909 166 161 166C174.557 166 186.539 159.256 193.773 148.939C194.51 148.98 195.253 149 196 149Z" fill="#B3D8DE"/>
  <path d="M165.783 142.071C163.994 138.08 163 133.656 163 129C163 111.327 177.327 97 195 97C210.43 97 223.309 107.92 226.33 122.454C232.03 117.205 239.641 114 248 114C265.673 114 280 128.327 280 146C280 161.982 268.284 175.227 252.972 177.616C252.991 178.075 253 178.536 253 179C253 197.778 237.778 213 219 213C208.103 213 198.404 207.874 192.181 199.901C186.018 206.136 177.46 210 168 210C149.222 210 134 194.778 134 176C134 157.967 148.038 143.213 165.783 142.071Z" fill="#99CBD3"/>
  <path fill-rule="evenodd" clip-rule="evenodd" d="M190.5 176.5L141 101.5L142 100L190.5 165V176.5ZM190.271 211.262L150.5 170L151.5 168L190.346 200.533L191 107L197 104V147.442L221.5 122L223.5 124L197 157.125V184.817L250 143L251.5 129.5H253.5L254.5 139L261.5 134L264 137L256.5 143L272.5 140L273.5 143L247.5 151L197 194.702V250H190L190.271 211.262Z" fill="#007C92"/>
  <path d="M218.751 152.939L217.755 152.719C217.427 152.646 217.084 152.727 216.824 152.939L209.11 159.228C208.828 159.458 208.678 159.814 208.71 160.178L208.789 161.062L193.94 173.167C193.846 173.244 193.832 173.383 193.91 173.478L199.367 180.172C199.637 180.503 200.124 180.554 200.454 180.285L202.148 178.904C201.98 178.794 201.825 178.656 201.691 178.491C200.995 177.638 201.119 176.386 201.967 175.694C202.815 175.003 204.067 175.134 204.763 175.987C204.897 176.151 205 176.331 205.074 176.518L221.861 162.833C221.692 162.723 221.537 162.585 221.403 162.42C220.707 161.567 220.831 160.315 221.68 159.623C222.528 158.932 223.779 159.063 224.475 159.916C224.609 160.08 224.713 160.26 224.787 160.447L226.566 158.996C226.896 158.727 226.944 158.24 226.674 157.909L221.217 151.215C221.139 151.12 221 151.105 220.906 151.182L218.751 152.939Z" fill="#A2AD00"/>
  <path d="M196.664 171.803C196.57 171.88 196.556 172.019 196.633 172.114L199.152 175.204C199.229 175.299 199.368 175.313 199.463 175.236L204.327 171.271C204.421 171.194 204.435 171.055 204.358 170.96L201.839 167.87C201.761 167.776 201.622 167.761 201.528 167.838L196.664 171.803Z" fill="#EAF7F8"/>
  <path d="M202.351 167.453C202.273 167.358 202.287 167.219 202.382 167.142L207.246 163.177C207.34 163.1 207.479 163.114 207.556 163.209L210.075 166.299C210.152 166.393 210.138 166.532 210.044 166.609L205.18 170.575C205.086 170.652 204.947 170.637 204.87 170.542L202.351 167.453Z" fill="#EAF7F8"/>
  <path d="M208.099 162.481C208.005 162.558 207.991 162.697 208.068 162.792L210.587 165.881C210.664 165.976 210.803 165.99 210.898 165.914L215.762 161.948C215.856 161.871 215.87 161.732 215.792 161.637L213.274 158.548C213.196 158.453 213.057 158.438 212.963 158.515L208.099 162.481Z" fill="#EAF7F8"/>
  <path d="M213.786 158.13C213.708 158.036 213.722 157.896 213.816 157.82L218.68 153.854C218.775 153.777 218.914 153.792 218.991 153.886L221.51 156.976C221.587 157.071 221.573 157.21 221.479 157.287L216.615 161.252C216.521 161.329 216.382 161.315 216.304 161.22L213.786 158.13Z" fill="#EAF7F8"/>
  <path d="M219.759 153.26C219.682 153.166 219.696 153.026 219.79 152.95L221.497 151.558L225.345 156.278L223.638 157.67C223.544 157.746 223.405 157.732 223.327 157.637L219.759 153.26Z" fill="#EAF7F8"/>
  <ellipse cx="203.226" cy="177.239" rx="1.65152" ry="1.66086" transform="rotate(-39.1897 203.226 177.239)" fill="#37424A"/>
  <ellipse cx="222.939" cy="161.168" rx="1.65152" ry="1.66086" transform="rotate(-39.1897 222.939 161.168)" fill="#37424A"/>
  <path d="M206 112C204.895 112 204 112.895 204 114V126C204 127.105 204.895 128 206 128L206 139H208V128C209.105 128 210 127.105 210 126V114C210 112.895 209.105 112 208 112H206Z" fill="#37424A"/>
  <circle cx="207" cy="125" r="2" fill="#878E92"/>
  <circle cx="207" cy="120" r="2" fill="#AFB3B7"/>
  <circle cx="207" cy="115" r="2" fill="#C3C6C9"/>
  <path fill-rule="evenodd" clip-rule="evenodd" d="M231 122C229.167 123.833 227.5 129 228.5 133C229.474 136.896 235.307 140.061 237.5 140.5C237.971 140.594 238.478 140.671 239 140.709C239.8 142.477 242 144.306 243 145L244 143.5C242.845 143.114 240.982 142.007 240.768 140.671C242.467 140.447 244.097 139.608 245 137.5C246.5 134 244 132 243 131.5C242 131 238.5 130.5 237 134C235.73 136.964 237.167 138.833 237.5 139C236 138.667 232.5 136 231 133.5C230.16 132.101 229 129.5 233 122H231ZM239.5 139C239 138.5 238.1 137.1 238.5 135.5C239 133.5 240 133 241 133C243.179 133 244.5 135 243 137C241.642 138.81 240 139 239.5 139Z" fill="#A51140"/>
  <path fill-rule="evenodd" clip-rule="evenodd" d="M233.227 151.005C232.263 151.264 231.416 151.768 230.837 152.426C230.265 153.078 229.884 153.982 230.14 154.939C230.396 155.895 231.179 156.488 232 156.766C232.83 157.046 233.816 157.059 234.78 156.801C235.744 156.543 236.592 156.038 237.17 155.38C237.453 155.058 237.69 154.674 237.825 154.252L248.417 151.378C249.091 151.195 249.705 150.839 250.198 150.346L250.898 149.646L237.633 152.299C237.272 151.67 236.651 151.259 236.007 151.041C235.178 150.76 234.192 150.747 233.227 151.005ZM232.072 154.421C232.042 154.311 232.051 154.075 232.34 153.746C232.623 153.424 233.109 153.108 233.745 152.937C234.381 152.767 234.96 152.798 235.366 152.935C235.781 153.076 235.906 153.276 235.936 153.386C235.965 153.496 235.956 153.731 235.668 154.06C235.384 154.382 234.899 154.699 234.262 154.869C233.626 155.04 233.048 155.009 232.641 154.871C232.227 154.731 232.101 154.531 232.072 154.421Z" fill="black"/>
  <path d="M242.495 145.782C242.724 144.94 243.168 144.173 243.785 143.556L244.297 143.044L242.753 150.765L241.051 151.106L242.495 145.782Z" fill="black"/>
  <path fill-rule="evenodd" clip-rule="evenodd" d="M241.644 156.31C242.273 156.671 242.684 157.291 242.902 157.936C243.182 158.765 243.196 159.751 242.937 160.715C242.679 161.68 242.174 162.527 241.517 163.105C240.865 163.678 239.961 164.059 239.004 163.803C238.047 163.546 237.455 162.764 237.177 161.942C236.896 161.113 236.883 160.127 237.142 159.163C237.4 158.198 237.905 157.351 238.562 156.773C238.885 156.489 239.269 156.253 239.691 156.117L240.234 154.116L242.188 153.586L241.644 156.31ZM239.522 161.871C239.632 161.9 239.868 161.892 240.196 161.603C240.519 161.32 240.835 160.834 241.005 160.198C241.176 159.562 241.145 158.983 241.007 158.576C240.867 158.162 240.667 158.037 240.557 158.007C240.447 157.978 240.211 157.986 239.883 158.275C239.56 158.558 239.244 159.044 239.074 159.68C238.903 160.316 238.934 160.895 239.072 161.302C239.212 161.716 239.412 161.841 239.522 161.871Z" fill="black"/>
  <path d="M250.5 154.5C248.5 152.9 249 150.167 249.5 149C246 154 250.409 157.902 254 158.5C257 159 258 158 263 158.5C263.995 158.6 267.5 160.5 267.5 163.5C267.5 165.9 269.167 167.167 270 167.5L270.5 165C268.596 165 269 160.5 267 158.5C264.736 156.236 262 156 259 156.5C256 157 253 156.5 250.5 154.5Z" fill="#A51140"/>
  <ellipse cx="146.885" cy="102.071" rx="2.08528" ry="2.1579" transform="rotate(53.5068 146.885 102.071)" fill="#37424A"/>
  <ellipse cx="178.658" cy="145.022" rx="2.08527" ry="2.1579" transform="rotate(53.5068 178.658 145.022)" fill="#37424A"/>
  <path d="M143.791 94.6105C147.914 91.5603 153.729 92.4301 156.779 96.5532L186.787 137.117C189.837 141.24 188.968 147.055 184.844 150.106C183.814 150.868 182.36 150.651 181.597 149.62L143.305 97.8576C142.542 96.8268 142.76 95.3731 143.791 94.6105Z" fill="#37424A"/>
  <path d="M188.655 142.457L190.002 144.278C190.184 144.523 190.134 144.871 189.895 145.071L189.874 145.043C189.827 144.979 189.735 144.967 189.669 145.016L188.413 145.945C188.346 145.994 188.331 146.086 188.378 146.149L188.464 146.265C188.511 146.329 188.603 146.341 188.669 146.292L189.925 145.363C189.981 145.321 190.001 145.25 189.977 145.19C190.285 144.941 190.351 144.5 190.121 144.189L188.774 142.368L188.655 142.457Z" fill="#37424A"/>
  <path d="M183.534 150.606C182.831 150.642 182.134 150.346 181.695 149.752L143.207 97.7255C142.498 96.7677 142.727 95.3968 143.719 94.6636L144.078 94.3981C144.402 94.158 144.737 93.9425 145.08 93.7512L185.041 147.769C184.887 148.462 184.391 149.862 183.534 150.606Z" fill="#A2AD00"/>
  <rect x="153.174" y="97.0603" width="4.17055" height="3.42287" transform="rotate(53.5068 153.174 97.0603)" fill="#EAF7F8"/>
  <rect x="164.977" y="113.015" width="4.17056" height="3.42287" transform="rotate(53.5068 164.977 113.015)" fill="#EAF7F8"/>
  <rect x="176.78" y="128.97" width="4.17055" height="3.42287" transform="rotate(53.5068 176.78 128.97)" fill="#EAF7F8"/>
  <rect x="156.168" y="101.107" width="4.17055" height="3.42287" transform="rotate(53.5068 156.168 101.107)" fill="#EAF7F8"/>
  <rect x="167.971" y="117.062" width="4.17056" height="3.42287" transform="rotate(53.5068 167.971 117.062)" fill="#EAF7F8"/>
  <rect x="179.774" y="133.016" width="4.17055" height="3.42287" transform="rotate(53.5068 179.774 133.016)" fill="#EAF7F8"/>
  <rect x="159.161" y="105.153" width="4.17055" height="3.42287" transform="rotate(53.5068 159.161 105.153)" fill="#EAF7F8"/>
  <rect x="170.964" y="121.108" width="4.17055" height="3.42287" transform="rotate(53.5068 170.964 121.108)" fill="#EAF7F8"/>
  <rect x="182.767" y="137.063" width="4.17054" height="3.42287" transform="rotate(53.5068 182.767 137.063)" fill="#EAF7F8"/>
  <path d="M185.6 141.228C185.689 141.163 185.814 141.181 185.879 141.27L187.116 142.942C187.591 143.584 187.638 144.447 187.236 145.137L186.177 146.958C186.104 147.082 185.928 147.092 185.843 146.976L183.128 143.306C183.062 143.217 183.081 143.092 183.17 143.026L185.6 141.228Z" fill="#EAF7F8"/>
  <rect x="176.53" y="123.252" width="3.88293" height="11.608" transform="rotate(53.5068 176.53 123.252)" fill="#AFB3B7"/>
  <rect x="164.727" y="107.297" width="3.88293" height="11.608" transform="rotate(53.5068 164.727 107.297)" fill="#AFB3B7"/>
  <ellipse cx="185.362" cy="148.515" rx="0.179764" ry="0.186027" transform="rotate(53.5068 185.362 148.515)" fill="#E4D700"/>
  <path d="M117.242 187.032L122.66 188.903C122.66 188.903 117.692 199.076 117.639 198.997C117.586 198.918 112.803 196.098 112.803 196.098L117.242 187.032Z" fill="#5F686E"/>
  <path d="M116.978 188.639L121.339 190.457L117.798 197.652L113.675 195.596L116.978 188.639Z" fill="#C3C6C9"/>
  <path fill-rule="evenodd" clip-rule="evenodd" d="M81.7308 244.225L81.2163 246.79L84.0452 247.644L86.1023 249.097L93.2153 249.182C93.2153 249.182 93.2163 248.414 92.1873 248.072C91.1592 247.73 87.8163 247.217 87.3877 246.79C86.9591 246.362 86.0498 244.791 86.0498 244.791L81.7217 244.225" fill="#584528"/>
  <path d="M96.4116 246.181L100.354 245.434L103.311 247.292C103.311 247.292 106.172 247.452 107.521 247.773C108.872 248.093 108.743 249.151 108.743 249.151L101.797 249.098L99.0995 248.621L95.9507 248.542C96.0376 247.24 96.3429 246.365 96.402 246.206C96.4086 246.19 96.4116 246.181 96.4116 246.181Z" fill="#584528"/>
  <ellipse cx="63.6901" cy="232.358" rx="15.163" ry="15.122" stroke="#C3C6C9" stroke-width="2"/>
  <ellipse cx="121.31" cy="232.358" rx="15.163" ry="15.122" stroke="#C3C6C9" stroke-width="2"/>
  <path d="M79.8804 232.358C79.8804 241.269 72.6357 248.5 63.6902 248.5C54.7448 248.5 47.5 241.269 47.5 232.358C47.5 223.446 54.7448 216.215 63.6902 216.215C72.6357 216.215 79.8804 223.446 79.8804 232.358Z" stroke="#37424A" stroke-width="3"/>
  <path d="M137.5 232.358C137.5 241.269 130.255 248.5 121.31 248.5C112.364 248.5 105.12 241.269 105.12 232.358C105.12 223.446 112.364 216.215 121.31 216.215C130.255 216.215 137.5 223.446 137.5 232.358Z" stroke="#37424A" stroke-width="3"/>
  <path fill-rule="evenodd" clip-rule="evenodd" d="M87.4456 229.333C87.3665 229.333 87.2879 229.335 87.2097 229.338L63.6794 229.837L63.7009 230.845L84.1506 230.411C82.777 231.421 81.8858 233.046 81.8858 234.878C81.8858 236.271 82.4011 237.545 83.2521 238.519L63.5534 233.883L63.3213 234.865L85.5758 240.101C86.1601 240.309 86.7896 240.423 87.4456 240.423C90.5161 240.423 93.0053 237.94 93.0053 234.878C93.0053 231.816 90.5161 229.333 87.4456 229.333ZM86.041 239.194C86.4833 239.337 86.9554 239.415 87.4456 239.415C89.9579 239.415 91.9945 237.383 91.9945 234.878C91.9945 232.374 89.9609 230.344 87.4512 230.341L87.2428 230.346C84.8246 230.452 82.8966 232.44 82.8966 234.878C82.8966 236.83 84.1331 238.494 85.8677 239.134L86.0453 239.176L86.041 239.194Z" fill="#5F686E"/>
  <ellipse cx="63.6903" cy="232.358" rx="2.52717" ry="2.52034" fill="#C3C6C9"/>
  <path fill-rule="evenodd" clip-rule="evenodd" d="M113.466 195.714C113.52 195.987 113.343 196.252 113.069 196.307L109.798 196.959L110.933 201.487C111.001 201.757 110.836 202.031 110.565 202.099C110.295 202.166 110.02 202.002 109.953 201.732L108.689 196.691C108.655 196.557 108.678 196.416 108.752 196.299C108.826 196.183 108.945 196.102 109.08 196.075L112.871 195.318C113.145 195.264 113.411 195.441 113.466 195.714Z" fill="#C3C6C9"/>
  <path fill-rule="evenodd" clip-rule="evenodd" d="M78.9952 198.093C79.2675 198.032 79.538 198.203 79.5992 198.475L81.8737 208.556C81.935 208.827 81.7639 209.097 81.4915 209.158C81.2192 209.219 80.9488 209.049 80.8875 208.777L78.613 198.696C78.5517 198.424 78.7228 198.154 78.9952 198.093Z" fill="#C3C6C9"/>
  <path d="M84.1431 197.202C84.8118 197.411 85.022 198.438 84.2442 198.685C83.1393 199.037 75.5906 199.829 74.6091 199.621C73.2292 199.329 71.9106 197.663 71.7291 196.64C71.5477 195.617 75.5446 196.703 77.8054 197.049C79.3177 197.28 81.3834 197.247 82.743 197.213C83.5098 197.193 84.0521 197.174 84.1431 197.202Z" fill="#37424A"/>
  <path d="M81.3804 208.666L63.6902 232.358L87.4456 234.878M81.3804 208.666L111.304 204.886M81.3804 208.666L87.4456 234.878M110.443 201.61L111.304 204.886M117.266 227.569L87.4456 234.878M117.266 227.569L121.31 232.358M117.266 227.569L112.762 210.431M87.4456 234.878L112.762 210.431M111.304 204.886L112.762 210.431" stroke="#A2AD00" stroke-width="3" stroke-linecap="round" stroke-linejoin="round"/>
  <path opacity="0.5" fill-rule="evenodd" clip-rule="evenodd" d="M100.526 246.433L95.9189 246.18L91.8886 217.64C89.8439 210.287 87.9906 203.62 86.1296 196.925C90.6852 198.193 94.5445 199.264 98.9859 200.499L100.526 246.433Z" fill="#37424A"/>
  <path opacity="0.5" d="M92.4692 206.427L90.6825 202.367L88.5865 197.609L86.0522 196.903L89.4674 211.9L88.8336 212.424L89.4912 213.181L88.4717 213.714L89.7732 214.587L81.4993 244.718L86.0562 245.421H86.0592L86.1881 245.024L86.0512 244.791L96.0886 214.649L93.0828 207.82L92.4697 206.428L92.4692 206.427Z" fill="#37424A"/>
  <path d="M110.736 188.824L113.897 192.691L117.614 195.202L118.108 198.462L117.936 199.947L115.076 196.836L109.031 191.484L110.736 188.824Z" fill="#EEDDD9"/>
  <path d="M120.576 201.427C119.432 201.43 118.992 200.766 118.992 200.766L118.058 201.326C117.817 202.6 115.08 203.494 114.668 201.956C114.494 201.947 113.506 201.813 113.426 202.034C112.792 203.713 109.121 202.655 108.054 202.434C107.946 202.411 107.846 202.502 107.86 202.61C108.207 205.38 110.184 207.806 113.117 208.066C115.223 208.26 117.757 207.874 119.313 206.343C121.228 204.322 120.576 201.427 120.576 201.427Z" fill="#878E92"/>
  <path d="M116.069 204.918C116.069 204.918 118.153 204.181 119.342 204.365C119.342 204.365 119.902 203.897 119.786 202.074C119.786 202.074 118.216 203.814 114.664 203.797C114.664 203.797 115.82 204.277 116.069 204.918Z" fill="#37424A"/>
  <path d="M115.473 205.082C115.473 205.082 115.17 204.726 114.386 204.371C113.563 203.998 112.21 203.626 110.118 203.67C110.118 203.67 113.288 205.137 113.935 206.308C113.935 206.308 114.602 205.373 115.473 205.082Z" fill="#37424A"/>
  <path d="M113.574 207.171C110.502 207.365 108.891 203.998 108.891 203.998C111.505 204.8 113.574 207.171 113.574 207.171Z" fill="#37424A"/>
  <path d="M119.116 205.162C117.922 207.091 114.321 207.125 114.321 207.125C115.543 205.97 117.377 205.005 119.116 205.162Z" fill="#37424A"/>
  <path fill-rule="evenodd" clip-rule="evenodd" d="M112.588 195.402C112.588 195.402 112.559 194.992 113.05 194.85C113.756 195.15 114.397 195.714 114.888 196.291L115.919 197.643L118.765 200.902L118.255 201.208L115.375 197.859L115.376 197.859L114.337 201.944L114.231 201.943C114.021 201.941 113.783 201.944 113.619 201.966L114.76 197.723L114.354 196.734L114.358 196.731C113.921 196.268 112.976 195.325 112.588 195.402Z" fill="#37424A"/>
  <path d="M102.42 163.755L103.739 161.876L108.312 163.204L109.931 158.788L111.254 158.147C111.4 158.076 111.441 157.887 111.338 157.763L109.674 155.755L110.234 153.987L108.996 150.861L104.765 149L100.639 150.58L99.0539 157.28L97.623 160.506L102.42 163.755Z" fill="#EEDDD9"/>
  <path d="M110.493 153.719C110.493 153.719 110.848 154.845 110.596 154.801C110.345 154.757 108.433 154.546 108.433 154.546L108.255 153.901L110.493 153.719Z" fill="#5F686E"/>
  <path d="M109.783 159.412L105.378 158.361L104.177 158.782L104.378 162.142L106.453 163.857L108.447 163.589L109.783 159.412Z" fill="#5F686E"/>
  <path d="M104.765 149H104.766L104.767 149L108.997 150.86L108.996 150.861L106.827 152.904L105.271 158.95H105.269L104.173 158.782C104.173 158.782 103.979 156.241 103.771 155.877C103.598 155.574 103.253 155.487 102.972 155.487C102.872 155.487 102.779 155.498 102.706 155.515C102.216 155.624 101.632 156.061 102.201 157.496L98.8508 157.241C98.8508 157.241 100.161 150.406 100.236 150.327C100.31 150.248 104.577 149.053 104.76 149.001L104.76 149.001L104.765 149L104.765 149Z" fill="#37424A"/>
  <path d="M97.2891 160.518L93.7187 165.566C93.5155 165.854 93.3553 166.17 93.2436 166.504L83.3462 196.151L99.6884 200.694L100.032 182.658L109.599 192.723L111.882 188.78L103.354 178.309L102.368 163.981L97.2891 160.518Z" fill="#71D6E0"/>
  <path d="M95.126 177.54L95.2119 178.395L96.24 182.327L97.1619 180.093L95.126 177.54Z" fill="#448086"/>
  <path d="M99.1307 162.207L99.431 162.676L84.3064 183.609L94.4177 187.274L97.1617 180.094L98.6183 181.675L96.3247 187.989L97.1082 188.276L92.2073 202.945L73.5466 194.39L81.0932 182.733L81.2894 182.509L99.1307 162.207Z" fill="#2D565A"/>
  <path d="M103.815 163.021L98.4983 158.298L97.2034 160.571L102.324 164.259L103.815 163.021Z" fill="#B5BD33"/>
  <path d="M97.4176 160.369L73.0324 156.779L69.7754 161.394L96.9567 160.988L97.4176 160.369Z" fill="#C7CE66"/>
  <path fill-rule="evenodd" clip-rule="evenodd" d="M74.5151 161.323L74.7466 164.643L96.9519 160.995L96.9559 160.988L74.5151 161.323Z" fill="#B5BD33"/>
  <path d="M102.517 164.002L96.9521 160.995L97.4178 160.369L102.517 164.002Z" fill="#A2AD00"/>
  <path d="M74.3104 158.344H74.3074V158.346L74.5146 161.324L96.9564 160.988L97.4174 160.369L74.3104 158.344Z" fill="#A2AD00"/>
</svg>