<svg width="320" height="272" viewBox="0 0 320 272" fill="none" xmlns="http://www.w3.org/2000/svg">
<g clip-path="url(#clip0)">
<path d="M0 154.335H321L319.391 159.259L0 231.5V154.335Z" fill="#5AABB3"/>
<path d="M320.047 25.2506L316.313 9.30153L312.265 25.2506H305.321L301.579 9.30153L297.522 25.3226H297.612V73.8985H288.157L264.706 23.5235L241.614 73.8985H232.484V25.3226L228.751 9.37349L224.703 25.3226H217.749L214.016 9.37349L209.95 25.3226V147.185H320.101V25.2506H320.047ZM264.886 95.4878C259.489 95.4878 255.045 90.6482 255.045 84.6931C255.045 78.7381 259.453 73.8985 264.886 73.8985C270.319 73.8985 274.727 78.7471 274.727 84.6931C274.727 90.6392 270.319 95.4878 264.886 95.4878Z" fill="#5AABB3"/>
<path d="M27.9794 92.7351H8.70194L-5.69092 111.896V155.452H41.9045V111.896L27.9794 92.7351ZM14.9898 103.917H21.4486V113.695H15.0168L14.9898 103.917ZM21.4486 128.915H15.0168V119.137H21.4486V128.915Z" fill="#5AABB3"/>
<path d="M321 155.335V111.502L304.067 101.335L286 111.502V155.335H321Z" fill="#5AABB3"/>
<path fill-rule="evenodd" clip-rule="evenodd" d="M151.461 98.7262C151.416 98.7301 151.37 98.7243 151.328 98.7091C151.285 98.6939 151.246 98.6697 151.214 98.6381C151.181 98.6065 151.156 98.5683 151.14 98.5261C151.123 98.4838 151.116 98.4385 151.119 98.3933L151.542 77.7576C151.536 77.5374 151.457 77.3255 151.317 77.1549L145.659 70.813C145.63 70.7814 145.607 70.7438 145.594 70.7028C145.581 70.6618 145.577 70.6184 145.582 70.5756C145.587 70.5328 145.601 70.4916 145.624 70.455C145.647 70.4183 145.677 70.387 145.713 70.3632L151.515 66.3422C151.699 66.2233 151.919 66.1753 152.136 66.2073L166.637 68.5012C166.825 68.5012 166.879 68.6811 166.762 68.825L160.34 76.6241C160.209 76.8016 160.137 77.0154 160.133 77.2358L160.412 97.8716C160.412 97.964 160.376 98.0529 160.313 98.1199C160.249 98.1869 160.162 98.2268 160.07 98.2314L151.461 98.7262Z" fill="#5AABB3"/>
<path fill-rule="evenodd" clip-rule="evenodd" d="M154.376 44.0692L154.457 42.4321C154.477 42.2077 154.551 41.9916 154.673 41.8024L155.356 40.9028C155.381 40.866 155.413 40.835 155.451 40.8122C155.489 40.7894 155.531 40.7754 155.575 40.7711C155.619 40.7668 155.663 40.7723 155.705 40.7873C155.746 40.8023 155.784 40.8264 155.815 40.8578L156.796 41.7574C156.948 41.9151 157.038 42.123 157.048 42.3421V44.2132C157.048 44.3047 157.012 44.3926 156.948 44.4581C156.884 44.5237 156.797 44.5616 156.706 44.564C156.614 44.564 156.526 44.5997 156.461 44.6636C156.395 44.7274 156.357 44.8143 156.355 44.9058V45.1127C156.363 45.2178 156.392 45.3201 156.442 45.413C156.491 45.506 156.56 45.5875 156.643 45.6525C156.643 45.6525 157.848 46.4441 157.848 49.3226L160.394 50.1142C160.433 50.1287 160.475 50.1334 160.517 50.1281C160.558 50.1229 160.598 50.1077 160.632 50.0839C160.667 50.06 160.695 50.0283 160.714 49.9913C160.734 49.9543 160.744 49.9132 160.745 49.8714L160.799 48.9718C160.801 48.9261 160.812 48.8813 160.832 48.8401C160.852 48.7988 160.88 48.762 160.915 48.7318C160.949 48.7016 160.989 48.6786 161.033 48.6642C161.076 48.6498 161.122 48.6443 161.168 48.648L162.067 48.7019C162.159 48.7088 162.245 48.751 162.307 48.8197C162.369 48.8884 162.402 48.9783 162.4 49.0708L162.319 51.4546C162.317 51.5461 162.279 51.633 162.213 51.6969C162.148 51.7607 162.06 51.7964 161.968 51.7964H161.266C161.171 51.7937 161.08 51.7582 161.008 51.6959C160.936 51.6337 160.887 51.5484 160.871 51.4546C160.855 51.3617 160.807 51.2775 160.734 51.2179C160.661 51.1583 160.569 51.1273 160.475 51.1307L158.091 51.2927C158.045 51.2949 158.001 51.3063 157.959 51.3262C157.918 51.3462 157.881 51.3741 157.851 51.4085C157.821 51.4429 157.798 51.483 157.783 51.5265C157.769 51.5699 157.764 51.6158 157.767 51.6615L158.028 57.0588C158.035 57.2827 158.087 57.503 158.181 57.7065L160.115 61.1698C160.214 61.3317 160.169 61.3677 160.025 61.2417L158.109 59.5056C157.965 59.3796 157.857 59.4336 157.884 59.6225L158.307 63.5986C158.323 63.7003 158.365 63.7963 158.428 63.8779C158.49 63.9596 158.573 64.0243 158.667 64.0663L159.503 64.4081C159.599 64.4518 159.682 64.518 159.747 64.601C159.811 64.6841 159.854 64.7815 159.872 64.8849L160.187 67.6645C160.195 67.7053 160.192 67.7474 160.179 67.7868C160.166 67.8262 160.143 67.8615 160.112 67.8895C160.081 67.9175 160.044 67.9371 160.004 67.9465C159.963 67.956 159.921 67.9549 159.881 67.9434L152.334 66.5851C152.239 66.5661 152.153 66.5142 152.092 66.4386C152.031 66.363 151.999 66.2683 152.001 66.1713L152.073 64.0933C152.08 63.9922 152.116 63.8952 152.177 63.8139C152.237 63.7326 152.32 63.6704 152.415 63.6345L152.658 63.5536C152.753 63.5161 152.837 63.4538 152.9 63.3731C152.963 63.2924 153.004 63.1964 153.018 63.0948L153.539 57.9314C153.548 57.8285 153.529 57.7253 153.485 57.6321C153.441 57.5388 153.372 57.459 153.287 57.4006C153.204 57.3365 153.135 57.2551 153.085 57.162C153.035 57.0689 153.006 56.9662 153 56.8609C153 56.8609 153 46.588 153.593 46.0662C154.094 45.5273 154.379 44.8228 154.394 44.0872" fill="#5AABB3"/>
<path d="M160.187 92.7351H136.466L118.79 111.896V155.452H177.35V111.896L160.187 92.7351ZM156.31 101.983H159.98V107.515H156.337L156.31 101.983ZM140.298 118.174H136.655V112.579H140.298V118.174ZM140.298 107.56H136.655V102.019H140.298V107.56ZM159.98 118.139H156.382V112.579H159.98V118.139Z" fill="#5AABB3"/>
<path d="M210.13 155.452V111.878L193.371 90.0815L176.451 111.878V155.452H210.13Z" fill="#5AABB3"/>
<path d="M74.9723 155.452V111.824L58.2046 101.704L41.293 111.824V155.452H74.9723Z" fill="#5AABB3"/>
<path d="M286.898 155.452V111.824L264.778 101.704L242.514 111.824V155.452H286.898Z" fill="#5AABB3"/>
<path d="M243.666 111.824H209.986V155.461H243.666V111.824Z" fill="#5AABB3"/>
<path d="M122 111.743H72.8398V154.678H122V111.743Z" fill="#5AABB3"/>
<path d="M242.91 113.254C242.913 110.535 242.285 107.852 241.077 105.415C239.869 102.979 238.114 100.856 235.947 99.212C237.114 97.3447 237.737 95.189 237.746 92.9871C237.749 90.6205 237.05 88.3062 235.739 86.3361C234.427 84.366 232.562 82.8284 230.378 81.9172C228.193 81.006 225.788 80.762 223.466 81.216C221.143 81.6701 219.007 82.8017 217.327 84.4683C216.029 83.0572 214.411 81.9786 212.609 81.3233C210.808 80.6681 208.875 80.4554 206.974 80.7031C205.073 80.9509 203.259 81.6519 201.686 82.747C200.112 83.8422 198.825 85.2995 197.932 86.9961C196.005 86.3029 193.971 85.9498 191.923 85.9526C188.628 85.9524 185.397 86.8624 182.587 88.5823C179.777 90.3022 177.496 92.765 175.997 95.699C174.498 98.6331 173.839 101.924 174.092 105.209C174.345 108.494 175.501 111.646 177.431 114.316C175.065 116.054 173.419 118.601 172.807 121.473C172.195 124.345 172.659 127.342 174.11 129.895C175.562 132.447 177.901 134.378 180.682 135.32C183.463 136.262 186.493 136.15 189.198 135.005C190.013 137.474 191.455 139.689 193.382 141.435C195.309 143.181 197.655 144.397 200.192 144.965C202.73 145.533 205.371 145.434 207.858 144.677C210.346 143.92 212.594 142.531 214.385 140.645C216.256 142.733 218.8 144.098 221.574 144.503C224.348 144.907 227.176 144.326 229.565 142.859C231.954 141.393 233.753 139.134 234.648 136.478C235.543 133.821 235.478 130.935 234.463 128.322C237.044 126.744 239.177 124.53 240.656 121.892C242.135 119.253 242.911 116.279 242.91 113.254Z" fill="#B3D8DE"/>
<path d="M205.488 194.879L205.39 148.202L200.991 141.257L202.214 140.232L205.695 144.828L205.794 136.247L187.398 114.468L188.928 113.245L198.436 123.365L192.841 104.348L194.982 104.043L197.671 113.164L200.199 102.046L201.117 102.432L199.129 115.386L200.892 123.365L205.111 128.807L219.593 96.3784H220.439L216.067 109.098L219.908 107.416L220.367 108.181L215.608 112.013L210.4 129.959L224.046 125.2L222.661 119.38L223.587 119.074L225.728 124.894L231.558 122.753L231.71 124.283L211.012 136.552L210.706 194.879H205.488Z" fill="#2D565A"/>
<path d="M60.2017 121.503C60.2044 119.426 60.6863 117.378 61.61 115.519C62.5337 113.659 63.8741 112.037 65.527 110.78C64.3522 108.864 63.9208 106.584 64.3145 104.371C64.7082 102.158 65.8997 100.166 67.6632 98.773C69.4268 97.3796 71.6401 96.6813 73.884 96.8103C76.1279 96.9393 78.2466 97.8866 79.8389 99.4728C80.8338 98.3894 82.0745 97.5611 83.4565 97.0576C84.8386 96.5541 86.3214 96.3903 87.78 96.5799C89.2386 96.7695 90.6302 97.307 91.8376 98.147C93.045 98.9871 94.0327 100.105 94.7175 101.407C97.4751 100.423 100.475 100.348 103.278 101.192C106.082 102.035 108.542 103.754 110.299 106.096C112.056 108.437 113.017 111.28 113.043 114.208C113.069 117.135 112.157 119.994 110.442 122.366C112.284 123.687 113.572 125.641 114.06 127.854C114.548 130.067 114.2 132.383 113.084 134.355C111.968 136.327 110.162 137.817 108.014 138.538C105.865 139.259 103.526 139.161 101.446 138.262C100.82 140.155 99.7136 141.854 98.2352 143.192C96.7569 144.531 94.9569 145.463 93.0108 145.899C91.0647 146.335 89.0389 146.259 87.1309 145.679C85.2229 145.099 83.4978 144.034 82.1238 142.588C80.6942 144.219 78.7339 145.291 76.5899 145.615C74.4458 145.939 72.2562 145.494 70.4088 144.358C68.5614 143.223 67.1753 141.471 66.4959 139.411C65.8164 137.352 65.8875 135.119 66.6964 133.107C64.7138 131.9 63.0761 130.202 61.9415 128.177C60.8069 126.152 60.2139 123.869 60.2197 121.548" fill="#B3D8DE"/>
<path d="M88.906 184.103L88.978 148.31L92.3513 142.975L91.4068 142.193L88.7441 145.719L88.6631 139.134L102.777 122.438L101.599 121.494L94.3123 129.257L98.6032 114.675L96.957 114.432L94.897 121.431L92.963 112.912L92.2524 113.2L93.7816 123.14L92.4323 129.257L89.1939 133.431L78.0844 108.558H77.4367L80.783 118.319L77.8505 117.023L77.4907 117.608L81.1429 120.549L85.1369 134.313L74.6751 130.669L75.7275 126.199L75.0259 125.965L73.3797 130.435L68.9089 128.78L68.792 129.959L84.6691 139.368L84.903 184.103H88.906Z" fill="#2D565A"/>
<path d="M32.844 237.25C19.6367 245.635 8.02029 255.714 0.0172738 264L0 220.892C5.11018 216.844 10.2402 213.178 15.3729 209.914L16.1213 209.419C23.6859 204.269 31.7961 199.974 40.9118 196.292C68.1991 185.266 99.6787 181.915 133.003 178.371L133.107 178.36C139.937 177.633 146.992 176.883 154.137 176.047C185.879 172.34 231.764 164.669 270.137 149.168L271.869 148.269C294.848 137.456 313.03 123.755 320 104L320 158.156C307.174 167.472 296.354 173.573 282.259 179.268C240.546 196.12 191.606 204.349 157.892 208.287C150.721 209.126 143.715 209.871 136.931 210.593L136.779 210.609L136.707 210.616L136.431 210.646C105.415 213.945 76.1241 217.062 53.0342 226.394C46.0512 229.214 39.9079 232.461 34.2519 236.321L34.0427 236.463L32.844 237.25Z" fill="#AAE6EC"/>
<g clip-path="url(#clip1)">
<path d="M145.424 141.046C147.505 140.026 149.761 139.407 152.073 139.224C152.073 139.224 150.841 140.459 145.424 141.046Z" fill="#64747F"/>
<path d="M167.001 172.968C168.64 172.929 170.279 173.044 171.896 173.312L170.847 184.856L168.816 186.037L167.001 172.968Z" fill="#64747F"/>
<path d="M168.856 165.822L169.486 173.096L170.447 173.163L170.19 165.013L168.856 165.822Z" fill="#64747F"/>
<path d="M145.424 141.046C147.716 140.756 149.954 140.142 152.073 139.224L159.52 168.238L153.86 169.068C153.786 168.595 145.736 142.119 145.458 141.046" fill="#008294"/>
<path d="M173.156 152.51C173.156 152.51 174.354 151.956 174.307 153.292L174.984 156.079L173.684 153.232L173.156 152.51Z" fill="#64747F"/>
<path d="M154.537 136.168C154.618 135.878 160.096 130.379 160.096 130.379C160.096 130.379 163.67 131.053 164.422 133.078C165.099 134.906 164.862 135.459 164.862 137.16C164.862 137.16 165.18 137.767 164.862 139.393C164.435 141.741 163.291 144.028 162.445 144.359C161.768 144.629 155.932 143.171 155.424 142.281C154.916 141.39 153.461 139.879 154.51 136.154" fill="#64747F"/>
<path d="M149.947 148.461C151.281 148.149 152.641 147.959 154.009 147.895C154.347 147.761 154.652 147.559 154.906 147.301C155.161 147.043 155.358 146.735 155.485 146.397C156.054 145.142 155.986 141.674 155.986 141.674L161.288 143.806V147.854C161.288 147.854 165.14 148.05 165.952 148.414C165.952 148.414 164.849 152.672 159.094 153.097C154.896 153.407 149.94 148.441 149.94 148.441" fill="#64747F"/>
<path d="M154.09 139.238C153.412 138.672 152.87 137.96 152.507 137.156C152.143 136.353 151.967 135.477 151.991 134.596C152.174 131.478 155.539 129.279 159.202 129.501C159.202 129.501 164.131 128.732 164.794 134.555C164.794 134.555 164.483 131.377 161.199 131.546C161.199 131.546 161.077 136.269 155.106 137.497L154.09 139.238Z" fill="#64747F"/>
<path d="M155.255 146.849C155.255 146.849 152.547 145.83 152.615 143.03C152.682 140.23 154.118 139.197 154.118 139.197L154.693 139.555C155.025 140.464 155.534 141.298 156.189 142.011C156.189 142.011 156.277 145.297 155.255 146.849Z" fill="#64747F"/>
<path d="M149.92 148.421C149.92 148.421 148.342 148.758 147.977 149.71C147.189 152.702 146.681 155.76 146.46 158.846C146.994 159.522 147.665 160.078 148.429 160.479C149.193 160.88 150.033 161.117 150.895 161.173L151.693 164.466C151.693 164.466 149.195 172.178 149.067 179.357C149.067 179.357 161.849 179.985 168.518 178.386C168.518 178.386 167.164 169.817 165.458 165.532L165.817 160.634C165.817 160.634 167.103 159.082 167.116 158.117C168.048 157.921 168.956 157.627 169.825 157.24C169.825 157.24 168.836 150.249 165.965 148.468C165.965 148.468 164.246 152.139 158.816 152.132C157.158 152.144 155.516 151.822 153.987 151.184C152.457 150.546 151.074 149.606 149.92 148.421Z" fill="#8FB4BE"/>
<path d="M174.916 159.304L174.747 156.167L169.473 160.303C169.473 160.303 169.649 158.387 169.608 157.273L167.117 158.103L165.817 160.62L165.451 165.471C165.472 166.029 165.661 166.567 165.993 167.017C165.993 167.017 169.547 166.456 171.24 164.453C172.563 162.808 173.79 161.089 174.916 159.304Z" fill="#64747F"/>
<path d="M173.758 149.075L174.842 159.075H178.714L179.445 148.988L173.758 149.075Z" fill="#84929D"/>
<path d="M169.473 160.303V159.993C169.473 159.993 166.765 160.033 165.715 161.639L165.56 163.845C165.56 163.845 167.266 160.789 169.453 160.303" fill="#64747F"/>
<path d="M149.615 178.953C149.615 178.953 150.78 189.458 152.181 192.987C153.048 195.317 153.469 197.789 153.42 200.274C153.42 200.274 152.506 206.158 152.587 208.769C152.669 211.657 154.246 217.723 154.246 217.723H158.207L158.545 200.564L158.992 199.397L159.839 181.483C159.839 181.483 159.473 185.707 164.043 196.786C164.043 196.786 162.648 201.441 162.262 203.668C161.876 205.895 161.951 212.305 161.964 213.317L165.837 213.782L169.08 198.607L169.879 196.833C169.879 196.833 170.421 184.364 168.329 178.264L149.615 178.953Z" fill="#64747F"/>
<path d="M173.67 148.981L173.928 151.484L179.391 151.444L179.5 148.988L173.67 148.981Z" fill="#007C8D"/>
<path d="M158.207 217.736L158.295 225.097L159.358 227.088C158.261 227.424 157.147 227.702 156.02 227.918C155.512 227.918 154.896 227.277 154.896 227.277C155.08 226.768 155.196 226.237 155.241 225.698C155.195 223.012 154.861 220.338 154.246 217.723L158.207 217.736Z" fill="#84929D"/>
<path d="M161.985 213.337C161.985 213.337 162.256 220.759 161.118 222.891L161.727 225.151C161.727 225.151 163.501 223.6 164.923 223.532C164.682 222.909 164.534 222.255 164.483 221.589C164.483 220.732 165.837 213.762 165.837 213.762L161.985 213.337Z" fill="#84929D"/>
<path d="M179.019 155.114C178.801 154.984 178.62 154.8 178.493 154.581C178.366 154.361 178.298 154.113 178.295 153.859C178.177 152.825 178.304 151.778 178.667 150.803C179.04 151.012 179.356 151.31 179.587 151.67C179.818 152.029 179.957 152.44 179.991 152.865C180.026 153.291 179.956 153.718 179.786 154.11C179.617 154.503 179.353 154.847 179.019 155.114Z" fill="#64747F"/>
<path d="M154.537 229.503C154.587 228.581 154.774 227.672 155.092 226.805C155.439 227.123 155.824 227.4 156.236 227.628C156.528 227.702 157.861 226.562 158.999 226.643L160.414 228.485C161.572 229.3 162.827 229.969 164.151 230.475C164.598 230.61 164.354 231.48 164.354 231.48C164.354 231.48 160.339 231.98 159.486 232C158.89 232 156.616 230.327 156.324 230.252C156.033 230.178 155.072 229.645 154.537 229.503Z" fill="#455560"/>
<path d="M161.118 222.763L160.231 224.956L161.307 226.218C161.698 227.025 162.151 227.801 162.662 228.539C164.128 228.951 165.641 229.178 167.164 229.213C167.164 229.213 168.755 229.315 168.355 228.309C167.855 227.982 167.322 227.708 166.764 227.493L165.302 225.266C165.113 224.638 164.982 223.995 164.909 223.343C164.412 223.234 163.897 223.234 163.399 223.343C163.041 223.478 161.869 224.139 161.869 224.139C161.869 224.139 161.287 224.025 161.158 222.709" fill="#455560"/>
<path d="M161.761 140.763L163.203 140.203L163.833 140.142C163.833 140.142 163.887 140.709 163.772 140.817C163.095 140.848 162.416 140.836 161.741 140.783" fill="white"/>
<path d="M161.815 140.763C162.313 141.095 162.872 141.324 163.461 141.437C163.941 141.377 163.772 140.817 163.772 140.817L161.815 140.763Z" fill="white"/>
<path d="M161.551 144.332C161.534 145.836 161.269 147.327 160.766 148.745C157.083 158.825 154.544 163.137 154.544 163.137" stroke="#231F20" stroke-width="0.0744743" stroke-miterlimit="10"/>
<path d="M154.862 139.514C154.862 139.514 153.982 152.611 154.429 162.105C154.659 166.868 153.752 175.599 151.822 180.235" stroke="#231F20" stroke-width="0.0744743" stroke-miterlimit="10"/>
<path d="M150.8 146.032L151.362 147.611C152.612 152.575 152.556 157.776 151.199 162.712L151.565 164.061C151.565 164.061 154.32 155.755 152.668 147.152L152.33 145.567L150.8 146.032Z" fill="#64747F"/>
<path d="M150.414 188.702L148.444 187.913C148.351 187.876 148.267 187.821 148.196 187.751C148.125 187.682 148.069 187.598 148.03 187.507C147.992 187.415 147.972 187.317 147.972 187.217C147.972 187.118 147.992 187.02 148.031 186.928L150.312 181.301C150.35 181.208 150.405 181.125 150.475 181.054C150.545 180.983 150.628 180.927 150.72 180.889C150.812 180.85 150.911 180.831 151.011 180.831C151.11 180.831 151.209 180.851 151.301 180.889L153.258 181.672C153.444 181.75 153.592 181.897 153.671 182.082C153.749 182.268 153.751 182.476 153.677 182.664L151.389 188.284C151.352 188.376 151.297 188.46 151.227 188.531C151.157 188.602 151.074 188.659 150.982 188.698C150.89 188.737 150.791 188.757 150.692 188.758C150.592 188.759 150.493 188.74 150.4 188.702" fill="#C4CDD4"/>
<path d="M146.46 158.832C146.46 158.832 146.697 163.926 146.751 165.208C146.751 165.208 145.742 169.931 147.875 180.612L149.696 180.41C149.696 180.41 150.285 168.939 150.055 165.613L150.895 161.16L146.46 158.832Z" fill="#64747F"/>
<path d="M149.52 179.459L150.197 181.409L149.683 182.88C149.683 182.88 150.874 186.618 150.421 187.07C149.967 187.522 146.873 184.323 146.873 184.323L147.78 179.796L149.52 179.459Z" fill="#64747F"/>
<path d="M151.723 180.123L151.411 180.943L151.664 181.039L151.976 180.218L151.723 180.123Z" fill="#231F20"/>
<path d="M125.242 122.437C124.737 122.026 124.112 121.789 123.461 121.762C122.513 121.796 118.295 122.343 116.914 127.936C116.914 127.936 117.51 127.936 119.92 127.902C119.92 127.902 118.708 133.057 120.529 135.574C120.529 135.574 122.791 133.442 124.172 135.77C124.172 135.77 123.996 129.022 128.37 128.503C128.37 128.503 129.243 126.62 128.106 125.75C128.106 125.75 126.751 125.642 125.242 122.41" fill="#6ACAD5"/>
<path d="M135.979 181.483L136.657 182.792L135.404 184.249L118.979 206.63L119.067 211.002C119.067 211.002 116.454 211.09 115.756 211.448C115.338 211.66 114.898 211.825 114.443 211.94L114.693 206.967L116.352 205.935C116.352 205.935 123.441 185.693 129.934 183.271L135.979 181.449" fill="#64747F"/>
<path d="M114.592 206.738C114.592 206.738 112.757 207.885 112.446 208.533C112.134 209.181 113.515 211.745 113.515 211.745L114.484 214.855L124.037 215.429C124.037 215.429 125.066 214.983 124.429 214.538C123.793 214.093 119.764 212.925 119.764 212.925L119.23 209.997L116.63 210.382L115.783 211.387L114.592 206.738Z" fill="#455560"/>
<path d="M134.723 205.316L131.808 189.118L127.18 195.107L130.832 205.705C131.832 206.203 134.323 205.316 134.723 205.316Z" fill="#878E92"/>
<path d="M131.518 182.832L131.362 183.122L128.938 183.797C127.481 184.838 126.228 186.137 125.242 187.63C125.289 188.264 125.364 188.979 125.472 189.62C125.58 190.261 126.311 192.575 127.259 195.355L131.823 189.114L131.085 184.978L131.518 182.832Z" fill="#2C404C"/>
<path d="M133.955 168.946L136.474 181.24L127.862 184.006L124.944 170.674L133.955 168.946Z" fill="#5698A6"/>
<path d="M119.169 171.713L123.495 185.477L131.281 183.23L128.16 170.046L119.169 171.713Z" fill="#288C9B"/>
<path d="M111.132 155.35C110.344 152.654 110.549 149.766 111.708 147.206L115.018 148.886C115.018 148.886 113.563 153.731 111.132 155.35Z" fill="#64747F"/>
<path d="M133.366 148.529L138.627 148.88L135.736 154.642C135.736 154.642 133.326 153.569 133.366 148.529Z" fill="#64747F"/>
<path d="M117.842 149.77L111.071 147.611C111.071 147.611 114.93 137.2 118.031 135.992C118.031 135.992 132.974 136.262 135.749 138.793C137.78 140.628 138.701 148.988 138.701 148.988L133.414 149.096C133.414 149.096 136.25 159.608 135.106 170.228L118.079 172.927L117.842 149.77Z" fill="#99CBD3"/>
<path d="M119.792 139.352C119.792 139.352 115.797 131.256 119.616 130.426C123.678 129.562 122.635 136.094 122.913 137.618C123.123 138.725 123.59 143.333 123.59 143.333L124.267 144.683L121.708 145.358L121.525 143.887C121.525 143.887 120.306 140.648 119.771 139.386" fill="#64747F"/>
<path d="M131.416 136.087C131.416 136.087 130.902 132.382 133.4 132.538C135.763 132.673 135.336 136.06 134.917 138.131C134.541 139.693 134.373 141.296 134.416 142.902L132.594 142.625L132.073 139.386C131.755 138.307 131.529 137.203 131.396 136.087" fill="#64747F"/>
<path d="M120.753 141.707L123.36 140.783L123.657 143.225L124.45 145.02L121.735 145.648L121.525 143.974L120.753 141.707Z" fill="#64747F"/>
<path d="M136.325 156.133C135.35 156.099 133.522 154.467 133.759 151.039C133.759 151.039 134.111 149.129 136.027 140.378C136.027 140.378 133.698 138.84 133.089 136.775C132.967 136.35 133.705 134.535 133.705 134.535C134.641 134.418 135.585 134.369 136.528 134.387C136.867 134.461 137.666 136.843 138.112 138.28C138.778 140.571 139.08 142.953 139.006 145.337C138.776 150.344 139.006 156.248 136.298 156.133" fill="#64747F"/>
<path d="M121.484 146.397C122.256 147.22 124.104 146.856 124.653 145.884C125.201 144.912 123.719 143.367 123.719 143.367C123.063 143.785 122.296 143.994 121.518 143.968C121.518 143.968 120.841 145.715 121.518 146.397" fill="#8FB4BE"/>
<path d="M134.511 142.497C134.366 143.419 134.125 144.323 133.793 145.196C133.245 146.869 130.157 145.398 130.963 144.231C131.769 143.064 132.419 142.159 132.419 142.159C132.756 141.976 133.145 141.91 133.524 141.972C133.903 142.034 134.251 142.221 134.511 142.504" fill="#8FB4BE"/>
<path d="M121.66 144.001C121.735 143.824 121.851 143.667 121.999 143.543C122.147 143.42 122.323 143.334 122.511 143.292C122.699 143.251 122.895 143.255 123.082 143.304C123.268 143.354 123.44 143.447 123.583 143.576C123.583 143.576 123.055 144.514 121.66 144.001Z" fill="#8FB4BE"/>
<path d="M132.073 139.386L132.574 142.375C132.849 142.271 133.146 142.237 133.438 142.279C133.729 142.32 134.005 142.434 134.24 142.612L134.395 142.362L134.673 139.44L132.073 139.386Z" fill="#64747F"/>
<path d="M133.603 137.235L133.21 136.984" stroke="#615448" stroke-width="0.223423" stroke-miterlimit="10"/>
<path d="M127.577 142.119C129.818 141.41 131.03 141.08 133.034 138.199L133.806 134.198C133.806 134.198 134.395 131.984 133.725 130.669C133.055 129.353 129.344 126.85 126.663 128.307C123.698 129.926 123.481 132.355 123.481 132.355C123.481 132.355 123.258 131.755 122.764 132.308C122.269 132.862 121.904 135.952 122.818 136.087C122.818 136.087 123.414 143.475 127.557 142.159" fill="#64747F"/>
<path d="M133.766 136.755C133.778 136.975 133.724 137.193 133.611 137.383C133.498 137.572 133.331 137.724 133.131 137.819C132.932 137.914 132.708 137.948 132.49 137.916C132.271 137.884 132.066 137.789 131.902 137.641C131.738 137.493 131.621 137.301 131.567 137.087C131.513 136.873 131.524 136.648 131.598 136.441C131.672 136.233 131.806 136.052 131.984 135.921C132.161 135.789 132.374 135.713 132.595 135.702C132.741 135.694 132.888 135.715 133.026 135.763C133.164 135.812 133.291 135.887 133.4 135.985C133.509 136.083 133.598 136.202 133.66 136.334C133.723 136.466 133.759 136.609 133.766 136.755V136.755Z" stroke="white" stroke-width="0.223423" stroke-miterlimit="10"/>
<path d="M130.739 135.851C130.751 136.085 130.693 136.318 130.572 136.519C130.451 136.721 130.273 136.882 130.06 136.982C129.847 137.083 129.609 137.119 129.376 137.085C129.143 137.051 128.925 136.948 128.751 136.791C128.576 136.634 128.452 136.428 128.394 136.201C128.336 135.973 128.347 135.734 128.426 135.513C128.505 135.291 128.648 135.098 128.836 134.958C129.025 134.818 129.251 134.736 129.487 134.724C129.643 134.716 129.8 134.738 129.947 134.79C130.095 134.843 130.231 134.924 130.347 135.028C130.464 135.133 130.558 135.259 130.626 135.4C130.693 135.542 130.731 135.695 130.739 135.851Z" stroke="white" stroke-width="0.223423" stroke-miterlimit="10"/>
<path d="M130.753 135.743C130.957 135.595 131.21 135.529 131.46 135.558C131.711 135.587 131.942 135.708 132.107 135.898" stroke="white" stroke-width="0.223423" stroke-miterlimit="10"/>
<path d="M124.747 135.486C124.07 134.137 124.47 131.877 124.598 131.242C124.995 129.999 125.82 128.935 126.927 128.24C126.927 128.24 124.72 128.408 122.913 131.863C122.913 131.863 123.38 131.998 123.393 132.281L122.655 136.276C122.716 142.146 124.686 144.069 126.718 144.373C130.468 144.899 131.233 140.324 131.233 140.324L124.747 135.486Z" fill="#64747F"/>
<path d="M126.332 137.268C126.332 137.268 128.593 139.413 130.076 139.865C130.076 139.865 128.722 141.026 128.343 141.275C128.343 141.275 126.312 140.23 126.312 137.268" fill="white"/>
<path d="M129.487 140.419C129.487 140.419 126.664 139.137 126.637 137.517C126.637 137.517 129.02 139.467 130.063 139.852L129.487 140.419Z" fill="white"/>
<path d="M127.056 140.014C127.056 140.014 128.695 140.203 128.796 140.918L128.343 141.276C127.827 140.953 127.388 140.523 127.056 140.014Z" fill="white"/>
<path d="M123.042 132.146L128.397 135.527" stroke="white" stroke-width="0.223423" stroke-miterlimit="10"/>
<path d="M123.441 132.268C123.441 132.268 123.319 131.735 122.859 131.836C122.398 131.937 121.816 134.252 122.114 135.5C122.412 136.748 122.696 136.316 122.696 136.316L123.441 132.268Z" fill="#64747F"/>
<path d="M134.226 142.611C134.226 142.611 133.935 141.977 133.414 141.977C133.252 141.982 133.093 142.02 132.946 142.089C132.799 142.157 132.668 142.255 132.561 142.375L134.226 142.611Z" fill="#8FB4BE"/>
<path d="M111.979 157.435C111.356 157.206 108.681 155.668 110.807 150.229C110.807 150.229 115.98 144.346 117.821 140.446C117.688 139.326 117.63 138.199 117.645 137.072C117.857 136.698 118.188 136.405 118.587 136.242L118.999 137.349C118.999 137.349 119.352 138.023 119.609 138.118C120.071 138.18 120.541 138.149 120.991 138.028C121.441 137.906 121.862 137.696 122.229 137.409L122.635 136.647C122.635 136.647 122.696 136.438 122.818 135.77C123.189 136.074 123.511 136.433 123.773 136.836C123.794 137.986 123.599 139.131 123.197 140.209C122.382 141.073 121.398 141.762 120.306 142.234C120.306 142.234 117.645 152.017 116.792 153.819C115.56 156.443 113.218 157.867 111.979 157.422" fill="#64747F"/>
<path d="M120.489 126.836L120.008 127.875L120.462 127.835L120.489 126.836Z" fill="#00B7BC"/>
<path d="M129.724 118.112C128.165 118.491 126.657 119.058 125.235 119.799C125.147 119.568 124.985 119.372 124.775 119.241C124.565 119.109 124.318 119.049 124.071 119.07C123.854 119.117 123.658 119.231 123.51 119.395C123.362 119.558 123.268 119.764 123.243 119.983C123.217 120.203 123.261 120.424 123.369 120.617C123.476 120.81 123.641 120.965 123.84 121.061C123.316 122.136 123.189 123.362 123.482 124.522C124.023 126.263 124.998 126.816 126.285 127.315C127.375 127.731 128.58 127.731 129.67 127.315C130.591 127.012 133.204 124.772 133.813 122.592L129.724 118.112Z" fill="#64747F"/>
<path d="M123.658 121.533H122.981L123.292 120.926L122.337 121.182C122.337 121.182 123.15 120.548 123.014 120.507C122.743 120.5 122.477 120.431 122.237 120.306C121.997 120.181 121.788 120.003 121.627 119.785C121.872 119.897 122.143 119.942 122.412 119.914C121.926 119.441 121.632 118.807 121.586 118.132C121.835 118.342 122.128 118.493 122.443 118.574C122.758 118.656 123.087 118.666 123.407 118.605C124.396 118.355 125.303 117.073 126.711 116.493C127.779 116.041 128.961 115.926 130.096 116.162L129.365 119.178C127.91 119.054 126.448 119.339 125.147 120.001C124.785 119.764 124.362 119.637 123.928 119.637C124.136 119.518 124.321 119.365 124.477 119.185C124.477 119.185 124.287 119.077 123.712 119.367C123.575 119.463 123.465 119.593 123.393 119.744C123.321 119.895 123.289 120.062 123.302 120.228C123.314 120.395 123.369 120.555 123.463 120.694C123.556 120.833 123.684 120.945 123.834 121.02L123.658 121.533Z" fill="#64747F"/>
<path d="M129.941 127.504C129.889 127.725 129.875 127.953 129.9 128.179C130.028 127.856 130.243 127.576 130.523 127.369C130.551 127.617 130.606 127.861 130.685 128.098C130.871 127.637 131.22 127.26 131.667 127.039C131.543 127.511 131.612 128.013 131.857 128.435C131.857 128.435 131.904 127.126 132.649 126.654C132.649 126.654 133.15 127.16 133.752 127.74C133.752 127.74 135.174 123.861 135.106 121.047C135.059 119.023 132.662 116.594 130.584 116L130.062 116.142L129.487 118.058C129.487 118.058 128.492 119.88 129.027 121.054C129.453 121.992 131.105 124.664 129.961 127.531" fill="#64747F"/>
<path d="M126.305 123.456C126.237 123.656 126.217 123.87 126.247 124.08C126.277 124.289 126.357 124.489 126.479 124.662C126.601 124.836 126.762 124.978 126.949 125.078C127.136 125.178 127.345 125.232 127.557 125.237C126.967 124.785 126.53 124.163 126.305 123.456Z" fill="white"/>
<path d="M117.544 127.983C117.578 128.481 117.769 128.956 118.09 129.339C118.411 129.722 118.846 129.994 119.331 130.115L125.777 128.584C125.777 128.584 127.808 129.488 128.248 129.258C129.277 128.813 129.338 128.321 129.385 127.821C129.433 127.322 127.036 127.147 126.278 127.079L120.008 127.895L117.544 127.983Z" fill="#64747F"/>
<path d="M132.452 211.839L132.595 210.449L130.821 205.679L134.721 205.281L135.377 207.838L137.72 211.016L135.533 211.61L135.371 212.797L132.452 211.839Z" fill="#6ACAD5"/>
<path d="M119.06 210.098L116.664 210.382L115.811 211.387L114.7 206.974L115.743 206.306L117.422 203.04L120.238 204.957L118.979 206.967L119.06 210.098Z" fill="#6ACAD5"/>
<path d="M132.195 128.543C131.958 128.462 131.342 128.483 131.294 128.705C131.247 128.928 132.344 130.453 133.109 130.595C133.109 130.595 133.63 130.25 133.671 129.981C133.711 129.711 132.669 128.719 132.195 128.543Z" fill="#64747F"/>
<path d="M144.219 215.442C142.073 215.442 139.534 212.838 139.534 212.838L137.95 210.591L135.357 211.34L135.187 212.527L132.093 211.475L131.646 214.295L136.697 216.123C136.697 216.123 142.791 217.662 145.587 216.387C145.587 216.387 146.365 215.455 144.233 215.442" fill="#455560"/>
<path d="M124.654 185.122L125.253 187.618L128.734 183.947L124.654 185.122Z" fill="#878E92"/>
</g>
</g>
<defs>
<clipPath id="clip0">
<rect width="320" height="272" fill="white"/>
</clipPath>
<clipPath id="clip1">
<rect width="70" height="116" fill="white" transform="translate(110 116)"/>
</clipPath>
</defs>
</svg>
