<svg width="320" height="240" viewBox="0 0 320 240" fill="none" xmlns="http://www.w3.org/2000/svg">
<g clip-path="url(#clip0)">
<path fill-rule="evenodd" clip-rule="evenodd" d="M271.044 71.7456H271.363C271.715 71.7456 272 72.0307 272 72.3826V102.959C272 103.31 271.715 103.596 271.363 103.596H271.044V71.7456Z" fill="#2C353B"/>
<path fill-rule="evenodd" clip-rule="evenodd" d="M136 90.8553C136 90.5035 136.285 90.2183 136.637 90.2183H136.956V110.284H136.637C136.285 110.284 136 109.999 136 109.647V90.8553Z" fill="#2C353B"/>
<path fill-rule="evenodd" clip-rule="evenodd" d="M136 65.6933C136 65.3415 136.285 65.0563 136.637 65.0563H136.956V85.1218H136.637C136.285 85.1218 136 84.8366 136 84.4848V65.6933Z" fill="#2C353B"/>
<path fill-rule="evenodd" clip-rule="evenodd" d="M136 46.2647C136 45.9129 136.285 45.6277 136.637 45.6277H136.956V56.1382H136.637C136.285 56.1382 136 55.853 136 55.5012V46.2647Z" fill="#2C353B"/>
<path fill-rule="evenodd" clip-rule="evenodd" d="M136.956 30.0656C136.956 18.9837 145.939 10.0001 157.021 10.0001H250.979C262.061 10.0001 271.045 18.9837 271.045 30.0656V263.209C271.045 274.29 262.061 283.274 250.979 283.274H157.021C145.939 283.274 136.956 274.29 136.956 263.209V30.0656Z" fill="#37424A"/>
<path fill-rule="evenodd" clip-rule="evenodd" d="M138.548 30.0655C138.548 19.8631 146.819 11.5925 157.021 11.5925H250.979C261.181 11.5925 269.452 19.8631 269.452 30.0655V263.208C269.452 273.411 261.181 281.681 250.979 281.681H157.021C146.819 281.681 138.548 273.411 138.548 263.208V30.0655Z" fill="#101416"/>
<path fill-rule="evenodd" clip-rule="evenodd" d="M177.087 27.8359H229.003C233.224 27.8359 236.647 24.4135 236.647 19.7937C236.69 18.9772 237.343 18.324 238.157 18.2829L250.661 18.2808C257.345 18.2808 262.764 23.6996 262.764 30.3839V264.801C262.764 271.485 257.345 276.904 250.661 276.904H155.429C148.744 276.904 143.326 271.485 143.326 264.801V30.3839C143.326 23.6996 148.744 18.2808 155.429 18.2808H167.93C168.746 18.324 169.4 18.9772 169.441 19.7917C169.443 24.4135 172.865 27.8359 177.087 27.8359Z" fill="#E7E8E9"/>
<circle cx="241.62" cy="46.4315" r="15.1659" fill="#B5BD33"/>
<circle cx="241.62" cy="46.4311" r="13.2702" fill="#B5BD33"/>
<circle cx="241.62" cy="46.4311" r="8.53082" fill="#E3E6B3"/>
<path d="M237.665 44.3341C237.665 43.4898 238.35 42.8053 239.194 42.8053H244.29C245.134 42.8053 245.819 43.4898 245.819 44.3341V47.3917C245.819 48.236 245.134 48.9205 244.29 48.9205H243.482L241.742 50.6604V48.9205H239.194C238.35 48.9205 237.665 48.236 237.665 47.3917V44.3341Z" fill="black"/>
</g>
<path d="M124.433 64.2268C124.436 60.99 123.697 57.7963 122.273 54.8964C120.85 51.9965 118.781 49.469 116.228 47.5124C117.603 45.2898 118.337 42.7238 118.348 40.1028C118.351 37.2858 117.527 34.531 115.982 32.186C114.437 29.841 112.238 28.0108 109.665 26.9262C107.091 25.8415 104.257 25.5511 101.52 26.0916C98.7825 26.632 96.2652 27.979 94.2851 29.9628C92.7559 28.2831 90.8494 26.9992 88.7263 26.2192C86.6032 25.4393 84.3257 25.1861 82.0855 25.481C79.8453 25.776 77.7081 26.6103 75.8538 27.9139C73.9996 29.2175 72.4826 30.9521 71.4307 32.9716C69.1594 32.1465 66.7634 31.7262 64.3497 31.7295C60.4671 31.7293 56.6598 32.8125 53.3481 34.8597C50.0364 36.9069 47.349 39.8384 45.5825 43.3309C43.8159 46.8233 43.0389 50.7408 43.3371 54.6511C43.6353 58.5613 44.9972 62.3124 47.2725 65.4903C44.4839 67.5599 42.5449 70.5918 41.8235 74.0103C41.1021 77.4289 41.6485 80.996 43.3591 84.0343C45.0698 87.0727 47.8254 89.3708 51.1028 90.4922C54.3803 91.6136 57.9512 91.4803 61.1378 90.1175C62.0988 93.0563 63.7975 95.6932 66.0683 97.771C68.3391 99.8487 71.1044 101.296 74.0943 101.973C77.0842 102.649 80.1966 102.531 83.1278 101.63C86.0589 100.729 88.7088 99.0753 90.8188 96.8311C93.0234 99.3162 96.0213 100.941 99.2902 101.423C102.559 101.904 105.892 101.212 108.707 99.4663C111.522 97.7207 113.642 95.0326 114.697 91.8704C115.752 88.7082 115.674 85.2725 114.479 82.1619C117.52 80.2845 120.033 77.6491 121.776 74.5084C123.519 71.3678 124.434 67.8273 124.433 64.2268Z" fill="#99CBD3"/>
<path d="M80.3351 161.387L80.2185 105.825L75.0349 97.5592L76.4766 96.3386L80.5789 101.81L80.6955 91.5951L59.0178 65.6723L60.8198 64.216L72.0244 76.262L65.431 53.6263L67.9539 53.2623L71.1234 64.1197L74.1021 50.8852L75.1833 51.3456L72.8406 66.7644L74.9183 76.262L79.8899 82.74L96.9564 44.1395H97.9529L92.8011 59.2799L97.3274 57.2776L97.8681 58.1877L92.2605 62.7491L86.1229 84.1106L102.204 78.4463L100.571 71.5186L101.663 71.1545L104.186 78.0823L111.055 75.5339L111.235 77.3541L86.8437 91.9592L86.4833 161.387H80.3351Z" fill="#37424A"/>
<path d="M32.844 213.25C19.6367 221.635 8.02029 231.714 0.0172738 240L0 196.892C5.11018 192.844 10.2402 189.178 15.3729 185.914L16.1213 185.419C23.6859 180.269 31.7961 175.974 40.9118 172.292C68.1991 161.266 99.6787 157.915 133.003 154.371L133.107 154.36C139.937 153.633 146.992 152.883 154.137 152.047C185.879 148.34 231.764 140.669 270.137 125.168L271.869 124.269C294.848 113.456 313.03 99.7549 320 80L320 134.156C307.174 143.472 296.354 149.573 282.259 155.268C240.546 172.12 191.606 180.349 157.892 184.287C150.721 185.126 143.715 185.871 136.931 186.593L136.779 186.609L136.707 186.616L136.431 186.646C105.415 189.945 76.1241 193.062 53.0342 202.394C46.0512 205.214 39.9079 208.461 34.2519 212.321L34.0427 212.463L32.844 213.25Z" fill="#71D6E0"/>
<path d="M47.6717 174.526L48.7759 174.139C48.2504 173.104 47.9465 171.972 47.8838 170.813L44.7644 171.15L45.0202 174.27L47.6717 174.526Z" fill="#64747F"/>
<path d="M51.1155 173.178L51.6521 171.544L54.4595 171.394L54.3223 172.436L55.4765 173.777L52.9248 175.587L51.1155 173.178Z" fill="#64747F"/>
<path d="M48.1334 172.411C48.2906 172.609 48.4168 172.83 48.5077 173.066C48.6787 173.48 48.7961 173.914 48.8571 174.357C48.884 174.743 48.884 175.131 48.8571 175.518L48.9319 175.904C48.9319 175.904 48.0585 175.992 46.505 177.395C46.0808 177.776 44.9329 178.961 44.1405 178.993C43.3482 179.024 41.1209 178.793 40.9088 178.568C40.6967 178.344 40.9463 177.62 40.9463 177.62L43.4792 176.085L44.4525 174.357C44.4525 174.357 44.2279 172.91 45.3883 172.829C46.5487 172.748 47.2599 174.526 47.2599 174.526L48.3954 173.446L48.1334 172.411Z" fill="#455560"/>
<path d="M51.3834 172.386C50.9085 172.757 50.5458 173.253 50.3355 173.818C50.1251 174.383 50.0754 174.995 50.1918 175.587L50.0982 176.179C51.0885 176.571 52.157 176.725 53.2176 176.628C55.8006 177.027 58.4318 176.994 61.0037 176.529C61.0037 176.529 61.1472 175.905 61.0037 175.649C61.0037 175.649 57.2604 174.682 56.8861 174.613L55.5634 173.584L53.3424 174.345L51.2087 172.985L51.3834 172.386Z" fill="#455560"/>
<path d="M55.2144 172.704C54.603 172.852 54.0566 173.195 53.6579 173.681C53.2593 174.167 53.0304 174.771 53.0058 175.399L55.5513 173.584L55.2144 172.704Z" fill="#455560"/>
<path d="M55.5326 135.508L41.3455 135.633C41.3455 135.633 41.202 151.991 41.1896 152.708C41.1771 153.426 44.2216 172.124 44.2216 172.124C44.2216 172.124 47.8027 171.93 48.4391 170.464L46.6173 152.995L46.948 152.521L46.4738 152.116L48.7136 139.045L51.7456 154.374L50.7349 154.998L51.103 155.722L50.8098 156.539L50.1859 171.6L54.4845 171.375L56.0754 155.903L56.3748 155.079L55.5326 135.508Z" fill="#B6CDD3"/>
<path d="M44.1778 113.279L45.7125 137.61L53.3426 137.735C53.3426 137.735 54.6215 127.129 54.11 125.638C53.5984 124.147 52.6813 113.691 52.6813 113.691C52.6813 113.691 48.1457 117.434 44.1778 113.285" fill="white"/>
<path d="M47.4595 104.364C47.4595 104.364 47.316 102.206 47.3409 101.912C47.3659 101.619 46.8918 99.0487 46.8918 99.0487C46.8918 99.0487 51.9951 99.6289 52.463 99.7288C52.7068 100.31 52.8907 100.914 53.012 101.532L52.8373 102.449C53.3613 102.935 53.8357 103.472 54.2536 104.052C54.291 104.264 53.0557 104.676 53.0557 104.676C53.0557 104.676 51.4211 106.779 49.0878 106.51C48.3704 106.429 47.4595 104.377 47.4595 104.377" fill="#64747F"/>
<path d="M45.1453 113.903C45.6518 112.375 46.0337 110.808 46.287 109.218C46.3556 108.594 45.9314 104.433 45.9314 104.433C46.25 104.429 46.5659 104.374 46.8672 104.27C46.8672 104.27 47.7905 106.31 48.5454 106.822C49.3557 107.064 50.1954 107.194 51.041 107.209L51.2032 109.667C51.6365 111.407 51.9759 113.169 52.2201 114.945C52.2201 114.945 47.8841 115.475 45.139 113.903" fill="#64747F"/>
<path d="M44.5211 104.638C43.9323 103.61 43.6508 102.434 43.71 101.251C43.7498 100.677 43.9351 100.123 44.2483 99.6402C44.5616 99.1578 44.9925 98.7631 45.5006 98.4932C46.1931 98.1751 50.4167 96.9024 52.513 99.741C52.513 99.741 48.882 99.2544 48.5326 99.6724C47.7964 100.533 48.5888 100.92 48.4952 102.031C48.4349 102.907 48.1814 103.759 47.7528 104.526L46.1057 105.531L46.218 106.997C45.6014 106.253 45.0345 105.469 44.5211 104.651" fill="#64747F"/>
<path d="M52.9617 104.545C52.6108 104.871 52.1997 105.125 51.7514 105.294C51.1275 105.506 50.3477 106.173 49.6489 106.067C49.2083 106.01 48.7933 105.827 48.4537 105.541C48.1141 105.254 47.8641 104.876 47.7336 104.451L46.7479 104.564C46.8727 105.374 47.0969 106.166 47.4154 106.922C47.5942 107.314 47.8632 107.658 48.2004 107.926C48.5377 108.193 48.9336 108.378 49.3557 108.463C50.4564 108.657 51.5812 108.674 52.6872 108.513C53.2051 108.407 53.7104 108.132 53.7354 107.565C53.7603 106.997 53.3985 106.941 53.3985 106.941C53.3985 106.941 53.9163 106.429 53.2924 106.142C53.2924 106.142 53.6543 105.737 53.5732 105.437L52.9617 104.545Z" fill="#64747F"/>
<path d="M45.1449 98.9299C45.0818 98.6724 44.9384 98.4416 44.7353 98.2711C44.5323 98.1006 44.2802 97.9992 44.0157 97.9816C43.8111 97.9303 43.5975 97.9264 43.3912 97.9702C43.1848 98.014 42.9912 98.1043 42.8252 98.2343C42.6591 98.3643 42.5248 98.5305 42.4327 98.7203C42.3406 98.91 42.2931 99.1183 42.2937 99.3292C42.2376 100.003 43.0673 100.733 44.1654 100.627C44.3617 99.9955 44.6963 99.4157 45.1449 98.9299Z" fill="#64747F"/>
<path d="M45.5813 110.359C45.5813 110.359 39.6794 112.025 38.8309 113.104C38.8309 113.104 40.8959 117.341 41.2516 119.849C41.6072 122.357 40.6277 130.136 40.3906 132.95C40.2611 134.423 40.2465 135.904 40.3469 137.38C40.3469 137.38 45.4877 137.586 47.0786 136.606C47.0786 136.606 45.6312 120.466 45.2382 117.465C45.2382 117.465 45.4503 111.152 45.5813 110.359Z" fill="#8FB4BE"/>
<path d="M46.7171 136.743L47.0166 138.234C47.0166 138.234 41.358 139.177 41.1396 139.17C40.9605 138.586 40.8454 137.983 40.7965 137.374C42.7751 137.292 44.7465 137.084 46.6984 136.75" fill="#5698A6"/>
<path d="M46.3177 109.249C46.3177 109.249 42.9675 109.349 42.0504 110.646C43.3901 113.103 44.4611 115.696 45.2447 118.382C45.2447 118.382 45.3757 117.135 45.5192 115.263C45.6564 113.535 46.2678 110.478 46.2803 110.166L46.3177 109.249Z" fill="#5698A6"/>
<path d="M46.7293 103.603C46.7293 103.603 46.7293 102.979 46.2177 102.836C46.1062 102.816 45.9919 102.819 45.8814 102.844C45.771 102.868 45.6666 102.915 45.5743 102.981C45.482 103.046 45.4037 103.129 45.3438 103.226C45.284 103.322 45.2438 103.429 45.2257 103.541C45.1533 103.856 45.155 104.185 45.2308 104.5C45.3065 104.815 45.4543 105.108 45.6624 105.356C46.0606 105.638 46.5293 105.805 47.0163 105.836L46.7293 103.603Z" fill="#64747F"/>
<path d="M62.0956 138.796C62.0956 138.796 61.3532 138.172 61.2533 137.823C61.2533 137.823 61.5154 135.951 61.5154 135.72C61.177 135.025 60.7848 134.358 60.3425 133.724L62.0956 132.382L63.3433 134.56C63.3433 134.56 65.4271 136.219 65.6579 136.319C65.6579 136.319 65.3273 139.058 65.2961 139.401C65.2649 139.744 63.3433 142.209 63.2435 142.259C63.1437 142.308 62.6571 142.377 62.7881 141.691C62.9191 141.005 63.412 137.592 63.412 137.592C63.412 137.592 62.1642 138.141 62.1081 138.796" fill="#64747F"/>
<path d="M63.4619 139.308C63.4619 139.308 63.1687 140.062 62.9753 140.131C62.7819 140.2 62.2267 139.545 62.0956 138.796C62.0956 138.796 62.2578 137.798 62.7757 137.548C62.9389 137.458 63.1185 137.402 63.3039 137.383C63.4893 137.363 63.6767 137.381 63.855 137.436C64.0172 137.523 63.7489 138.684 63.4619 139.276" fill="#64747F"/>
<path d="M56.836 113.105L58.795 123.885H59.369L59.1132 124.228L63.2371 132.695L62.9688 133.318L63.2371 133.942L61.3654 135.49L60.8476 134.866H59.8931L57.017 131.122L56.8548 124.509C56.8548 124.509 54.8396 117.023 56.8548 113.13" fill="#5698A6"/>
<path d="M56.8741 125.089L56.6619 118.227C56.6619 118.227 56.5684 117.016 56.4186 115.619L56.8304 113.123L55.6263 111.557C55.6263 111.557 52.8875 110.547 51.4463 109.929C51.4463 109.929 52.6254 124.415 52.4882 126.555C52.3509 128.695 52.1388 137.105 51.7582 137.979C53.6904 138.547 55.7208 138.7 57.7163 138.428L57.7912 137.548L58.2341 137.342L56.8741 125.089Z" fill="#8FB4BE"/>
<path d="M57.791 137.661C57.791 137.661 53.5424 138.235 52.0076 136.987L51.7331 138.085C53.6748 138.599 55.6944 138.751 57.6912 138.534L57.791 137.661Z" fill="#5698A6"/>
<path d="M51.2087 109.443C51.2087 109.443 51.9137 113.972 52.1695 115.438C52.1695 115.438 51.6517 111.358 53.9975 114.016C53.9975 114.016 54.2782 109.686 51.2087 109.443Z" fill="#5698A6"/>
<path d="M38.8315 113.105L36.4795 122.893L36.0864 123.099L36.5169 123.268C36.5169 123.268 41.196 123.767 41.5392 123.555C41.5392 123.555 41.5828 120.061 41.0276 118.233C40.4286 116.47 39.6944 114.755 38.8315 113.105Z" fill="#5698A6"/>
<path d="M46.8232 119.786C46.8232 119.786 47.9586 117.99 48.2082 117.721C48.4578 117.453 49.8428 116.474 49.8428 116.474C49.8428 116.474 50.1672 117.035 49.8428 117.36C49.5183 117.684 48.9319 118.177 48.9319 118.177L47.6841 120.41L46.8232 119.786Z" fill="#64747F"/>
<path d="M50.3855 116.031C50.4666 116.249 50.2296 116.548 49.8428 116.692C49.456 116.835 49.0879 116.767 49.0068 116.542C48.9257 116.318 49.1627 116.024 49.5433 115.881C49.9239 115.737 50.3044 115.806 50.3855 116.031Z" fill="white"/>
<path d="M52.5378 114.93L50.6665 114.217C50.3445 114.094 49.984 114.256 49.8613 114.578L48.4062 118.396C48.2835 118.718 48.445 119.079 48.767 119.202L50.6384 119.915C50.9604 120.037 51.3209 119.876 51.4436 119.554L52.8987 115.735C53.0214 115.413 52.8598 115.053 52.5378 114.93Z" fill="black"/>
<path d="M48.6638 118.495L51.1594 117.696C51.762 117.734 52.3563 117.855 52.925 118.058C53.3991 118.32 52.8563 120.554 52.482 120.872C52.1077 121.19 48.9446 121.621 48.9446 121.621L45.9 122.937L45.8314 120.51L48.6638 118.495Z" fill="#64747F"/>
<path d="M46.2557 120.142L45.7753 120.466L44.7646 120.08L41.4019 120.959L37.0971 122.681L36.6729 123.093L36.4795 123.286C36.4795 123.286 35.0695 125.982 38.3511 127.198L46.6924 123.991L46.9233 123.093L47.6407 122.638L46.2557 120.142Z" fill="#5698A6"/>
<defs>
<clipPath id="clip0">
<rect width="136" height="148" fill="white" transform="translate(136 10)"/>
</clipPath>
</defs>
</svg>
