<svg width="60" height="48" viewBox="0 0 60 48" fill="none" xmlns="http://www.w3.org/2000/svg">
<g clip-path="url(#clip0)">
<rect y="0.710449" width="60" height="40" rx="20" fill="#71D6E0"/>
<path d="M17.0781 16.2554V24.7104H18.1328V21.6929H20.2598C21.8477 21.6929 22.9785 20.5737 22.9785 18.9917C22.9785 17.3804 21.8711 16.2554 20.2715 16.2554H17.0781ZM18.1328 17.1929H19.9961C21.2207 17.1929 21.8945 17.8315 21.8945 18.9917C21.8945 20.1108 21.1973 20.7554 19.9961 20.7554H18.1328V17.1929Z" fill="black"/>
<path d="M24.2559 20.1226C24.2559 21.0366 24.7949 21.5464 25.9785 21.8335L27.0625 22.0972C27.7363 22.2612 28.0645 22.5542 28.0645 22.9878C28.0645 23.5679 27.4551 23.9722 26.6055 23.9722C25.7969 23.9722 25.293 23.6323 25.123 23.0991H24.0859C24.1973 24.1479 25.1641 24.8218 26.5703 24.8218C28.0059 24.8218 29.1016 24.0425 29.1016 22.9116C29.1016 22.0034 28.5273 21.4878 27.3379 21.2007L26.3652 20.9663C25.6211 20.7847 25.2695 20.5151 25.2695 20.0815C25.2695 19.519 25.8555 19.1382 26.6055 19.1382C27.3672 19.1382 27.8594 19.4722 27.9941 19.9761H28.9902C28.8555 18.939 27.9355 18.2827 26.6113 18.2827C25.2695 18.2827 24.2559 19.0737 24.2559 20.1226Z" fill="black"/>
<path d="M30.4199 20.1226C30.4199 21.0366 30.959 21.5464 32.1426 21.8335L33.2266 22.0972C33.9004 22.2612 34.2285 22.5542 34.2285 22.9878C34.2285 23.5679 33.6191 23.9722 32.7695 23.9722C31.9609 23.9722 31.457 23.6323 31.2871 23.0991H30.25C30.3613 24.1479 31.3281 24.8218 32.7344 24.8218C34.1699 24.8218 35.2656 24.0425 35.2656 22.9116C35.2656 22.0034 34.6914 21.4878 33.502 21.2007L32.5293 20.9663C31.7852 20.7847 31.4336 20.5151 31.4336 20.0815C31.4336 19.519 32.0195 19.1382 32.7695 19.1382C33.5312 19.1382 34.0234 19.4722 34.1582 19.9761H35.1543C35.0195 18.939 34.0996 18.2827 32.7754 18.2827C31.4336 18.2827 30.4199 19.0737 30.4199 20.1226Z" fill="black"/>
<path d="M37.2109 16.7593V18.394H36.1914V19.2378H37.2109V23.0698C37.2109 24.2769 37.7324 24.7573 39.0332 24.7573C39.2324 24.7573 39.4258 24.7339 39.625 24.6987V23.8491C39.4375 23.8667 39.3379 23.8726 39.1562 23.8726C38.5 23.8726 38.2188 23.5562 38.2188 22.812V19.2378H39.625V18.394H38.2188V16.7593H37.2109Z" fill="black"/>
<path d="M41.4766 16.2495L41.5762 21.8979H42.5488L42.6484 16.2495H41.4766ZM42.0684 24.8159C42.543 24.8159 42.877 24.4761 42.877 24.0015C42.877 23.521 42.543 23.1812 42.0684 23.1812C41.5938 23.1812 41.2539 23.521 41.2539 24.0015C41.2539 24.4761 41.5938 24.8159 42.0684 24.8159Z" fill="black"/>
<path d="M22 47.7104L16.8038 38.7104H27.1962L22 47.7104Z" fill="#71D6E0"/>
</g>
<defs>
<clipPath id="clip0">
<rect width="60" height="47" fill="white" transform="translate(0 0.710449)"/>
</clipPath>
</defs>
</svg>
