<svg width="320" height="160" viewBox="0 0 320 160" fill="none" xmlns="http://www.w3.org/2000/svg">
    <path
        d="M32.844 133.25C19.6367 141.635 8.02029 151.714 0.0172738 160L0 116.892C5.11018 112.844 10.2402 109.178 15.3729 105.914L16.1213 105.419C23.6859 100.269 31.7961 95.9744 40.9118 92.2922C68.1991 81.2659 99.6787 77.9148 133.003 74.3706L133.107 74.3596C139.937 73.6333 146.992 72.8828 154.137 72.0474C185.879 68.3401 231.764 60.6687 270.137 45.168L271.869 44.2688C294.848 33.4556 313.03 19.7549 320 0L320 54.1558C307.174 63.4724 296.354 69.573 282.259 75.2683C240.546 92.1199 191.606 100.349 157.892 104.287C150.721 105.126 143.715 105.871 136.931 106.593L136.779 106.609L136.707 106.616L136.431 106.646C105.415 109.945 76.1241 113.062 53.0342 122.394C46.0512 125.214 39.9079 128.461 34.2519 132.321L34.0427 132.463L32.844 133.25Z"
        fill="#AAE6EC" />
    <path fill-rule="evenodd" clip-rule="evenodd"
        d="M152.956 28.5291C152.098 31.7299 148.808 33.6294 145.607 32.7718C142.406 31.9141 140.507 28.6241 141.364 25.4233L106.591 16.1058C100.19 14.3905 93.6095 18.1895 91.8942 24.5911L73.2592 94.1378C71.5439 100.539 75.3429 107.119 81.7445 108.835L116.598 118.174C116.629 117.845 116.688 117.515 116.777 117.186C117.634 113.985 120.924 112.086 124.125 112.944C127.326 113.801 129.225 117.091 128.368 120.292C128.28 120.621 128.166 120.937 128.029 121.237L213.11 144.034C219.512 145.749 226.092 141.95 227.807 135.549L246.442 66.0022C248.158 59.6006 244.359 53.0205 237.957 51.3052L152.956 28.5291ZM140.69 51.1244C143.89 51.982 147.18 50.0825 148.038 46.8817C148.896 43.6809 146.996 40.3909 143.795 39.5333C140.595 38.6756 137.305 40.5751 136.447 43.7759C135.589 46.9767 137.489 50.2667 140.69 51.1244ZM143.12 65.2343C142.263 68.4351 138.973 70.3346 135.772 69.477C132.571 68.6193 130.672 65.3293 131.529 62.1285C132.387 58.9277 135.677 57.0282 138.878 57.8859C142.079 58.7435 143.978 62.0335 143.12 65.2343ZM130.854 87.8296C134.055 88.6872 137.345 86.7877 138.203 83.5869C139.061 80.3861 137.161 77.0961 133.96 76.2384C130.759 75.3808 127.469 77.2803 126.612 80.4811C125.754 83.6819 127.654 86.9719 130.854 87.8296ZM133.285 101.94C132.428 105.14 129.138 107.04 125.937 106.182C122.736 105.324 120.837 102.034 121.694 98.8337C122.552 95.6329 125.842 93.7334 129.043 94.591C132.243 95.4487 134.143 98.7387 133.285 101.94Z"
        fill="#EBECED" />
    <rect x="158.335" y="54.8172" width="76" height="8" rx="4" transform="rotate(15 158.335 54.8172)" fill="#E1E3E4" />
    <rect x="153.159" y="74.1357" width="76" height="8" rx="4" transform="rotate(15 153.159 74.1357)" fill="#E1E3E4" />
    <rect x="147.982" y="93.4542" width="76" height="8" rx="4" transform="rotate(15 147.982 93.4542)" fill="#E1E3E4" />
    <path d="M88 0L84 32H92L88 0Z" fill="white" />
    <path d="M120 32L88 28V36L120 32Z" fill="white" />
    <path d="M88 64L92 32H84L88 64Z" fill="white" />
    <path d="M56 32L88 36V28L56 32Z" fill="white" />
    <path d="M224 124L222 140H226L224 124Z" fill="white" />
    <path d="M240 140L224 138V142L240 140Z" fill="white" />
    <path d="M224 156L226 140H222L224 156Z" fill="white" />
    <path d="M208 140L224 142V138L208 140Z" fill="white" />
</svg>