<svg width="128" height="111" viewBox="0 0 128 111" fill="none" xmlns="http://www.w3.org/2000/svg">
<g filter="url(#filter0_d)">
<path fill-rule="evenodd" clip-rule="evenodd" d="M4.74823 52.8194C4.21405 51.8526 4.56476 50.6358 5.53157 50.1016L93.9351 1.25674C94.9019 0.722557 96.1187 1.07327 96.6529 2.04008L103.469 14.3767C103.987 15.3144 103.659 16.4812 102.849 17.1827C98.832 20.6633 97.6505 26.5912 100.324 31.4301C102.998 36.269 108.645 38.4238 113.73 36.8753C114.755 36.5632 115.917 36.9063 116.435 37.844L123.252 50.1806C123.786 51.1474 123.435 52.3642 122.468 52.8984L34.0647 101.743C33.0979 102.277 31.8811 101.927 31.3469 100.96L23.8458 87.3838C23.714 87.1452 23.8081 86.8455 24.0468 86.7136V86.7136C29.6059 83.6421 31.6225 76.6455 28.551 71.0863C25.4794 65.5272 18.4828 63.5106 12.9237 66.5821V66.5821C12.685 66.714 12.3812 66.6342 12.2493 66.3955L4.74823 52.8194Z" fill="#75B8C4"/>
</g>
<g filter="url(#filter1_d)">
<path fill-rule="evenodd" clip-rule="evenodd" d="M11.781 45.2896C11.781 44.185 12.6764 43.2896 13.781 43.2896H114.781C115.886 43.2896 116.781 44.185 116.781 45.2896V59.384C116.781 60.4553 115.929 61.3178 114.881 61.5403C109.682 62.644 105.781 67.2612 105.781 72.7896C105.781 78.3179 109.682 82.9351 114.881 84.0388C115.929 84.2613 116.781 85.1238 116.781 86.1951V100.29C116.781 101.394 115.886 102.29 114.781 102.29H13.781C12.6764 102.29 11.781 101.394 11.781 100.29V84.779C11.781 84.5063 12.0083 84.2896 12.281 84.2896V84.2896C18.6323 84.2896 23.781 79.1408 23.781 72.7896C23.781 66.4383 18.6323 61.2896 12.281 61.2896V61.2896C12.0083 61.2896 11.781 61.0728 11.781 60.8001V45.2896Z" fill="#007C92"/>
</g>
<path d="M9.78101 39.7896H110.781C111.609 39.7896 112.281 40.4611 112.281 41.2896V55.384C112.281 56.171 111.645 56.867 110.778 57.0512C105.352 58.2029 101.281 63.0202 101.281 68.7896C101.281 74.5589 105.352 79.3762 110.778 80.5279C111.645 80.7121 112.281 81.4081 112.281 82.1951V96.2896C112.281 97.118 111.609 97.7896 110.781 97.7896H9.78101C8.95258 97.7896 8.28101 97.118 8.28101 96.2896V80.7896C14.9084 80.7896 20.281 75.417 20.281 68.7896C20.281 62.1621 14.9084 56.7896 8.28101 56.7896V41.2896C8.28101 40.4611 8.95258 39.7896 9.78101 39.7896Z" stroke="white"/>
<path d="M57.3999 78.5796C60.6226 78.5796 62.8892 76.6675 62.8892 74.0034V73.9819C62.8892 71.812 61.4067 70.437 59.2046 70.2329V70.1792C61.0308 69.7817 62.3735 68.4927 62.3735 66.5698V66.5483C62.3735 64.1528 60.397 62.4985 57.3677 62.4985C54.4136 62.4985 52.394 64.228 52.1577 66.8384L52.147 66.9565H54.4136L54.4243 66.8491C54.564 65.3882 55.7241 64.4751 57.3677 64.4751C59.0649 64.4751 60.0317 65.356 60.0317 66.8599V66.8813C60.0317 68.3208 58.8716 69.3628 57.1636 69.3628H55.4126V71.2319H57.228C59.2153 71.2319 60.4399 72.2095 60.4399 73.9604V73.9819C60.4399 75.5073 59.2261 76.5708 57.3892 76.5708C55.5415 76.5708 54.3062 75.5825 54.1558 74.1753L54.145 74.0679H51.8354L51.8462 74.1968C52.0503 76.7642 54.1558 78.5796 57.3999 78.5796Z" fill="white"/>
<path d="M71.2159 78.6655C74.7715 78.6655 76.9092 75.5396 76.9092 70.5444V70.5229C76.9092 65.5278 74.7715 62.4126 71.2159 62.4126C67.6602 62.4126 65.5225 65.5278 65.5225 70.5229V70.5444C65.5225 75.5396 67.6602 78.6655 71.2159 78.6655ZM71.2159 76.6675C69.1426 76.6675 67.9503 74.3364 67.9503 70.5444V70.5229C67.9503 66.731 69.1426 64.4214 71.2159 64.4214C73.2784 64.4214 74.4922 66.731 74.4922 70.5229V70.5444C74.4922 74.3364 73.2784 76.6675 71.2159 76.6675Z" fill="white"/>
<defs>
<filter id="filter0_d" x="0.498535" y="1.00684" width="127.003" height="108.986" filterUnits="userSpaceOnUse" color-interpolation-filters="sRGB">
<feFlood flood-opacity="0" result="BackgroundImageFix"/>
<feColorMatrix in="SourceAlpha" type="matrix" values="0 0 0 0 0 0 0 0 0 0 0 0 0 0 0 0 0 0 127 0" result="hardAlpha"/>
<feOffset dy="4"/>
<feGaussianBlur stdDeviation="2"/>
<feComposite in2="hardAlpha" operator="out"/>
<feColorMatrix type="matrix" values="0 0 0 0 0 0 0 0 0 0 0 0 0 0 0 0 0 0 0.25 0"/>
<feBlend mode="normal" in2="BackgroundImageFix" result="effect1_dropShadow"/>
<feBlend mode="normal" in="SourceGraphic" in2="effect1_dropShadow" result="shape"/>
</filter>
<filter id="filter1_d" x="7.78101" y="43.2896" width="113" height="67" filterUnits="userSpaceOnUse" color-interpolation-filters="sRGB">
<feFlood flood-opacity="0" result="BackgroundImageFix"/>
<feColorMatrix in="SourceAlpha" type="matrix" values="0 0 0 0 0 0 0 0 0 0 0 0 0 0 0 0 0 0 127 0" result="hardAlpha"/>
<feOffset dy="4"/>
<feGaussianBlur stdDeviation="2"/>
<feComposite in2="hardAlpha" operator="out"/>
<feColorMatrix type="matrix" values="0 0 0 0 0 0 0 0 0 0 0 0 0 0 0 0 0 0 0.25 0"/>
<feBlend mode="normal" in2="BackgroundImageFix" result="effect1_dropShadow"/>
<feBlend mode="normal" in="SourceGraphic" in2="effect1_dropShadow" result="shape"/>
</filter>
</defs>
</svg>
