<svg width="128" height="111" viewBox="0 0 128 111" fill="none" xmlns="http://www.w3.org/2000/svg">
  <path fill-rule="evenodd" clip-rule="evenodd" d="M4.74785 52.8193C4.21367 51.8525 4.56438 50.6357 5.53119 50.1015L93.9347 1.25664C94.9015 0.722457 96.1183 1.07317 96.6525 2.03998L103.469 14.3766C103.987 15.3143 103.659 16.4811 102.849 17.1826C98.8316 20.6632 97.6501 26.5911 100.324 31.43C102.998 36.2689 108.645 38.4237 113.73 36.8752C114.755 36.5631 115.917 36.9062 116.435 37.8439L123.252 50.1805C123.786 51.1473 123.435 52.3641 122.468 52.8983L34.0643 101.743C33.0975 102.277 31.8807 101.927 31.3465 100.96L23.8454 87.3837C23.7136 87.1451 23.8077 86.8454 24.0464 86.7135C29.6055 83.642 31.6221 76.6454 28.5506 71.0862C25.479 65.5271 18.4824 63.5105 12.9233 66.582C12.6846 66.7139 12.3808 66.6341 12.2489 66.3954L4.74785 52.8193Z" fill="#75B8C4"/>
  <path fill-rule="evenodd" clip-rule="evenodd" d="M11.7803 45.2896C11.7803 44.185 12.6757 43.2896 13.7803 43.2896H114.78C115.885 43.2896 116.78 44.185 116.78 45.2896V59.3839C116.78 60.4552 115.928 61.3177 114.88 61.5402C109.681 62.6439 105.78 67.2611 105.78 72.7895C105.78 78.3178 109.681 82.9351 114.88 84.0388C115.928 84.2613 116.78 85.1237 116.78 86.195V100.29C116.78 101.394 115.885 102.29 114.78 102.29H13.7803C12.6757 102.29 11.7803 101.394 11.7803 100.29V84.7789C11.7803 84.5062 12.0076 84.2895 12.2803 84.2895C18.6316 84.2895 23.7803 79.1407 23.7803 72.7895C23.7803 66.4382 18.6316 61.2896 12.2803 61.2896C12.0076 61.2896 11.7803 61.0727 11.7803 60.8V45.2896Z" fill="#007C92"/>
  <path d="M9.78125 39.7896H110.781C111.609 39.7896 112.281 40.4611 112.281 41.2896V55.3839C112.281 56.1709 111.645 56.867 110.778 57.0512C105.352 58.2029 101.281 63.0201 101.281 68.7895C101.281 74.5588 105.352 79.3762 110.778 80.5279C111.645 80.7121 112.281 81.408 112.281 82.195V96.2895C112.281 97.1179 111.609 97.7895 110.781 97.7895H9.78125C8.95282 97.7895 8.28125 97.1179 8.28125 96.2895V80.7895C14.9086 80.7895 20.2812 75.4169 20.2812 68.7895C20.2812 62.162 14.9086 56.7896 8.28125 56.7896V41.2896C8.28125 40.4611 8.95282 39.7896 9.78125 39.7896Z" stroke="white"/>
  <path d="M57.3995 78.5796C60.6222 78.5796 62.8888 76.6675 62.8888 74.0034V73.9819C62.8888 71.812 61.4063 70.437 59.2042 70.2329V70.1792C61.0304 69.7817 62.3731 68.4927 62.3731 66.5698V66.5483C62.3731 64.1528 60.3966 62.4985 57.3673 62.4985C54.4132 62.4985 52.3936 64.228 52.1573 66.8384L52.1466 66.9565H54.4132L54.4239 66.8491C54.5636 65.3882 55.7237 64.4751 57.3673 64.4751C59.0645 64.4751 60.0313 65.356 60.0313 66.8599V66.8813C60.0313 68.3208 58.8712 69.3628 57.1632 69.3628H55.4122V71.2319H57.2276C59.2149 71.2319 60.4395 72.2095 60.4395 73.9604V73.9819C60.4395 75.5073 59.2257 76.5708 57.3888 76.5708C55.5411 76.5708 54.3058 75.5825 54.1554 74.1753L54.1446 74.0679H51.835L51.8458 74.1968C52.0499 76.7642 54.1554 78.5796 57.3995 78.5796Z" fill="white"/>
  <path d="M71.2159 78.6655C74.7715 78.6655 76.9092 75.5396 76.9092 70.5444V70.5229C76.9092 65.5278 74.7715 62.4126 71.2159 62.4126C67.6602 62.4126 65.5225 65.5278 65.5225 70.5229V70.5444C65.5225 75.5396 67.6602 78.6655 71.2159 78.6655ZM71.2159 76.6675C69.1426 76.6675 67.9503 74.3364 67.9503 70.5444V70.5229C67.9503 66.731 69.1426 64.4214 71.2159 64.4214C73.2784 64.4214 74.4922 66.731 74.4922 70.5229V70.5444C74.4922 74.3364 73.2784 76.6675 71.2159 76.6675Z" fill="white"/>
</svg>