<svg width="128" height="111" viewBox="0 0 128 111" fill="none" xmlns="http://www.w3.org/2000/svg">
<g filter="url(#filter0_d)">
<path fill-rule="evenodd" clip-rule="evenodd" d="M4.74823 53.3194C4.21405 52.3526 4.56476 51.1358 5.53157 50.6016L93.9351 1.75674C94.9019 1.22256 96.1187 1.57327 96.6529 2.54008L103.469 14.8767C103.987 15.8144 103.659 16.9812 102.849 17.6827C98.832 21.1633 97.6505 27.0912 100.324 31.9301C102.998 36.769 108.645 38.9238 113.73 37.3753C114.755 37.0632 115.917 37.4063 116.435 38.344L123.252 50.6806C123.786 51.6474 123.435 52.8642 122.468 53.3984L34.0647 102.243C33.0979 102.777 31.8811 102.427 31.3469 101.46L23.8458 87.8838C23.714 87.6452 23.8081 87.3455 24.0468 87.2136C29.6059 84.1421 31.6225 77.1455 28.551 71.5863C25.4794 66.0272 18.4828 64.0106 12.9237 67.0821C12.685 67.214 12.3812 67.1342 12.2493 66.8955L4.74823 53.3194Z" fill="#75B8C4"/>
</g>
<g filter="url(#filter1_d)">
<path fill-rule="evenodd" clip-rule="evenodd" d="M11.781 45.7896C11.781 44.685 12.6764 43.7896 13.781 43.7896H114.781C115.886 43.7896 116.781 44.685 116.781 45.7896V59.884C116.781 60.9553 115.929 61.8178 114.881 62.0403C109.682 63.144 105.781 67.7612 105.781 73.2896C105.781 78.8179 109.682 83.4351 114.881 84.5388C115.929 84.7613 116.781 85.6238 116.781 86.6951V100.79C116.781 101.894 115.886 102.79 114.781 102.79H13.781C12.6764 102.79 11.781 101.894 11.781 100.79V85.279C11.781 85.0063 12.0083 84.7896 12.281 84.7896C18.6323 84.7896 23.781 79.6408 23.781 73.2896C23.781 66.9383 18.6323 61.7896 12.281 61.7896C12.0083 61.7896 11.781 61.5728 11.781 61.3001V45.7896Z" fill="#007C92"/>
</g>
<path d="M8.28101 41.7896C8.28101 40.9611 8.95258 40.2896 9.78101 40.2896H110.781C111.609 40.2896 112.281 40.9611 112.281 41.7896V55.884C112.281 56.671 111.645 57.367 110.778 57.5512C105.352 58.7029 101.281 63.5202 101.281 69.2896C101.281 75.0589 105.352 79.8762 110.778 81.0279C111.645 81.2121 112.281 81.9081 112.281 82.6951V96.7896C112.281 97.618 111.609 98.2896 110.781 98.2896H9.78101C8.95258 98.2896 8.28101 97.618 8.28101 96.7896V81.2896C14.9084 81.2896 20.281 75.917 20.281 69.2896C20.281 62.6621 14.9084 57.2896 8.28101 57.2896V41.7896Z" stroke="white"/>
<path d="M57.3999 79.0796C60.6225 79.0796 62.8891 77.1675 62.8891 74.5034V74.4819C62.8891 72.312 61.4067 70.937 59.2046 70.7329V70.6792C61.0307 70.2817 62.3735 68.9927 62.3735 67.0698V67.0483C62.3735 64.6528 60.3969 62.9985 57.3676 62.9985C54.4135 62.9985 52.394 64.728 52.1577 67.3384L52.1469 67.4565H54.4135L54.4243 67.3491C54.5639 65.8882 55.7241 64.9751 57.3676 64.9751C59.0649 64.9751 60.0317 65.856 60.0317 67.3599V67.3813C60.0317 68.8208 58.8716 69.8628 57.1635 69.8628H55.4126V71.7319H57.228C59.2153 71.7319 60.4399 72.7095 60.4399 74.4604V74.4819C60.4399 76.0073 59.226 77.0708 57.3891 77.0708C55.5415 77.0708 54.3061 76.0825 54.1557 74.6753L54.145 74.5679H51.8354L51.8462 74.6968C52.0503 77.2642 54.1557 79.0796 57.3999 79.0796ZM71.2158 79.1655C74.7715 79.1655 76.9092 76.0396 76.9092 71.0444V71.0229C76.9092 66.0278 74.7715 62.9126 71.2158 62.9126C67.6602 62.9126 65.5225 66.0278 65.5225 71.0229V71.0444C65.5225 76.0396 67.6602 79.1655 71.2158 79.1655ZM71.2158 77.1675C69.1426 77.1675 67.9502 74.8364 67.9502 71.0444V71.0229C67.9502 67.231 69.1426 64.9214 71.2158 64.9214C73.2783 64.9214 74.4922 67.231 74.4922 71.0229V71.0444C74.4922 74.8364 73.2783 77.1675 71.2158 77.1675Z" fill="white"/>
<defs>
<filter id="filter0_d" x="0.498535" y="1.50684" width="127.003" height="108.986" filterUnits="userSpaceOnUse" color-interpolation-filters="sRGB">
<feFlood flood-opacity="0" result="BackgroundImageFix"/>
<feColorMatrix in="SourceAlpha" type="matrix" values="0 0 0 0 0 0 0 0 0 0 0 0 0 0 0 0 0 0 127 0" result="hardAlpha"/>
<feOffset dy="4"/>
<feGaussianBlur stdDeviation="2"/>
<feComposite in2="hardAlpha" operator="out"/>
<feColorMatrix type="matrix" values="0 0 0 0 0 0 0 0 0 0 0 0 0 0 0 0 0 0 0.25 0"/>
<feBlend mode="normal" in2="BackgroundImageFix" result="effect1_dropShadow"/>
<feBlend mode="normal" in="SourceGraphic" in2="effect1_dropShadow" result="shape"/>
</filter>
<filter id="filter1_d" x="7.78101" y="43.7896" width="113" height="67" filterUnits="userSpaceOnUse" color-interpolation-filters="sRGB">
<feFlood flood-opacity="0" result="BackgroundImageFix"/>
<feColorMatrix in="SourceAlpha" type="matrix" values="0 0 0 0 0 0 0 0 0 0 0 0 0 0 0 0 0 0 127 0" result="hardAlpha"/>
<feOffset dy="4"/>
<feGaussianBlur stdDeviation="2"/>
<feComposite in2="hardAlpha" operator="out"/>
<feColorMatrix type="matrix" values="0 0 0 0 0 0 0 0 0 0 0 0 0 0 0 0 0 0 0.25 0"/>
<feBlend mode="normal" in2="BackgroundImageFix" result="effect1_dropShadow"/>
<feBlend mode="normal" in="SourceGraphic" in2="effect1_dropShadow" result="shape"/>
</filter>
</defs>
</svg>
