<svg width="20" height="20" viewBox="0 0 20 20" fill="none" xmlns="http://www.w3.org/2000/svg">
<rect width="20" height="20" rx="2" fill="#A2AD00"/>
<path fill-rule="evenodd" clip-rule="evenodd" d="M4 7.6C4 7.26863 4.26863 7 4.6 7H14.8917C15.185 7 15.4353 7.21205 15.4836 7.50136L15.9918 10.551C15.9973 10.5836 16 10.6166 16 10.6497V11.8C16 12.1314 15.7314 12.4 15.4 12.4H14.77C14.631 11.7153 14.0257 11.2 13.3 11.2C12.5743 11.2 11.969 11.7153 11.83 12.4H8.16999C8.03101 11.7153 7.42569 11.2 6.7 11.2C5.97431 11.2 5.36899 11.7153 5.23001 12.4H4.6C4.26863 12.4 4 12.1314 4 11.8V7.6ZM4.6 8.5C4.6 8.33431 4.73431 8.2 4.9 8.2H5.5C5.66569 8.2 5.8 8.33431 5.8 8.5V9.7C5.8 9.86569 5.66569 10 5.5 10H4.9C4.73431 10 4.6 9.86569 4.6 9.7V8.5ZM13.9 8.2C13.7343 8.2 13.6 8.33431 13.6 8.5V9.7C13.6 9.86569 13.7343 10 13.9 10H14.8959C15.0812 10 15.2223 9.83354 15.1918 9.65068L14.9918 8.45068C14.9677 8.30602 14.8425 8.2 14.6959 8.2H13.9ZM6.4 8.5C6.4 8.33431 6.53431 8.2 6.7 8.2H9.1C9.26569 8.2 9.4 8.33431 9.4 8.5V9.7C9.4 9.86569 9.26569 10 9.1 10H6.7C6.53431 10 6.4 9.86569 6.4 9.7V8.5ZM10.3 8.2C10.1343 8.2 10 8.33431 10 8.5V9.7C10 9.86569 10.1343 10 10.3 10H12.7C12.8657 10 13 9.86569 13 9.7V8.5C13 8.33431 12.8657 8.2 12.7 8.2H10.3Z" fill="black"/>
<path d="M14.2 12.7C14.2 13.1971 13.7971 13.6 13.3 13.6C12.8029 13.6 12.4 13.1971 12.4 12.7C12.4 12.2029 12.8029 11.8 13.3 11.8C13.7971 11.8 14.2 12.2029 14.2 12.7Z" fill="black"/>
<path d="M6.7 13.6C7.19706 13.6 7.6 13.1971 7.6 12.7C7.6 12.2029 7.19706 11.8 6.7 11.8C6.20294 11.8 5.8 12.2029 5.8 12.7C5.8 13.1971 6.20294 13.6 6.7 13.6Z" fill="black"/>
</svg>
