<svg width="20" height="13" viewBox="0 0 20 13" fill="none" xmlns="http://www.w3.org/2000/svg">
<path fill-rule="evenodd" clip-rule="evenodd" d="M-0.11806 12L-1.22363 11.4472L-0.776419 10.5528L0.329154 11.1056C0.751445 11.3167 1.2485 11.3167 1.67079 11.1056L1.88194 11C2.58576 10.6481 3.41419 10.6481 4.11801 11L4.32915 11.1056C4.75144 11.3167 5.2485 11.3167 5.67079 11.1056L5.88194 11C6.58576 10.6481 7.41419 10.6481 8.11801 11L8.32915 11.1056C8.75144 11.3167 9.2485 11.3167 9.67079 11.1056L9.88194 11C10.5858 10.6481 11.4142 10.6481 12.118 11L12.3292 11.1056C12.7514 11.3167 13.2485 11.3167 13.6708 11.1056L13.8819 11C14.5858 10.6481 15.4142 10.6481 16.118 11L16.3292 11.1056C16.7514 11.3167 17.2485 11.3167 17.6708 11.1056L17.8819 11C18.5858 10.6481 19.4142 10.6481 20.118 11L21.2236 11.5528L20.7764 12.4472L19.6708 11.8944C19.2485 11.6833 18.7514 11.6833 18.3292 11.8944L18.118 12C17.4142 12.3519 16.5858 12.3519 15.8819 12L15.6708 11.8944C15.2485 11.6833 14.7514 11.6833 14.3292 11.8944L14.118 12C13.4142 12.3519 12.5858 12.3519 11.8819 12L11.6708 11.8944C11.2485 11.6833 10.7514 11.6833 10.3292 11.8944L10.118 12C9.41419 12.3519 8.58576 12.3519 7.88194 12L7.67079 11.8944C7.2485 11.6833 6.75144 11.6833 6.32915 11.8944L6.11801 12C5.41419 12.3519 4.58576 12.3519 3.88194 12L3.67079 11.8944C3.2485 11.6833 2.75145 11.6833 2.32915 11.8944L2.11801 12C1.41419 12.3519 0.585759 12.3519 -0.11806 12Z" fill="black"/>
<path d="M5.99997 1.5C5.99997 0.671573 6.67155 0 7.49997 0H13.6937L12.7486 2.83533C12.6699 3.07138 12.7768 3.32937 12.9993 3.44065L18.9826 6.43231C19.8984 6.89018 20.0964 8.11065 19.3725 8.83461L17.9717 9.95731C17.9416 9.97091 17.9117 9.98514 17.8819 10L17.6708 10.1056C17.2485 10.3167 16.7514 10.3167 16.3292 10.1056L16.118 10C15.4142 9.64809 14.5858 9.64809 13.8819 10L13.6708 10.1056C13.2485 10.3167 12.7514 10.3167 12.3292 10.1056L12.118 10C11.4142 9.64809 10.5858 9.64809 9.88194 10L9.67079 10.1056C9.2485 10.3167 8.75144 10.3167 8.32915 10.1056L8.11801 10C7.41419 9.64809 6.58576 9.64809 5.88194 10L5.67079 10.1056C5.2485 10.3167 4.75144 10.3167 4.32915 10.1056L4.11801 10C3.41419 9.64809 2.58576 9.64809 1.88194 10L1.67079 10.1056C1.2485 10.3167 0.751445 10.3167 0.329154 10.1056L-2.59876e-05 9.94098V7H17.8819L12.5521 4.33508C12.0342 4.07615 11.7252 3.55243 11.7227 3H10.5C10.2238 3 9.99997 2.77614 9.99997 2.5C9.99997 2.22386 10.2238 2 10.5 2H11.9729L12.3063 1H7.49997C7.22383 1 6.99997 1.22386 6.99997 1.5V2H8.49997C8.77612 2 8.99997 2.22386 8.99997 2.5C8.99997 2.77614 8.77612 3 8.49997 3H-2.59876e-05V2H5.99997V1.5Z" fill="black"/>
<path d="M3.49997 4.5H-2.59876e-05V5.5H3.49997C3.77612 5.5 3.99997 5.27614 3.99997 5C3.99997 4.72386 3.77612 4.5 3.49997 4.5Z" fill="black"/>
<path d="M4.99997 5C4.99997 4.72386 5.22383 4.5 5.49997 4.5H9.49997C9.77612 4.5 9.99997 4.72386 9.99997 5C9.99997 5.27614 9.77612 5.5 9.49997 5.5H5.49997C5.22383 5.5 4.99997 5.27614 4.99997 5Z" fill="black"/>
</svg>
