<svg width="40" height="40" viewBox="0 0 40 40" fill="none" xmlns="http://www.w3.org/2000/svg">
<path fill-rule="evenodd" clip-rule="evenodd" d="M18.4142 8C17.8619 8 17.4142 8.44772 17.4142 9C17.4142 9.55228 17.8619 10 18.4142 10L20 10L18 12H4V24H32.7639C33.5215 24 34.214 23.572 34.5528 22.8944L35.3553 21.2893C35.7403 20.5194 35.5894 19.5894 34.9807 18.9807L28.5858 12.5858C28.2107 12.2107 27.702 12 27.1716 12H20.8284L23.1213 9.70711C23.4073 9.42111 23.4929 8.99099 23.3381 8.61732C23.1833 8.24364 22.8187 8 22.4142 8H18.4142ZM26.9142 14C26.0233 14 25.5771 15.0771 26.2071 15.7071L27.2071 16.7071C27.3946 16.8946 27.649 17 27.9142 17H28.0858C28.9767 17 29.4229 15.9229 28.7929 15.2929L27.7929 14.2929C27.6054 14.1054 27.351 14 27.0858 14H26.9142ZM4 28H34V26H4V28Z" fill="black"/>
</svg>
