<svg width="40" height="40" viewBox="0 0 40 40" fill="none" xmlns="http://www.w3.org/2000/svg">
<path fill-rule="evenodd" clip-rule="evenodd" d="M18.4142 8C17.8619 8 17.4142 8.44772 17.4142 9C17.4142 9.55228 17.8619 10 18.4142 10L20 10L18 12H7.44183C6.5241 12 5.72413 12.6246 5.50155 13.5149L4.05972 19.2822C3.94393 19.7454 3.99764 20.2347 4.21115 20.6617L5.32749 22.8944C5.66628 23.572 6.3588 24 7.11635 24H32.6442C33.4018 24 34.0943 23.572 34.4331 22.8944L35.5494 20.6617C35.7629 20.2347 35.8166 19.7454 35.7008 19.2822L34.259 13.5149C34.0364 12.6246 33.2365 12 32.3187 12H20.8284L23.1213 9.70711C23.4073 9.42111 23.4929 8.99099 23.3381 8.61732C23.1833 8.24364 22.8187 8 22.4142 8H18.4142ZM29.8803 14C29.328 14 28.8803 14.4477 28.8803 15V17.323C28.8803 17.7319 29.1292 18.0996 29.5089 18.2514L32.0644 19.2737C32.8218 19.5766 33.6038 18.8941 33.4059 18.1026L32.5696 14.7575C32.4584 14.3123 32.0584 14 31.5995 14H29.8803ZM10.8803 15C10.8803 14.4477 10.4326 14 9.88028 14H8.16105C7.70219 14 7.3022 14.3123 7.19091 14.7575L6.35462 18.1026C6.15676 18.8941 6.93873 19.5766 7.69615 19.2737L10.2517 18.2514C10.6313 18.0996 10.8803 17.7319 10.8803 17.323V15ZM13.8803 14C13.328 14 12.8803 14.4477 12.8803 15V17C12.8803 17.5523 13.328 18 13.8803 18H17.8803H21.8803H25.8803C26.4326 18 26.8803 17.5523 26.8803 17V15C26.8803 14.4477 26.4326 14 25.8803 14H21.8803H17.8803H13.8803ZM5.88028 28H33.8803V26H5.88028V28Z" fill="black"/>
</svg>
