<svg width="40" height="40" viewBox="0 0 40 40" fill="none" xmlns="http://www.w3.org/2000/svg">
<path fill-rule="evenodd" clip-rule="evenodd" d="M25 7C25 8.65685 23.6569 10 22 10C20.3431 10 19 8.65685 19 7C19 5.34315 20.3431 4 22 4C23.6569 4 25 5.34315 25 7ZM18.4851 10.5597C18.1666 10.4801 17.8334 10.4801 17.5149 10.5597L13.5149 11.5597C12.9485 11.7013 12.4723 12.0834 12.2112 12.6056L9.21116 18.6056C8.71718 19.5935 9.11763 20.7949 10.1056 21.2889C11.0935 21.7828 12.2949 21.3824 12.7889 20.3944L15.3775 15.2172L16.4679 14.9446L15.5408 20.5068C15.3861 21.4351 15.7166 22.4358 16.4891 23.3105C16.5021 23.3254 16.5154 23.3402 16.5288 23.3549C16.6336 23.4706 16.7461 23.584 16.8663 23.6947L20.3563 27.1847L24.2112 34.8944C24.7051 35.8824 25.9065 36.2828 26.8944 35.7889C27.8824 35.2949 28.2828 34.0935 27.7889 33.1056L23.7889 25.1056C23.6927 24.9133 23.5662 24.7378 23.4142 24.5858L21.2828 22.4543C21.6025 20.6655 21.8992 18.8728 22.196 17.0799L22.196 17.0796L22.2056 17.0219L23.9213 19.2279C24.129 19.495 24.4012 19.705 24.7122 19.8383L28.2122 21.3383C29.2274 21.7734 30.4032 21.3031 30.8383 20.2878C31.2734 19.2726 30.8031 18.0968 29.7878 17.6617L26.762 16.3649L23.5787 12.2721C23.3041 11.919 22.919 11.6682 22.4851 11.5597L18.4851 10.5597ZM17.4907 27.4907L14.5093 24.5093L10.2112 33.1056C9.71718 34.0935 10.1176 35.2949 11.1056 35.7889C12.0935 36.2828 13.2949 35.8824 13.7889 34.8944L17.4907 27.4907Z" fill="black"/>
</svg>
