<svg width="100" height="20" viewBox="0 0 100 20" fill="none" xmlns="http://www.w3.org/2000/svg">
<ellipse cx="11.3541" cy="16.5755" rx="3.02083" ry="3.12604" fill="#37424A"/>
<ellipse cx="88.7499" cy="16.5755" rx="3.02083" ry="3.12604" fill="#37424A"/>
<path d="M0 13.7512C0 6.3215 6.023 0.298508 13.4527 0.298508H86.5473C93.977 0.298508 100 6.3215 100 13.7512V13.7512C100 15.6087 98.4943 17.1144 96.6368 17.1144H3.36318C1.50575 17.1144 0 15.6087 0 13.7512V13.7512Z" fill="#37424A"/>
<path d="M94.375 2.72389H97.6562C98.099 2.72389 98.4611 3.08119 98.488 3.53235H98.4375C98.3224 3.53235 98.2291 3.62887 98.2291 3.74794V6.01162C98.2291 6.13068 98.3224 6.22721 98.4375 6.22721H98.6458C98.7609 6.22721 98.8541 6.13068 98.8541 6.01162V3.74794C98.8541 3.64712 98.7873 3.56245 98.6969 3.53888C98.673 2.96553 98.2162 2.5083 97.6562 2.5083H94.375V2.72389Z" fill="#37424A"/>
<path d="M99.4534 15.7082C98.8902 16.5574 97.9455 17.1144 96.875 17.1144H3.125C1.3991 17.1144 0 15.6666 0 13.8806V13.2338C0 12.649 0.0375112 12.0733 0.110143 11.5091H97.4479C98.1228 12.2851 99.3263 14.0693 99.4534 15.7082Z" fill="#A2AD00"/>
<rect x="10.9375" y="4.93367" width="6.04167" height="4.95854" fill="#EAF7F8"/>
<rect x="39.6874" y="4.93367" width="6.04168" height="4.95854" fill="#EAF7F8"/>
<rect x="68.4374" y="4.93368" width="6.04167" height="4.95854" fill="#EAF7F8"/>
<rect x="18.2293" y="4.93367" width="6.04167" height="4.95854" fill="#EAF7F8"/>
<rect x="46.9792" y="4.93367" width="6.04167" height="4.95854" fill="#EAF7F8"/>
<rect x="75.7292" y="4.93368" width="6.04166" height="4.95854" fill="#EAF7F8"/>
<rect x="25.5207" y="4.93367" width="6.04167" height="4.95854" fill="#EAF7F8"/>
<rect x="54.2707" y="4.93367" width="6.04166" height="4.95854" fill="#EAF7F8"/>
<rect x="83.0209" y="4.93368" width="6.04164" height="4.95854" fill="#EAF7F8"/>
<path d="M90.3124 5.13367C90.3124 5.02321 90.402 4.93367 90.5124 4.93367H94.2045C95.0033 4.93367 95.7254 5.40896 96.0414 6.1426L97.536 9.6131C97.5928 9.74512 97.496 9.89221 97.3523 9.89221H90.5124C90.402 9.89221 90.3124 9.80267 90.3124 9.69221V5.13367Z" fill="#EAF7F8"/>
<rect x="61.5624" y="0.298508" width="5.62501" height="16.8159" fill="#AFB3B7"/>
<rect x="32.8125" y="0.298508" width="5.625" height="16.8159" fill="#AFB3B7"/>
<ellipse cx="98.5937" cy="11.7786" rx="0.260415" ry="0.269488" fill="#E4D700"/>
</svg>
