<svg width="20" height="20" viewBox="0 0 20 20" fill="none" xmlns="http://www.w3.org/2000/svg">
<path fill-rule="evenodd" clip-rule="evenodd" d="M12.3431 5H0V14H17.4648C17.7992 14 18.1114 13.8329 18.2969 13.5547L19.0905 12.3642C19.6193 11.571 19.5147 10.5148 18.8406 9.84062L15.1716 6.17157C14.4214 5.42143 13.404 5 12.3431 5ZM13.7071 7C13.2617 7 13.0386 7.53857 13.3536 7.85355L13.8536 8.35355C13.9473 8.44732 14.0745 8.5 14.2071 8.5H14.7929C15.2383 8.5 15.4614 7.96143 15.1464 7.64645L14.6464 7.14645C14.5527 7.05268 14.4255 7 14.2929 7H13.7071Z" fill="black"/>
<path d="M0 15H18V16H0V15Z" fill="black"/>
<path fill-rule="evenodd" clip-rule="evenodd" d="M8.5 3.5C8.5 3.22386 8.72386 3 9 3H12C12.2022 3 12.3845 3.12182 12.4619 3.30866C12.5393 3.4955 12.4966 3.71055 12.3536 3.85355L10.3536 5.85355C10.1583 6.04882 9.84171 6.04882 9.64645 5.85355C9.45118 5.65829 9.45118 5.34171 9.64645 5.14645L10.7929 4H9C8.72386 4 8.5 3.77614 8.5 3.5Z" fill="black"/>
</svg>
