<svg width="20" height="20" viewBox="0 0 20 20" fill="none"
  xmlns="http://www.w3.org/2000/svg">
  <path d="M7 2H13L18 7V13L13 18H7L2 13V7L7 2Z" fill="#F7F3B2"/>
  <path fill-rule="evenodd" clip-rule="evenodd" d="M6.29289 1.29289C6.48043 1.10536 6.73478 1 7 1H13C13.2652 1 13.5196 1.10536 13.7071 1.29289L18.7071 6.29289C18.8946 6.48043 19 6.73478 19 7V13C19 13.2652 18.8946 13.5196 18.7071 13.7071L13.7071 18.7071C13.5196 18.8946 13.2652 19 13 19H7C6.73478 19 6.48043 18.8946 6.29289 18.7071L1.29289 13.7071C1.10536 13.5196 1 13.2652 1 13V7C1 6.73478 1.10536 6.48043 1.29289 6.29289L6.29289 1.29289ZM7.41421 3L3 7.41421V12.5858L7.41421 17H12.5858L17 12.5858V7.41421L12.5858 3H7.41421Z" fill="#E4D700"/>
  <path d="M9 6V11H11V6H9Z" fill="black"/>
  <path d="M11 12H9V14H11V12Z" fill="black"/>
</svg>
