<svg width="20" height="20" viewBox="0 0 20 20" fill="none" xmlns="http://www.w3.org/2000/svg">
    <mask id="path-1-outside-1" maskUnits="userSpaceOnUse" x="3" y="1" width="14" height="19" fill="black">
        <rect fill="white" x="3" y="1" width="14" height="19" />
        <path fill-rule="evenodd" clip-rule="evenodd"
            d="M16 8C16 13.3137 10 18 10 18C10 18 4 13.3137 4 8C4 4.68629 6.68629 2 10 2C13.3137 2 16 4.68629 16 8ZM10 9.5C10.8284 9.5 11.5 8.82843 11.5 8C11.5 7.17157 10.8284 6.5 10 6.5C9.17157 6.5 8.5 7.17157 8.5 8C8.5 8.82843 9.17157 9.5 10 9.5Z" />
    </mask>
    <path fill-rule="evenodd" clip-rule="evenodd"
        d="M16 8C16 13.3137 10 18 10 18C10 18 4 13.3137 4 8C4 4.68629 6.68629 2 10 2C13.3137 2 16 4.68629 16 8ZM10 9.5C10.8284 9.5 11.5 8.82843 11.5 8C11.5 7.17157 10.8284 6.5 10 6.5C9.17157 6.5 8.5 7.17157 8.5 8C8.5 8.82843 9.17157 9.5 10 9.5Z"
        fill="#71D6E0" />
    <path
        d="M10 18L9.38445 18.7881L10 19.2689L10.6155 18.7881L10 18ZM10 18C10.6155 18.7881 10.6158 18.7879 10.616 18.7877C10.6162 18.7876 10.6164 18.7874 10.6167 18.7872C10.6171 18.7869 10.6177 18.7864 10.6183 18.7859C10.6196 18.7849 10.6213 18.7836 10.6233 18.782C10.6274 18.7788 10.6328 18.7745 10.6397 18.769C10.6534 18.7581 10.6726 18.7427 10.6971 18.7229C10.7459 18.6833 10.8155 18.6261 10.9029 18.5523C11.0776 18.4048 11.3239 18.1906 11.618 17.9175C12.2048 17.3725 12.9884 16.5873 13.7744 15.6254C15.3182 13.736 17 11.0091 17 8H15C15 10.3046 13.6818 12.5777 12.2256 14.3599C11.5116 15.2338 10.7952 15.9522 10.257 16.452C9.98857 16.7013 9.76611 16.8946 9.61269 17.0242C9.53603 17.0889 9.47673 17.1376 9.43769 17.1692C9.41818 17.185 9.40374 17.1966 9.39475 17.2037C9.39025 17.2073 9.38711 17.2098 9.38538 17.2112C9.38451 17.2118 9.384 17.2123 9.38385 17.2124C9.38377 17.2124 9.38378 17.2124 9.38388 17.2123C9.38393 17.2123 9.38407 17.2122 9.3841 17.2122C9.38427 17.212 9.38445 17.2119 10 18ZM3 8C3 11.0091 4.68183 13.736 6.22563 15.6254C7.0116 16.5873 7.79519 17.3725 8.38202 17.9175C8.67607 18.1906 8.92236 18.4048 9.09707 18.5523C9.18446 18.6261 9.25407 18.6833 9.30293 18.7229C9.32736 18.7427 9.34662 18.7581 9.36032 18.769C9.36718 18.7745 9.37265 18.7788 9.37668 18.782C9.3787 18.7836 9.38036 18.7849 9.38166 18.7859C9.38231 18.7864 9.38287 18.7869 9.38333 18.7872C9.38356 18.7874 9.38385 18.7876 9.38396 18.7877C9.38422 18.7879 9.38445 18.7881 10 18C10.6155 17.2119 10.6157 17.212 10.6159 17.2122C10.6159 17.2122 10.6161 17.2123 10.6161 17.2123C10.6162 17.2124 10.6162 17.2124 10.6162 17.2124C10.616 17.2123 10.6155 17.2118 10.6146 17.2112C10.6129 17.2098 10.6098 17.2073 10.6053 17.2037C10.5963 17.1966 10.5818 17.185 10.5623 17.1692C10.5233 17.1376 10.464 17.0889 10.3873 17.0242C10.2339 16.8946 10.0114 16.7013 9.74298 16.452C9.20481 15.9522 8.4884 15.2338 7.77437 14.3599C6.31817 12.5777 5 10.3046 5 8H3ZM10 1C6.13401 1 3 4.13401 3 8H5C5 5.23858 7.23858 3 10 3V1ZM17 8C17 4.13401 13.866 1 10 1V3C12.7614 3 15 5.23858 15 8H17ZM10.5 8C10.5 8.27614 10.2761 8.5 10 8.5V10.5C11.3807 10.5 12.5 9.38071 12.5 8H10.5ZM10 7.5C10.2761 7.5 10.5 7.72386 10.5 8H12.5C12.5 6.61929 11.3807 5.5 10 5.5V7.5ZM9.5 8C9.5 7.72386 9.72386 7.5 10 7.5V5.5C8.61929 5.5 7.5 6.61929 7.5 8H9.5ZM10 8.5C9.72386 8.5 9.5 8.27614 9.5 8H7.5C7.5 9.38071 8.61929 10.5 10 10.5V8.5Z"
        fill="white" mask="url(#path-1-outside-1)" />
</svg>