<svg width="28" height="37" viewBox="0 0 28 37" fill="none" xmlns="http://www.w3.org/2000/svg">
    <path
        d="M10.764 33.835C9.59037 32.7451 8.02319 31.1746 6.45126 29.2507C3.36366 25.472 0 20.0182 0 14C0 6.26801 6.26801 0 14 0C21.732 0 28 6.26801 28 14C28 20.0182 24.6363 25.472 21.5487 29.2507C19.9768 31.1746 18.4096 32.7451 17.236 33.835C16.0623 34.9249 14 36.5377 14 36.5377C14 36.5377 11.9377 34.9249 10.764 33.835Z"
        fill="white" />
    <path fill-rule="evenodd" clip-rule="evenodd"
        d="M14 34C14 34 26 24.6274 26 14C26 7.37258 20.6274 2 14 2C7.37258 2 2 7.37258 2 14C2 24.6274 14 34 14 34Z"
        fill="#878E92" />
    <path
        d="M10.2812 11.8125H12.1172C12.1797 10.8438 12.8281 10.2266 13.8359 10.2266C14.8203 10.2266 15.4766 10.8281 15.4766 11.6562C15.4766 12.4297 15.1484 12.8516 14.1797 13.4375C13.1016 14.0703 12.6484 14.7734 12.7188 15.9297L12.7266 16.4844H14.5391V16.0312C14.5391 15.25 14.8281 14.8438 15.8516 14.25C16.9141 13.6172 17.5078 12.7812 17.5078 11.5859C17.5078 9.86719 16.0781 8.63281 13.9375 8.63281C11.6172 8.63281 10.3438 9.97656 10.2812 11.8125ZM13.7188 20.1953C14.5156 20.1953 15.0156 19.7109 15.0156 18.9688C15.0156 18.2188 14.5156 17.7344 13.7188 17.7344C12.9375 17.7344 12.4219 18.2188 12.4219 18.9688C12.4219 19.7109 12.9375 20.1953 13.7188 20.1953Z"
        fill="white" />
</svg>