<svg width="28" height="37" viewBox="0 0 28 37" fill="none" xmlns="http://www.w3.org/2000/svg">
    <path
        d="M10.764 33.835C9.59037 32.7451 8.02319 31.1746 6.45126 29.2507C3.36366 25.472 0 20.0182 0 14C0 6.26801 6.26801 0 14 0C21.732 0 28 6.26801 28 14C28 20.0182 24.6363 25.472 21.5487 29.2507C19.9768 31.1746 18.4096 32.7451 17.236 33.835C16.0623 34.9249 14 36.5377 14 36.5377C14 36.5377 11.9377 34.9249 10.764 33.835Z"
        fill="white" />
    <path fill-rule="evenodd" clip-rule="evenodd"
        d="M14 34C14 34 26 24.6274 26 14C26 7.37258 20.6274 2 14 2C7.37258 2 2 7.37258 2 14C2 24.6274 14 34 14 34Z"
        fill="#37424A" />
    <path fill-rule="evenodd" clip-rule="evenodd"
        d="M21.2071 9.29289C21.5976 9.68342 21.5976 10.3166 21.2071 10.7071L13.2071 18.7071C12.8166 19.0976 12.1834 19.0976 11.7929 18.7071L7.79289 14.7071C7.40237 14.3166 7.40237 13.6834 7.79289 13.2929C8.18342 12.9024 8.81658 12.9024 9.20711 13.2929L12.5 16.5858L19.7929 9.29289C20.1834 8.90237 20.8166 8.90237 21.2071 9.29289Z"
        fill="white" />
</svg>