<svg width="104" height="78" viewBox="0 0 104 78" fill="none" xmlns="http://www.w3.org/2000/svg">
    <path d="M0 8C0 3.58172 3.58172 0 8 0H96C100.418 0 104 3.58172 104 8V70C104 74.4183 100.418 78 96 78H8C3.58172 78 0 74.4183 0 70V8Z"
          fill="white"/>
    <path fill-rule="evenodd" clip-rule="evenodd"
          d="M96 2H8C4.68629 2 2 4.68629 2 8V70C2 73.3137 4.68629 76 8 76H96C99.3137 76 102 73.3137 102 70V8C102 4.68629 99.3137 2 96 2ZM8 0C3.58172 0 0 3.58172 0 8V70C0 74.4183 3.58172 78 8 78H96C100.418 78 104 74.4183 104 70V8C104 3.58172 100.418 0 96 0H8Z"
          fill="black"/>
    <path fill-rule="evenodd" clip-rule="evenodd"
          d="M92 35H62L62 65H92V35ZM62 33C60.8954 33 60 33.8954 60 35V65C60 66.1046 60.8954 67 62 67H92C93.1046 67 94 66.1046 94 65V35C94 33.8954 93.1046 33 92 33H62Z"
          fill="black"/>
    <path d="M68.8945 59.9141C69.0273 59.9141 69.1562 59.8984 69.2891 59.875V59.2969C69.1641 59.3086 69.0977 59.3125 68.9766 59.3125C68.5391 59.3125 68.3672 59.1133 68.3672 58.6172V56.2344H69.2891V55.6719H68.3672V54.582H67.6641V55.6719H67V56.2344H67.6641V58.7891C67.6641 59.5938 68.0273 59.9141 68.8945 59.9141Z"
          fill="black"/>
    <path d="M70.8594 56.8984C71.1406 56.8984 71.3672 56.668 71.3672 56.3906C71.3672 56.1094 71.1406 55.8828 70.8594 55.8828C70.582 55.8828 70.3516 56.1094 70.3516 56.3906C70.3516 56.668 70.582 56.8984 70.8594 56.8984ZM70.8594 59.9219C71.1406 59.9219 71.3672 59.6914 71.3672 59.4141C71.3672 59.1328 71.1406 58.9062 70.8594 58.9062C70.582 58.9062 70.3516 59.1328 70.3516 59.4141C70.3516 59.6914 70.582 59.9219 70.8594 59.9219Z"
          fill="black"/>
    <path d="M72.7188 59.8828H73.3984V58.2852L73.793 57.9023L75.3711 59.8828H76.2266L74.2695 57.4414L76.1055 55.6719H75.2812L73.4609 57.5117H73.3984V54H72.7188V59.8828Z"
          fill="black"/>
    <path d="M78.5586 59.957C79.7578 59.957 80.5 59.1289 80.5 57.7812V57.7734C80.5 56.4219 79.7578 55.5977 78.5586 55.5977C77.3594 55.5977 76.6172 56.4219 76.6172 57.7734V57.7812C76.6172 59.1289 77.3594 59.957 78.5586 59.957ZM78.5586 59.3555C77.7617 59.3555 77.3125 58.7734 77.3125 57.7812V57.7734C77.3125 56.7773 77.7617 56.1992 78.5586 56.1992C79.3555 56.1992 79.8047 56.7773 79.8047 57.7734V57.7812C79.8047 58.7734 79.3555 59.3555 78.5586 59.3555Z"
          fill="black"/>
    <path d="M81.5547 59.8828H82.2344V57.2734C82.2344 56.6562 82.6953 56.2461 83.3438 56.2461C83.4922 56.2461 83.6211 56.2617 83.7617 56.2852V55.625C83.6953 55.6133 83.5508 55.5977 83.4219 55.5977C82.8516 55.5977 82.457 55.8555 82.2969 56.2969H82.2344V55.6719H81.5547V59.8828Z"
          fill="black"/>
    <path d="M86.332 59.9141C86.4648 59.9141 86.5938 59.8984 86.7266 59.875V59.2969C86.6016 59.3086 86.5352 59.3125 86.4141 59.3125C85.9766 59.3125 85.8047 59.1133 85.8047 58.6172V56.2344H86.7266V55.6719H85.8047V54.582H85.1016V55.6719H84.4375V56.2344H85.1016V58.7891C85.1016 59.5938 85.4648 59.9141 86.332 59.9141Z"
          fill="black"/>
</svg>
