<svg width="66" height="120" viewBox="0 0 66 120" fill="none" xmlns="http://www.w3.org/2000/svg">
    <path d="M0 8C0 3.58172 3.47638 0 7.76471 0H58.2353C62.5236 0 66 3.58172 66 8V112C66 116.418 62.5236 120 58.2353 120H7.76471C3.47638 120 0 116.418 0 112V8Z"
          fill="white"/>
    <path fill-rule="evenodd" clip-rule="evenodd"
          d="M58.2353 2H7.76471C4.54846 2 1.94118 4.68629 1.94118 8V112C1.94118 115.314 4.54846 118 7.76471 118H58.2353C61.4515 118 64.0588 115.314 64.0588 112V8C64.0588 4.68629 61.4515 2 58.2353 2ZM7.76471 0C3.47638 0 0 3.58172 0 8V112C0 116.418 3.47638 120 7.76471 120H58.2353C62.5236 120 66 116.418 66 112V8C66 3.58172 62.5236 0 58.2353 0H7.76471Z"
          fill="black"/>
    <path fill-rule="evenodd" clip-rule="evenodd" d="M66 18H0V16H66V18Z" fill="black"/>
    <path fill-rule="evenodd" clip-rule="evenodd" d="M66 103H0V101H66V103Z" fill="black"/>
    <path fill-rule="evenodd" clip-rule="evenodd"
          d="M27.1765 9C27.1765 8.44772 27.6111 8 28.1471 8H37.853C38.389 8 38.8236 8.44772 38.8236 9C38.8236 9.55228 38.389 10 37.853 10H28.1471C27.6111 10 27.1765 9.55228 27.1765 9Z"
          fill="black"/>
</svg>
